<svg width="218" height="50" viewBox="0 0 218 50" fill="none" xmlns="http://www.w3.org/2000/svg">
<rect width="218" height="50" rx="15" fill="#80E2FF"/>
<path d="M47.3477 30.8C44.3743 31.0667 41.9077 31.2 39.9477 31.2C38.641 31.2 37.681 30.8933 37.0677 30.28C36.4543 29.6667 36.1477 28.7067 36.1477 27.4V21C36.1477 19.6 36.461 18.5867 37.0877 17.96C37.7277 17.32 38.7477 17 40.1477 17H47.3477V19.8H40.9477C40.1477 19.8 39.7477 20.2 39.7477 21V27.4C39.7477 27.7067 39.8343 27.9533 40.0077 28.14C40.1943 28.3133 40.4277 28.4 40.7077 28.4C40.9877 28.4 41.2943 28.4 41.6277 28.4C41.961 28.3867 42.3077 28.3733 42.6677 28.36C43.0277 28.3467 43.3877 28.3333 43.7477 28.32C44.121 28.3067 44.5943 28.28 45.1677 28.24C45.7543 28.2 46.481 28.1533 47.3477 28.1V30.8ZM59.55 28C59.55 29 59.2633 29.7867 58.69 30.36C58.13 30.92 57.35 31.2 56.35 31.2H51.75C50.75 31.2 49.9633 30.92 49.39 30.36C48.83 29.7867 48.55 29 48.55 28V23.4C48.55 22.4 48.83 21.62 49.39 21.06C49.9633 20.4867 50.75 20.2 51.75 20.2H56.35C57.35 20.2 58.13 20.4867 58.69 21.06C59.2633 21.62 59.55 22.4 59.55 23.4V28ZM56.05 23.7C56.05 23.1667 55.7833 22.9 55.25 22.9H52.85C52.3167 22.9 52.05 23.1667 52.05 23.7V27.7C52.05 28.2333 52.3167 28.5 52.85 28.5H55.25C55.7833 28.5 56.05 28.2333 56.05 27.7V23.7ZM67.2477 23.1C66.541 23.1 65.741 23.2333 64.8477 23.5V31H61.3477V20.4H64.4477L64.6477 21.4C65.2743 20.9867 65.9143 20.6867 66.5677 20.5C67.2343 20.3 67.7943 20.2 68.2477 20.2H69.1477C70.0543 20.2 70.781 20.4733 71.3277 21.02C71.8743 21.5667 72.1477 22.2933 72.1477 23.2V31H68.6477V23.8C68.6477 23.6 68.581 23.4333 68.4477 23.3C68.3143 23.1667 68.1477 23.1 67.9477 23.1H67.2477ZM81.3453 31C80.052 31.1333 78.7853 31.2 77.5453 31.2C76.6386 31.2 75.912 30.9267 75.3653 30.38C74.8186 29.8333 74.5453 29.1067 74.5453 28.2V23.1H73.3453V20.4H74.5453L74.9453 18H78.0453V20.4H80.5453V23.1H78.0453V27.7C78.0453 27.9 78.112 28.0667 78.2453 28.2C78.3786 28.3333 78.5453 28.4 78.7453 28.4H81.3453V31ZM88.8539 23.3C88.0139 23.3 87.1472 23.5 86.2539 23.9V31H82.7539V20.4H85.8539L86.0539 21.7C87.2006 20.7 88.4006 20.2 89.6539 20.2H90.5539V23.3H88.8539ZM95.3523 28.4C96.059 28.4 96.859 28.2667 97.7523 28V26.8H94.8523C94.6523 26.8 94.4857 26.8667 94.3523 27C94.219 27.1333 94.1523 27.3 94.1523 27.5V27.7C94.1523 27.9 94.219 28.0667 94.3523 28.2C94.4857 28.3333 94.6523 28.4 94.8523 28.4H95.3523ZM91.6523 20.6C94.0923 20.3333 96.2923 20.2 98.2523 20.2C99.159 20.2 99.8857 20.4733 100.432 21.02C100.979 21.5667 101.252 22.2933 101.252 23.2V31H98.1523L97.9523 30C97.3257 30.4133 96.679 30.72 96.0123 30.92C95.359 31.1067 94.8057 31.2 94.3523 31.2H93.6523C92.7457 31.2 92.019 30.9267 91.4723 30.38C90.9257 29.8333 90.6523 29.1067 90.6523 28.2V27.3C90.6523 26.3933 90.9257 25.6667 91.4723 25.12C92.019 24.5733 92.7457 24.3 93.6523 24.3H97.7523V23.5C97.7523 23.3 97.6857 23.1333 97.5523 23C97.419 22.8667 97.2523 22.8 97.0523 22.8C96.1857 22.8 95.2257 22.84 94.1723 22.92C93.1323 23 92.2923 23.06 91.6523 23.1V20.6ZM112.447 30.8C109.954 31.0667 107.754 31.2 105.847 31.2C104.94 31.2 104.214 30.9267 103.667 30.38C103.12 29.8333 102.847 29.1067 102.847 28.2V23.6C102.847 22.6 103.127 21.82 103.687 21.26C104.26 20.6867 105.047 20.4 106.047 20.4H112.447V23.1H107.147C106.614 23.1 106.347 23.3667 106.347 23.9V27.8C106.347 28 106.414 28.1667 106.547 28.3C106.68 28.4333 106.847 28.5 107.047 28.5C108.247 28.5 110.047 28.4 112.447 28.2V30.8ZM121.443 31C120.15 31.1333 118.883 31.2 117.643 31.2C116.736 31.2 116.01 30.9267 115.463 30.38C114.916 29.8333 114.643 29.1067 114.643 28.2V23.1H113.443V20.4H114.643L115.043 18H118.143V20.4H120.643V23.1H118.143V27.7C118.143 27.9 118.21 28.0667 118.343 28.2C118.476 28.3333 118.643 28.4 118.843 28.4H121.443V31ZM131.548 31H127.648L132.948 17H136.948L142.248 31H138.348L137.448 28.5H132.448L131.548 31ZM133.348 25.9H136.548L134.948 21.2L133.348 25.9ZM147.947 28.3C148.654 28.3 149.454 28.1667 150.347 27.9V20.4H153.847V31H150.747L150.547 30C149.92 30.4133 149.274 30.72 148.607 30.92C147.954 31.1067 147.4 31.2 146.947 31.2H146.047C145.14 31.2 144.414 30.9267 143.867 30.38C143.32 29.8333 143.047 29.1067 143.047 28.2V20.4H146.547V27.6C146.547 27.8 146.614 27.9667 146.747 28.1C146.88 28.2333 147.047 28.3 147.247 28.3H147.947ZM163.34 31L163.14 30C162.513 30.4133 161.867 30.72 161.2 30.92C160.547 31.1067 159.993 31.2 159.54 31.2H158.64C157.733 31.2 157.007 30.9267 156.46 30.38C155.913 29.8333 155.64 29.1067 155.64 28.2V23.6C155.64 22.6 155.92 21.82 156.48 21.26C157.053 20.6867 157.84 20.4 158.84 20.4H162.94V17H166.44V31H163.34ZM160.54 28.3C161.247 28.3 162.047 28.1667 162.94 27.9V23.1H159.94C159.407 23.1 159.14 23.3667 159.14 23.9V27.6C159.14 27.8 159.207 27.9667 159.34 28.1C159.473 28.2333 159.64 28.3 159.84 28.3H160.54ZM172.838 20.8V31H169.338V23.5H167.838V20.8H172.838ZM169.338 16.8H172.838V19.6H169.338V16.8ZM182.244 31C180.95 31.1333 179.684 31.2 178.444 31.2C177.537 31.2 176.81 30.9267 176.264 30.38C175.717 29.8333 175.444 29.1067 175.444 28.2V23.1H174.244V20.4H175.444L175.844 18H178.944V20.4H181.444V23.1H178.944V27.7C178.944 27.9 179.01 28.0667 179.144 28.2C179.277 28.3333 179.444 28.4 179.644 28.4H182.244V31Z" fill="black"/>
</svg>
