<svg width="218" height="48" viewBox="0 0 218 48" fill="none" xmlns="http://www.w3.org/2000/svg">
<rect width="218" height="48" rx="15" fill="#80E2FF"/>
<path d="M29.6563 26.4C29.6563 27.7067 29.3496 28.6667 28.7363 29.28C28.1229 29.8933 27.1763 30.2 25.8963 30.2C24.6296 30.2 23.2829 30.1333 21.8563 30V27.3C22.8963 27.3667 23.9629 27.4 25.0563 27.4C25.3629 27.4 25.6029 27.3133 25.7763 27.14C25.9629 26.9533 26.0563 26.7067 26.0563 26.4V18.8H23.4563V16H29.6563V26.4ZM42.6555 27C42.6555 28 42.3688 28.7867 41.7955 29.36C41.2355 29.92 40.4555 30.2 39.4555 30.2H34.8555C33.8555 30.2 33.0688 29.92 32.4955 29.36C31.9355 28.7867 31.6555 28 31.6555 27V22.4C31.6555 21.4 31.9355 20.62 32.4955 20.06C33.0688 19.4867 33.8555 19.2 34.8555 19.2H39.4555C40.4555 19.2 41.2355 19.4867 41.7955 20.06C42.3688 20.62 42.6555 21.4 42.6555 22.4V27ZM39.1555 22.7C39.1555 22.1667 38.8888 21.9 38.3555 21.9H35.9555C35.4221 21.9 35.1555 22.1667 35.1555 22.7V26.7C35.1555 27.2333 35.4221 27.5 35.9555 27.5H38.3555C38.8888 27.5 39.1555 27.2333 39.1555 26.7V22.7ZM48.8531 19.8V30H45.3531V22.5H43.8531V19.8H48.8531ZM45.3531 15.8H48.8531V18.6H45.3531V15.8ZM56.7594 22.1C56.0527 22.1 55.2527 22.2333 54.3594 22.5V30H50.8594V19.4H53.9594L54.1594 20.4C54.786 19.9867 55.426 19.6867 56.0794 19.5C56.746 19.3 57.306 19.2 57.7594 19.2H58.6594C59.566 19.2 60.2927 19.4733 60.8394 20.02C61.386 20.5667 61.6594 21.2933 61.6594 22.2V30H58.1594V22.8C58.1594 22.6 58.0927 22.4333 57.9594 22.3C57.826 22.1667 57.6594 22.1 57.4594 22.1H56.7594ZM69.6531 16H78.0531C79.4531 16 80.4665 16.32 81.0931 16.96C81.7331 17.5867 82.0531 18.6 82.0531 20V22C82.0531 23.4 81.7331 24.42 81.0931 25.06C80.4665 25.6867 79.4531 26 78.0531 26H73.2531V30H69.6531V16ZM78.4531 20C78.4531 19.2 78.0531 18.8 77.2531 18.8H73.2531V23.2H77.2531C78.0531 23.2 78.4531 22.8 78.4531 22V20ZM89.7523 22.3C88.9123 22.3 88.0457 22.5 87.1523 22.9V30H83.6523V19.4H86.7523L86.9523 20.7C88.099 19.7 89.299 19.2 90.5523 19.2H91.4523V22.3H89.7523ZM96.5609 21.7C96.0276 21.7 95.7609 21.9667 95.7609 22.5V23.6H99.1609V22.5C99.1609 21.9667 98.8943 21.7 98.3609 21.7H96.5609ZM102.261 29.8C99.6876 30.0667 97.3543 30.2 95.2609 30.2C94.3543 30.2 93.6276 29.9267 93.0809 29.38C92.5343 28.8333 92.2609 28.1067 92.2609 27.2V22.4C92.2609 21.4 92.5409 20.62 93.1009 20.06C93.6743 19.4867 94.4609 19.2 95.4609 19.2H99.4609C100.461 19.2 101.241 19.4867 101.801 20.06C102.374 20.62 102.661 21.4 102.661 22.4V26.1H95.7609V26.9C95.7609 27.1 95.8276 27.2667 95.9609 27.4C96.0943 27.5333 96.2609 27.6 96.4609 27.6C97.7809 27.6 99.7143 27.5 102.261 27.3V29.8ZM104.053 27.2C106.76 27.4 108.893 27.5 110.453 27.5C110.653 27.5 110.82 27.4333 110.953 27.3C111.086 27.1667 111.153 27 111.153 26.8V26.1H106.853C105.946 26.1 105.22 25.8267 104.673 25.28C104.126 24.7333 103.853 24.0067 103.853 23.1V22.4C103.853 21.4933 104.126 20.7667 104.673 20.22C105.22 19.6733 105.946 19.4 106.853 19.4H113.653V22H108.053C107.853 22 107.686 22.0667 107.553 22.2C107.42 22.3333 107.353 22.5 107.353 22.7C107.353 22.9 107.42 23.0667 107.553 23.2C107.686 23.3333 107.853 23.4 108.053 23.4H111.653C112.56 23.4 113.286 23.6733 113.833 24.22C114.38 24.7667 114.653 25.4933 114.653 26.4V27.2C114.653 28.1067 114.38 28.8333 113.833 29.38C113.286 29.9267 112.56 30.2 111.653 30.2C109.293 30.2 106.76 30.0667 104.053 29.8V27.2ZM120.255 27.4C120.961 27.4 121.761 27.2667 122.655 27V25.8H119.755C119.555 25.8 119.388 25.8667 119.255 26C119.121 26.1333 119.055 26.3 119.055 26.5V26.7C119.055 26.9 119.121 27.0667 119.255 27.2C119.388 27.3333 119.555 27.4 119.755 27.4H120.255ZM116.555 19.6C118.995 19.3333 121.195 19.2 123.155 19.2C124.061 19.2 124.788 19.4733 125.335 20.02C125.881 20.5667 126.155 21.2933 126.155 22.2V30H123.055L122.855 29C122.228 29.4133 121.581 29.72 120.915 29.92C120.261 30.1067 119.708 30.2 119.255 30.2H118.555C117.648 30.2 116.921 29.9267 116.375 29.38C115.828 28.8333 115.555 28.1067 115.555 27.2V26.3C115.555 25.3933 115.828 24.6667 116.375 24.12C116.921 23.5733 117.648 23.3 118.555 23.3H122.655V22.5C122.655 22.3 122.588 22.1333 122.455 22C122.321 21.8667 122.155 21.8 121.955 21.8C121.088 21.8 120.128 21.84 119.075 21.92C118.035 22 117.195 22.06 116.555 22.1V19.6ZM133.349 30C132.456 30.1333 131.603 30.2 130.789 30.2C129.989 30.2 129.316 29.9267 128.769 29.38C128.223 28.8333 127.949 28.1067 127.949 27.2V16H131.449V26.7C131.449 26.9 131.516 27.0667 131.649 27.2C131.783 27.3333 131.949 27.4 132.149 27.4H133.349V30ZM138.846 21.7C138.313 21.7 138.046 21.9667 138.046 22.5V23.6H141.446V22.5C141.446 21.9667 141.179 21.7 140.646 21.7H138.846ZM144.546 29.8C141.973 30.0667 139.639 30.2 137.546 30.2C136.639 30.2 135.913 29.9267 135.366 29.38C134.819 28.8333 134.546 28.1067 134.546 27.2V22.4C134.546 21.4 134.826 20.62 135.386 20.06C135.959 19.4867 136.746 19.2 137.746 19.2H141.746C142.746 19.2 143.526 19.4867 144.086 20.06C144.659 20.62 144.946 21.4 144.946 22.4V26.1H138.046V26.9C138.046 27.1 138.113 27.2667 138.246 27.4C138.379 27.5333 138.546 27.6 138.746 27.6C140.066 27.6 141.999 27.5 144.546 27.3V29.8ZM165.134 30H161.334L156.534 21.6V30H152.934V16H156.734L161.534 24.4V16H165.134V30ZM178.144 27C178.144 28 177.857 28.7867 177.284 29.36C176.724 29.92 175.944 30.2 174.944 30.2H170.344C169.344 30.2 168.557 29.92 167.984 29.36C167.424 28.7867 167.144 28 167.144 27V22.4C167.144 21.4 167.424 20.62 167.984 20.06C168.557 19.4867 169.344 19.2 170.344 19.2H174.944C175.944 19.2 176.724 19.4867 177.284 20.06C177.857 20.62 178.144 21.4 178.144 22.4V27ZM174.644 22.7C174.644 22.1667 174.377 21.9 173.844 21.9H171.444C170.91 21.9 170.644 22.1667 170.644 22.7V26.7C170.644 27.2333 170.91 27.5 171.444 27.5H173.844C174.377 27.5 174.644 27.2333 174.644 26.7V22.7ZM190.946 25.8L192.746 19.4H196.546L193.246 30H189.546L187.546 23.6L185.546 30H181.846L178.546 19.4H182.346L184.146 25.8L185.946 19.4H189.146L190.946 25.8Z" fill="black"/>
</svg>
