<svg width="218" height="48" viewBox="0 0 218 48" fill="none" xmlns="http://www.w3.org/2000/svg">
<rect x="0.5" y="0.5" width="217" height="47" rx="14.5" fill="black"/>
<rect x="0.5" y="0.5" width="217" height="47" rx="14.5" stroke="black"/>
<path d="M43.7059 16H51.7059C53.0125 16 53.9725 16.3 54.5859 16.9C55.1992 17.4867 55.5059 18.3867 55.5059 19.6C55.5059 20.4 55.3325 21.0533 54.9859 21.56C54.6392 22.0533 54.2125 22.4 53.7059 22.6C54.7859 22.8933 55.5192 23.6133 55.9059 24.76C56.0392 25.1733 56.1059 25.6533 56.1059 26.2C56.1059 27.5067 55.7992 28.4667 55.1859 29.08C54.5725 29.6933 53.6125 30 52.3059 30H43.7059V16ZM52.5059 25.6C52.5059 24.8 52.1059 24.4 51.3059 24.4H47.3059V27.2H51.3059C52.1059 27.2 52.5059 26.8 52.5059 26V25.6ZM51.9059 20C51.9059 19.2 51.5059 18.8 50.7059 18.8H47.3059V21.6H50.7059C51.5059 21.6 51.9059 21.2 51.9059 20.4V20ZM62.6051 27.3C63.3117 27.3 64.1117 27.1667 65.0051 26.9V19.4H68.5051V30H65.4051L65.2051 29C64.5784 29.4133 63.9317 29.72 63.2651 29.92C62.6117 30.1067 62.0584 30.2 61.6051 30.2H60.7051C59.7984 30.2 59.0717 29.9267 58.5251 29.38C57.9784 28.8333 57.7051 28.1067 57.7051 27.2V19.4H61.2051V26.6C61.2051 26.8 61.2717 26.9667 61.4051 27.1C61.5384 27.2333 61.7051 27.3 61.9051 27.3H62.6051ZM73.298 33.6C72.5914 33.6 71.7247 33.5333 70.698 33.4V30.8H72.498C73.0047 30.8 73.3314 30.66 73.478 30.38C73.638 30.1 73.6114 29.7067 73.398 29.2L69.298 19.4H72.998L75.498 26.2L77.598 19.4H81.298L77.298 30.4C76.9114 31.4533 76.4114 32.2467 75.798 32.78C75.1847 33.3267 74.3514 33.6 73.298 33.6ZM87.6804 27.1C90.7737 27.3 92.9737 27.4 94.2804 27.4C94.5871 27.4 94.8271 27.3133 95.0004 27.14C95.1871 26.9533 95.2804 26.7067 95.2804 26.4V24.4H91.5004C90.1004 24.4 89.0804 24.0867 88.4404 23.46C87.8137 22.82 87.5004 21.8 87.5004 20.4V20C87.5004 18.6 87.8137 17.5867 88.4404 16.96C89.0804 16.32 90.1004 16 91.5004 16H91.9004L91.7004 14.2H94.7004L94.5004 16H97.7004V18.8H92.3004C91.5004 18.8 91.1004 19.2 91.1004 20V20.4C91.1004 21.2 91.5004 21.6 92.3004 21.6H95.0804C96.3871 21.6 97.3471 21.9067 97.9604 22.52C98.5737 23.1333 98.8804 24.0933 98.8804 25.4V26.4C98.8804 27.7067 98.5737 28.6667 97.9604 29.28C97.3604 29.8933 96.4071 30.2 95.1004 30.2H94.5404L94.7004 32H91.7004L91.9004 30.1C90.3537 30.02 88.9471 29.92 87.6804 29.8V27.1ZM111.279 18.8L104.279 27.2H111.279V30H99.8785V27.2L106.879 18.8H99.8785V16H111.279V18.8ZM121.986 22.1L116.486 27.3H121.986V30H112.086V27.3L117.586 22.1H112.086V19.4H121.986V22.1ZM132.689 22.1L127.189 27.3H132.689V30H122.789V27.3L128.289 22.1H122.789V19.4H132.689V22.1ZM143.392 22.1L137.892 27.3H143.392V30H133.492V27.3L138.992 22.1H133.492V19.4H143.392V22.1ZM154.195 29.8C151.702 30.0667 149.502 30.2 147.595 30.2C146.688 30.2 145.962 29.9267 145.415 29.38C144.868 28.8333 144.595 28.1067 144.595 27.2V22.6C144.595 21.6 144.875 20.82 145.435 20.26C146.008 19.6867 146.795 19.4 147.795 19.4H154.195V22.1H148.895C148.362 22.1 148.095 22.3667 148.095 22.9V26.8C148.095 27 148.162 27.1667 148.295 27.3C148.428 27.4333 148.595 27.5 148.795 27.5C149.995 27.5 151.795 27.4 154.195 27.2V29.8ZM159.991 27.4C160.698 27.4 161.498 27.2667 162.391 27V25.8H159.491C159.291 25.8 159.124 25.8667 158.991 26C158.858 26.1333 158.791 26.3 158.791 26.5V26.7C158.791 26.9 158.858 27.0667 158.991 27.2C159.124 27.3333 159.291 27.4 159.491 27.4H159.991ZM156.291 19.6C158.731 19.3333 160.931 19.2 162.891 19.2C163.798 19.2 164.524 19.4733 165.071 20.02C165.618 20.5667 165.891 21.2933 165.891 22.2V30H162.791L162.591 29C161.964 29.4133 161.318 29.72 160.651 29.92C159.998 30.1067 159.444 30.2 158.991 30.2H158.291C157.384 30.2 156.658 29.9267 156.111 29.38C155.564 28.8333 155.291 28.1067 155.291 27.2V26.3C155.291 25.3933 155.564 24.6667 156.111 24.12C156.658 23.5733 157.384 23.3 158.291 23.3H162.391V22.5C162.391 22.3 162.324 22.1333 162.191 22C162.058 21.8667 161.891 21.8 161.691 21.8C160.824 21.8 159.864 21.84 158.811 21.92C157.771 22 156.931 22.06 156.291 22.1V19.6ZM175.086 30C173.792 30.1333 172.526 30.2 171.286 30.2C170.379 30.2 169.652 29.9267 169.106 29.38C168.559 28.8333 168.286 28.1067 168.286 27.2V22.1H167.086V19.4H168.286L168.686 17H171.786V19.4H174.286V22.1H171.786V26.7C171.786 26.9 171.852 27.0667 171.986 27.2C172.119 27.3333 172.286 27.4 172.486 27.4H175.086V30Z" fill="white"/>
</svg>
