<svg width="110" height="151" viewBox="0 0 110 151" fill="none" xmlns="http://www.w3.org/2000/svg">
<path d="M94.897 140.196C93.8448 140.444 92.7755 140.453 91.7147 140.239C83.3485 138.519 75.7522 133.591 69.7555 125.993C69.6956 125.916 69.6357 125.839 69.5673 125.762C69.5502 125.856 69.5245 125.958 69.5074 126.053C67.4629 135.507 62.8007 143.268 56.0342 148.496C55.1873 149.155 54.2206 149.608 53.1599 149.856C50.431 150.49 47.6166 149.583 45.7945 147.495C45.4352 147.084 45.1273 146.639 44.8792 146.16C41.9023 146.536 38.9938 145.125 37.4796 142.481C36.1622 140.179 36.1965 137.433 37.4796 135.191C34.1605 134.25 31.4402 131.999 29.7122 128.619C28.0783 125.419 27.3426 121.92 26.8379 118.925L26.6839 118.001C26.1621 114.955 25.589 111.592 25.6403 108.11C10.9609 99.5535 1.94453 83.3991 2.84274 66.5174C2.90262 65.3452 3.02238 64.1388 3.20203 62.9238C1.67934 57.0199 0.695579 51.0304 0.259303 45.118C-0.0315472 41.1307 -0.0743194 37.0921 0.113878 33.1305C0.139541 32.5744 0.15665 31.984 0.165205 31.3679C0.23364 28.2534 0.327739 24.3688 1.85898 20.9634C2.83419 18.7901 4.70761 17.2328 6.98309 16.7023C7.47924 16.5825 8.00106 16.5227 8.52288 16.5055L9.12169 16.4884C10.0627 16.4713 10.9694 16.6168 11.8249 16.9162C19.3015 19.0468 26.3418 22.341 32.8004 26.7218C37.1888 24.6255 41.8766 22.957 46.5559 21.8361L47.1119 21.7078C51.3635 20.7238 55.6321 20.1677 59.858 20.0479C63.6904 13.4766 68.4809 7.58982 74.1268 2.50734C74.7513 1.86561 75.4955 1.33512 76.3167 0.95864L76.8984 0.693393C77.3775 0.470928 77.8737 0.299801 78.3698 0.188568C80.6453 -0.33337 82.9978 0.239906 84.8455 1.76294C87.8225 4.23572 89.6873 7.88073 91.1929 10.807C91.4837 11.3803 91.766 11.9279 92.0398 12.4327C93.8533 15.7697 95.4872 19.2521 96.9073 22.7773C99.1571 28.3903 100.911 34.2856 102.134 40.335C109.67 52.1941 111.937 66.449 108.191 78.6247C106.848 83.0055 104.76 87.1383 101.98 90.9629C102.228 91.4934 102.442 91.9983 102.63 92.4518C104.102 96.0283 105.265 99.6391 106.086 103.173L106.197 103.635C106.848 106.373 107.737 110.121 106.694 113.92C105.992 116.495 104.658 118.651 102.793 120.303C104.777 121.774 105.924 124.144 105.753 126.686C105.547 129.723 103.563 132.273 100.714 133.24C100.697 133.77 100.611 134.309 100.474 134.84C99.7559 137.51 97.6173 139.563 94.897 140.196Z" fill="white"/>
<path d="M90.8424 25.1987C89.5165 21.896 88.0023 18.6702 86.3 15.5472C84.8115 12.8091 83.1092 8.80475 80.6797 6.794C80.3632 6.52876 80.021 6.45175 79.6361 6.62288C79.4479 6.70844 79.2597 6.794 79.0715 6.88812C78.9261 6.95657 78.8149 7.05069 78.7464 7.15337C70.7652 14.2551 64.6658 23.0939 60.8163 33.0535C60.6367 33.5069 60.9703 33.9861 61.3895 34.1401C72.7327 38.4269 84.0758 42.7136 95.419 47.0003C96.0777 47.2485 96.6166 46.5811 96.5225 45.9736C95.4105 38.8547 93.5285 31.8984 90.851 25.1987H90.8424Z" fill="#CBB0F0"/>
<path d="M85.3762 26.5165C84.5208 24.4031 83.537 22.3496 82.4335 20.3645C81.5866 18.85 80.5943 16.5997 79.2513 15.4874C78.9347 15.2221 78.5926 15.1451 78.2076 15.3162C78.0964 15.3676 77.9766 15.4189 77.8654 15.4788C77.7115 15.5473 77.6003 15.6499 77.5318 15.7612C72.69 20.1335 69.0287 25.4555 66.642 31.5305C66.4624 31.984 66.796 32.4632 67.2152 32.6172C74.0844 35.2098 80.9536 37.8109 87.8228 40.4035C88.4815 40.6516 89.0204 39.9842 88.9263 39.3767C88.2249 34.9616 87.0615 30.6663 85.3762 26.5251V26.5165Z" fill="#B797E4"/>
<path d="M37.2062 38.5124C29.3703 31.2566 20.0118 25.9944 9.72936 23.1195C9.61816 23.0596 9.48129 23.0254 9.31875 23.0254C9.11345 23.0254 8.89958 23.0339 8.69428 23.0425C8.26656 23.0511 8.00137 23.2735 7.83028 23.65C6.58989 26.4052 6.79519 30.478 6.64977 33.447C6.47013 37.1776 6.5129 40.9167 6.78664 44.6473C7.30846 51.8346 8.67717 58.9193 10.8072 65.7986C10.9869 66.3804 11.7653 66.7484 12.2529 66.235C20.5678 57.4048 28.8742 48.5747 37.1891 39.736C37.497 39.4108 37.5826 38.8461 37.2233 38.5038L37.2062 38.5124Z" fill="#CBB0F0"/>
<path d="M31.2952 39.6931C26.4876 35.278 20.8587 32.1122 14.5969 30.3068C14.4771 30.2383 14.3403 30.2041 14.1692 30.2041H13.7928C13.3651 30.2212 13.0999 30.4437 12.9288 30.8202C12.2102 32.4116 12.3043 34.8673 12.2102 36.6043C12.0905 38.8802 12.1076 41.1562 12.2701 43.4322C12.5781 47.8901 13.4164 52.2624 14.7252 56.5406C14.9049 57.131 15.6833 57.4903 16.1709 56.9769C21.2009 51.6292 26.2395 46.2815 31.2695 40.9338C31.5774 40.6086 31.6715 40.0354 31.3037 39.7017L31.2952 39.6931Z" fill="#B797E4"/>
<path d="M96.2828 43.3126C85.47 27.586 65.7948 23.9496 48.0871 28.2021C29.5497 32.6514 10.4562 46.3501 9.36123 66.8683C8.43736 84.2633 19.6522 100.118 36.0168 105.723C51.5688 111.053 69.3449 107.203 83.2373 99.0915C91.8687 94.0518 98.9775 86.3768 101.954 76.6995C105.427 65.4051 102.656 53.0327 96.2828 43.3041V43.3126Z" fill="#CBB0F0"/>
<path d="M46.0341 65.7987C46.6671 68.5453 44.9562 71.2833 42.2188 71.9165C39.4728 72.5496 36.7354 70.8384 36.1024 68.1003C35.4693 65.3623 37.1802 62.6157 39.9176 61.9825C42.6636 61.3494 45.401 63.0606 46.0341 65.7987Z" fill="#452A9B"/>
<path d="M74.7938 59.1505C75.4269 61.8971 73.716 64.6351 70.9786 65.2683C68.2326 65.9014 65.4952 64.1902 64.8621 61.4521C64.2291 58.7055 65.94 55.9675 68.6774 55.3343C71.4148 54.7012 74.1608 56.4124 74.7938 59.1505Z" fill="#452A9B"/>
<path d="M67.1294 71.4032C67.0609 71.3605 67.0011 71.3177 66.9326 71.2749C66.9326 71.2749 66.9155 71.2749 66.907 71.2749C66.3851 71.5487 66.4621 71.891 66.1713 72.4043C65.427 73.7135 63.8188 74.2439 62.3902 74.1841C59.4732 74.0557 58.3696 71.9337 57.7537 69.4524C57.6682 69.1187 57.326 68.8877 56.9924 68.9732C56.9239 68.9903 56.8469 69.0075 56.7785 69.0246C56.7528 69.0246 56.7272 69.0502 56.7015 69.0588C56.6759 69.0588 56.6502 69.0588 56.6245 69.0588C56.5475 69.0759 56.4791 69.093 56.4021 69.1101C56.0599 69.1871 55.8546 69.538 55.9231 69.8717C56.4534 72.3787 56.4107 74.7488 53.8358 76.1606C52.6809 76.7937 51.2181 77.0248 50.0205 76.4087C49.4131 76.1007 49.1822 75.5531 48.5064 75.536C48.4978 75.536 48.4893 75.536 48.4807 75.5445C48.4379 75.613 48.4037 75.6814 48.3609 75.7499C48.284 75.8782 48.2669 76.0579 48.3438 76.1948C50.8503 80.5158 56.3251 77.6579 57.7708 73.6792C60.8076 76.6141 66.9839 76.7852 67.3432 71.7968C67.3518 71.6428 67.2662 71.4888 67.1379 71.4032H67.1294Z" fill="#B797E4"/>
<path d="M60.8335 66.1582C61.2185 67.8266 57.8395 70.0256 56.9669 70.231C56.0944 70.4363 52.0909 69.9401 51.7059 68.2716C51.321 66.6031 52.9635 65.833 55.795 65.1742C58.6265 64.5153 60.4486 64.4982 60.8335 66.1582Z" fill="white"/>
<path d="M36.188 39.6505C34.2034 40.2495 33.2196 42.9789 32.9031 44.8699C32.5353 47.0603 33.2197 49.3021 34.6825 50.9706C36.3335 52.8615 38.7544 53.8113 41.2523 53.6145C43.0744 53.4776 45.8802 52.7503 46.0085 50.5941C46.0342 50.1919 45.7006 49.8839 45.3156 49.8411C43.9212 49.7042 43.1 50.7567 41.757 51.0647C39.7723 51.5182 37.7278 50.8765 36.3677 49.3705C33.5191 46.2218 35.3839 43.0902 36.2394 39.7018C36.2394 39.6676 36.2223 39.6334 36.1795 39.642L36.188 39.6505Z" fill="#B797E4"/>
<path d="M42.1507 42.209C40.8932 47.9674 43.2713 53.1782 49.422 53.8029C52.3305 54.1023 55.4272 53.5119 57.5059 51.313C58.943 49.7985 60.0038 47.6081 58.6522 45.7941C58.2672 45.2893 57.523 45.5117 57.2065 45.9396C56.3767 47.0776 56.3767 48.5321 55.316 49.5589C53.7163 51.1162 51.1329 51.3215 49.0199 51.0392C44.3064 50.406 44.4775 45.9139 43.4766 42.2432C43.3141 41.6357 42.3047 41.4903 42.1507 42.1919V42.209Z" fill="#B797E4"/>
<path d="M54.1011 40.7544C53.3825 43.1844 55.0677 45.8967 56.9326 47.3855C59.0028 49.0455 61.8172 49.3022 64.2637 48.361C69.5589 46.3331 71.1329 39.0516 66.274 35.5778C65.641 35.1243 64.5204 35.6462 64.5802 36.4676C64.7 37.965 65.5982 38.7094 66.0944 40.0784C66.9755 42.4998 65.487 44.87 63.3056 45.8283C58.5408 47.916 57.001 43.3298 54.2037 40.7287C54.1695 40.6945 54.1182 40.703 54.1011 40.7544Z" fill="#B797E4"/>
<path d="M40.4823 76.4171C41.372 80.2846 38.9682 84.1435 35.1016 85.0334C31.235 85.9232 27.3769 83.5189 26.4873 79.6514C25.5976 75.7839 28.0014 71.925 31.868 71.0352C35.7346 70.1453 39.5927 72.5496 40.4823 76.4171Z" fill="#F7E3F6"/>
<path d="M88.4984 65.3109C89.3881 69.1784 86.9843 73.0373 83.1177 73.9272C79.2511 74.817 75.393 72.4127 74.5034 68.5452C73.6137 64.6777 76.0175 60.8188 79.8841 59.929C83.7507 59.0391 87.6088 61.4434 88.4984 65.3109Z" fill="#F7E3F6"/>
<path d="M61.1501 107.734C60.979 107.828 60.8336 107.982 60.7566 108.221C57.292 119.447 51.3638 129.663 43.3056 138.211C42.5955 138.964 43.4168 139.948 44.315 139.606C47.2834 138.476 49.8925 136.885 52.2193 134.814C52.091 137.424 51.5606 139.94 50.611 142.421C50.2689 143.311 51.4152 143.79 52.0396 143.311C57.985 138.716 61.5522 131.914 63.1262 124.649C63.9645 120.782 64.2981 116.829 64.3409 112.876C64.3751 109.761 64.435 109.436 62.0483 107.734C61.7232 107.502 61.3896 107.545 61.1501 107.725V107.734Z" fill="#B797E4"/>
<path d="M98.644 125.419C87.6515 121.278 77.8396 114.707 69.7984 106.133C69.6273 105.954 69.4306 105.877 69.2424 105.868C68.943 105.808 68.6265 105.919 68.4297 106.27C67.0354 108.846 67.215 109.077 68.6265 111.9C70.4058 115.434 72.4332 118.84 74.8883 121.946C79.4906 127.781 85.684 132.324 93.0408 133.839C93.8107 134.001 94.632 133.06 93.9305 132.41C91.9886 130.596 90.4061 128.568 89.14 126.284C92.1426 127.122 95.188 127.405 98.3531 127.122C99.3027 127.037 99.6277 125.796 98.644 125.428V125.419Z" fill="#B797E4"/>
<path d="M62.0653 102.403C58.1645 100.469 54.0156 99.2626 49.6785 98.8434C44.3576 98.5182 33.177 99.1771 32.313 106.074C31.8339 109.907 32.6466 114.057 33.2796 117.83C33.7159 120.431 34.3233 123.272 35.5295 125.642C38.7117 131.879 46.3423 128.517 50.5681 125.445C54.007 122.938 56.83 119.661 59.3878 116.29C60.4998 114.827 61.6034 113.338 62.5443 111.755C63.28 110.523 64.6659 108.649 64.8113 107.186C65.0422 104.85 63.9644 103.353 62.0482 102.403H62.0653Z" fill="#F7E3F6"/>
<path d="M63.5879 103.207C57.6597 100.024 51.0471 98.1675 44.2891 98.9376C40.2258 99.3996 30.4908 101.41 32.638 107.502C32.6551 107.597 32.6893 107.691 32.7406 107.793C35.3583 112.311 40.97 112.054 45.4268 110.959C51.4834 109.47 58.0019 107.622 63.5366 104.705C64.0926 104.414 64.161 103.515 63.5793 103.207H63.5879Z" fill="#B797E4"/>
<path d="M56.3425 110.112C57.3776 110.112 58.3784 109.487 59.2595 109.008C60.3203 108.426 61.3896 107.845 62.3391 107.083C62.8952 106.638 62.2194 105.731 61.612 106.082C60.5427 106.698 59.5504 107.451 58.5153 108.118C57.7198 108.632 56.7702 109.077 56.2142 109.873C56.1457 109.975 56.2227 110.121 56.3425 110.121V110.112Z" fill="#B797E4"/>
<path d="M58.0446 112.765C58.883 112.713 59.6272 112.02 60.2517 111.498C61.0815 110.805 61.8171 110.078 62.4844 109.231C62.9891 108.598 61.9198 107.716 61.3809 108.324C60.7136 109.077 60.0806 109.855 59.3962 110.591C58.8659 111.156 58.0874 111.755 57.865 112.508C57.8308 112.619 57.9163 112.773 58.0446 112.765Z" fill="#B797E4"/>
<path d="M99.7306 104.662C98.9607 101.376 97.8742 98.0562 96.5911 94.9332C95.0684 91.2283 93.52 88.8753 89.3027 88.9181C84.632 88.9694 80.158 90.4411 76.1203 92.7256C72.7499 94.7963 69.7986 97.3717 67.2922 100.435C65.5471 102.565 64.9055 103.49 65.9149 106.099C66.7789 108.341 69.9697 109.915 71.9971 111.062C75.5472 113.064 79.3282 114.878 83.2205 116.093C88.4473 117.719 98.4559 119.293 100.398 112.2C101.039 109.847 100.269 106.955 99.7306 104.662Z" fill="#F7E3F6"/>
<path d="M81.005 90.441C74.5977 92.7256 69.4651 97.2947 65.5386 102.754C65.1536 103.293 65.6156 104.063 66.24 104.08C72.4933 104.268 79.1658 103.07 85.2565 101.744C89.7391 100.769 94.8974 98.5439 95.2652 93.3245C95.2652 93.2133 95.2652 93.1106 95.231 93.0165C94.4953 86.5907 84.8545 89.0635 81.005 90.4325V90.441Z" fill="#B797E4"/>
<path d="M75.0935 105.492C74.2466 105.021 73.1944 105.047 72.2534 104.927C71.0301 104.781 69.8069 104.542 68.575 104.456C67.8821 104.414 67.6597 105.517 68.3612 105.68C69.5417 105.954 70.765 106.014 71.9711 106.065C72.9806 106.108 74.1525 106.236 75.0764 105.774C75.179 105.723 75.1876 105.552 75.0849 105.492H75.0935Z" fill="#B797E4"/>
<path d="M74.7686 108.597C74.2383 108.024 73.2631 107.819 72.5445 107.545C71.6035 107.186 70.6967 106.766 69.7643 106.381C69.0201 106.073 68.4298 107.323 69.1655 107.682C70.1321 108.153 71.1245 108.478 72.1681 108.743C72.9551 108.94 73.9303 109.231 74.7088 108.906C74.8285 108.854 74.8371 108.683 74.7601 108.597H74.7686Z" fill="#B797E4"/>
<path d="M69.8328 102.18C69.2254 101.051 68.5497 99.8273 67.2237 99.5878C65.5727 99.2883 63.0919 99.9129 61.6719 100.769C58.387 102.745 60.2433 108.384 61.5949 111.028C62.3648 112.542 63.417 113.321 65.145 113.278C66.6677 113.235 69.1912 112.636 70.3889 111.609C72.6044 109.701 70.8508 104.388 69.8414 102.18H69.8328Z" fill="#FBF4FF"/>
</svg>
