<svg width="194" height="48" viewBox="0 0 194 48" fill="none" xmlns="http://www.w3.org/2000/svg">
<rect width="194" height="48" rx="15" fill="#80E2FF"/>
<path d="M75.748 29.8C72.7747 30.0667 70.308 30.2 68.348 30.2C67.0414 30.2 66.0814 29.8933 65.468 29.28C64.8547 28.6667 64.548 27.7067 64.548 26.4V20C64.548 18.6 64.8614 17.5867 65.488 16.96C66.128 16.32 67.148 16 68.548 16H75.748V18.8H69.348C68.548 18.8 68.148 19.2 68.148 20V26.4C68.148 26.7067 68.2347 26.9533 68.408 27.14C68.5947 27.3133 68.828 27.4 69.108 27.4C69.388 27.4 69.6947 27.4 70.028 27.4C70.3614 27.3867 70.708 27.3733 71.068 27.36C71.428 27.3467 71.788 27.3333 72.148 27.32C72.5214 27.3067 72.9947 27.28 73.568 27.24C74.1547 27.2 74.8814 27.1533 75.748 27.1V29.8ZM80.6504 19.6C81.9437 19.3333 83.0771 19.2 84.0504 19.2H84.9504C85.8571 19.2 86.5837 19.4733 87.1304 20.02C87.6771 20.5667 87.9504 21.2933 87.9504 22.2V30H84.4504V22.6C84.4504 22.4 84.3837 22.2333 84.2504 22.1C84.1171 21.9667 83.9504 21.9 83.7504 21.9H83.0504C82.5437 21.9 82.0771 21.9267 81.6504 21.98C81.2371 22.0333 80.9037 22.0733 80.6504 22.1V30H77.1504V16H80.6504V19.6ZM93.948 27.4C94.6547 27.4 95.4547 27.2667 96.348 27V25.8H93.448C93.248 25.8 93.0814 25.8667 92.948 26C92.8147 26.1333 92.748 26.3 92.748 26.5V26.7C92.748 26.9 92.8147 27.0667 92.948 27.2C93.0814 27.3333 93.248 27.4 93.448 27.4H93.948ZM90.248 19.6C92.688 19.3333 94.888 19.2 96.848 19.2C97.7547 19.2 98.4814 19.4733 99.028 20.02C99.5747 20.5667 99.848 21.2933 99.848 22.2V30H96.748L96.548 29C95.9214 29.4133 95.2747 29.72 94.608 29.92C93.9547 30.1067 93.4014 30.2 92.948 30.2H92.248C91.3414 30.2 90.6147 29.9267 90.068 29.38C89.5214 28.8333 89.248 28.1067 89.248 27.2V26.3C89.248 25.3933 89.5214 24.6667 90.068 24.12C90.6147 23.5733 91.3414 23.3 92.248 23.3H96.348V22.5C96.348 22.3 96.2814 22.1333 96.148 22C96.0147 21.8667 95.848 21.8 95.648 21.8C94.7814 21.8 93.8214 21.84 92.768 21.92C91.728 22 90.888 22.06 90.248 22.1V19.6ZM107.743 22.3C106.903 22.3 106.036 22.5 105.143 22.9V30H101.643V19.4H104.743L104.943 20.7C106.089 19.7 107.289 19.2 108.543 19.2H109.443V22.3H107.743ZM118.242 30C116.948 30.1333 115.682 30.2 114.442 30.2C113.535 30.2 112.808 29.9267 112.262 29.38C111.715 28.8333 111.442 28.1067 111.442 27.2V22.1H110.242V19.4H111.442L111.842 17H114.942V19.4H117.442V22.1H114.942V26.7C114.942 26.9 115.008 27.0667 115.142 27.2C115.275 27.3333 115.442 27.4 115.642 27.4H118.242V30ZM119.25 27.2C121.957 27.4 124.09 27.5 125.65 27.5C125.85 27.5 126.017 27.4333 126.15 27.3C126.284 27.1667 126.35 27 126.35 26.8V26.1H122.05C121.144 26.1 120.417 25.8267 119.87 25.28C119.324 24.7333 119.05 24.0067 119.05 23.1V22.4C119.05 21.4933 119.324 20.7667 119.87 20.22C120.417 19.6733 121.144 19.4 122.05 19.4H128.85V22H123.25C123.05 22 122.884 22.0667 122.75 22.2C122.617 22.3333 122.55 22.5 122.55 22.7C122.55 22.9 122.617 23.0667 122.75 23.2C122.884 23.3333 123.05 23.4 123.25 23.4H126.85C127.757 23.4 128.484 23.6733 129.03 24.22C129.577 24.7667 129.85 25.4933 129.85 26.4V27.2C129.85 28.1067 129.577 28.8333 129.03 29.38C128.484 29.9267 127.757 30.2 126.85 30.2C124.49 30.2 121.957 30.0667 119.25 29.8V27.2Z" fill="black"/>
</svg>
