<svg width="895" height="81" viewBox="0 0 895 81" fill="none" xmlns="http://www.w3.org/2000/svg">
<rect x="0.5" y="0.5" width="894" height="80" rx="40" fill="#EFD8FF" fill-opacity="0.1"/>
<rect x="0.5" y="0.5" width="894" height="80" rx="40" stroke="#80E2FF"/>
<path d="M88.75 32H67.5C65.1561 32 63.25 33.9061 63.25 36.25V57.5C63.25 59.8439 65.1561 61.75 67.5 61.75H88.75C91.0939 61.75 93 59.8439 93 57.5V36.25C93 33.9061 91.0939 32 88.75 32Z" fill="white"/>
<path d="M101.5 19.25H80.25C79.1228 19.25 78.0418 19.6978 77.2448 20.4948C76.4478 21.2918 76 22.3728 76 23.5V27.75H93C94.1272 27.75 95.2082 28.1978 96.0052 28.9948C96.8022 29.7918 97.25 30.8728 97.25 32V49H101.5C102.627 49 103.708 48.5522 104.505 47.7552C105.302 46.9582 105.75 45.8772 105.75 44.75V23.5C105.75 22.3728 105.302 21.2918 104.505 20.4948C103.708 19.6978 102.627 19.25 101.5 19.25Z" fill="white"/>
<path d="M179.114 39.39L174.164 44.07H179.114V46.5H170.204V44.07L175.154 39.39H170.204V36.96H179.114V39.39ZM188.117 36.33C187.769 36.306 187.307 36.27 186.731 36.222C186.155 36.174 185.657 36.15 185.237 36.15C184.817 36.15 184.547 36.21 184.427 36.33C184.307 36.45 184.247 36.6 184.247 36.78V37.68H187.217V40.11H184.247V46.5H181.097V40.11H179.837V37.68H181.097V36.42C181.097 35.604 181.343 34.95 181.835 34.458C182.327 33.966 182.981 33.72 183.797 33.72C184.529 33.72 185.303 33.744 186.119 33.792C186.935 33.84 187.601 33.876 188.117 33.9V36.33ZM194.87 36.96H198.2L194.6 46.5H191L187.4 36.96H190.73L192.8 43.44L194.87 36.96ZM198.561 43.98C200.997 44.16 202.917 44.25 204.321 44.25C204.501 44.25 204.651 44.19 204.771 44.07C204.891 43.95 204.951 43.8 204.951 43.62V42.99H201.081C200.265 42.99 199.611 42.744 199.119 42.252C198.627 41.76 198.381 41.106 198.381 40.29V39.66C198.381 38.844 198.627 38.19 199.119 37.698C199.611 37.206 200.265 36.96 201.081 36.96H207.201V39.3H202.161C201.981 39.3 201.831 39.36 201.711 39.48C201.591 39.6 201.531 39.75 201.531 39.93C201.531 40.11 201.591 40.26 201.711 40.38C201.831 40.5 201.981 40.56 202.161 40.56H205.401C206.217 40.56 206.871 40.806 207.363 41.298C207.855 41.79 208.101 42.444 208.101 43.26V43.98C208.101 44.796 207.855 45.45 207.363 45.942C206.871 46.434 206.217 46.68 205.401 46.68C203.277 46.68 200.997 46.56 198.561 46.32V43.98ZM215.483 43.98H208.823V41.46L213.143 33.9H216.743L212.423 41.46H215.483V38.76H218.723V41.46H219.983V43.98H218.723V46.5H215.483V43.98ZM226.56 39.57C225.804 39.57 225.024 39.75 224.22 40.11V46.5H221.07V36.96H223.86L224.04 38.13C225.072 37.23 226.152 36.78 227.28 36.78H228.09V39.57H226.56ZM235.469 46.68C233.465 46.68 231.245 46.56 228.809 46.32V43.89C231.461 44.07 233.441 44.16 234.749 44.16C235.025 44.16 235.241 44.082 235.397 43.926C235.565 43.758 235.649 43.536 235.649 43.26V42.36C235.649 41.64 235.289 41.28 234.569 41.28H229.349V33.9H237.989V36.42H232.589V38.76H235.469C236.645 38.76 237.509 39.03 238.061 39.57C238.613 40.098 238.889 40.908 238.889 42V43.26C238.889 44.436 238.613 45.3 238.061 45.852C237.509 46.404 236.645 46.68 235.469 46.68ZM242.662 49.74C242.026 49.74 241.246 49.68 240.322 49.56V47.22H241.942C242.398 47.22 242.692 47.094 242.824 46.842C242.968 46.59 242.944 46.236 242.752 45.78L239.062 36.96H242.392L244.642 43.08L246.532 36.96H249.862L246.262 46.86C245.914 47.808 245.464 48.522 244.912 49.002C244.36 49.494 243.61 49.74 242.662 49.74ZM253.648 33.72C255.292 33.72 257.272 33.84 259.588 34.08V36.51C258.928 36.474 258.364 36.444 257.896 36.42C257.44 36.384 257.062 36.36 256.762 36.348C256.474 36.324 256.186 36.3 255.898 36.276C255.418 36.252 254.974 36.24 254.566 36.24C253.834 36.24 253.468 36.54 253.468 37.14V38.76C254.632 38.52 255.652 38.4 256.528 38.4H257.788C258.604 38.4 259.258 38.646 259.75 39.138C260.242 39.63 260.488 40.284 260.488 41.1V43.44C260.488 44.532 260.212 45.348 259.66 45.888C259.108 46.416 258.244 46.68 257.068 46.68H253.648C252.472 46.68 251.608 46.416 251.056 45.888C250.504 45.348 250.228 44.532 250.228 43.44V37.14C250.228 35.964 250.504 35.1 251.056 34.548C251.608 33.996 252.472 33.72 253.648 33.72ZM255.628 40.92C255.172 40.92 254.752 40.944 254.368 40.992C253.996 41.04 253.696 41.076 253.468 41.1V43.08C253.468 43.8 253.828 44.16 254.548 44.16H256.168C256.888 44.16 257.248 43.8 257.248 43.08V41.55C257.248 41.37 257.188 41.22 257.068 41.1C256.948 40.98 256.798 40.92 256.618 40.92H255.628ZM264.266 49.74C263.63 49.74 262.85 49.68 261.926 49.56V47.22H263.546C264.002 47.22 264.296 47.094 264.428 46.842C264.572 46.59 264.548 46.236 264.356 45.78L260.666 36.96H263.996L266.246 43.08L268.136 36.96H271.466L267.866 46.86C267.518 47.808 267.068 48.522 266.516 49.002C265.964 49.494 265.214 49.74 264.266 49.74ZM272.911 49.74C271.795 49.74 270.655 49.68 269.491 49.56V47.22H271.831C272.011 47.22 272.161 47.16 272.281 47.04C272.401 46.92 272.461 46.77 272.461 46.59V37.32H275.611V47.04C275.611 47.856 275.365 48.51 274.873 49.002C274.381 49.494 273.727 49.74 272.911 49.74ZM272.461 33.72H275.611V36.24H272.461V33.72ZM284.158 46.5L283.978 45.6C283.414 45.972 282.832 46.248 282.232 46.428C281.644 46.596 281.146 46.68 280.738 46.68H279.928C279.112 46.68 278.458 46.434 277.966 45.942C277.474 45.45 277.228 44.796 277.228 43.98V39.84C277.228 38.94 277.48 38.238 277.984 37.734C278.5 37.218 279.208 36.96 280.108 36.96H283.798V33.9H286.948V46.5H284.158ZM281.638 44.07C282.274 44.07 282.994 43.95 283.798 43.71V39.39H281.098C280.618 39.39 280.378 39.63 280.378 40.11V43.44C280.378 43.62 280.438 43.77 280.558 43.89C280.678 44.01 280.828 44.07 281.008 44.07H281.638ZM294.056 39.39C293.42 39.39 292.7 39.51 291.896 39.75V46.5H288.746V36.96H291.536L291.716 37.86C292.28 37.488 292.856 37.218 293.444 37.05C294.044 36.87 294.548 36.78 294.956 36.78H295.766C296.582 36.78 297.236 37.026 297.728 37.518C298.22 38.01 298.466 38.664 298.466 39.48V46.5H295.316V40.02C295.316 39.84 295.256 39.69 295.136 39.57C295.016 39.45 294.866 39.39 294.686 39.39H294.056ZM307.824 36.33C307.476 36.306 307.014 36.27 306.438 36.222C305.862 36.174 305.364 36.15 304.944 36.15C304.524 36.15 304.254 36.21 304.134 36.33C304.014 36.45 303.954 36.6 303.954 36.78V37.68H306.924V40.11H303.954V46.5H300.804V40.11H299.544V37.68H300.804V36.42C300.804 35.604 301.05 34.95 301.542 34.458C302.034 33.966 302.688 33.72 303.504 33.72C304.236 33.72 305.01 33.744 305.826 33.792C306.642 33.84 307.308 33.876 307.824 33.9V36.33ZM307.467 33.9H317.187V36.42L313.047 46.5H309.447L313.767 36.42H307.467V33.9ZM322.219 41.46C321.499 41.46 321.139 41.82 321.139 42.54V43.26C321.139 43.536 321.217 43.758 321.373 43.926C321.541 44.082 321.763 44.16 322.039 44.16H324.739C325.015 44.16 325.231 44.082 325.387 43.926C325.555 43.758 325.639 43.536 325.639 43.26V42.54C325.639 41.82 325.279 41.46 324.559 41.46H322.219ZM322.579 36.24C321.859 36.24 321.499 36.6 321.499 37.32V37.86C321.499 38.58 321.859 38.94 322.579 38.94H324.199C324.919 38.94 325.279 38.58 325.279 37.86V37.32C325.279 36.6 324.919 36.24 324.199 36.24H322.579ZM328.879 43.26C328.879 44.436 328.603 45.3 328.051 45.852C327.499 46.404 326.635 46.68 325.459 46.68H321.319C320.143 46.68 319.279 46.404 318.727 45.852C318.175 45.3 317.899 44.436 317.899 43.26V43.08C317.899 42.168 318.127 41.412 318.583 40.812C318.943 40.332 319.435 40.008 320.059 39.84C319.519 39.66 319.081 39.348 318.745 38.904C318.421 38.448 318.259 37.86 318.259 37.14V36.96C318.259 35.868 318.535 35.058 319.087 34.53C319.639 33.99 320.503 33.72 321.679 33.72H325.099C326.275 33.72 327.139 33.99 327.691 34.53C328.243 35.058 328.519 35.868 328.519 36.96V37.14C328.519 37.86 328.351 38.448 328.015 38.904C327.691 39.348 327.259 39.66 326.719 39.84C327.691 40.104 328.351 40.752 328.699 41.784C328.819 42.156 328.879 42.588 328.879 43.08V43.26ZM329.246 33.9H338.966V36.42L334.826 46.5H331.226L335.546 36.42H329.246V33.9ZM349.759 43.8C349.759 44.7 349.501 45.408 348.985 45.924C348.481 46.428 347.779 46.68 346.879 46.68H342.739C341.839 46.68 341.131 46.428 340.615 45.924C340.111 45.408 339.859 44.7 339.859 43.8V39.66C339.859 38.76 340.111 38.058 340.615 37.554C341.131 37.038 341.839 36.78 342.739 36.78H346.879C347.779 36.78 348.481 37.038 348.985 37.554C349.501 38.058 349.759 38.76 349.759 39.66V43.8ZM346.609 39.93C346.609 39.45 346.369 39.21 345.889 39.21H343.729C343.249 39.21 343.009 39.45 343.009 39.93V43.53C343.009 44.01 343.249 44.25 343.729 44.25H345.889C346.369 44.25 346.609 44.01 346.609 43.53V39.93ZM351.737 43.89C354.209 44.07 355.949 44.16 356.957 44.16C357.233 44.16 357.449 44.082 357.605 43.926C357.773 43.758 357.857 43.536 357.857 43.26V41.64C356.693 41.88 355.673 42 354.797 42H353.537C352.721 42 352.067 41.754 351.575 41.262C351.083 40.77 350.837 40.116 350.837 39.3V36.96C350.837 35.868 351.113 35.058 351.665 34.53C352.217 33.99 353.081 33.72 354.257 33.72H357.677C358.853 33.72 359.717 33.99 360.269 34.53C360.821 35.058 361.097 35.868 361.097 36.96V43.26C361.097 44.436 360.821 45.3 360.269 45.852C359.717 46.404 358.853 46.68 357.677 46.68C356.033 46.68 354.053 46.56 351.737 46.32V43.89ZM355.697 39.48C356.381 39.48 357.101 39.42 357.857 39.3V37.32C357.857 36.6 357.497 36.24 356.777 36.24H355.157C354.437 36.24 354.077 36.6 354.077 37.32V38.85C354.077 39.03 354.137 39.18 354.257 39.3C354.377 39.42 354.527 39.48 354.707 39.48H355.697ZM366.674 41.46C365.954 41.46 365.594 41.82 365.594 42.54V43.26C365.594 43.536 365.672 43.758 365.828 43.926C365.996 44.082 366.218 44.16 366.494 44.16H369.194C369.47 44.16 369.686 44.082 369.842 43.926C370.01 43.758 370.094 43.536 370.094 43.26V42.54C370.094 41.82 369.734 41.46 369.014 41.46H366.674ZM367.034 36.24C366.314 36.24 365.954 36.6 365.954 37.32V37.86C365.954 38.58 366.314 38.94 367.034 38.94H368.654C369.374 38.94 369.734 38.58 369.734 37.86V37.32C369.734 36.6 369.374 36.24 368.654 36.24H367.034ZM373.334 43.26C373.334 44.436 373.058 45.3 372.506 45.852C371.954 46.404 371.09 46.68 369.914 46.68H365.774C364.598 46.68 363.734 46.404 363.182 45.852C362.63 45.3 362.354 44.436 362.354 43.26V43.08C362.354 42.168 362.582 41.412 363.038 40.812C363.398 40.332 363.89 40.008 364.514 39.84C363.974 39.66 363.536 39.348 363.2 38.904C362.876 38.448 362.714 37.86 362.714 37.14V36.96C362.714 35.868 362.99 35.058 363.542 34.53C364.094 33.99 364.958 33.72 366.134 33.72H369.554C370.73 33.72 371.594 33.99 372.146 34.53C372.698 35.058 372.974 35.868 372.974 36.96V37.14C372.974 37.86 372.806 38.448 372.47 38.904C372.146 39.348 371.714 39.66 371.174 39.84C372.146 40.104 372.806 40.752 373.154 41.784C373.274 42.156 373.334 42.588 373.334 43.08V43.26ZM378.733 37.32V46.5H375.583V39.75H374.233V37.32H378.733ZM375.583 33.72H378.733V36.24H375.583V33.72ZM384.949 44.07C385.585 44.07 386.305 43.95 387.109 43.71V36.96H390.259V46.5H387.469L387.289 45.6C386.725 45.972 386.143 46.248 385.543 46.428C384.955 46.596 384.457 46.68 384.049 46.68H383.239C382.423 46.68 381.769 46.434 381.277 45.942C380.785 45.45 380.539 44.796 380.539 43.98V36.96H383.689V43.44C383.689 43.62 383.749 43.77 383.869 43.89C383.989 44.01 384.139 44.07 384.319 44.07H384.949ZM395.202 42.72V46.5H392.052V33.9H395.202V40.29H396.642L398.622 36.96H401.952L399.252 41.55L401.952 46.5H398.622L396.552 42.72H395.202ZM409.235 36.78C410.207 36.78 410.957 37.14 411.485 37.86C412.037 37.488 412.631 37.218 413.267 37.05C413.915 36.87 414.491 36.78 414.995 36.78H415.175C415.991 36.78 416.645 37.026 417.137 37.518C417.629 38.01 417.875 38.664 417.875 39.48V46.5H414.725V40.02C414.725 39.84 414.665 39.69 414.545 39.57C414.425 39.45 414.275 39.39 414.095 39.39H414.005C413.465 39.39 412.775 39.51 411.935 39.75V46.5H408.785V40.02C408.785 39.84 408.725 39.69 408.605 39.57C408.485 39.45 408.335 39.39 408.155 39.39H408.065C407.525 39.39 406.835 39.51 405.995 39.75V46.5H402.845V36.96H405.635L405.815 37.86C406.379 37.488 406.955 37.218 407.543 37.05C408.143 36.87 408.647 36.78 409.055 36.78H409.235ZM427.952 46.32C425.708 46.56 423.728 46.68 422.012 46.68C421.196 46.68 420.542 46.434 420.05 45.942C419.558 45.45 419.312 44.796 419.312 43.98V39.84C419.312 38.94 419.564 38.238 420.068 37.734C420.584 37.218 421.292 36.96 422.192 36.96H427.952V39.39H423.182C422.702 39.39 422.462 39.63 422.462 40.11V43.62C422.462 43.8 422.522 43.95 422.642 44.07C422.762 44.19 422.912 44.25 423.092 44.25C424.172 44.25 425.792 44.16 427.952 43.98V46.32ZM433.078 39.03C432.598 39.03 432.358 39.27 432.358 39.75V40.74H435.418V39.75C435.418 39.27 435.178 39.03 434.698 39.03H433.078ZM438.208 46.32C435.892 46.56 433.792 46.68 431.908 46.68C431.092 46.68 430.438 46.434 429.946 45.942C429.454 45.45 429.208 44.796 429.208 43.98V39.66C429.208 38.76 429.46 38.058 429.964 37.554C430.48 37.038 431.188 36.78 432.088 36.78H435.688C436.588 36.78 437.29 37.038 437.794 37.554C438.31 38.058 438.568 38.76 438.568 39.66V42.99H432.358V43.71C432.358 43.89 432.418 44.04 432.538 44.16C432.658 44.28 432.808 44.34 432.988 44.34C434.176 44.34 435.916 44.25 438.208 44.07V46.32ZM445.671 39.57C444.915 39.57 444.135 39.75 443.331 40.11V46.5H440.181V36.96H442.971L443.151 38.13C444.183 37.23 445.263 36.78 446.391 36.78H447.201V39.57H445.671ZM458.541 42.72L460.161 36.96H463.581L460.611 46.5H457.281L455.481 40.74L453.681 46.5H450.351L447.381 36.96H450.801L452.421 42.72L454.041 36.96H456.921L458.541 42.72ZM470.418 46.68C468.414 46.68 466.194 46.56 463.758 46.32V43.89C466.41 44.07 468.39 44.16 469.698 44.16C469.974 44.16 470.19 44.082 470.346 43.926C470.514 43.758 470.598 43.536 470.598 43.26V42.36C470.598 41.64 470.238 41.28 469.518 41.28H464.298V33.9H472.938V36.42H467.538V38.76H470.418C471.594 38.76 472.458 39.03 473.01 39.57C473.562 40.098 473.838 40.908 473.838 42V43.26C473.838 44.436 473.562 45.3 473.01 45.852C472.458 46.404 471.594 46.68 470.418 46.68ZM478.331 33.72C479.975 33.72 481.955 33.84 484.271 34.08V36.51C483.611 36.474 483.047 36.444 482.579 36.42C482.123 36.384 481.745 36.36 481.445 36.348C481.157 36.324 480.869 36.3 480.581 36.276C480.101 36.252 479.657 36.24 479.249 36.24C478.517 36.24 478.151 36.54 478.151 37.14V38.76C479.315 38.52 480.335 38.4 481.211 38.4H482.471C483.287 38.4 483.941 38.646 484.433 39.138C484.925 39.63 485.171 40.284 485.171 41.1V43.44C485.171 44.532 484.895 45.348 484.343 45.888C483.791 46.416 482.927 46.68 481.751 46.68H478.331C477.155 46.68 476.291 46.416 475.739 45.888C475.187 45.348 474.911 44.532 474.911 43.44V37.14C474.911 35.964 475.187 35.1 475.739 34.548C476.291 33.996 477.155 33.72 478.331 33.72ZM480.311 40.92C479.855 40.92 479.435 40.944 479.051 40.992C478.679 41.04 478.379 41.076 478.151 41.1V43.08C478.151 43.8 478.511 44.16 479.231 44.16H480.851C481.571 44.16 481.931 43.8 481.931 43.08V41.55C481.931 41.37 481.871 41.22 481.751 41.1C481.631 40.98 481.481 40.92 481.301 40.92H480.311ZM485.358 33.9H495.078V36.42L490.938 46.5H487.338L491.658 36.42H485.358V33.9ZM500.11 41.46C499.39 41.46 499.03 41.82 499.03 42.54V43.26C499.03 43.536 499.108 43.758 499.264 43.926C499.432 44.082 499.654 44.16 499.93 44.16H502.63C502.906 44.16 503.122 44.082 503.278 43.926C503.446 43.758 503.53 43.536 503.53 43.26V42.54C503.53 41.82 503.17 41.46 502.45 41.46H500.11ZM500.47 36.24C499.75 36.24 499.39 36.6 499.39 37.32V37.86C499.39 38.58 499.75 38.94 500.47 38.94H502.09C502.81 38.94 503.17 38.58 503.17 37.86V37.32C503.17 36.6 502.81 36.24 502.09 36.24H500.47ZM506.77 43.26C506.77 44.436 506.494 45.3 505.942 45.852C505.39 46.404 504.526 46.68 503.35 46.68H499.21C498.034 46.68 497.17 46.404 496.618 45.852C496.066 45.3 495.79 44.436 495.79 43.26V43.08C495.79 42.168 496.018 41.412 496.474 40.812C496.834 40.332 497.326 40.008 497.95 39.84C497.41 39.66 496.972 39.348 496.636 38.904C496.312 38.448 496.15 37.86 496.15 37.14V36.96C496.15 35.868 496.426 35.058 496.978 34.53C497.53 33.99 498.394 33.72 499.57 33.72H502.99C504.166 33.72 505.03 33.99 505.582 34.53C506.134 35.058 506.41 35.868 506.41 36.96V37.14C506.41 37.86 506.242 38.448 505.906 38.904C505.582 39.348 505.15 39.66 504.61 39.84C505.582 40.104 506.242 40.752 506.59 41.784C506.71 42.156 506.77 42.588 506.77 43.08V43.26ZM507.137 33.9H516.857V36.42L512.717 46.5H509.117L513.437 36.42H507.137V33.9ZM521.169 33.72C522.813 33.72 524.793 33.84 527.109 34.08V36.51C526.449 36.474 525.885 36.444 525.417 36.42C524.961 36.384 524.583 36.36 524.283 36.348C523.995 36.324 523.707 36.3 523.419 36.276C522.939 36.252 522.495 36.24 522.087 36.24C521.355 36.24 520.989 36.54 520.989 37.14V38.76C522.153 38.52 523.173 38.4 524.049 38.4H525.309C526.125 38.4 526.779 38.646 527.271 39.138C527.763 39.63 528.009 40.284 528.009 41.1V43.44C528.009 44.532 527.733 45.348 527.181 45.888C526.629 46.416 525.765 46.68 524.589 46.68H521.169C519.993 46.68 519.129 46.416 518.577 45.888C518.025 45.348 517.749 44.532 517.749 43.44V37.14C517.749 35.964 518.025 35.1 518.577 34.548C519.129 33.996 519.993 33.72 521.169 33.72ZM523.149 40.92C522.693 40.92 522.273 40.944 521.889 40.992C521.517 41.04 521.217 41.076 520.989 41.1V43.08C520.989 43.8 521.349 44.16 522.069 44.16H523.689C524.409 44.16 524.769 43.8 524.769 43.08V41.55C524.769 41.37 524.709 41.22 524.589 41.1C524.469 40.98 524.319 40.92 524.139 40.92H523.149ZM535.387 46.68C533.383 46.68 531.163 46.56 528.727 46.32V43.89C531.379 44.07 533.359 44.16 534.667 44.16C534.943 44.16 535.159 44.082 535.315 43.926C535.483 43.758 535.567 43.536 535.567 43.26V42.36C535.567 41.64 535.207 41.28 534.487 41.28H529.267V33.9H537.907V36.42H532.507V38.76H535.387C536.563 38.76 537.427 39.03 537.979 39.57C538.531 40.098 538.807 40.908 538.807 42V43.26C538.807 44.436 538.531 45.3 537.979 45.852C537.427 46.404 536.563 46.68 535.387 46.68ZM546.18 46.68C544.176 46.68 541.956 46.56 539.52 46.32V43.89C542.172 44.07 544.152 44.16 545.46 44.16C545.736 44.16 545.952 44.082 546.108 43.926C546.276 43.758 546.36 43.536 546.36 43.26V42.54C546.36 41.82 546 41.46 545.28 41.46H541.5V38.94H544.92C545.64 38.94 546 38.58 546 37.86V37.5C546 36.78 545.64 36.42 544.92 36.42H539.7V33.9H545.82C546.996 33.9 547.86 34.17 548.412 34.71C548.964 35.238 549.24 36.048 549.24 37.14C549.24 37.86 549.072 38.448 548.736 38.904C548.412 39.348 547.98 39.66 547.44 39.84C548.412 40.104 549.072 40.752 549.42 41.784C549.54 42.156 549.6 42.588 549.6 43.08V43.26C549.6 44.436 549.324 45.3 548.772 45.852C548.22 46.404 547.356 46.68 546.18 46.68ZM561.126 42.72L562.746 36.96H566.166L563.196 46.5H559.866L558.066 40.74L556.266 46.5H552.936L549.966 36.96H553.386L555.006 42.72L556.626 36.96H559.506L561.126 42.72ZM572.374 39.57C571.618 39.57 570.838 39.75 570.034 40.11V46.5H566.884V36.96H569.674L569.854 38.13C570.886 37.23 571.966 36.78 573.094 36.78H573.904V39.57H572.374ZM582.904 36.33C582.556 36.306 582.094 36.27 581.518 36.222C580.942 36.174 580.444 36.15 580.024 36.15C579.604 36.15 579.334 36.21 579.214 36.33C579.094 36.45 579.034 36.6 579.034 36.78V37.68H582.004V40.11H579.034V46.5H575.884V40.11H574.624V37.68H575.884V36.42C575.884 35.604 576.13 34.95 576.622 34.458C577.114 33.966 577.768 33.72 578.584 33.72C579.316 33.72 580.09 33.744 580.906 33.792C581.722 33.84 582.388 33.876 582.904 33.9V36.33ZM589.657 36.96H592.987L589.387 46.5H585.787L582.187 36.96H585.517L587.587 43.44L589.657 36.96ZM600.283 46.5L600.103 45.6C599.539 45.972 598.957 46.248 598.357 46.428C597.769 46.596 597.271 46.68 596.863 46.68H596.053C595.237 46.68 594.583 46.434 594.091 45.942C593.599 45.45 593.353 44.796 593.353 43.98V39.84C593.353 38.94 593.605 38.238 594.109 37.734C594.625 37.218 595.333 36.96 596.233 36.96H599.923V33.9H603.073V46.5H600.283ZM597.763 44.07C598.399 44.07 599.119 43.95 599.923 43.71V39.39H597.223C596.743 39.39 596.503 39.63 596.503 40.11V43.44C596.503 43.62 596.563 43.77 596.683 43.89C596.803 44.01 596.953 44.07 597.133 44.07H597.763ZM604.511 43.98C606.947 44.16 608.867 44.25 610.271 44.25C610.451 44.25 610.601 44.19 610.721 44.07C610.841 43.95 610.901 43.8 610.901 43.62V42.99H607.031C606.215 42.99 605.561 42.744 605.069 42.252C604.577 41.76 604.331 41.106 604.331 40.29V39.66C604.331 38.844 604.577 38.19 605.069 37.698C605.561 37.206 606.215 36.96 607.031 36.96H613.151V39.3H608.111C607.931 39.3 607.781 39.36 607.661 39.48C607.541 39.6 607.481 39.75 607.481 39.93C607.481 40.11 607.541 40.26 607.661 40.38C607.781 40.5 607.931 40.56 608.111 40.56H611.351C612.167 40.56 612.821 40.806 613.313 41.298C613.805 41.79 614.051 42.444 614.051 43.26V43.98C614.051 44.796 613.805 45.45 613.313 45.942C612.821 46.434 612.167 46.68 611.351 46.68C609.227 46.68 606.947 46.56 604.511 46.32V43.98ZM619.362 44.25C620.118 44.25 620.838 44.19 621.522 44.07V39.39H619.002C618.522 39.39 618.282 39.63 618.282 40.11V43.62C618.282 43.8 618.342 43.95 618.462 44.07C618.582 44.19 618.732 44.25 618.912 44.25H619.362ZM621.522 46.32C620.358 46.56 619.338 46.68 618.462 46.68H617.832C617.016 46.68 616.362 46.434 615.87 45.942C615.378 45.45 615.132 44.796 615.132 43.98V39.84C615.132 38.94 615.384 38.238 615.888 37.734C616.404 37.218 617.112 36.96 618.012 36.96H624.672V49.56H621.522V46.32ZM636.554 42.72L638.174 36.96H641.594L638.624 46.5H635.294L633.494 40.74L631.694 46.5H628.364L625.394 36.96H628.814L630.434 42.72L632.054 36.96H634.934L636.554 42.72ZM648.432 43.98H641.772V41.46L646.092 33.9H649.692L645.372 41.46H648.432V38.76H651.672V41.46H652.932V43.98H651.672V46.5H648.432V43.98ZM660.139 46.68C658.135 46.68 655.915 46.56 653.479 46.32V43.89C656.131 44.07 658.111 44.16 659.419 44.16C659.695 44.16 659.911 44.082 660.067 43.926C660.235 43.758 660.319 43.536 660.319 43.26V42.36C660.319 41.64 659.959 41.28 659.239 41.28H654.019V33.9H662.659V36.42H657.259V38.76H660.139C661.315 38.76 662.179 39.03 662.731 39.57C663.283 40.098 663.559 40.908 663.559 42V43.26C663.559 44.436 663.283 45.3 662.731 45.852C662.179 46.404 661.315 46.68 660.139 46.68ZM667.332 49.74C666.696 49.74 665.916 49.68 664.992 49.56V47.22H666.612C667.068 47.22 667.362 47.094 667.494 46.842C667.638 46.59 667.614 46.236 667.422 45.78L663.732 36.96H667.062L669.312 43.08L671.202 36.96H674.532L670.932 46.86C670.584 47.808 670.134 48.522 669.582 49.002C669.03 49.494 668.28 49.74 667.332 49.74ZM678.228 37.14C679.392 36.9 680.412 36.78 681.288 36.78H682.098C682.914 36.78 683.568 37.026 684.06 37.518C684.552 38.01 684.798 38.664 684.798 39.48V46.5H681.648V39.84C681.648 39.66 681.588 39.51 681.468 39.39C681.348 39.27 681.198 39.21 681.018 39.21H680.388C679.932 39.21 679.512 39.234 679.128 39.282C678.756 39.33 678.456 39.366 678.228 39.39V46.5H675.078V33.9H678.228V37.14ZM692.626 45.78C691.462 46.02 690.442 46.14 689.566 46.14H688.936C688.12 46.14 687.466 45.894 686.974 45.402C686.482 44.91 686.236 44.256 686.236 43.44V39.84C686.236 38.94 686.488 38.238 686.992 37.734C687.508 37.218 688.216 36.96 689.116 36.96H695.776V47.04C695.776 47.856 695.53 48.51 695.038 49.002C694.546 49.494 693.892 49.74 693.076 49.74C691.192 49.74 689.092 49.62 686.776 49.38V47.04C689.068 47.22 690.808 47.31 691.996 47.31C692.176 47.31 692.326 47.25 692.446 47.13C692.566 47.01 692.626 46.86 692.626 46.68V45.78ZM690.466 43.71C691.222 43.71 691.942 43.65 692.626 43.53V39.39H690.106C689.626 39.39 689.386 39.63 689.386 40.11V43.08C689.386 43.26 689.446 43.41 689.566 43.53C689.686 43.65 689.836 43.71 690.016 43.71H690.466ZM700.818 33.72C702.462 33.72 704.442 33.84 706.758 34.08V36.51C706.098 36.474 705.534 36.444 705.066 36.42C704.61 36.384 704.232 36.36 703.932 36.348C703.644 36.324 703.356 36.3 703.068 36.276C702.588 36.252 702.144 36.24 701.736 36.24C701.004 36.24 700.638 36.54 700.638 37.14V38.76C701.802 38.52 702.822 38.4 703.698 38.4H704.958C705.774 38.4 706.428 38.646 706.92 39.138C707.412 39.63 707.658 40.284 707.658 41.1V43.44C707.658 44.532 707.382 45.348 706.83 45.888C706.278 46.416 705.414 46.68 704.238 46.68H700.818C699.642 46.68 698.778 46.416 698.226 45.888C697.674 45.348 697.398 44.532 697.398 43.44V37.14C697.398 35.964 697.674 35.1 698.226 34.548C698.778 33.996 699.642 33.72 700.818 33.72ZM702.798 40.92C702.342 40.92 701.922 40.944 701.538 40.992C701.166 41.04 700.866 41.076 700.638 41.1V43.08C700.638 43.8 700.998 44.16 701.718 44.16H703.338C704.058 44.16 704.418 43.8 704.418 43.08V41.55C704.418 41.37 704.358 41.22 704.238 41.1C704.118 40.98 703.968 40.92 703.788 40.92H702.798ZM715.036 46.68C713.032 46.68 710.812 46.56 708.376 46.32V43.89C711.028 44.07 713.008 44.16 714.316 44.16C714.592 44.16 714.808 44.082 714.964 43.926C715.132 43.758 715.216 43.536 715.216 43.26V42.36C715.216 41.64 714.856 41.28 714.136 41.28H708.916V33.9H717.556V36.42H712.156V38.76H715.036C716.212 38.76 717.076 39.03 717.628 39.57C718.18 40.098 718.456 40.908 718.456 42V43.26C718.456 44.436 718.18 45.3 717.628 45.852C717.076 46.404 716.212 46.68 715.036 46.68ZM724.119 44.07C724.755 44.07 725.475 43.95 726.279 43.71V36.96H729.429V46.5H726.639L726.459 45.6C725.895 45.972 725.313 46.248 724.713 46.428C724.125 46.596 723.627 46.68 723.219 46.68H722.409C721.593 46.68 720.939 46.434 720.447 45.942C719.955 45.45 719.709 44.796 719.709 43.98V36.96H722.859V43.44C722.859 43.62 722.919 43.77 723.039 43.89C723.159 44.01 723.309 44.07 723.489 44.07H724.119ZM734.372 37.14C735.536 36.9 736.556 36.78 737.432 36.78H738.242C739.058 36.78 739.712 37.026 740.204 37.518C740.696 38.01 740.942 38.664 740.942 39.48V46.5H737.792V39.84C737.792 39.66 737.732 39.51 737.612 39.39C737.492 39.27 737.342 39.21 737.162 39.21H736.532C736.076 39.21 735.656 39.234 735.272 39.282C734.9 39.33 734.6 39.366 734.372 39.39V46.5H731.222V33.9H734.372V37.14ZM743.46 49.74C742.344 49.74 741.204 49.68 740.04 49.56V47.22H742.38C742.56 47.22 742.71 47.16 742.83 47.04C742.95 46.92 743.01 46.77 743.01 46.59V37.32H746.16V47.04C746.16 47.856 745.914 48.51 745.422 49.002C744.93 49.494 744.276 49.74 743.46 49.74ZM743.01 33.72H746.16V36.24H743.01V33.72ZM747.237 33.9H756.957V36.42L752.817 46.5H749.217L753.537 36.42H747.237V33.9ZM761.269 33.72C762.913 33.72 764.893 33.84 767.209 34.08V36.51C766.549 36.474 765.985 36.444 765.517 36.42C765.061 36.384 764.683 36.36 764.383 36.348C764.095 36.324 763.807 36.3 763.519 36.276C763.039 36.252 762.595 36.24 762.187 36.24C761.455 36.24 761.089 36.54 761.089 37.14V38.76C762.253 38.52 763.273 38.4 764.149 38.4H765.409C766.225 38.4 766.879 38.646 767.371 39.138C767.863 39.63 768.109 40.284 768.109 41.1V43.44C768.109 44.532 767.833 45.348 767.281 45.888C766.729 46.416 765.865 46.68 764.689 46.68H761.269C760.093 46.68 759.229 46.416 758.677 45.888C758.125 45.348 757.849 44.532 757.849 43.44V37.14C757.849 35.964 758.125 35.1 758.677 34.548C759.229 33.996 760.093 33.72 761.269 33.72ZM763.249 40.92C762.793 40.92 762.373 40.944 761.989 40.992C761.617 41.04 761.317 41.076 761.089 41.1V43.08C761.089 43.8 761.449 44.16 762.169 44.16H763.789C764.509 44.16 764.869 43.8 764.869 43.08V41.55C764.869 41.37 764.809 41.22 764.689 41.1C764.569 40.98 764.419 40.92 764.239 40.92H763.249ZM773.777 44.07C774.413 44.07 775.133 43.95 775.937 43.71V36.96H779.087V46.5H776.297L776.117 45.6C775.553 45.972 774.971 46.248 774.371 46.428C773.783 46.596 773.285 46.68 772.877 46.68H772.067C771.251 46.68 770.597 46.434 770.105 45.942C769.613 45.45 769.367 44.796 769.367 43.98V36.96H772.517V43.44C772.517 43.62 772.577 43.77 772.697 43.89C772.817 44.01 772.967 44.07 773.147 44.07H773.777ZM781.78 49.74C780.664 49.74 779.524 49.68 778.36 49.56V47.22H780.7C780.88 47.22 781.03 47.16 781.15 47.04C781.27 46.92 781.33 46.77 781.33 46.59V37.32H784.48V47.04C784.48 47.856 784.234 48.51 783.742 49.002C783.25 49.494 782.596 49.74 781.78 49.74ZM781.33 33.72H784.48V36.24H781.33V33.72ZM790.237 41.46C789.517 41.46 789.157 41.82 789.157 42.54V43.26C789.157 43.536 789.235 43.758 789.391 43.926C789.559 44.082 789.781 44.16 790.057 44.16H792.757C793.033 44.16 793.249 44.082 793.405 43.926C793.573 43.758 793.657 43.536 793.657 43.26V42.54C793.657 41.82 793.297 41.46 792.577 41.46H790.237ZM790.597 36.24C789.877 36.24 789.517 36.6 789.517 37.32V37.86C789.517 38.58 789.877 38.94 790.597 38.94H792.217C792.937 38.94 793.297 38.58 793.297 37.86V37.32C793.297 36.6 792.937 36.24 792.217 36.24H790.597ZM796.897 43.26C796.897 44.436 796.621 45.3 796.069 45.852C795.517 46.404 794.653 46.68 793.477 46.68H789.337C788.161 46.68 787.297 46.404 786.745 45.852C786.193 45.3 785.917 44.436 785.917 43.26V43.08C785.917 42.168 786.145 41.412 786.601 40.812C786.961 40.332 787.453 40.008 788.077 39.84C787.537 39.66 787.099 39.348 786.763 38.904C786.439 38.448 786.277 37.86 786.277 37.14V36.96C786.277 35.868 786.553 35.058 787.105 34.53C787.657 33.99 788.521 33.72 789.697 33.72H793.117C794.293 33.72 795.157 33.99 795.709 34.53C796.261 35.058 796.537 35.868 796.537 36.96V37.14C796.537 37.86 796.369 38.448 796.033 38.904C795.709 39.348 795.277 39.66 794.737 39.84C795.709 40.104 796.369 40.752 796.717 41.784C796.837 42.156 796.897 42.588 796.897 43.08V43.26ZM797.264 33.9H806.984V36.42L802.844 46.5H799.244L803.564 36.42H797.264V33.9Z" fill="white"/>
</svg>
