<svg width="102" height="117" viewBox="0 0 102 117" fill="none" xmlns="http://www.w3.org/2000/svg">
<g clip-path="url(#clip0_2281_7069)">
<path fill-rule="evenodd" clip-rule="evenodd" d="M37.8923 6.67733C30.9125 10.3041 25.2021 13.3731 25.2033 13.4979C25.2064 13.82 41.955 22.2808 42.5494 22.2602C42.8198 22.2512 44.7815 21.3504 46.9085 20.2588L50.7763 18.2745L55.0005 20.4403L59.2244 22.6065L66.1418 19.506C76.5651 14.834 77.6477 14.322 77.478 14.15C77.2528 13.9218 73.5142 11.9184 63.3711 6.59187C58.4691 4.01748 53.7112 1.49338 52.7978 0.982627C51.8846 0.471874 51.0126 0.0610081 50.8603 0.0689612C50.708 0.0769143 44.8722 3.05071 37.8923 6.67733ZM7.27899 22.49L0.0131085 26.2337V42.6637C0.0131085 51.7004 0.108517 59.0937 0.225547 59.0937C0.342172 59.0937 3.917 57.5479 8.16942 55.6587L15.9011 52.2238V34.9054L19.6793 36.9586C22.5908 38.5394 25.504 40.117 28.4189 41.6913L33.3801 44.3707L35.5877 43.3749C36.9723 42.7494 38.354 42.1179 39.733 41.4802C40.7986 40.9852 43.4143 39.81 45.5456 38.8682C47.6769 37.926 49.6498 36.9785 49.9295 36.7625C50.3011 36.4757 45.7697 33.9778 33.1689 27.5234C23.6707 22.6581 15.5946 18.6929 15.2222 18.7119C14.8497 18.7309 11.2753 20.4308 7.27899 22.49ZM78.7875 23.5413C73.8389 25.7697 69.7867 27.6819 69.7821 27.791C69.7778 27.8999 72.4749 29.4996 75.776 31.3452C79.0769 33.1913 81.7778 34.8004 81.7778 34.9216C81.7778 35.0425 78.8568 36.4542 75.2871 38.0594C71.7169 39.6642 62.693 43.7292 55.2334 47.0928L30.2389 58.3622C23.9516 61.1973 18.2843 63.7527 17.645 64.0416C4.8027 69.8405 1.27287 71.4496 0.78813 71.7258C0.300684 72.0039 0.190276 73.6194 0.103516 81.728L0 91.399L6.49748 94.7013L12.9948 98.0034L22.0044 93.9476C26.9598 91.7171 31.014 89.7752 31.014 89.6322C31.014 89.4895 30.0983 88.8944 28.9796 88.3091C27.8604 87.7238 25.55 86.4281 23.845 85.4293C22.1401 84.4303 20.44 83.5138 20.0668 83.3922C19.6937 83.271 19.3938 83.059 19.3999 82.9207C19.4061 82.7828 23.3735 80.903 28.2158 78.7431C37.621 74.5486 44.8187 71.3157 60.271 64.3454C67.1807 61.2292 74.0913 58.1149 81.0028 55.0025C87.077 52.2677 94.1394 49.0737 96.697 47.9047L101.347 45.7793L101.451 35.9982L101.554 26.2175L94.9644 22.8435C91.3397 20.988 88.2415 19.4743 88.0791 19.4798C87.9168 19.485 83.7356 21.3124 78.7875 23.5413ZM99.5816 58.8278C98.6104 59.301 96.6923 60.1869 95.319 60.7963C93.9457 61.4057 91.3397 62.5786 89.528 63.4032L86.2342 64.9017L86.159 73.4887C86.1175 78.2113 85.9432 82.0545 85.7716 82.0295C85.3817 81.9717 79.2083 78.8136 73.0027 75.4968C68.5238 73.1031 68.2424 73.008 67.19 73.5279C66.5816 73.8286 62.9449 75.4555 59.1085 77.1439C55.2721 78.832 52.0082 80.3234 51.8547 80.4584C51.7016 80.5932 59.4227 84.7676 69.0133 89.7352L86.4501 98.7671L93.8988 94.9236C97.9952 92.8099 101.479 90.8819 101.639 90.6394C102 90.0941 101.969 57.8927 101.608 57.9363C101.465 57.9534 100.553 58.3547 99.5816 58.8278ZM58.3335 96.6242C57.0415 97.1782 55.7498 97.7331 54.4584 98.2888C50.5588 99.9716 51.3231 100.027 46.6837 97.7237C43.5938 96.1894 42.2619 95.716 41.6837 95.9459C41.2501 96.1181 37.5179 97.793 33.3894 99.6677C29.2612 101.542 25.7403 103.076 25.5652 103.076C23.8331 103.076 26.7126 104.792 37.8242 110.383L50.8553 116.939L56.3382 114.239C59.3538 112.754 65.4361 109.78 69.8549 107.631C74.2733 105.481 77.8338 103.666 77.7672 103.598C77.7 103.529 73.9977 101.633 69.5395 99.3835L61.4336 95.294L58.3335 96.6242Z" fill="white"/>
</g>
<defs>
<clipPath id="clip0_2281_7069">
<rect width="102" height="117" fill="white"/>
</clipPath>
</defs>
</svg>
