<svg width="829" height="560" viewBox="0 0 829 560" fill="none" xmlns="http://www.w3.org/2000/svg">
<g opacity="0.48" clip-path="url(#clip0_2174_7570)">
<path fill-rule="evenodd" clip-rule="evenodd" d="M93.6285 116.269C97.3062 117.263 100.268 117.917 103.123 118.862C108.712 120.707 112.295 127.102 111.139 132.826C110.657 135.181 109.299 136.66 106.909 136.81C105.098 136.917 103.227 136.661 101.433 136.306C100.113 136.04 98.8762 135.353 97.1901 134.684C96.3033 136.158 95.6161 137.58 94.6603 138.793C93.0067 140.895 90.3928 140.99 88.6169 139.12C87.1141 137.541 86.0786 135.736 86.6715 133.425C87.6532 129.562 88.469 125.626 89.7853 121.873C90.4414 120.02 92.0549 118.505 93.6389 116.282L93.6285 116.269Z" fill="#E4E4E4"/>
<path fill-rule="evenodd" clip-rule="evenodd" d="M97.7949 96.8995C101.32 97.9268 102.005 99.0177 102.212 102.939C102.401 106.546 101.123 109.341 98.1748 111.282C96.9685 112.08 95.4886 112.332 94.3264 111.188C90.4256 107.372 89.3866 103.644 91.1991 99.9924C92.8539 96.6978 94.2579 95.8713 97.7949 96.8995Z" fill="#E4E4E4"/>
<path fill-rule="evenodd" clip-rule="evenodd" d="M118.752 107.273C119.741 114.448 118.614 116.955 114.047 118.639C110.963 119.781 107.427 117.56 107.81 114.374C108.107 111.898 109.114 109.45 110.198 107.171C110.563 106.404 112.146 105.767 113.114 105.852C114.914 106.01 116.655 106.707 118.74 107.272L118.752 107.273Z" fill="#E4E4E4"/>
<path fill-rule="evenodd" clip-rule="evenodd" d="M82.6307 130.418C80.7709 130.684 78.7458 131.131 76.6931 131.241C74.3297 131.358 71.4675 128.918 71.1508 126.771C70.7836 124.283 72.5396 121.275 74.9579 120.793C77.8316 120.222 80.371 120.978 82.477 123.27C84.5831 125.563 84.6204 127.755 82.6203 130.406L82.6307 130.418Z" fill="#E4E4E4"/>
<path fill-rule="evenodd" clip-rule="evenodd" d="M81.3521 116.988C77.6013 116.172 76.1162 114.652 75.6596 112.006C75.1233 108.96 77.5795 106.083 80.4608 106.996C82.5837 107.657 84.7423 108.958 86.2288 110.594C86.9927 111.437 86.6005 113.684 86.2179 115.168C85.8382 116.617 84.3633 117.205 82.8724 117.19C81.9551 117.179 81.0342 116.948 81.3521 116.988Z" fill="#E4E4E4"/>
</g>
<g opacity="0.48" clip-path="url(#clip1_2174_7570)">
<path fill-rule="evenodd" clip-rule="evenodd" d="M84.9585 196.113C88.6362 197.108 91.5977 197.761 94.4533 198.707C100.042 200.552 103.625 206.946 102.469 212.67C101.987 215.026 100.629 216.505 98.2395 216.654C96.428 216.762 94.5566 216.505 92.7626 216.151C91.443 215.884 90.2062 215.197 88.5202 214.528C87.6333 216.002 86.9462 217.424 85.9904 218.637C84.3368 220.739 81.7229 220.834 79.947 218.964C78.4441 217.385 77.4087 215.58 78.0016 213.269C78.9832 209.406 79.799 205.47 81.1153 201.718C81.7715 199.864 83.385 198.35 84.9689 196.126L84.9585 196.113Z" fill="#E4E4E4"/>
<path fill-rule="evenodd" clip-rule="evenodd" d="M89.125 176.744C92.6506 177.771 93.3354 178.862 93.5425 182.783C93.7312 186.39 92.453 189.185 89.5049 191.127C88.2986 191.924 86.8187 192.177 85.6564 191.032C81.7557 187.216 80.7167 183.488 82.5291 179.837C84.184 176.542 85.588 175.716 89.125 176.744Z" fill="#E4E4E4"/>
<path fill-rule="evenodd" clip-rule="evenodd" d="M110.082 187.117C111.071 194.292 109.944 196.799 105.377 198.483C102.293 199.625 98.757 197.404 99.1398 194.218C99.4372 191.743 100.444 189.295 101.528 187.015C101.893 186.248 103.476 185.611 104.444 185.696C106.244 185.854 107.985 186.551 110.07 187.116L110.082 187.117Z" fill="#E4E4E4"/>
<path fill-rule="evenodd" clip-rule="evenodd" d="M73.9607 210.262C72.1009 210.528 70.0759 210.976 68.0231 211.085C65.6598 211.202 62.7976 208.762 62.4809 206.615C62.1137 204.127 63.8697 201.12 66.288 200.637C69.1617 200.067 71.701 200.822 73.8071 203.115C75.9132 205.407 75.9505 207.599 73.9504 210.25L73.9607 210.262Z" fill="#E4E4E4"/>
<path fill-rule="evenodd" clip-rule="evenodd" d="M72.6822 196.832C68.9314 196.016 67.4463 194.496 66.9896 191.85C66.4534 188.804 68.9095 185.927 71.7909 186.84C73.9138 187.501 76.0724 188.802 77.5588 190.438C78.3228 191.281 77.9306 193.528 77.5479 195.012C77.1683 196.461 75.6934 197.05 74.2025 197.035C73.2852 197.024 72.3642 196.792 72.6822 196.832Z" fill="#E4E4E4"/>
</g>
<g opacity="0.48" clip-path="url(#clip2_2174_7570)">
<path fill-rule="evenodd" clip-rule="evenodd" d="M127.327 187.501C131.112 187.066 134.105 186.58 137.108 186.403C142.983 186.053 148.675 190.672 149.715 196.419C150.137 198.785 149.421 200.661 147.257 201.683C145.613 202.452 143.779 202.905 141.981 203.238C140.656 203.478 139.253 203.296 137.439 203.297C137.16 204.995 137.046 206.57 136.606 208.051C135.846 210.615 133.452 211.669 131.111 210.587C129.131 209.674 127.502 208.38 127.2 206.013C126.685 202.061 125.989 198.102 125.826 194.129C125.751 192.164 126.691 190.16 127.341 187.509L127.327 187.501Z" fill="#E4E4E4"/>
<path fill-rule="evenodd" clip-rule="evenodd" d="M124.043 167.963C127.699 167.615 128.738 168.376 130.379 171.943C131.887 175.225 131.732 178.294 129.71 181.188C128.883 182.375 127.601 183.156 126.099 182.522C121.064 180.416 118.721 177.336 119.057 173.273C119.377 169.601 120.377 168.314 124.043 167.963Z" fill="#E4E4E4"/>
<path fill-rule="evenodd" clip-rule="evenodd" d="M147.35 169.861C150.919 176.163 150.799 178.909 147.177 182.161C144.733 184.362 140.626 183.604 139.805 180.502C139.167 178.092 139.198 175.445 139.363 172.927C139.42 172.079 140.655 170.902 141.586 170.623C143.317 170.105 145.192 170.11 147.339 169.864L147.35 169.861Z" fill="#E4E4E4"/>
<path fill-rule="evenodd" clip-rule="evenodd" d="M122.334 204.713C120.704 205.646 118.987 206.81 117.12 207.67C114.967 208.652 111.406 207.442 110.319 205.564C109.058 203.388 109.579 199.944 111.648 198.602C114.108 197.011 116.747 196.775 119.551 198.127C122.355 199.48 123.199 201.503 122.32 204.705L122.334 204.713Z" fill="#E4E4E4"/>
<path fill-rule="evenodd" clip-rule="evenodd" d="M116.184 192.704C112.398 193.332 110.456 192.468 109.054 190.178C107.43 187.545 108.65 183.964 111.665 183.748C113.882 183.578 116.368 183.99 118.354 184.961C119.375 185.462 119.841 187.695 120.033 189.215C120.216 190.702 119.063 191.794 117.672 192.331C116.815 192.66 115.874 192.785 116.184 192.704Z" fill="#E4E4E4"/>
</g>
<g opacity="0.48" clip-path="url(#clip3_2174_7570)">
<path fill-rule="evenodd" clip-rule="evenodd" d="M118.657 267.345C122.441 266.911 125.435 266.424 128.438 266.248C134.313 265.898 140.004 270.516 141.044 276.263C141.466 278.629 140.751 280.506 138.586 281.527C136.942 282.296 135.109 282.749 133.311 283.082C131.986 283.322 130.583 283.14 128.769 283.141C128.489 284.839 128.376 286.414 127.936 287.895C127.176 290.459 124.782 291.513 122.441 290.431C120.461 289.519 118.832 288.224 118.529 285.858C118.014 281.905 117.319 277.946 117.155 273.973C117.08 272.008 118.02 270.005 118.671 267.353L118.657 267.345Z" fill="#E4E4E4"/>
<path fill-rule="evenodd" clip-rule="evenodd" d="M115.373 247.807C119.029 247.459 120.068 248.22 121.709 251.787C123.217 255.069 123.061 258.139 121.039 261.032C120.213 262.219 118.931 263 117.428 262.366C112.393 260.261 110.051 257.18 110.386 253.118C110.707 249.445 111.706 248.158 115.373 247.807Z" fill="#E4E4E4"/>
<path fill-rule="evenodd" clip-rule="evenodd" d="M138.679 249.705C142.249 256.007 142.128 258.753 138.506 262.005C136.062 264.206 131.956 263.448 131.135 260.346C130.497 257.936 130.528 255.289 130.693 252.771C130.749 251.923 131.985 250.746 132.916 250.467C134.646 249.949 136.522 249.954 138.668 249.709L138.679 249.705Z" fill="#E4E4E4"/>
<path fill-rule="evenodd" clip-rule="evenodd" d="M113.664 284.557C112.033 285.49 110.317 286.655 108.45 287.515C106.297 288.496 102.736 287.286 101.648 285.408C100.388 283.232 100.909 279.789 102.978 278.447C105.437 276.855 108.076 276.619 110.88 277.971C113.684 279.324 114.529 281.347 113.649 284.549L113.664 284.557Z" fill="#E4E4E4"/>
<path fill-rule="evenodd" clip-rule="evenodd" d="M107.514 272.548C103.727 273.176 101.786 272.312 100.384 270.022C98.76 267.389 99.9796 263.808 102.994 263.592C105.211 263.422 107.698 263.834 109.684 264.805C110.705 265.306 111.171 267.539 111.363 269.059C111.546 270.546 110.392 271.638 109.002 272.175C108.145 272.504 107.204 272.629 107.514 272.548Z" fill="#E4E4E4"/>
</g>
<g opacity="0.48" clip-path="url(#clip4_2174_7570)">
<path fill-rule="evenodd" clip-rule="evenodd" d="M204.246 260.476C206.862 257.706 208.839 255.407 211.023 253.338C215.293 249.288 222.622 249.157 227.118 252.885C228.964 254.424 229.625 256.32 228.626 258.495C227.864 260.142 226.752 261.669 225.591 263.082C224.732 264.119 223.541 264.883 222.154 266.052C223.033 267.53 223.96 268.809 224.577 270.225C225.646 272.676 224.493 275.024 222.005 275.704C219.903 276.28 217.823 276.338 216.068 274.722C213.129 272.03 210.048 269.449 207.365 266.513C206.042 265.058 205.471 262.92 204.262 260.472L204.246 260.476Z" fill="#E4E4E4"/>
<path fill-rule="evenodd" clip-rule="evenodd" d="M189.154 247.639C191.727 245.019 193.012 244.932 196.564 246.605C199.831 248.146 201.688 250.594 202.004 254.11C202.136 255.551 201.658 256.974 200.1 257.456C194.892 259.087 191.116 258.238 188.757 254.913C186.638 251.897 186.574 250.269 189.154 247.639Z" fill="#E4E4E4"/>
<path fill-rule="evenodd" clip-rule="evenodd" d="M208.209 234.086C214.998 236.61 216.673 238.789 215.996 243.609C215.543 246.867 211.913 248.931 209.287 247.086C207.247 245.652 205.567 243.607 204.072 241.574C203.569 240.889 203.757 239.193 204.29 238.38C205.28 236.87 206.718 235.666 208.203 234.096L208.209 234.086Z" fill="#E4E4E4"/>
<path fill-rule="evenodd" clip-rule="evenodd" d="M211.507 276.859C210.861 278.623 210.297 280.619 209.422 282.479C208.407 284.617 204.903 285.984 202.862 285.247C200.496 284.393 198.678 281.423 199.397 279.064C200.254 276.263 202.121 274.383 205.137 273.612C208.154 272.842 210.103 273.846 211.491 276.863L211.507 276.859Z" fill="#E4E4E4"/>
<path fill-rule="evenodd" clip-rule="evenodd" d="M199.07 271.63C196.577 274.549 194.535 275.138 191.988 274.288C189.05 273.319 187.678 269.794 189.846 267.687C191.432 266.13 193.6 264.844 195.745 264.309C196.849 264.034 198.643 265.443 199.769 266.482C200.866 267.503 200.687 269.08 199.968 270.387C199.524 271.19 198.885 271.892 199.07 271.63Z" fill="#E4E4E4"/>
</g>
<g opacity="0.48" clip-path="url(#clip5_2174_7570)">
<path fill-rule="evenodd" clip-rule="evenodd" d="M195.576 340.319C198.192 337.55 200.169 335.25 202.353 333.182C206.624 329.132 213.952 329.001 218.448 332.728C220.294 334.267 220.955 336.164 219.956 338.339C219.194 339.986 218.082 341.513 216.921 342.926C216.062 343.962 214.871 344.727 213.484 345.895C214.363 347.374 215.29 348.652 215.907 350.069C216.976 352.52 215.823 354.868 213.335 355.547C211.233 356.124 209.153 356.182 207.398 354.566C204.459 351.873 201.378 349.292 198.695 346.357C197.372 344.902 196.802 342.764 195.592 340.316L195.576 340.319Z" fill="#E4E4E4"/>
<path fill-rule="evenodd" clip-rule="evenodd" d="M180.484 327.483C183.057 324.863 184.342 324.776 187.894 326.449C191.161 327.99 193.018 330.438 193.334 333.954C193.466 335.394 192.988 336.817 191.43 337.3C186.222 338.93 182.446 338.082 180.087 334.757C177.968 331.74 177.904 330.112 180.484 327.483Z" fill="#E4E4E4"/>
<path fill-rule="evenodd" clip-rule="evenodd" d="M199.539 313.93C206.328 316.454 208.003 318.633 207.326 323.453C206.873 326.711 203.243 328.774 200.617 326.93C198.577 325.496 196.897 323.451 195.402 321.418C194.899 320.732 195.087 319.037 195.62 318.224C196.61 316.713 198.048 315.509 199.533 313.94L199.539 313.93Z" fill="#E4E4E4"/>
<path fill-rule="evenodd" clip-rule="evenodd" d="M202.837 356.703C202.191 358.467 201.627 360.463 200.752 362.323C199.737 364.461 196.233 365.828 194.192 365.09C191.826 364.237 190.008 361.267 190.727 358.908C191.584 356.106 193.451 354.227 196.468 353.456C199.484 352.686 201.433 353.69 202.821 356.706L202.837 356.703Z" fill="#E4E4E4"/>
<path fill-rule="evenodd" clip-rule="evenodd" d="M190.4 351.474C187.907 354.392 185.865 354.981 183.318 354.132C180.38 353.162 179.008 349.637 181.176 347.531C182.763 345.974 184.93 344.688 187.075 344.152C188.179 343.878 189.973 345.287 191.099 346.326C192.196 347.346 192.017 348.924 191.298 350.231C190.854 351.033 190.215 351.735 190.4 351.474Z" fill="#E4E4E4"/>
</g>
<g opacity="0.48" clip-path="url(#clip6_2174_7570)">
<path fill-rule="evenodd" clip-rule="evenodd" d="M302.87 261.496C303.877 257.822 304.54 254.862 305.496 252.01C307.36 246.428 313.767 242.867 319.487 244.043C321.84 244.533 323.315 245.896 323.456 248.285C323.557 250.097 323.294 251.968 322.934 253.76C322.663 255.079 321.971 256.314 321.296 257.997C322.768 258.889 324.187 259.581 325.397 260.541C327.493 262.202 327.58 264.816 325.704 266.586C324.119 268.083 322.311 269.112 320.002 268.511C316.142 267.517 312.209 266.687 308.461 265.358C306.61 264.696 305.101 263.077 302.882 261.485L302.87 261.496Z" fill="#E4E4E4"/>
<path fill-rule="evenodd" clip-rule="evenodd" d="M283.515 257.263C284.554 253.741 285.647 253.06 289.569 252.866C293.177 252.69 295.967 253.978 297.899 256.933C298.692 258.142 298.94 259.622 297.791 260.781C293.961 264.668 290.23 265.694 286.585 263.87C283.296 262.203 282.474 260.797 283.515 257.263Z" fill="#E4E4E4"/>
<path fill-rule="evenodd" clip-rule="evenodd" d="M293.96 236.342C301.138 235.378 303.641 236.513 305.31 241.085C306.442 244.174 304.208 247.702 301.024 247.308C298.549 247.002 296.104 245.987 293.829 244.896C293.063 244.527 292.431 242.943 292.52 241.975C292.684 240.176 293.387 238.437 293.959 236.354L293.96 236.342Z" fill="#E4E4E4"/>
<path fill-rule="evenodd" clip-rule="evenodd" d="M316.981 272.542C317.24 274.403 317.681 276.429 317.784 278.482C317.893 280.846 315.443 283.7 313.295 284.009C310.806 284.368 307.804 282.602 307.33 280.182C306.769 277.306 307.533 274.769 309.833 272.671C312.133 270.573 314.325 270.543 316.969 272.552L316.981 272.542Z" fill="#E4E4E4"/>
<path fill-rule="evenodd" clip-rule="evenodd" d="M303.546 273.774C302.718 277.522 301.193 279.002 298.545 279.45C295.497 279.975 292.628 277.509 293.551 274.631C294.219 272.511 295.528 270.356 297.169 268.876C298.015 268.115 300.26 268.514 301.743 268.902C303.19 269.287 303.774 270.764 303.754 272.255C303.74 273.172 303.505 274.092 303.546 273.774Z" fill="#E4E4E4"/>
</g>
<g opacity="0.48" clip-path="url(#clip7_2174_7570)">
<path fill-rule="evenodd" clip-rule="evenodd" d="M294.2 341.34C295.207 337.666 295.871 334.707 296.826 331.854C298.69 326.272 305.097 322.711 310.817 323.887C313.17 324.377 314.645 325.74 314.786 328.129C314.888 329.941 314.624 331.812 314.264 333.605C313.993 334.923 313.301 336.158 312.627 337.841C314.098 338.733 315.517 339.425 316.727 340.385C318.824 342.046 318.91 344.66 317.034 346.43C315.449 347.927 313.641 348.957 311.332 348.356C307.472 347.361 303.539 346.532 299.791 345.202C297.94 344.54 296.431 342.921 294.213 341.33L294.2 341.34Z" fill="#E4E4E4"/>
<path fill-rule="evenodd" clip-rule="evenodd" d="M274.845 337.107C275.884 333.585 276.977 332.904 280.899 332.711C284.507 332.534 287.297 333.822 289.229 336.777C290.022 337.986 290.27 339.467 289.121 340.625C285.292 344.513 281.56 345.539 277.915 343.714C274.626 342.048 273.804 340.641 274.845 337.107Z" fill="#E4E4E4"/>
<path fill-rule="evenodd" clip-rule="evenodd" d="M285.29 316.186C292.468 315.222 294.971 316.357 296.64 320.93C297.772 324.018 295.538 327.546 292.354 327.153C289.879 326.847 287.435 325.831 285.159 324.74C284.393 324.372 283.762 322.787 283.85 321.819C284.014 320.02 284.717 318.281 285.289 316.198L285.29 316.186Z" fill="#E4E4E4"/>
<path fill-rule="evenodd" clip-rule="evenodd" d="M308.311 352.386C308.57 354.247 309.011 356.273 309.114 358.326C309.223 360.69 306.773 363.544 304.625 363.853C302.136 364.212 299.134 362.446 298.66 360.026C298.099 357.15 298.863 354.613 301.163 352.515C303.463 350.417 305.655 350.387 308.299 352.396L308.311 352.386Z" fill="#E4E4E4"/>
<path fill-rule="evenodd" clip-rule="evenodd" d="M294.876 353.618C294.048 357.366 292.523 358.846 289.875 359.294C286.827 359.82 283.958 357.354 284.881 354.475C285.549 352.355 286.858 350.201 288.499 348.72C289.345 347.959 291.59 348.359 293.073 348.746C294.521 349.131 295.104 350.608 295.084 352.099C295.07 353.016 294.836 353.936 294.876 353.618Z" fill="#E4E4E4"/>
</g>
<g opacity="0.48" clip-path="url(#clip8_2174_7570)">
<path fill-rule="evenodd" clip-rule="evenodd" d="M395.963 216.163C394.255 212.757 392.769 210.113 391.572 207.354C389.225 201.957 391.607 195.025 396.646 192.074C398.724 190.864 400.732 190.892 402.435 192.574C403.722 193.853 404.777 195.42 405.708 196.994C406.388 198.155 406.7 199.536 407.324 201.239C409.014 200.918 410.532 200.483 412.074 200.388C414.743 200.221 416.555 202.107 416.344 204.677C416.167 206.85 415.511 208.825 413.393 209.922C409.858 211.763 406.379 213.777 402.703 215.295C400.884 216.041 398.679 215.846 395.966 216.147L395.963 216.163Z" fill="#E4E4E4"/>
<path fill-rule="evenodd" clip-rule="evenodd" d="M378.742 225.959C377.159 222.645 377.516 221.408 380.303 218.641C382.867 216.098 385.803 215.189 389.215 216.094C390.614 216.462 391.788 217.398 391.709 219.027C391.461 224.479 389.373 227.737 385.442 228.818C381.883 229.778 380.331 229.282 378.742 225.959Z" fill="#E4E4E4"/>
<path fill-rule="evenodd" clip-rule="evenodd" d="M372.517 203.42C377.209 197.902 379.829 197.072 384.128 199.356C387.035 200.896 387.734 205.012 385.102 206.849C383.058 208.276 380.562 209.157 378.14 209.867C377.324 210.105 375.795 209.349 375.213 208.571C374.132 207.123 373.492 205.36 372.524 203.429L372.517 203.42Z" fill="#E4E4E4"/>
<path fill-rule="evenodd" clip-rule="evenodd" d="M413.842 214.938C415.279 216.149 416.962 217.361 418.411 218.819C420.073 220.503 420.16 224.263 418.77 225.93C417.159 227.861 413.746 228.555 411.775 227.073C409.435 225.31 408.307 222.913 408.614 219.815C408.92 216.717 410.531 215.229 413.84 214.955L413.842 214.938Z" fill="#E4E4E4"/>
<path fill-rule="evenodd" clip-rule="evenodd" d="M404.677 224.84C406.568 228.18 406.424 230.3 404.755 232.403C402.84 234.833 399.058 234.918 397.819 232.161C396.898 230.137 396.43 227.661 396.66 225.462C396.78 224.331 398.717 223.126 400.078 222.423C401.412 221.741 402.834 222.449 403.816 223.571C404.419 224.262 404.86 225.103 404.677 224.84Z" fill="#E4E4E4"/>
</g>
<g opacity="0.48" clip-path="url(#clip9_2174_7570)">
<path fill-rule="evenodd" clip-rule="evenodd" d="M387.293 296.007C385.584 292.602 384.099 289.958 382.902 287.198C380.555 281.801 382.937 274.869 387.976 271.918C390.053 270.709 392.061 270.736 393.764 272.418C395.051 273.697 396.106 275.264 397.037 276.838C397.718 278 398.029 279.38 398.653 281.083C400.344 280.762 401.862 280.328 403.404 280.232C406.073 280.065 407.885 281.951 407.673 284.521C407.497 286.694 406.84 288.669 404.722 289.766C401.187 291.608 397.709 293.621 394.033 295.14C392.213 295.885 390.009 295.691 387.295 295.991L387.293 296.007Z" fill="#E4E4E4"/>
<path fill-rule="evenodd" clip-rule="evenodd" d="M370.071 305.803C368.489 302.49 368.846 301.252 371.632 298.486C374.197 295.942 377.132 295.033 380.545 295.938C381.943 296.307 383.117 297.242 383.038 298.871C382.79 304.323 380.703 307.581 376.772 308.662C373.212 309.623 371.661 309.126 370.071 305.803Z" fill="#E4E4E4"/>
<path fill-rule="evenodd" clip-rule="evenodd" d="M363.847 283.264C368.539 277.746 371.159 276.916 375.457 279.2C378.364 280.74 379.063 284.856 376.432 286.693C374.388 288.121 371.891 289.001 369.47 289.711C368.654 289.949 367.124 289.193 366.543 288.415C365.461 286.967 364.821 285.205 363.854 283.273L363.847 283.264Z" fill="#E4E4E4"/>
<path fill-rule="evenodd" clip-rule="evenodd" d="M405.172 294.783C406.609 295.993 408.292 297.205 409.741 298.663C411.402 300.347 411.49 304.107 410.099 305.774C408.489 307.705 405.076 308.399 403.105 306.917C400.765 305.154 399.637 302.757 399.943 299.659C400.25 296.561 401.86 295.073 405.169 294.799L405.172 294.783Z" fill="#E4E4E4"/>
<path fill-rule="evenodd" clip-rule="evenodd" d="M396.007 304.684C397.897 308.024 397.753 310.145 396.084 312.248C394.169 314.677 390.387 314.762 389.149 312.005C388.227 309.981 387.76 307.505 387.99 305.306C388.109 304.175 390.047 302.971 391.408 302.268C392.742 301.585 394.163 302.293 395.145 303.415C395.748 304.106 396.189 304.947 396.007 304.684Z" fill="#E4E4E4"/>
</g>
<g opacity="0.48" clip-path="url(#clip10_2174_7570)">
<path fill-rule="evenodd" clip-rule="evenodd" d="M493.117 169.183C494.692 165.714 495.815 162.897 497.209 160.231C499.932 155.013 506.821 152.51 512.284 154.575C514.53 155.431 515.771 157.01 515.533 159.392C515.346 161.197 514.791 163.002 514.152 164.715C513.676 165.975 512.798 167.084 511.865 168.64C513.177 169.753 514.469 170.661 515.513 171.8C517.32 173.771 516.992 176.366 514.86 177.817C513.058 179.045 511.11 179.776 508.925 178.818C505.271 177.225 501.519 175.785 498.028 173.88C496.305 172.933 495.07 171.097 493.131 169.174L493.117 169.183Z" fill="#E4E4E4"/>
<path fill-rule="evenodd" clip-rule="evenodd" d="M474.674 161.944C476.257 158.631 477.444 158.131 481.348 158.56C484.938 158.956 487.489 160.668 488.93 163.891C489.522 165.21 489.533 166.712 488.216 167.674C483.819 170.907 479.973 171.331 476.662 168.953C473.678 166.788 473.089 165.269 474.674 161.944Z" fill="#E4E4E4"/>
<path fill-rule="evenodd" clip-rule="evenodd" d="M488.295 142.937C495.535 143.119 497.828 144.635 498.753 149.414C499.382 152.643 496.619 155.774 493.537 154.881C491.142 154.188 488.888 152.8 486.814 151.362C486.116 150.877 485.743 149.213 485.983 148.271C486.429 146.52 487.398 144.915 488.292 142.948L488.295 142.937Z" fill="#E4E4E4"/>
<path fill-rule="evenodd" clip-rule="evenodd" d="M505.306 182.32C505.268 184.198 505.383 186.269 505.16 188.313C504.893 190.664 502.024 193.095 499.853 193.061C497.339 193.021 494.654 190.803 494.568 188.338C494.469 185.41 495.625 183.026 498.227 181.318C500.83 179.61 502.999 179.927 505.292 182.328L505.306 182.32Z" fill="#E4E4E4"/>
<path fill-rule="evenodd" clip-rule="evenodd" d="M491.845 181.414C490.435 184.984 488.695 186.204 486.01 186.228C482.917 186.265 480.474 183.377 481.84 180.68C482.835 178.692 484.467 176.772 486.322 175.569C487.277 174.951 489.432 175.701 490.834 176.318C492.203 176.927 492.546 178.477 492.29 179.946C492.131 180.85 491.754 181.721 491.845 181.414Z" fill="#E4E4E4"/>
</g>
<g opacity="0.48" clip-path="url(#clip11_2174_7570)">
<path fill-rule="evenodd" clip-rule="evenodd" d="M484.447 249.027C486.022 245.558 487.145 242.741 488.539 240.075C491.262 234.858 498.151 232.354 503.614 234.419C505.86 235.275 507.101 236.854 506.863 239.236C506.676 241.041 506.121 242.846 505.482 244.56C505.006 245.819 504.128 246.929 503.195 248.484C504.507 249.598 505.8 250.505 506.843 251.645C508.65 253.616 508.322 256.211 506.19 257.661C504.388 258.89 502.44 259.62 500.255 258.662C496.601 257.07 492.849 255.629 489.358 253.724C487.635 252.778 486.4 250.941 484.461 249.019L484.447 249.027Z" fill="#E4E4E4"/>
<path fill-rule="evenodd" clip-rule="evenodd" d="M466.004 241.789C467.587 238.475 468.774 237.975 472.678 238.404C476.268 238.8 478.82 240.512 480.26 243.735C480.852 245.055 480.863 246.556 479.546 247.518C475.15 250.752 471.303 251.175 467.992 248.797C465.008 246.632 464.419 245.113 466.004 241.789Z" fill="#E4E4E4"/>
<path fill-rule="evenodd" clip-rule="evenodd" d="M479.625 222.781C486.865 222.963 489.158 224.48 490.083 229.258C490.712 232.487 487.949 235.618 484.867 234.726C482.472 234.033 480.218 232.644 478.144 231.206C477.446 230.722 477.073 229.057 477.313 228.115C477.759 226.365 478.728 224.759 479.622 222.792L479.625 222.781Z" fill="#E4E4E4"/>
<path fill-rule="evenodd" clip-rule="evenodd" d="M496.636 262.164C496.598 264.043 496.713 266.113 496.49 268.157C496.224 270.508 493.354 272.939 491.183 272.905C488.669 272.866 485.984 270.647 485.898 268.183C485.799 265.255 486.955 262.871 489.557 261.162C492.16 259.454 494.329 259.771 496.622 262.173L496.636 262.164Z" fill="#E4E4E4"/>
<path fill-rule="evenodd" clip-rule="evenodd" d="M483.175 261.258C481.765 264.828 480.025 266.048 477.34 266.072C474.247 266.109 471.804 263.221 473.17 260.525C474.165 258.536 475.798 256.616 477.652 255.413C478.607 254.795 480.762 255.545 482.164 256.162C483.533 256.771 483.876 258.321 483.62 259.79C483.461 260.694 483.085 261.565 483.175 261.258Z" fill="#E4E4E4"/>
</g>
<g opacity="0.48" clip-path="url(#clip12_2174_7570)">
<path fill-rule="evenodd" clip-rule="evenodd" d="M596.067 212.721C599.749 211.742 602.64 210.827 605.585 210.217C611.348 209.019 617.649 212.764 619.511 218.299C620.272 220.579 619.836 222.539 617.842 223.864C616.327 224.863 614.578 225.577 612.847 226.167C611.571 226.597 610.157 226.62 608.362 226.884C608.331 228.604 608.448 230.18 608.227 231.708C607.847 234.355 605.631 235.745 603.158 235.014C601.066 234.399 599.267 233.354 598.624 231.056C597.542 227.22 596.28 223.404 595.542 219.496C595.183 217.563 595.823 215.444 596.082 212.727L596.067 212.721Z" fill="#E4E4E4"/>
<path fill-rule="evenodd" clip-rule="evenodd" d="M589.986 193.864C593.552 192.99 594.691 193.592 596.832 196.884C598.799 199.913 599.09 202.972 597.509 206.129C596.864 207.423 595.708 208.381 594.13 207.972C588.843 206.618 586.078 203.91 585.821 199.842C585.606 196.161 586.409 194.743 589.986 193.864Z" fill="#E4E4E4"/>
<path fill-rule="evenodd" clip-rule="evenodd" d="M613.321 192.364C617.767 198.082 618.045 200.816 614.933 204.559C612.834 207.091 608.661 206.936 607.399 203.986C606.418 201.694 606.065 199.07 605.863 196.555C605.796 195.708 606.848 194.364 607.729 193.954C609.366 193.19 611.222 192.923 613.311 192.369L613.321 192.364Z" fill="#E4E4E4"/>
<path fill-rule="evenodd" clip-rule="evenodd" d="M593.622 230.474C592.144 231.634 590.615 233.035 588.892 234.156C586.904 235.44 583.205 234.759 581.857 233.058C580.294 231.088 580.31 227.605 582.163 225.977C584.366 224.046 586.943 223.43 589.913 224.362C592.884 225.293 594.013 227.173 593.606 230.468L593.622 230.474Z" fill="#E4E4E4"/>
<path fill-rule="evenodd" clip-rule="evenodd" d="M585.796 219.484C582.141 220.654 580.094 220.081 578.375 218.018C576.387 215.648 577.075 211.928 580.026 211.278C582.195 210.788 584.715 210.835 586.821 211.508C587.904 211.856 588.688 213.998 589.099 215.474C589.495 216.918 588.513 218.166 587.214 218.899C586.414 219.348 585.501 219.609 585.796 219.484Z" fill="#E4E4E4"/>
</g>
<g opacity="0.48" clip-path="url(#clip13_2174_7570)">
<path fill-rule="evenodd" clip-rule="evenodd" d="M587.396 292.565C591.078 291.586 593.969 290.671 596.915 290.061C602.677 288.863 608.978 292.608 610.84 298.143C611.601 300.423 611.165 302.384 609.171 303.708C607.656 304.707 605.907 305.421 604.177 306.012C602.901 306.441 601.486 306.465 599.692 306.729C599.661 308.449 599.777 310.024 599.557 311.553C599.176 314.2 596.96 315.589 594.487 314.859C592.396 314.243 590.596 313.198 589.954 310.901C588.872 307.064 587.609 303.248 586.872 299.34C586.513 297.407 587.152 295.289 587.412 292.571L587.396 292.565Z" fill="#E4E4E4"/>
<path fill-rule="evenodd" clip-rule="evenodd" d="M581.315 273.709C584.882 272.835 586.02 273.437 588.161 276.728C590.129 279.757 590.42 282.817 588.839 285.973C588.193 287.267 587.038 288.226 585.459 287.816C580.172 286.463 577.408 283.755 577.151 279.686C576.936 276.006 577.738 274.588 581.315 273.709Z" fill="#E4E4E4"/>
<path fill-rule="evenodd" clip-rule="evenodd" d="M604.651 272.208C609.096 277.926 609.375 280.66 606.263 284.403C604.163 286.935 599.991 286.781 598.728 283.83C597.748 281.538 597.395 278.915 597.193 276.399C597.126 275.552 598.178 274.209 599.058 273.798C600.696 273.034 602.552 272.767 604.64 272.213L604.651 272.208Z" fill="#E4E4E4"/>
<path fill-rule="evenodd" clip-rule="evenodd" d="M584.951 310.318C583.474 311.478 581.944 312.879 580.221 314.001C578.234 315.284 574.535 314.603 573.186 312.902C571.624 310.932 571.64 307.449 573.493 305.822C575.696 303.89 578.272 303.274 581.243 304.206C584.213 305.138 585.342 307.017 584.936 310.313L584.951 310.318Z" fill="#E4E4E4"/>
<path fill-rule="evenodd" clip-rule="evenodd" d="M577.126 299.328C573.47 300.498 571.424 299.925 569.705 297.862C567.717 295.492 568.404 291.773 571.356 291.122C573.525 290.632 576.045 290.679 578.15 291.352C579.233 291.7 580.018 293.842 580.429 295.318C580.825 296.763 579.842 298.01 578.544 298.743C577.744 299.192 576.831 299.453 577.126 299.328Z" fill="#E4E4E4"/>
</g>
<g opacity="0.48" clip-path="url(#clip14_2174_7570)">
<path fill-rule="evenodd" clip-rule="evenodd" d="M670.612 286.808C674.418 286.99 677.45 286.993 680.442 287.304C686.297 287.907 691.168 293.384 691.266 299.223C691.301 301.627 690.292 303.363 687.99 304.021C686.244 304.515 684.361 304.666 682.533 304.704C681.187 304.727 679.831 304.321 678.041 304.029C677.491 305.659 677.125 307.196 676.452 308.586C675.287 310.993 672.755 311.647 670.619 310.202C668.812 308.981 667.414 307.441 667.497 305.056C667.627 301.073 667.58 297.054 668.061 293.106C668.304 291.155 669.555 289.329 670.625 286.818L670.612 286.808Z" fill="#E4E4E4"/>
<path fill-rule="evenodd" clip-rule="evenodd" d="M670.527 266.995C674.191 267.242 675.094 268.161 676.137 271.946C677.095 275.428 676.447 278.432 673.984 280.962C672.977 281.999 671.585 282.563 670.205 281.695C665.576 278.804 663.761 275.386 664.748 271.431C665.658 267.858 666.852 266.749 670.527 266.995Z" fill="#E4E4E4"/>
<path fill-rule="evenodd" clip-rule="evenodd" d="M693.221 272.632C695.726 279.427 695.163 282.118 691.064 284.742C688.296 286.52 684.367 285.109 684.057 281.915C683.816 279.433 684.275 276.826 684.844 274.367C685.037 273.54 686.446 272.578 687.41 272.453C689.201 272.221 691.051 272.529 693.21 272.633L693.221 272.632Z" fill="#E4E4E4"/>
<path fill-rule="evenodd" clip-rule="evenodd" d="M662.906 302.987C661.146 303.645 659.265 304.517 657.283 305.064C655 305.685 651.681 303.916 650.911 301.887C650.019 299.536 651.089 296.221 653.347 295.231C656.032 294.058 658.674 294.251 661.223 296.038C663.772 297.826 664.278 299.959 662.893 302.977L662.906 302.987Z" fill="#E4E4E4"/>
<path fill-rule="evenodd" clip-rule="evenodd" d="M658.776 290.142C654.938 290.151 653.161 288.985 652.148 286.498C650.97 283.637 652.752 280.301 655.762 280.574C657.978 280.765 660.365 281.572 662.168 282.851C663.095 283.511 663.194 285.79 663.138 287.321C663.078 288.818 661.764 289.709 660.305 290.014C659.406 290.201 658.457 290.172 658.776 290.142Z" fill="#E4E4E4"/>
</g>
<g opacity="0.48" clip-path="url(#clip15_2174_7570)">
<path fill-rule="evenodd" clip-rule="evenodd" d="M661.942 366.651C665.748 366.834 668.78 366.837 671.772 367.147C677.627 367.751 682.498 373.228 682.596 379.067C682.631 381.471 681.622 383.207 679.32 383.865C677.574 384.359 675.691 384.509 673.863 384.548C672.517 384.571 671.161 384.165 669.371 383.873C668.821 385.503 668.455 387.04 667.782 388.43C666.618 390.837 664.085 391.491 661.949 390.045C660.143 388.825 658.744 387.284 658.827 384.9C658.958 380.916 658.91 376.897 659.391 372.95C659.634 370.998 660.885 369.173 661.955 366.661L661.942 366.651Z" fill="#E4E4E4"/>
<path fill-rule="evenodd" clip-rule="evenodd" d="M661.857 346.839C665.521 347.086 666.424 348.004 667.468 351.79C668.426 355.272 667.777 358.276 665.314 360.805C664.307 361.843 662.915 362.407 661.535 361.539C656.906 358.648 655.092 355.23 656.079 351.274C656.988 347.702 658.182 346.593 661.857 346.839Z" fill="#E4E4E4"/>
<path fill-rule="evenodd" clip-rule="evenodd" d="M684.551 352.476C687.056 359.271 686.493 361.961 682.394 364.586C679.626 366.363 675.697 364.953 675.387 361.759C675.147 359.277 675.605 356.67 676.174 354.211C676.367 353.384 677.776 352.422 678.74 352.297C680.532 352.065 682.382 352.372 684.54 352.477L684.551 352.476Z" fill="#E4E4E4"/>
<path fill-rule="evenodd" clip-rule="evenodd" d="M654.236 382.83C652.477 383.489 650.595 384.36 648.613 384.908C646.33 385.529 643.011 383.76 642.241 381.73C641.349 379.38 642.419 376.065 644.677 375.075C647.362 373.901 650.004 374.095 652.553 375.882C655.102 377.669 655.608 379.803 654.223 382.82L654.236 382.83Z" fill="#E4E4E4"/>
<path fill-rule="evenodd" clip-rule="evenodd" d="M650.106 369.986C646.268 369.994 644.491 368.828 643.478 366.342C642.3 363.481 644.082 360.144 647.092 360.418C649.308 360.608 651.695 361.416 653.498 362.695C654.425 363.355 654.524 365.634 654.468 367.165C654.408 368.662 653.094 369.553 651.635 369.858C650.736 370.044 649.787 370.016 650.106 369.986Z" fill="#E4E4E4"/>
</g>
<g opacity="0.48" clip-path="url(#clip16_2174_7570)">
<path fill-rule="evenodd" clip-rule="evenodd" d="M738.755 378.688C742.047 380.607 744.735 382.01 747.246 383.667C752.16 386.905 753.952 394.012 751.344 399.237C750.265 401.385 748.568 402.459 746.223 401.981C744.446 401.612 742.706 400.877 741.066 400.067C739.862 399.466 738.847 398.48 737.394 397.394C736.153 398.586 735.119 399.78 733.88 400.702C731.736 402.3 729.187 401.711 727.96 399.443C726.921 397.526 726.392 395.513 727.567 393.437C729.521 389.964 731.335 386.377 733.584 383.097C734.701 381.478 736.653 380.437 738.762 378.703L738.755 378.688Z" fill="#E4E4E4"/>
<path fill-rule="evenodd" clip-rule="evenodd" d="M747.827 361.075C750.963 362.985 751.34 364.217 750.518 368.057C749.76 371.588 747.797 373.953 744.445 375.059C743.072 375.515 741.578 375.373 740.754 373.965C737.983 369.263 737.952 365.394 740.653 362.341C743.11 359.592 744.681 359.16 747.827 361.075Z" fill="#E4E4E4"/>
<path fill-rule="evenodd" clip-rule="evenodd" d="M765.355 376.552C764.44 383.737 762.698 385.863 757.85 386.299C754.575 386.598 751.74 383.532 752.94 380.556C753.873 378.243 755.483 376.142 757.123 374.224C757.676 373.579 759.37 373.377 760.283 373.711C761.979 374.332 763.478 375.459 765.344 376.548L765.355 376.552Z" fill="#E4E4E4"/>
<path fill-rule="evenodd" clip-rule="evenodd" d="M724.449 389.481C722.585 389.253 720.513 389.157 718.503 388.728C716.191 388.225 714.063 385.123 714.317 382.967C714.611 380.47 717.091 378.024 719.551 378.189C722.474 378.387 724.729 379.778 726.164 382.541C727.6 385.303 727.065 387.429 724.443 389.467L724.449 389.481Z" fill="#E4E4E4"/>
<path fill-rule="evenodd" clip-rule="evenodd" d="M726.717 376.182C723.308 374.417 722.271 372.562 722.52 369.888C722.796 366.807 725.917 364.67 728.461 366.303C730.338 367.494 732.083 369.313 733.091 371.28C733.609 372.293 732.645 374.36 731.889 375.693C731.144 376.993 729.567 377.177 728.132 376.774C727.249 376.524 726.42 376.061 726.717 376.182Z" fill="#E4E4E4"/>
</g>
<g opacity="0.48" clip-path="url(#clip17_2174_7570)">
<path fill-rule="evenodd" clip-rule="evenodd" d="M730.085 458.532C733.376 460.45 736.065 461.853 738.575 463.51C743.49 466.749 745.282 473.856 742.674 479.081C741.594 481.229 739.898 482.303 737.552 481.824C735.775 481.456 734.035 480.72 732.396 479.911C731.191 479.31 730.177 478.323 728.723 477.238C727.483 478.43 726.449 479.624 725.21 480.546C723.065 482.144 720.517 481.554 719.29 479.286C718.251 477.37 717.722 475.357 718.896 473.281C720.851 469.807 722.665 466.22 724.914 462.94C726.03 461.322 727.983 460.28 730.092 458.547L730.085 458.532Z" fill="#E4E4E4"/>
<path fill-rule="evenodd" clip-rule="evenodd" d="M739.157 440.918C742.293 442.829 742.669 444.061 741.847 447.9C741.089 451.432 739.127 453.797 735.774 454.903C734.402 455.358 732.907 455.216 732.083 453.809C729.312 449.107 729.281 445.237 731.983 442.185C734.439 439.436 736.01 439.004 739.157 440.918Z" fill="#E4E4E4"/>
<path fill-rule="evenodd" clip-rule="evenodd" d="M756.685 456.396C755.769 463.581 754.028 465.707 749.18 466.143C745.904 466.441 743.07 463.376 744.27 460.399C745.202 458.087 746.813 455.986 748.453 454.068C749.006 453.423 750.7 453.22 751.612 453.555C753.309 454.176 754.808 455.303 756.674 456.392L756.685 456.396Z" fill="#E4E4E4"/>
<path fill-rule="evenodd" clip-rule="evenodd" d="M715.779 469.325C713.914 469.097 711.843 469.001 709.832 468.572C707.52 468.068 705.393 464.967 705.647 462.811C705.941 460.314 708.42 457.868 710.881 458.032C713.804 458.231 716.058 459.622 717.494 462.384C718.93 465.147 718.394 467.273 715.772 469.31L715.779 469.325Z" fill="#E4E4E4"/>
<path fill-rule="evenodd" clip-rule="evenodd" d="M718.046 456.025C714.638 454.26 713.6 452.406 713.849 449.732C714.126 446.651 717.247 444.514 719.791 446.146C721.668 447.338 723.412 449.157 724.421 451.124C724.939 452.137 723.974 454.204 723.218 455.537C722.474 456.837 720.897 457.02 719.461 456.617C718.578 456.368 717.75 455.904 718.046 456.025Z" fill="#E4E4E4"/>
</g>
<defs>
<clipPath id="clip0_2174_7570">
<rect width="46.5726" height="44.1532" fill="white" transform="translate(73.8594 94.5801) rotate(5.01244)"/>
</clipPath>
<clipPath id="clip1_2174_7570">
<rect width="46.5726" height="44.1532" fill="white" transform="translate(65.1895 174.424) rotate(5.01244)"/>
</clipPath>
<clipPath id="clip2_2174_7570">
<rect width="46.5726" height="44.1532" fill="white" transform="translate(100.944 174.649) rotate(-16.667)"/>
</clipPath>
<clipPath id="clip3_2174_7570">
<rect width="46.5726" height="44.1532" fill="white" transform="translate(92.2734 254.494) rotate(-16.667)"/>
</clipPath>
<clipPath id="clip4_2174_7570">
<rect width="46.5726" height="44.1532" fill="white" transform="translate(175.784 267.628) rotate(-56.7459)"/>
</clipPath>
<clipPath id="clip5_2174_7570">
<rect width="46.5726" height="44.1532" fill="white" transform="translate(167.114 347.472) rotate(-56.7459)"/>
</clipPath>
<clipPath id="clip6_2174_7570">
<rect width="46.5726" height="44.1532" fill="white" transform="translate(281.113 281.19) rotate(-84.7912)"/>
</clipPath>
<clipPath id="clip7_2174_7570">
<rect width="46.5726" height="44.1532" fill="white" transform="translate(272.443 361.035) rotate(-84.7912)"/>
</clipPath>
<clipPath id="clip8_2174_7570">
<rect width="46.5726" height="44.1532" fill="white" transform="translate(392.958 245.355) rotate(-126.761)"/>
</clipPath>
<clipPath id="clip9_2174_7570">
<rect width="46.5726" height="44.1532" fill="white" transform="translate(384.288 325.199) rotate(-126.761)"/>
</clipPath>
<clipPath id="clip10_2174_7570">
<rect width="46.5726" height="44.1532" fill="white" transform="translate(468.522 185.191) rotate(-75.6982)"/>
</clipPath>
<clipPath id="clip11_2174_7570">
<rect width="46.5726" height="44.1532" fill="white" transform="translate(459.852 265.036) rotate(-75.6982)"/>
</clipPath>
<clipPath id="clip12_2174_7570">
<rect width="46.5726" height="44.1532" fill="white" transform="translate(568.1 203.829) rotate(-25.0021)"/>
</clipPath>
<clipPath id="clip13_2174_7570">
<rect width="46.5726" height="44.1532" fill="white" transform="translate(559.429 283.673) rotate(-25.0021)"/>
</clipPath>
<clipPath id="clip14_2174_7570">
<rect width="46.5726" height="44.1532" fill="white" transform="translate(646.651 269.864) rotate(-7.3743)"/>
</clipPath>
<clipPath id="clip15_2174_7570">
<rect width="46.5726" height="44.1532" fill="white" transform="translate(637.981 349.708) rotate(-7.3743)"/>
</clipPath>
<clipPath id="clip16_2174_7570">
<rect width="46.5726" height="44.1532" fill="white" transform="translate(725.324 352.596) rotate(20.1228)"/>
</clipPath>
<clipPath id="clip17_2174_7570">
<rect width="46.5726" height="44.1532" fill="white" transform="translate(716.653 432.439) rotate(20.1228)"/>
</clipPath>
</defs>
</svg>
