<svg width="684" height="162" viewBox="0 0 684 162" fill="none" xmlns="http://www.w3.org/2000/svg">
<path d="M47.4087 52.7109L47.1597 63.2529L11.4663 64.332V51.2583L25.3286 51.8394L22.6724 18.3457L7.89697 18.4287L7.64795 30.5894H0.509277L2.62598 5.85303L57.2036 3.65332L60.3579 29.5103L52.5137 30.5894L52.2646 18.1797L35.7876 18.2627L33.0483 52.0884L47.4087 52.7109ZM90.9878 55.9897L90.1992 64.9546L61.7275 64.7471V57.1934L70.3188 56.8613L69.7378 10.626L60.8975 10.958V4.23438L84.1812 2.86475L82.8945 27.7256C84.9697 26.0378 87.0034 24.7788 88.9956 23.9487C91.0155 23.1187 92.8001 22.5376 94.3496 22.2056C96.1758 21.8182 97.9189 21.666 99.5791 21.749C102.346 21.749 104.698 22.1364 106.635 22.9111C108.599 23.6582 110.176 24.7373 111.366 26.1484C112.584 27.5319 113.469 29.1921 114.022 31.1289C114.576 33.0658 114.853 35.2101 114.853 37.562C114.853 41.1867 114.687 44.6177 114.354 47.855C114.05 51.0646 113.621 54.1774 113.068 57.1934L121.908 56.6953L120.746 64.9546L98.2925 64.083C98.5968 61.5928 98.8874 59.2271 99.1641 56.9858C99.4684 54.717 99.7313 52.5311 99.9526 50.4282C100.202 48.2977 100.395 46.2363 100.534 44.2441C100.672 42.2243 100.741 40.2183 100.741 38.2261C100.741 36.981 100.644 35.8188 100.451 34.7397C100.257 33.633 99.925 32.6784 99.4546 31.876C98.9842 31.0736 98.3478 30.4372 97.5454 29.9668C96.7707 29.4688 95.8022 29.1921 94.6401 29.1367C93.5887 29.1921 92.4266 29.4411 91.1538 29.8838C90.0747 30.2712 88.8019 30.8937 87.3354 31.7515C85.869 32.5815 84.278 33.7852 82.5625 35.3623L81.4419 56.4463L90.9878 55.9897ZM172.833 49.8057C171.782 52.5449 170.316 54.9245 168.434 56.9443C166.58 58.9365 164.477 60.5967 162.125 61.9248C159.774 63.2253 157.283 64.1937 154.655 64.8301C152.026 65.4665 149.439 65.7847 146.894 65.7847C143.352 65.7847 140.198 65.2313 137.431 64.1245C134.664 63.0177 132.312 61.5236 130.375 59.6421C128.438 57.7606 126.916 55.5609 125.81 53.043C124.73 50.4974 124.108 47.7996 123.942 44.9497C123.942 40.6056 124.661 36.8979 126.1 33.8267C127.567 30.7277 129.545 28.2098 132.035 26.2729C134.553 24.3361 137.486 22.925 140.834 22.0396C144.182 21.1265 147.737 20.6699 151.5 20.6699C152.884 20.6699 154.309 20.7668 155.775 20.9604C157.27 21.1541 158.722 21.5 160.133 21.998C161.544 22.4961 162.886 23.1878 164.159 24.0732C165.46 24.931 166.622 26.0516 167.646 27.4351C168.697 28.7909 169.582 30.4233 170.302 32.3325C171.021 34.2417 171.519 36.4967 171.796 39.0977L137.721 45.1987C137.943 47.1079 138.33 48.9756 138.883 50.8018C139.464 52.6279 140.239 54.2466 141.208 55.6577C142.176 57.0412 143.366 58.1479 144.777 58.978C146.216 59.7804 147.917 60.154 149.882 60.0986C152.012 59.8496 153.894 59.2132 155.526 58.1895C156.218 57.7467 156.882 57.2072 157.519 56.5708C158.155 55.9067 158.708 55.1182 159.179 54.2051C159.649 53.292 159.995 52.2267 160.216 51.0093C160.438 49.7918 160.479 48.3945 160.341 46.8174L172.833 49.8057ZM157.104 36.4414C156.993 35.141 156.758 34.0065 156.398 33.0381C156.038 32.0697 155.582 31.2396 155.028 30.5479C154.503 29.8561 153.908 29.2889 153.244 28.8462C152.607 28.3758 151.957 28.0023 151.293 27.7256C149.743 27.0892 148 26.7987 146.063 26.854C144.237 27.0754 142.757 27.6011 141.623 28.4312C140.488 29.2336 139.603 30.2435 138.966 31.4609C138.358 32.6507 137.943 33.9788 137.721 35.4453C137.5 36.9118 137.389 38.4059 137.389 39.9277L157.104 36.4414ZM263.188 3.07227L254.679 23.8657C251.553 22.3716 248.564 21.2371 245.714 20.4624C242.892 19.66 240.402 19.0789 238.244 18.7192C235.698 18.3042 233.332 18.0967 231.146 18.0967C227.909 18.152 225.17 18.401 222.929 18.8438C220.688 19.2588 218.889 19.8398 217.533 20.5869C216.205 21.3063 215.278 22.1364 214.752 23.0771C214.254 24.0179 214.13 25.0278 214.379 26.1069C214.656 27.3244 215.306 28.2928 216.33 29.0122C217.353 29.7039 218.723 30.2297 220.438 30.5894C222.154 30.9214 224.188 31.1427 226.54 31.2534C228.919 31.3641 231.589 31.4333 234.55 31.4609C236.099 31.4886 237.815 31.5439 239.696 31.627C241.605 31.71 243.528 31.9313 245.465 32.291C247.43 32.623 249.325 33.1349 251.151 33.8267C252.978 34.5184 254.596 35.4868 256.007 36.7319C257.446 37.9771 258.594 39.5404 259.452 41.4219C260.31 43.3034 260.739 45.6138 260.739 48.353C260.739 50.8433 260.379 53.0015 259.66 54.8276C258.94 56.6538 257.972 58.2171 256.754 59.5176C255.537 60.7904 254.098 61.8418 252.438 62.6719C250.806 63.4743 249.062 64.1107 247.208 64.5811C245.355 65.0514 243.445 65.3696 241.481 65.5356C239.516 65.7017 237.607 65.7847 235.753 65.7847C233.402 65.7847 231.146 65.674 228.988 65.4526C226.858 65.259 224.769 64.9684 222.721 64.5811C220.674 64.1937 218.626 63.7371 216.579 63.2114C214.559 62.658 212.497 62.0493 210.395 61.3853L207.946 68.6899L202.094 66.9883L207.448 46.4854C209.938 47.5645 212.401 48.5329 214.835 49.3906C217.298 50.2484 219.761 50.9816 222.223 51.5903C224.713 52.1714 227.217 52.6141 229.735 52.9185C232.253 53.2228 234.826 53.375 237.455 53.375C240.028 53.375 242.228 53.2228 244.054 52.9185C245.88 52.6141 247.361 52.1576 248.495 51.5488C249.657 50.9401 250.501 50.1792 251.027 49.2661C251.553 48.353 251.815 47.2878 251.815 46.0703C251.815 44.5485 251.428 43.3449 250.653 42.4595C249.879 41.5741 248.703 40.8962 247.125 40.4258C245.576 39.9554 243.625 39.6372 241.273 39.4712C238.949 39.3052 236.224 39.1807 233.097 39.0977C230.911 39.0423 228.615 38.9593 226.208 38.8486C223.8 38.738 221.435 38.5028 219.11 38.1431C216.786 37.7834 214.573 37.2576 212.47 36.5659C210.367 35.8742 208.513 34.9196 206.908 33.7021C205.331 32.4847 204.072 30.9629 203.131 29.1367C202.191 27.3105 201.72 25.0832 201.72 22.4546C201.72 20.1027 202.094 17.986 202.841 16.1045C203.616 14.1953 204.695 12.5213 206.078 11.0825C207.462 9.61605 209.094 8.37093 210.976 7.34717C212.885 6.29574 214.974 5.45182 217.243 4.81543C219.539 4.15137 221.96 3.68099 224.506 3.4043C227.079 3.1276 229.722 3.01693 232.433 3.07227C235.2 3.21061 237.939 3.4873 240.651 3.90234C241.785 4.06836 242.975 4.28971 244.22 4.56641C245.465 4.81543 246.697 5.13363 247.914 5.521C249.132 5.8807 250.307 6.30957 251.442 6.80762C252.576 7.27799 253.628 7.81755 254.596 8.42627L256.381 0.333008L263.188 3.07227ZM295.644 55.9897L294.896 64.9546L266.383 64.7471V57.1934L274.975 56.8613L274.394 30.7554L265.553 31.0044V23.4507L288.837 20.4624L288.256 28.3896C290.276 26.8125 292.268 25.5951 294.232 24.7373C296.225 23.8519 298.009 23.174 299.586 22.7036C301.44 22.1779 303.211 21.832 304.899 21.666C307.638 21.666 309.962 22.0396 311.872 22.7866C313.808 23.506 315.372 24.5436 316.562 25.8994C317.779 27.2275 318.664 28.8324 319.218 30.7139C319.771 32.5954 320.048 34.6844 320.048 36.981C320.048 37.9494 320.034 38.8071 320.006 39.5542C319.979 40.3013 319.923 41.0345 319.84 41.7539C319.785 42.4456 319.702 43.1789 319.591 43.9536C319.508 44.7007 319.398 45.5999 319.259 46.6514C319.121 47.7028 318.955 48.9479 318.761 50.3867C318.595 51.7979 318.402 53.4995 318.18 55.4917L327.021 54.9937L325.817 64.9546L303.612 64.083C303.944 60.8457 304.235 58.0649 304.484 55.7407C304.733 53.4165 304.954 51.4382 305.148 49.8057C305.342 48.1455 305.494 46.762 305.604 45.6553C305.715 44.5208 305.812 43.5386 305.895 42.7085C305.978 41.8507 306.033 41.076 306.061 40.3843C306.089 39.6925 306.103 38.9455 306.103 38.1431C306.103 36.8979 306.006 35.7358 305.812 34.6567C305.618 33.55 305.272 32.5815 304.774 31.7515C304.304 30.9214 303.668 30.2712 302.865 29.8008C302.09 29.3027 301.122 29.026 299.96 28.9707C298.909 29.109 297.746 29.4411 296.474 29.9668C295.367 30.4372 294.066 31.1289 292.572 32.042C291.106 32.9274 289.487 34.2002 287.716 35.8604L286.305 56.4463L295.644 55.9897ZM351.757 66.5317C347.911 66.5317 344.59 65.9507 341.796 64.7886C339.029 63.6265 336.746 62.0493 334.948 60.0571C333.177 58.0649 331.863 55.7407 331.005 53.0845C330.147 50.4282 329.718 47.606 329.718 44.6177C329.718 40.6056 330.41 37.0916 331.793 34.0757C333.205 31.0597 335.1 28.5557 337.479 26.5635C339.887 24.5436 342.667 23.0356 345.822 22.0396C348.976 21.0435 352.31 20.5454 355.824 20.5454C359.753 20.5454 363.06 21.1265 365.744 22.2886C368.455 23.4507 370.641 25.014 372.301 26.9785C373.961 28.9154 375.151 31.1566 375.871 33.7021C376.618 36.2201 376.991 38.8625 376.991 41.6294C376.991 45.3924 376.382 48.8096 375.165 51.8809C373.975 54.9521 372.274 57.5807 370.06 59.7666C367.874 61.9248 365.218 63.585 362.091 64.7471C358.992 65.9368 355.548 66.5317 351.757 66.5317ZM353.542 26.1899C352.075 26.1899 350.788 26.5081 349.682 27.1445C348.603 27.7533 347.662 28.5695 346.859 29.5933C346.085 30.5894 345.434 31.7238 344.909 32.9966C344.383 34.2694 343.968 35.5698 343.664 36.8979C343.359 38.1984 343.138 39.4712 343 40.7163C342.889 41.9614 342.833 43.0405 342.833 43.9536C342.833 44.9497 342.903 46.0703 343.041 47.3154C343.179 48.5329 343.415 49.7642 343.747 51.0093C344.079 52.2544 344.521 53.4718 345.075 54.6616C345.628 55.8514 346.32 56.9028 347.15 57.8159C347.98 58.729 348.948 59.4622 350.055 60.0156C351.19 60.569 352.49 60.8457 353.957 60.8457C355.451 60.8457 356.723 60.569 357.775 60.0156C358.854 59.4622 359.753 58.729 360.473 57.8159C361.22 56.9028 361.815 55.8652 362.257 54.7031C362.7 53.541 363.032 52.3651 363.253 51.1753C363.502 49.9578 363.668 48.7819 363.751 47.6475C363.834 46.513 363.876 45.5031 363.876 44.6177C363.876 43.4279 363.807 42.1413 363.668 40.7578C363.558 39.3743 363.35 38.0047 363.046 36.6489C362.769 35.2655 362.368 33.9512 361.842 32.7061C361.344 31.4333 360.708 30.3265 359.933 29.3857C359.186 28.4173 358.273 27.6426 357.194 27.0615C356.142 26.4805 354.925 26.1899 353.542 26.1899ZM403.305 66.5317C399.459 66.5317 396.138 65.9507 393.344 64.7886C390.577 63.6265 388.294 62.0493 386.496 60.0571C384.725 58.0649 383.41 55.7407 382.553 53.0845C381.695 50.4282 381.266 47.606 381.266 44.6177C381.266 40.6056 381.958 37.0916 383.341 34.0757C384.752 31.0597 386.648 28.5557 389.027 26.5635C391.435 24.5436 394.215 23.0356 397.37 22.0396C400.524 21.0435 403.858 20.5454 407.372 20.5454C411.301 20.5454 414.608 21.1265 417.292 22.2886C420.003 23.4507 422.189 25.014 423.849 26.9785C425.509 28.9154 426.699 31.1566 427.418 33.7021C428.166 36.2201 428.539 38.8625 428.539 41.6294C428.539 45.3924 427.93 48.8096 426.713 51.8809C425.523 54.9521 423.821 57.5807 421.608 59.7666C419.422 61.9248 416.766 63.585 413.639 64.7471C410.54 65.9368 407.095 66.5317 403.305 66.5317ZM405.089 26.1899C403.623 26.1899 402.336 26.5081 401.229 27.1445C400.15 27.7533 399.21 28.5695 398.407 29.5933C397.632 30.5894 396.982 31.7238 396.457 32.9966C395.931 34.2694 395.516 35.5698 395.211 36.8979C394.907 38.1984 394.686 39.4712 394.547 40.7163C394.437 41.9614 394.381 43.0405 394.381 43.9536C394.381 44.9497 394.451 46.0703 394.589 47.3154C394.727 48.5329 394.962 49.7642 395.294 51.0093C395.626 52.2544 396.069 53.4718 396.623 54.6616C397.176 55.8514 397.868 56.9028 398.698 57.8159C399.528 58.729 400.496 59.4622 401.603 60.0156C402.737 60.569 404.038 60.8457 405.504 60.8457C406.999 60.8457 408.271 60.569 409.323 60.0156C410.402 59.4622 411.301 58.729 412.021 57.8159C412.768 56.9028 413.362 55.8652 413.805 54.7031C414.248 53.541 414.58 52.3651 414.801 51.1753C415.05 49.9578 415.216 48.7819 415.299 47.6475C415.382 46.513 415.424 45.5031 415.424 44.6177C415.424 43.4279 415.355 42.1413 415.216 40.7578C415.106 39.3743 414.898 38.0047 414.594 36.6489C414.317 35.2655 413.916 33.9512 413.39 32.7061C412.892 31.4333 412.256 30.3265 411.481 29.3857C410.734 28.4173 409.821 27.6426 408.742 27.0615C407.69 26.4805 406.473 26.1899 405.089 26.1899ZM479.215 47.1494L476.269 63.668L433.852 64.415L433.229 59.9326L461.203 28.6387L442.941 28.8877V39.0146H433.603L434.433 22.2471L476.186 21.998L478.053 29.3027L449.208 57.7744L468.964 57.0273L469.545 47.1494H479.215ZM532.257 49.8057C531.206 52.5449 529.739 54.9245 527.858 56.9443C526.004 58.9365 523.901 60.5967 521.549 61.9248C519.197 63.2253 516.707 64.1937 514.079 64.8301C511.45 65.4665 508.863 65.7847 506.317 65.7847C502.776 65.7847 499.621 65.2313 496.854 64.1245C494.088 63.0177 491.736 61.5236 489.799 59.6421C487.862 57.7606 486.34 55.5609 485.233 53.043C484.154 50.4974 483.532 47.7996 483.366 44.9497C483.366 40.6056 484.085 36.8979 485.524 33.8267C486.99 30.7277 488.969 28.2098 491.459 26.2729C493.977 24.3361 496.91 22.925 500.258 22.0396C503.606 21.1265 507.161 20.6699 510.924 20.6699C512.308 20.6699 513.733 20.7668 515.199 20.9604C516.693 21.1541 518.146 21.5 519.557 21.998C520.968 22.4961 522.31 23.1878 523.583 24.0732C524.883 24.931 526.046 26.0516 527.069 27.4351C528.121 28.7909 529.006 30.4233 529.726 32.3325C530.445 34.2417 530.943 36.4967 531.22 39.0977L497.145 45.1987C497.366 47.1079 497.754 48.9756 498.307 50.8018C498.888 52.6279 499.663 54.2466 500.631 55.6577C501.6 57.0412 502.79 58.1479 504.201 58.978C505.639 59.7804 507.341 60.154 509.306 60.0986C511.436 59.8496 513.318 59.2132 514.95 58.1895C515.642 57.7467 516.306 57.2072 516.942 56.5708C517.579 55.9067 518.132 55.1182 518.603 54.2051C519.073 53.292 519.419 52.2267 519.64 51.0093C519.861 49.7918 519.903 48.3945 519.765 46.8174L532.257 49.8057ZM516.527 36.4414C516.417 35.141 516.181 34.0065 515.822 33.0381C515.462 32.0697 515.006 31.2396 514.452 30.5479C513.926 29.8561 513.332 29.2889 512.667 28.8462C512.031 28.3758 511.381 28.0023 510.717 27.7256C509.167 27.0892 507.424 26.7987 505.487 26.854C503.661 27.0754 502.181 27.6011 501.046 28.4312C499.912 29.2336 499.027 30.2435 498.39 31.4609C497.781 32.6507 497.366 33.9788 497.145 35.4453C496.924 36.9118 496.813 38.4059 496.813 39.9277L516.527 36.4414ZM581.813 56.1973C580.54 57.8298 579.184 59.2132 577.746 60.3477C576.307 61.4544 574.84 62.3813 573.346 63.1284C571.88 63.8478 570.427 64.4012 568.988 64.7886C567.549 65.2036 566.208 65.4941 564.962 65.6602C563.717 65.8538 562.597 65.9645 561.601 65.9922C560.604 66.0199 559.816 66.0337 559.235 66.0337C557.049 66.0337 554.918 65.7847 552.843 65.2866C550.768 64.8162 548.804 64.1245 546.95 63.2114C545.124 62.2983 543.463 61.1639 541.969 59.8081C540.475 58.4523 539.202 56.9167 538.151 55.2012C537.127 53.4857 536.366 51.5903 535.868 49.5151C535.37 47.4123 535.218 45.1572 535.412 42.75C535.716 38.8486 536.601 35.5007 538.068 32.7061C539.562 29.8838 541.416 27.5734 543.629 25.7749C545.871 23.9487 548.361 22.6068 551.1 21.749C553.867 20.8913 556.662 20.4624 559.484 20.4624C560.757 20.5177 562.099 20.6976 563.51 21.002C564.7 21.2786 566.042 21.6937 567.536 22.2471C569.03 22.8005 570.538 23.5752 572.06 24.5713L573.512 17.5156L583.598 19.4663L576.625 38.0601L569.569 37.23L570.773 31.1704C569.749 30.368 568.767 29.7593 567.826 29.3442C566.913 28.9015 566.097 28.5695 565.377 28.3481C564.547 28.0991 563.773 27.9469 563.053 27.8916C560.729 27.8916 558.681 28.2651 556.911 29.0122C555.167 29.7593 553.687 30.7969 552.47 32.125C551.28 33.4255 550.381 34.9888 549.772 36.8149C549.163 38.6134 548.859 40.5918 548.859 42.75C548.859 45.1019 549.122 47.2739 549.647 49.2661C550.201 51.2583 551.059 52.9876 552.221 54.4541C553.383 55.8929 554.849 57.0273 556.62 57.8574C558.419 58.6598 560.563 59.061 563.053 59.061C564.63 58.9504 566.152 58.5076 567.619 57.7329C568.227 57.4009 568.864 56.9858 569.528 56.4878C570.192 55.9621 570.842 55.3395 571.479 54.6201C572.115 53.873 572.724 53.0153 573.305 52.0469C573.886 51.0508 574.398 49.9025 574.84 48.6021L581.813 56.1973ZM637.802 59.2271L635.685 66.9053L615.058 65.3696C615.113 64.9546 615.182 64.498 615.265 64C615.348 63.502 615.431 63.0316 615.514 62.5889C615.625 62.0908 615.722 61.5928 615.805 61.0947C613.397 62.4229 610.963 63.3636 608.5 63.917C606.037 64.4704 603.63 64.7471 601.278 64.7471C599.563 64.7471 597.778 64.5949 595.924 64.2905C594.07 63.9862 592.369 63.4604 590.819 62.7134C589.298 61.9386 588.039 60.9287 587.042 59.6836C586.046 58.4108 585.548 56.8198 585.548 54.9106C585.548 52.8908 586.005 51.1476 586.918 49.6812C587.831 48.2147 589.035 46.9696 590.529 45.9458C592.023 44.8944 593.711 44.0505 595.592 43.4141C597.501 42.7777 599.424 42.2796 601.361 41.9199C603.326 41.5326 605.235 41.2835 607.089 41.1729C608.943 41.0345 610.575 40.9653 611.986 40.9653C613.48 40.9653 614.822 41.0068 616.012 41.0898C617.202 41.1452 618.267 41.242 619.208 41.3804C619.54 39.3605 619.706 37.4375 619.706 35.6113C619.706 34.2832 619.526 33.0796 619.167 32.0005C618.834 30.9214 618.24 30.0221 617.382 29.3027C616.552 28.5833 615.431 28.0438 614.02 27.6841C612.637 27.3244 610.907 27.186 608.832 27.269C607.449 27.4074 606.176 27.7948 605.014 28.4312C604.516 28.7078 604.004 29.0537 603.478 29.4688C602.98 29.8838 602.496 30.3818 602.025 30.9629C601.583 31.5439 601.181 32.2357 600.822 33.0381C600.462 33.8128 600.185 34.6982 599.992 35.6943L586.586 36.3584C586.78 34.4492 587.264 32.7614 588.039 31.2949C588.813 29.8008 589.754 28.5142 590.861 27.4351C591.995 26.3283 593.24 25.3875 594.596 24.6128C595.952 23.8381 597.322 23.1878 598.705 22.6621C601.97 21.4723 605.609 20.7391 609.621 20.4624C613.218 20.4071 616.261 20.7529 618.751 21.5C621.269 22.2194 623.345 23.2017 624.977 24.4468C626.61 25.6642 627.882 27.0477 628.795 28.5972C629.708 30.1466 630.373 31.6961 630.788 33.2456C631.203 34.7674 631.438 36.2201 631.493 37.6035C631.549 38.9593 631.562 40.0799 631.535 40.9653C631.452 42.0444 631.258 43.4002 630.954 45.0327C630.705 46.4438 630.331 48.2147 629.833 50.3452C629.363 52.4757 628.712 55.0213 627.882 57.9819L637.802 59.2271ZM618.253 46.9834C617.617 46.9281 616.925 46.8866 616.178 46.8589C615.431 46.8312 614.656 46.8174 613.854 46.8174C613.162 46.8174 612.305 46.8451 611.281 46.9004C610.285 46.9557 609.233 47.0664 608.126 47.2324C607.02 47.3708 605.913 47.5783 604.806 47.855C603.699 48.1317 602.703 48.4914 601.818 48.9341C600.96 49.3768 600.255 49.9163 599.701 50.5527C599.148 51.1891 598.871 51.9362 598.871 52.7939C598.871 53.458 599.065 54.0944 599.452 54.7031C599.867 55.2842 600.421 55.7822 601.112 56.1973C601.804 56.6123 602.606 56.9167 603.52 57.1104C604.46 57.2764 605.443 57.2764 606.466 57.1104C608.542 56.723 610.492 56.2526 612.318 55.6992C614.172 55.1182 615.763 54.5648 617.091 54.0391C617.313 52.877 617.52 51.701 617.714 50.5112C617.908 49.3215 618.087 48.1455 618.253 46.9834ZM657.475 48.021C657.475 49.5151 657.682 50.8156 658.097 51.9224C658.54 53.0291 659.135 53.9561 659.882 54.7031C660.629 55.4225 661.5 55.9621 662.497 56.3218C663.52 56.6815 664.613 56.8613 665.775 56.8613C666.938 56.8613 668.155 56.6815 669.428 56.3218C670.701 55.9621 671.959 55.4225 673.205 54.7031C674.45 53.9837 675.667 53.0845 676.857 52.0054C678.047 50.9263 679.153 49.6812 680.177 48.27C680.454 49.2661 680.744 50.359 681.049 51.5488C681.326 52.5726 681.63 53.7624 681.962 55.1182C682.322 56.4463 682.709 57.8713 683.124 59.3931C681.464 60.6382 679.831 61.6619 678.227 62.4644C676.622 63.2668 675.058 63.9032 673.537 64.3735C672.042 64.8439 670.604 65.1621 669.22 65.3281C667.837 65.5218 666.55 65.6187 665.36 65.6187C662.261 65.6187 659.633 65.2036 657.475 64.3735C655.344 63.5711 653.559 62.4644 652.121 61.0532C650.709 59.6144 649.603 57.9404 648.8 56.0312C648.026 54.0944 647.444 52.0192 647.057 49.8057C646.67 47.5645 646.435 45.2402 646.352 42.833C646.269 40.3981 646.227 37.9909 646.227 35.6113C646.227 35.0026 646.241 34.3109 646.269 33.5361C646.296 32.7614 646.338 31.9451 646.393 31.0874L636.474 31.3779L637.304 22.7036L647.348 21.915C647.624 19.5632 647.915 17.2666 648.219 15.0254C648.551 12.7842 648.842 10.7643 649.091 8.96582C649.395 6.86296 649.686 4.87077 649.962 2.98926L663.41 3.98535C663.078 5.47949 662.746 7.11198 662.414 8.88281C662.109 10.4046 661.763 12.1893 661.376 14.2368C661.016 16.2567 660.643 18.4564 660.255 20.8359L678.268 19.3833L678.019 30.0913L658.803 30.6724C658.388 33.7713 658.056 36.8011 657.807 39.7617C657.585 42.6947 657.475 45.4478 657.475 48.021ZM165.404 96.0347L154.281 125.71L148.72 124.34L149.923 118.239C147.682 116.828 145.413 115.749 143.117 115.002C140.848 114.227 138.786 113.66 136.933 113.3C134.774 112.885 132.672 112.65 130.624 112.595C128.493 112.595 126.308 112.705 124.066 112.927C121.853 113.12 119.708 113.466 117.633 113.964C115.558 114.462 113.594 115.126 111.74 115.957C109.914 116.787 108.309 117.81 106.925 119.028C105.569 120.245 104.49 121.698 103.688 123.386C102.886 125.046 102.484 126.955 102.484 129.113C102.484 131.825 103.038 134.287 104.145 136.501C105.251 138.715 106.856 140.61 108.959 142.187C111.09 143.764 113.704 144.982 116.803 145.839C119.93 146.697 123.485 147.126 127.47 147.126C130.209 147.071 132.99 146.808 135.812 146.337C137.002 146.144 138.275 145.895 139.63 145.59C140.986 145.286 142.356 144.912 143.739 144.47C145.123 143.999 146.506 143.46 147.89 142.851C149.301 142.242 150.657 141.537 151.957 140.734L156.232 153.85C155.568 154.514 154.641 155.095 153.451 155.593C152.289 156.091 150.975 156.534 149.508 156.921C148.069 157.281 146.534 157.585 144.901 157.834C143.269 158.083 141.65 158.291 140.045 158.457C136.282 158.844 132.215 159.065 127.843 159.121C122.088 159.121 117.149 158.318 113.026 156.713C108.904 155.081 105.514 152.895 102.858 150.156C100.229 147.389 98.2925 144.193 97.0474 140.568C95.8022 136.944 95.1797 133.125 95.1797 129.113C95.1797 125.433 95.7054 122.099 96.7568 119.111C97.8359 116.095 99.2886 113.411 101.115 111.059C102.969 108.68 105.113 106.632 107.548 104.917C109.983 103.173 112.556 101.748 115.268 100.642C118.007 99.5348 120.801 98.7324 123.651 98.2344C126.529 97.7087 129.31 97.4873 131.994 97.5703C134.041 97.681 136.227 97.9162 138.551 98.2759C140.543 98.5802 142.799 99.0368 145.316 99.6455C147.862 100.254 150.477 101.084 153.161 102.136L154.862 93.918L165.404 96.0347ZM195.287 149.99L194.499 158.955L166.027 158.747V151.193L174.618 150.861L174.037 104.626L165.197 104.958V98.2344L188.48 96.8647L187.194 121.726C189.269 120.038 191.303 118.779 193.295 117.949C195.315 117.119 197.099 116.538 198.649 116.206C200.475 115.818 202.218 115.666 203.878 115.749C206.645 115.749 208.997 116.136 210.934 116.911C212.899 117.658 214.476 118.737 215.666 120.148C216.883 121.532 217.768 123.192 218.322 125.129C218.875 127.066 219.152 129.21 219.152 131.562C219.152 135.187 218.986 138.618 218.654 141.855C218.349 145.065 217.921 148.177 217.367 151.193L226.208 150.695L225.045 158.955L202.592 158.083C202.896 155.593 203.187 153.227 203.463 150.986C203.768 148.717 204.031 146.531 204.252 144.428C204.501 142.298 204.695 140.236 204.833 138.244C204.971 136.224 205.041 134.218 205.041 132.226C205.041 130.981 204.944 129.819 204.75 128.74C204.556 127.633 204.224 126.678 203.754 125.876C203.284 125.074 202.647 124.437 201.845 123.967C201.07 123.469 200.102 123.192 198.939 123.137C197.888 123.192 196.726 123.441 195.453 123.884C194.374 124.271 193.101 124.894 191.635 125.751C190.168 126.582 188.577 127.785 186.862 129.362L185.741 150.446L195.287 149.99ZM262.938 148.496V155.468L230.98 159.536L229.777 148.911L240.402 148.828L240.9 125.793L227.992 124.838V117.783L254.845 115.417L253.476 124.672C254.084 124.036 254.887 123.303 255.883 122.473C256.879 121.615 257.972 120.757 259.162 119.899C260.379 119.014 261.666 118.129 263.021 117.243C264.405 116.358 265.788 115.555 267.172 114.836C268.555 114.089 269.911 113.452 271.239 112.927C272.595 112.373 273.84 111.986 274.975 111.765L276.095 125.544C272.111 125.544 268.68 125.89 265.802 126.582C262.952 127.273 260.573 128.034 258.664 128.864C256.45 129.833 254.582 130.926 253.061 132.143L250.155 148.662L262.938 148.496ZM300.5 160.532C296.653 160.532 293.333 159.951 290.539 158.789C287.772 157.626 285.489 156.049 283.69 154.057C281.92 152.065 280.605 149.741 279.748 147.084C278.89 144.428 278.461 141.606 278.461 138.618C278.461 134.606 279.153 131.092 280.536 128.076C281.947 125.06 283.843 122.556 286.222 120.563C288.629 118.544 291.41 117.036 294.564 116.04C297.719 115.043 301.053 114.545 304.567 114.545C308.496 114.545 311.802 115.126 314.486 116.289C317.198 117.451 319.384 119.014 321.044 120.979C322.704 122.915 323.894 125.157 324.613 127.702C325.36 130.22 325.734 132.862 325.734 135.629C325.734 139.392 325.125 142.81 323.908 145.881C322.718 148.952 321.016 151.581 318.803 153.767C316.617 155.925 313.961 157.585 310.834 158.747C307.735 159.937 304.29 160.532 300.5 160.532ZM302.284 120.19C300.818 120.19 299.531 120.508 298.424 121.145C297.345 121.753 296.404 122.569 295.602 123.593C294.827 124.589 294.177 125.724 293.651 126.997C293.126 128.269 292.711 129.57 292.406 130.898C292.102 132.198 291.881 133.471 291.742 134.716C291.632 135.961 291.576 137.041 291.576 137.954C291.576 138.95 291.645 140.07 291.784 141.315C291.922 142.533 292.157 143.764 292.489 145.009C292.821 146.254 293.264 147.472 293.817 148.662C294.371 149.851 295.062 150.903 295.893 151.816C296.723 152.729 297.691 153.462 298.798 154.016C299.932 154.569 301.233 154.846 302.699 154.846C304.193 154.846 305.466 154.569 306.518 154.016C307.597 153.462 308.496 152.729 309.215 151.816C309.962 150.903 310.557 149.865 311 148.703C311.443 147.541 311.775 146.365 311.996 145.175C312.245 143.958 312.411 142.782 312.494 141.647C312.577 140.513 312.619 139.503 312.619 138.618C312.619 137.428 312.549 136.141 312.411 134.758C312.3 133.374 312.093 132.005 311.789 130.649C311.512 129.265 311.111 127.951 310.585 126.706C310.087 125.433 309.451 124.326 308.676 123.386C307.929 122.417 307.016 121.643 305.937 121.062C304.885 120.48 303.668 120.19 302.284 120.19ZM359.684 149.99L358.937 158.955L330.424 158.747V151.193L339.015 150.861L338.434 124.755L329.594 125.004V117.451L352.877 114.462L352.296 122.39C354.316 120.812 356.308 119.595 358.273 118.737C360.265 117.852 362.05 117.174 363.627 116.704C365.481 116.178 367.252 115.832 368.939 115.666C371.679 115.666 374.003 116.04 375.912 116.787C377.849 117.506 379.412 118.544 380.602 119.899C381.819 121.228 382.705 122.832 383.258 124.714C383.812 126.595 384.088 128.684 384.088 130.981C384.088 131.949 384.075 132.807 384.047 133.554C384.019 134.301 383.964 135.035 383.881 135.754C383.826 136.446 383.743 137.179 383.632 137.954C383.549 138.701 383.438 139.6 383.3 140.651C383.161 141.703 382.995 142.948 382.802 144.387C382.636 145.798 382.442 147.5 382.221 149.492L391.061 148.994L389.857 158.955L367.653 158.083C367.985 154.846 368.275 152.065 368.524 149.741C368.773 147.417 368.995 145.438 369.188 143.806C369.382 142.146 369.534 140.762 369.645 139.655C369.756 138.521 369.853 137.539 369.936 136.708C370.019 135.851 370.074 135.076 370.102 134.384C370.129 133.693 370.143 132.945 370.143 132.143C370.143 130.898 370.046 129.736 369.853 128.657C369.659 127.55 369.313 126.582 368.815 125.751C368.345 124.921 367.708 124.271 366.906 123.801C366.131 123.303 365.163 123.026 364 122.971C362.949 123.109 361.787 123.441 360.514 123.967C359.407 124.437 358.107 125.129 356.613 126.042C355.146 126.927 353.528 128.2 351.757 129.86L350.346 150.446L359.684 149.99ZM428.124 148.579L426.754 159.204L395.792 158.332L394.464 150.778L407.04 149.99L406.957 126.291L394.008 125.876V119.235L420.114 117.534L416.959 149.326L428.124 148.579ZM420.114 107.78C420.114 108.444 419.906 109.081 419.491 109.689C419.104 110.271 418.564 110.782 417.873 111.225C417.181 111.668 416.365 112.028 415.424 112.304C414.511 112.553 413.528 112.678 412.477 112.678C411.398 112.678 410.388 112.553 409.447 112.304C408.534 112.028 407.732 111.668 407.04 111.225C406.348 110.782 405.795 110.271 405.38 109.689C404.993 109.081 404.799 108.444 404.799 107.78C404.799 107.089 404.993 106.438 405.38 105.83C405.795 105.193 406.348 104.654 407.04 104.211C407.732 103.768 408.534 103.422 409.447 103.173C410.388 102.897 411.398 102.758 412.477 102.758C413.528 102.758 414.511 102.897 415.424 103.173C416.365 103.422 417.181 103.768 417.873 104.211C418.564 104.654 419.104 105.193 419.491 105.83C419.906 106.438 420.114 107.089 420.114 107.78ZM476.85 150.197C475.577 151.83 474.221 153.213 472.782 154.348C471.343 155.454 469.877 156.381 468.383 157.128C466.916 157.848 465.464 158.401 464.025 158.789C462.586 159.204 461.244 159.494 459.999 159.66C458.754 159.854 457.633 159.965 456.637 159.992C455.641 160.02 454.853 160.034 454.271 160.034C452.086 160.034 449.955 159.785 447.88 159.287C445.805 158.816 443.84 158.125 441.986 157.211C440.16 156.298 438.5 155.164 437.006 153.808C435.512 152.452 434.239 150.917 433.188 149.201C432.164 147.486 431.403 145.59 430.905 143.515C430.407 141.412 430.255 139.157 430.448 136.75C430.753 132.849 431.638 129.501 433.104 126.706C434.599 123.884 436.452 121.573 438.666 119.775C440.907 117.949 443.397 116.607 446.137 115.749C448.904 114.891 451.698 114.462 454.521 114.462C455.793 114.518 457.135 114.698 458.546 115.002C459.736 115.279 461.078 115.694 462.572 116.247C464.066 116.8 465.574 117.575 467.096 118.571L468.549 111.516L478.634 113.466L471.662 132.06L464.606 131.23L465.81 125.17C464.786 124.368 463.804 123.759 462.863 123.344C461.95 122.902 461.133 122.569 460.414 122.348C459.584 122.099 458.809 121.947 458.09 121.892C455.766 121.892 453.718 122.265 451.947 123.012C450.204 123.759 448.724 124.797 447.506 126.125C446.317 127.425 445.417 128.989 444.809 130.815C444.2 132.613 443.896 134.592 443.896 136.75C443.896 139.102 444.158 141.274 444.684 143.266C445.237 145.258 446.095 146.988 447.257 148.454C448.419 149.893 449.886 151.027 451.657 151.857C453.455 152.66 455.6 153.061 458.09 153.061C459.667 152.95 461.189 152.508 462.655 151.733C463.264 151.401 463.9 150.986 464.564 150.488C465.229 149.962 465.879 149.34 466.515 148.62C467.152 147.873 467.76 147.015 468.341 146.047C468.922 145.051 469.434 143.903 469.877 142.602L476.85 150.197ZM511.422 148.413L510.094 159.121L479.132 158.166L478.717 150.695L489.176 149.99L489.093 106.328L477.099 105.913V98.4004L503.205 97.5703L499.096 149.243L511.422 148.413ZM562.348 143.806C561.296 146.545 559.83 148.924 557.948 150.944C556.094 152.937 553.992 154.597 551.64 155.925C549.288 157.225 546.798 158.194 544.169 158.83C541.54 159.466 538.953 159.785 536.408 159.785C532.866 159.785 529.712 159.231 526.945 158.125C524.178 157.018 521.826 155.524 519.889 153.642C517.952 151.761 516.431 149.561 515.324 147.043C514.245 144.497 513.622 141.8 513.456 138.95C513.456 134.606 514.175 130.898 515.614 127.827C517.081 124.728 519.059 122.21 521.549 120.273C524.067 118.336 527 116.925 530.348 116.04C533.696 115.126 537.252 114.67 541.015 114.67C542.398 114.67 543.823 114.767 545.29 114.96C546.784 115.154 548.236 115.5 549.647 115.998C551.059 116.496 552.401 117.188 553.673 118.073C554.974 118.931 556.136 120.052 557.16 121.435C558.211 122.791 559.097 124.423 559.816 126.333C560.535 128.242 561.033 130.497 561.31 133.098L527.235 139.199C527.457 141.108 527.844 142.976 528.397 144.802C528.979 146.628 529.753 148.247 530.722 149.658C531.69 151.041 532.88 152.148 534.291 152.978C535.73 153.78 537.431 154.154 539.396 154.099C541.527 153.85 543.408 153.213 545.041 152.189C545.732 151.747 546.396 151.207 547.033 150.571C547.669 149.907 548.222 149.118 548.693 148.205C549.163 147.292 549.509 146.227 549.73 145.009C549.952 143.792 549.993 142.395 549.855 140.817L562.348 143.806ZM546.618 130.441C546.507 129.141 546.272 128.007 545.912 127.038C545.552 126.07 545.096 125.24 544.542 124.548C544.017 123.856 543.422 123.289 542.758 122.846C542.121 122.376 541.471 122.002 540.807 121.726C539.258 121.089 537.514 120.799 535.578 120.854C533.751 121.075 532.271 121.601 531.137 122.431C530.002 123.234 529.117 124.243 528.48 125.461C527.872 126.651 527.457 127.979 527.235 129.445C527.014 130.912 526.903 132.406 526.903 133.928L546.618 130.441ZM611.862 115.5L607.753 129.611C606.397 128.892 604.889 128.186 603.229 127.495C601.569 126.803 599.853 126.194 598.083 125.668C596.339 125.143 594.582 124.728 592.812 124.423C591.068 124.091 589.422 123.925 587.873 123.925C585.714 123.925 583.957 124.257 582.602 124.921C581.246 125.558 580.568 126.499 580.568 127.744C580.568 128.546 580.872 129.238 581.481 129.819C582.09 130.372 583.003 130.898 584.22 131.396C585.465 131.894 587.015 132.378 588.869 132.849C590.75 133.319 592.936 133.859 595.426 134.467C597.667 134.993 599.77 135.588 601.735 136.252C603.699 136.888 605.401 137.705 606.84 138.701C608.279 139.697 609.413 140.914 610.243 142.353C611.073 143.792 611.488 145.549 611.488 147.624C611.488 149.838 611.018 151.705 610.077 153.227C609.164 154.749 607.877 155.994 606.217 156.962C604.557 157.903 602.593 158.581 600.324 158.996C598.083 159.411 595.634 159.619 592.978 159.619C589.74 159.619 586.959 159.37 584.635 158.872C582.339 158.374 580.43 157.834 578.908 157.253C577.414 156.644 576.265 156.091 575.463 155.593C574.688 155.095 574.204 154.846 574.01 154.846L573.18 161.569L564.423 158.581L569.154 145.092C570.012 145.646 571.05 146.227 572.267 146.835C573.485 147.444 574.785 148.053 576.168 148.662C577.552 149.27 578.991 149.865 580.485 150.446C582.007 151 583.501 151.498 584.967 151.94C586.434 152.355 587.831 152.688 589.159 152.937C590.487 153.186 591.677 153.31 592.729 153.31C593.227 153.31 593.78 153.269 594.389 153.186C594.997 153.103 595.565 152.95 596.09 152.729C596.644 152.48 597.1 152.148 597.46 151.733C597.82 151.29 598 150.709 598 149.99C598 149.104 597.681 148.343 597.045 147.707C596.409 147.043 595.634 146.476 594.721 146.005C593.808 145.535 592.825 145.148 591.774 144.843C590.75 144.511 589.823 144.221 588.993 143.972C587.665 143.612 586.199 143.197 584.594 142.727C582.989 142.229 581.356 141.661 579.696 141.025C578.036 140.361 576.431 139.614 574.882 138.784C573.332 137.954 571.949 136.999 570.731 135.92C569.514 134.841 568.532 133.637 567.785 132.309C567.065 130.981 566.706 129.487 566.706 127.827C566.706 126.139 567.107 124.548 567.909 123.054C568.712 121.532 569.874 120.204 571.396 119.069C572.945 117.935 574.84 117.036 577.082 116.372C579.35 115.68 581.924 115.334 584.801 115.334C587.513 115.334 589.989 115.597 592.23 116.123C594.499 116.648 596.464 117.229 598.124 117.866C600.061 118.585 601.804 119.415 603.354 120.356L603.188 113.798L611.862 115.5Z" fill="#C9B0E7"/>
</svg>
