<svg width="218" height="48" viewBox="0 0 218 48" fill="none" xmlns="http://www.w3.org/2000/svg">
<rect width="218" height="48" rx="15" fill="#B797E4"/>
<path d="M62.898 30H59.298V24.3H54.298V30H50.698V16H54.298V21.5H59.298V16H62.898V30ZM75.9074 27C75.9074 28 75.6208 28.7867 75.0474 29.36C74.4874 29.92 73.7074 30.2 72.7074 30.2H68.1074C67.1074 30.2 66.3208 29.92 65.7474 29.36C65.1874 28.7867 64.9074 28 64.9074 27V22.4C64.9074 21.4 65.1874 20.62 65.7474 20.06C66.3208 19.4867 67.1074 19.2 68.1074 19.2H72.7074C73.7074 19.2 74.4874 19.4867 75.0474 20.06C75.6208 20.62 75.9074 21.4 75.9074 22.4V27ZM72.4074 22.7C72.4074 22.1667 72.1408 21.9 71.6074 21.9H69.2074C68.6741 21.9 68.4074 22.1667 68.4074 22.7V26.7C68.4074 27.2333 68.6741 27.5 69.2074 27.5H71.6074C72.1408 27.5 72.4074 27.2333 72.4074 26.7V22.7ZM88.7098 25.8L90.5098 19.4H94.3098L91.0098 30H87.3098L85.3098 23.6L83.3098 30H79.6098L76.3098 19.4H80.1098L81.9098 25.8L83.7098 19.4H86.9098L88.7098 25.8ZM108.104 30H104.504V18.8H100.304V16H112.304V18.8H108.104V30ZM123.31 27C123.31 28 123.023 28.7867 122.45 29.36C121.89 29.92 121.11 30.2 120.11 30.2H115.51C114.51 30.2 113.723 29.92 113.15 29.36C112.59 28.7867 112.31 28 112.31 27V22.4C112.31 21.4 112.59 20.62 113.15 20.06C113.723 19.4867 114.51 19.2 115.51 19.2H120.11C121.11 19.2 121.89 19.4867 122.45 20.06C123.023 20.62 123.31 21.4 123.31 22.4V27ZM119.81 22.7C119.81 22.1667 119.543 21.9 119.01 21.9H116.61C116.076 21.9 115.81 22.1667 115.81 22.7V26.7C115.81 27.2333 116.076 27.5 116.61 27.5H119.01C119.543 27.5 119.81 27.2333 119.81 26.7V22.7ZM131.304 16H139.304C140.61 16 141.57 16.3 142.184 16.9C142.797 17.4867 143.104 18.3867 143.104 19.6C143.104 20.4 142.93 21.0533 142.584 21.56C142.237 22.0533 141.81 22.4 141.304 22.6C142.384 22.8933 143.117 23.6133 143.504 24.76C143.637 25.1733 143.704 25.6533 143.704 26.2C143.704 27.5067 143.397 28.4667 142.784 29.08C142.17 29.6933 141.21 30 139.904 30H131.304V16ZM140.104 25.6C140.104 24.8 139.704 24.4 138.904 24.4H134.904V27.2H138.904C139.704 27.2 140.104 26.8 140.104 26V25.6ZM139.504 20C139.504 19.2 139.104 18.8 138.304 18.8H134.904V21.6H138.304C139.104 21.6 139.504 21.2 139.504 20.4V20ZM150.203 27.3C150.909 27.3 151.709 27.1667 152.603 26.9V19.4H156.103V30H153.003L152.803 29C152.176 29.4133 151.529 29.72 150.863 29.92C150.209 30.1067 149.656 30.2 149.203 30.2H148.303C147.396 30.2 146.669 29.9267 146.123 29.38C145.576 28.8333 145.303 28.1067 145.303 27.2V19.4H148.803V26.6C148.803 26.8 148.869 26.9667 149.003 27.1C149.136 27.2333 149.303 27.3 149.503 27.3H150.203ZM160.896 33.6C160.189 33.6 159.322 33.5333 158.296 33.4V30.8H160.096C160.602 30.8 160.929 30.66 161.076 30.38C161.236 30.1 161.209 29.7067 160.996 29.2L156.896 19.4H160.596L163.096 26.2L165.196 19.4H168.896L164.896 30.4C164.509 31.4533 164.009 32.2467 163.396 32.78C162.782 33.3267 161.949 33.6 160.896 33.6Z" fill="black"/>
</svg>
