<svg width="895" height="100" viewBox="0 0 895 100" fill="none" xmlns="http://www.w3.org/2000/svg">
<rect x="0.5" y="0.5" width="894" height="99" rx="34.5" fill="#EFD8FF" fill-opacity="0.1"/>
<rect x="0.5" y="0.5" width="894" height="99" rx="34.5" stroke="#80E2FF"/>
<path d="M274.612 37.94H285.197V42H269.392V21.7H274.612V37.94ZM287.234 21.7H299.414C301.444 21.7 302.913 22.164 303.822 23.092C304.75 24.0007 305.214 25.47 305.214 27.5V30.4C305.214 32.43 304.75 33.909 303.822 34.837C302.913 35.7457 301.444 36.2 299.414 36.2H292.454V42H287.234V21.7ZM299.994 27.5C299.994 26.34 299.414 25.76 298.254 25.76H292.454V32.14H298.254C299.414 32.14 299.994 31.56 299.994 30.4V27.5ZM326.377 42H321.157V25.76H315.067V21.7H332.467V25.76H326.377V42ZM348.426 37.65C348.426 39.1 348.01 40.2407 347.179 41.072C346.367 41.884 345.236 42.29 343.786 42.29H337.116C335.666 42.29 334.525 41.884 333.694 41.072C332.882 40.2407 332.476 39.1 332.476 37.65V30.98C332.476 29.53 332.882 28.399 333.694 27.587C334.525 26.7557 335.666 26.34 337.116 26.34H343.786C345.236 26.34 346.367 26.7557 347.179 27.587C348.01 28.399 348.426 29.53 348.426 30.98V37.65ZM343.351 31.415C343.351 30.6417 342.964 30.255 342.191 30.255H338.711C337.938 30.255 337.551 30.6417 337.551 31.415V37.215C337.551 37.9883 337.938 38.375 338.711 38.375H342.191C342.964 38.375 343.351 37.9883 343.351 37.215V31.415ZM356.108 35.91V42H351.033V21.7H356.108V31.995H358.428L361.618 26.63H366.983L362.633 34.025L366.983 42H361.618L358.283 35.91H356.108ZM374.083 29.965C373.31 29.965 372.923 30.3517 372.923 31.125V32.72H377.853V31.125C377.853 30.3517 377.466 29.965 376.693 29.965H374.083ZM382.348 41.71C378.617 42.0967 375.233 42.29 372.198 42.29C370.883 42.29 369.83 41.8937 369.037 41.101C368.244 40.3083 367.848 39.2547 367.848 37.94V30.98C367.848 29.53 368.254 28.399 369.066 27.587C369.897 26.7557 371.038 26.34 372.488 26.34H378.288C379.738 26.34 380.869 26.7557 381.681 27.587C382.512 28.399 382.928 29.53 382.928 30.98V36.345H372.923V37.505C372.923 37.795 373.02 38.0367 373.213 38.23C373.406 38.4233 373.648 38.52 373.938 38.52C375.852 38.52 378.655 38.375 382.348 38.085V41.71ZM394.082 30.545C393.057 30.545 391.897 30.7383 390.602 31.125V42H385.527V26.63H390.022L390.312 28.08C391.22 27.4807 392.148 27.0457 393.096 26.775C394.062 26.485 394.874 26.34 395.532 26.34H396.837C398.151 26.34 399.205 26.7363 399.998 27.529C400.79 28.3217 401.187 29.3753 401.187 30.69V42H396.112V31.56C396.112 31.27 396.015 31.0283 395.822 30.835C395.628 30.6417 395.387 30.545 395.097 30.545H394.082ZM403.213 37.94C407.138 38.23 410.231 38.375 412.493 38.375C412.783 38.375 413.025 38.2783 413.218 38.085C413.412 37.8917 413.508 37.65 413.508 37.36V36.345H407.273C405.959 36.345 404.905 35.9487 404.112 35.156C403.32 34.3633 402.923 33.3097 402.923 31.995V30.98C402.923 29.6653 403.32 28.6117 404.112 27.819C404.905 27.0263 405.959 26.63 407.273 26.63H417.133V30.4H409.013C408.723 30.4 408.482 30.4967 408.288 30.69C408.095 30.8833 407.998 31.125 407.998 31.415C407.998 31.705 408.095 31.9467 408.288 32.14C408.482 32.3333 408.723 32.43 409.013 32.43H414.233C415.548 32.43 416.602 32.8263 417.394 33.619C418.187 34.4117 418.583 35.4653 418.583 36.78V37.94C418.583 39.2547 418.187 40.3083 417.394 41.101C416.602 41.8937 415.548 42.29 414.233 42.29C410.811 42.29 407.138 42.0967 403.213 41.71V37.94ZM435.4 38.23C436.425 38.23 437.585 38.0367 438.88 37.65V35.91H434.675C434.385 35.91 434.143 36.0067 433.95 36.2C433.757 36.3933 433.66 36.635 433.66 36.925V37.215C433.66 37.505 433.757 37.7467 433.95 37.94C434.143 38.1333 434.385 38.23 434.675 38.23H435.4ZM430.035 26.92C433.573 26.5333 436.763 26.34 439.605 26.34C440.92 26.34 441.973 26.7363 442.766 27.529C443.559 28.3217 443.955 29.3753 443.955 30.69V42H439.46L439.17 40.55C438.261 41.1493 437.324 41.594 436.357 41.884C435.41 42.1547 434.607 42.29 433.95 42.29H432.935C431.62 42.29 430.567 41.8937 429.774 41.101C428.981 40.3083 428.585 39.2547 428.585 37.94V36.635C428.585 35.3203 428.981 34.2667 429.774 33.474C430.567 32.6813 431.62 32.285 432.935 32.285H438.88V31.125C438.88 30.835 438.783 30.5933 438.59 30.4C438.397 30.2067 438.155 30.11 437.865 30.11C436.608 30.11 435.216 30.168 433.689 30.284C432.181 30.4 430.963 30.487 430.035 30.545V26.92ZM455.402 30.835C454.184 30.835 452.927 31.125 451.632 31.705V42H446.557V26.63H451.052L451.342 28.515C453.005 27.065 454.745 26.34 456.562 26.34H457.867V30.835H455.402ZM465.274 29.965C464.501 29.965 464.114 30.3517 464.114 31.125V32.72H469.044V31.125C469.044 30.3517 468.658 29.965 467.884 29.965H465.274ZM473.539 41.71C469.808 42.0967 466.425 42.29 463.389 42.29C462.075 42.29 461.021 41.8937 460.228 41.101C459.436 40.3083 459.039 39.2547 459.039 37.94V30.98C459.039 29.53 459.445 28.399 460.257 27.587C461.089 26.7557 462.229 26.34 463.679 26.34H469.479C470.929 26.34 472.06 26.7557 472.872 27.587C473.704 28.399 474.119 29.53 474.119 30.98V36.345H464.114V37.505C464.114 37.795 464.211 38.0367 464.404 38.23C464.598 38.4233 464.839 38.52 465.129 38.52C467.043 38.52 469.847 38.375 473.539 38.085V41.71ZM495.707 31.27C495.707 30.98 495.611 30.7383 495.417 30.545C495.224 30.3517 494.982 30.255 494.692 30.255H493.967C493.155 30.255 492.45 30.2937 491.85 30.371C491.27 30.4483 490.816 30.5063 490.487 30.545V38.085H494.547C495.321 38.085 495.707 37.6983 495.707 36.925V31.27ZM490.487 26.92C492.363 26.5333 494.006 26.34 495.417 26.34H496.432C497.747 26.34 498.801 26.7363 499.593 27.529C500.386 28.3217 500.782 29.3753 500.782 30.69V37.36C500.782 38.81 500.367 39.9507 499.535 40.782C498.723 41.594 497.592 42 496.142 42H485.412V21.7H490.487V26.92ZM510.501 38.085C511.525 38.085 512.685 37.8917 513.981 37.505V26.63H519.056V42H514.561L514.271 40.55C513.362 41.1493 512.424 41.594 511.458 41.884C510.51 42.1547 509.708 42.29 509.051 42.29H507.746C506.431 42.29 505.377 41.8937 504.585 41.101C503.792 40.3083 503.396 39.2547 503.396 37.94V26.63H508.471V37.07C508.471 37.36 508.567 37.6017 508.761 37.795C508.954 37.9883 509.196 38.085 509.486 38.085H510.501ZM530.791 30.835C529.573 30.835 528.316 31.125 527.021 31.705V42H521.946V26.63H526.441L526.731 28.515C528.393 27.065 530.133 26.34 531.951 26.34H533.256V30.835H530.791ZM543.839 30.545C542.815 30.545 541.655 30.7383 540.359 31.125V42H535.284V26.63H539.779L540.069 28.08C540.978 27.4807 541.906 27.0457 542.853 26.775C543.82 26.485 544.632 26.34 545.289 26.34H546.594C547.909 26.34 548.963 26.7363 549.755 27.529C550.548 28.3217 550.944 29.3753 550.944 30.69V42H545.869V31.56C545.869 31.27 545.773 31.0283 545.579 30.835C545.386 30.6417 545.144 30.545 544.854 30.545H543.839ZM564.281 42C562.406 42.1933 560.569 42.29 558.771 42.29C557.456 42.29 556.403 41.8937 555.61 41.101C554.817 40.3083 554.421 39.2547 554.421 37.94V30.545H552.681V26.63H554.421L555.001 23.15H559.496V26.63H563.121V30.545H559.496V37.215C559.496 37.505 559.593 37.7467 559.786 37.94C559.979 38.1333 560.221 38.23 560.511 38.23H564.281V42ZM581.108 38.23C582.133 38.23 583.293 38.0367 584.588 37.65V35.91H580.383C580.093 35.91 579.851 36.0067 579.658 36.2C579.465 36.3933 579.368 36.635 579.368 36.925V37.215C579.368 37.505 579.465 37.7467 579.658 37.94C579.851 38.1333 580.093 38.23 580.383 38.23H581.108ZM575.743 26.92C579.281 26.5333 582.471 26.34 585.313 26.34C586.628 26.34 587.681 26.7363 588.474 27.529C589.267 28.3217 589.663 29.3753 589.663 30.69V42H585.168L584.878 40.55C583.969 41.1493 583.032 41.594 582.065 41.884C581.118 42.1547 580.315 42.29 579.658 42.29H578.643C577.328 42.29 576.275 41.8937 575.482 41.101C574.689 40.3083 574.293 39.2547 574.293 37.94V36.635C574.293 35.3203 574.689 34.2667 575.482 33.474C576.275 32.6813 577.328 32.285 578.643 32.285H584.588V31.125C584.588 30.835 584.491 30.5933 584.298 30.4C584.105 30.2067 583.863 30.11 583.573 30.11C582.316 30.11 580.924 30.168 579.397 30.284C577.889 30.4 576.671 30.487 575.743 30.545V26.92ZM600.82 30.545C599.795 30.545 598.635 30.7383 597.34 31.125V42H592.265V26.63H596.76L597.05 28.08C597.959 27.4807 598.887 27.0457 599.834 26.775C600.801 26.485 601.613 26.34 602.27 26.34H603.575C604.89 26.34 605.943 26.7363 606.736 27.529C607.529 28.3217 607.925 29.3753 607.925 30.69V42H602.85V31.56C602.85 31.27 602.753 31.0283 602.56 30.835C602.367 30.6417 602.125 30.545 601.835 30.545H600.82ZM621.407 42L621.117 40.55C620.208 41.1493 619.27 41.594 618.304 41.884C617.356 42.1547 616.554 42.29 615.897 42.29H614.592C613.277 42.29 612.223 41.8937 611.431 41.101C610.638 40.3083 610.242 39.2547 610.242 37.94V31.27C610.242 29.82 610.648 28.689 611.46 27.877C612.291 27.0457 613.432 26.63 614.882 26.63H620.827V21.7H625.902V42H621.407ZM617.347 38.085C618.371 38.085 619.531 37.8917 620.827 37.505V30.545H616.477C615.703 30.545 615.317 30.9317 615.317 31.705V37.07C615.317 37.36 615.413 37.6017 615.607 37.795C615.8 37.9883 616.042 38.085 616.332 38.085H617.347ZM219.663 76.71C216.047 77.0967 212.857 77.29 210.093 77.29C208.778 77.29 207.724 76.8937 206.932 76.101C206.139 75.3083 205.743 74.2547 205.743 72.94V66.27C205.743 64.82 206.149 63.689 206.961 62.877C207.792 62.0457 208.933 61.63 210.383 61.63H219.663V65.545H211.978C211.204 65.545 210.818 65.9317 210.818 66.705V72.36C210.818 72.65 210.914 72.8917 211.108 73.085C211.301 73.2783 211.543 73.375 211.833 73.375C213.573 73.375 216.183 73.23 219.663 72.94V76.71ZM237.637 72.65C237.637 74.1 237.221 75.2407 236.39 76.072C235.578 76.884 234.447 77.29 232.997 77.29H226.327C224.877 77.29 223.736 76.884 222.905 76.072C222.093 75.2407 221.687 74.1 221.687 72.65V65.98C221.687 64.53 222.093 63.399 222.905 62.587C223.736 61.7557 224.877 61.34 226.327 61.34H232.997C234.447 61.34 235.578 61.7557 236.39 62.587C237.221 63.399 237.637 64.53 237.637 65.98V72.65ZM232.562 66.415C232.562 65.6417 232.175 65.255 231.402 65.255H227.922C227.149 65.255 226.762 65.6417 226.762 66.415V72.215C226.762 72.9883 227.149 73.375 227.922 73.375H231.402C232.175 73.375 232.562 72.9883 232.562 72.215V66.415ZM248.798 65.545C247.774 65.545 246.614 65.7383 245.318 66.125V77H240.243V61.63H244.738L245.028 63.08C245.937 62.4807 246.865 62.0457 247.812 61.775C248.779 61.485 249.591 61.34 250.248 61.34H251.553C252.868 61.34 253.922 61.7363 254.714 62.529C255.507 63.3217 255.903 64.3753 255.903 65.69V77H250.828V66.56C250.828 66.27 250.732 66.0283 250.538 65.835C250.345 65.6417 250.103 65.545 249.813 65.545H248.798ZM269.24 77C267.365 77.1933 265.528 77.29 263.73 77.29C262.415 77.29 261.362 76.8937 260.569 76.101C259.776 75.3083 259.38 74.2547 259.38 72.94V65.545H257.64V61.63H259.38L259.96 58.15H264.455V61.63H268.08V65.545H264.455V72.215C264.455 72.505 264.552 72.7467 264.745 72.94C264.938 73.1333 265.18 73.23 265.47 73.23H269.24V77ZM280.128 65.835C278.91 65.835 277.653 66.125 276.358 66.705V77H271.283V61.63H275.778L276.068 63.515C277.73 62.065 279.47 61.34 281.288 61.34H282.593V65.835H280.128ZM289.55 73.23C290.575 73.23 291.735 73.0367 293.03 72.65V70.91H288.825C288.535 70.91 288.294 71.0067 288.1 71.2C287.907 71.3933 287.81 71.635 287.81 71.925V72.215C287.81 72.505 287.907 72.7467 288.1 72.94C288.294 73.1333 288.535 73.23 288.825 73.23H289.55ZM284.185 61.92C287.723 61.5333 290.913 61.34 293.755 61.34C295.07 61.34 296.124 61.7363 296.916 62.529C297.709 63.3217 298.105 64.3753 298.105 65.69V77H293.61L293.32 75.55C292.412 76.1493 291.474 76.594 290.507 76.884C289.56 77.1547 288.758 77.29 288.1 77.29H287.085C285.771 77.29 284.717 76.8937 283.924 76.101C283.132 75.3083 282.735 74.2547 282.735 72.94V71.635C282.735 70.3203 283.132 69.2667 283.924 68.474C284.717 67.6813 285.771 67.285 287.085 67.285H293.03V66.125C293.03 65.835 292.934 65.5933 292.74 65.4C292.547 65.2067 292.305 65.11 292.015 65.11C290.759 65.11 289.367 65.168 287.839 65.284C286.331 65.4 285.113 65.487 284.185 65.545V61.92ZM314.337 76.71C310.722 77.0967 307.532 77.29 304.767 77.29C303.453 77.29 302.399 76.8937 301.606 76.101C300.814 75.3083 300.417 74.2547 300.417 72.94V66.27C300.417 64.82 300.823 63.689 301.635 62.877C302.467 62.0457 303.607 61.63 305.057 61.63H314.337V65.545H306.652C305.879 65.545 305.492 65.9317 305.492 66.705V72.36C305.492 72.65 305.589 72.8917 305.782 73.085C305.976 73.2783 306.217 73.375 306.507 73.375C308.247 73.375 310.857 73.23 314.337 72.94V76.71ZM327.382 77C325.506 77.1933 323.67 77.29 321.872 77.29C320.557 77.29 319.503 76.8937 318.711 76.101C317.918 75.3083 317.522 74.2547 317.522 72.94V65.545H315.782V61.63H317.522L318.102 58.15H322.597V61.63H326.222V65.545H322.597V72.215C322.597 72.505 322.693 72.7467 322.887 72.94C323.08 73.1333 323.322 73.23 323.612 73.23H327.382V77ZM353.778 72.65C353.778 74.1 353.363 75.2407 352.531 76.072C351.719 76.884 350.588 77.29 349.138 77.29H342.468C341.018 77.29 339.878 76.884 339.046 76.072C338.234 75.2407 337.828 74.1 337.828 72.65V65.98C337.828 64.53 338.234 63.399 339.046 62.587C339.878 61.7557 341.018 61.34 342.468 61.34H349.138C350.588 61.34 351.719 61.7557 352.531 62.587C353.363 63.399 353.778 64.53 353.778 65.98V72.65ZM348.703 66.415C348.703 65.6417 348.317 65.255 347.543 65.255H344.063C343.29 65.255 342.903 65.6417 342.903 66.415V72.215C342.903 72.9883 343.29 73.375 344.063 73.375H347.543C348.317 73.375 348.703 72.9883 348.703 72.215V66.415ZM372.342 70.91L374.952 61.63H380.462L375.677 77H370.312L367.412 67.72L364.512 77H359.147L354.362 61.63H359.872L362.482 70.91L365.092 61.63H369.732L372.342 70.91ZM390.173 65.545C389.149 65.545 387.989 65.7383 386.693 66.125V77H381.618V61.63H386.113L386.403 63.08C387.312 62.4807 388.24 62.0457 389.187 61.775C390.154 61.485 390.966 61.34 391.623 61.34H392.928C394.243 61.34 395.297 61.7363 396.089 62.529C396.882 63.3217 397.278 64.3753 397.278 65.69V77H392.203V66.56C392.203 66.27 392.107 66.0283 391.913 65.835C391.72 65.6417 391.478 65.545 391.188 65.545H390.173ZM405.83 64.965C405.057 64.965 404.67 65.3517 404.67 66.125V67.72H409.6V66.125C409.6 65.3517 409.213 64.965 408.44 64.965H405.83ZM414.095 76.71C410.364 77.0967 406.98 77.29 403.945 77.29C402.63 77.29 401.577 76.8937 400.784 76.101C399.991 75.3083 399.595 74.2547 399.595 72.94V65.98C399.595 64.53 400.001 63.399 400.813 62.587C401.644 61.7557 402.785 61.34 404.235 61.34H410.035C411.485 61.34 412.616 61.7557 413.428 62.587C414.259 63.399 414.675 64.53 414.675 65.98V71.345H404.67V72.505C404.67 72.795 404.767 73.0367 404.96 73.23C405.153 73.4233 405.395 73.52 405.685 73.52C407.599 73.52 410.402 73.375 414.095 73.085V76.71ZM426.119 65.835C424.901 65.835 423.644 66.125 422.349 66.705V77H417.274V61.63H421.769L422.059 63.515C423.721 62.065 425.461 61.34 427.279 61.34H428.584V65.835H426.119ZM430.033 72.94C433.957 73.23 437.051 73.375 439.313 73.375C439.603 73.375 439.844 73.2783 440.038 73.085C440.231 72.8917 440.328 72.65 440.328 72.36V71.345H434.093C432.778 71.345 431.724 70.9487 430.932 70.156C430.139 69.3633 429.743 68.3097 429.743 66.995V65.98C429.743 64.6653 430.139 63.6117 430.932 62.819C431.724 62.0263 432.778 61.63 434.093 61.63H443.953V65.4H435.833C435.543 65.4 435.301 65.4967 435.108 65.69C434.914 65.8833 434.818 66.125 434.818 66.415C434.818 66.705 434.914 66.9467 435.108 67.14C435.301 67.3333 435.543 67.43 435.833 67.43H441.053C442.367 67.43 443.421 67.8263 444.214 68.619C445.006 69.4117 445.403 70.4653 445.403 71.78V72.94C445.403 74.2547 445.006 75.3083 444.214 76.101C443.421 76.8937 442.367 77.29 441.053 77.29C437.631 77.29 433.957 77.0967 430.033 76.71V72.94ZM452.51 61.92C454.385 61.5333 456.029 61.34 457.44 61.34H458.745C460.06 61.34 461.113 61.7363 461.906 62.529C462.699 63.3217 463.095 64.3753 463.095 65.69V77H458.02V66.27C458.02 65.98 457.923 65.7383 457.73 65.545C457.537 65.3517 457.295 65.255 457.005 65.255H455.99C455.255 65.255 454.579 65.2937 453.96 65.371C453.361 65.4483 452.877 65.5063 452.51 65.545V77H447.435V56.7H452.51V61.92ZM472.081 62.21V77H467.006V66.125H464.831V62.21H472.081ZM467.006 56.41H472.081V60.47H467.006V56.41ZM483.546 65.545C482.521 65.545 481.361 65.7383 480.066 66.125V73.085H484.416C485.189 73.085 485.576 72.6983 485.576 71.925V66.56C485.576 66.27 485.479 66.0283 485.286 65.835C485.092 65.6417 484.851 65.545 484.561 65.545H483.546ZM480.066 77V81.93H474.991V61.63H479.486L479.776 63.08C480.684 62.4807 481.612 62.0457 482.56 61.775C483.526 61.485 484.338 61.34 484.996 61.34H486.301C487.615 61.34 488.669 61.7363 489.462 62.529C490.254 63.3217 490.651 64.3753 490.651 65.69V72.36C490.651 73.81 490.235 74.9507 489.404 75.782C488.592 76.594 487.461 77 486.011 77H480.066ZM508.331 62.21V77H503.256V66.125H501.081V62.21H508.331ZM503.256 56.41H508.331V60.47H503.256V56.41ZM510.661 72.94C514.585 73.23 517.679 73.375 519.941 73.375C520.231 73.375 520.472 73.2783 520.666 73.085C520.859 72.8917 520.956 72.65 520.956 72.36V71.345H514.721C513.406 71.345 512.352 70.9487 511.56 70.156C510.767 69.3633 510.371 68.3097 510.371 66.995V65.98C510.371 64.6653 510.767 63.6117 511.56 62.819C512.352 62.0263 513.406 61.63 514.721 61.63H524.581V65.4H516.461C516.171 65.4 515.929 65.4967 515.736 65.69C515.542 65.8833 515.446 66.125 515.446 66.415C515.446 66.705 515.542 66.9467 515.736 67.14C515.929 67.3333 516.171 67.43 516.461 67.43H521.681C522.995 67.43 524.049 67.8263 524.842 68.619C525.634 69.4117 526.031 70.4653 526.031 71.78V72.94C526.031 74.2547 525.634 75.3083 524.842 76.101C524.049 76.8937 522.995 77.29 521.681 77.29C518.259 77.29 514.585 77.0967 510.661 76.71V72.94ZM545.602 65.835C544.384 65.835 543.127 66.125 541.832 66.705V77H536.757V61.63H541.252L541.542 63.515C543.205 62.065 544.945 61.34 546.762 61.34H548.067V65.835H545.602ZM555.475 64.965C554.701 64.965 554.315 65.3517 554.315 66.125V67.72H559.245V66.125C559.245 65.3517 558.858 64.965 558.085 64.965H555.475ZM563.74 76.71C560.008 77.0967 556.625 77.29 553.59 77.29C552.275 77.29 551.221 76.8937 550.429 76.101C549.636 75.3083 549.24 74.2547 549.24 72.94V65.98C549.24 64.53 549.646 63.399 550.458 62.587C551.289 61.7557 552.43 61.34 553.88 61.34H559.68C561.13 61.34 562.261 61.7557 563.073 62.587C563.904 63.399 564.32 64.53 564.32 65.98V71.345H554.315V72.505C554.315 72.795 554.411 73.0367 554.605 73.23C554.798 73.4233 555.04 73.52 555.33 73.52C557.244 73.52 560.047 73.375 563.74 73.085V76.71ZM575.473 65.545C574.449 65.545 573.289 65.7383 571.993 66.125V77H566.918V61.63H571.413L571.703 63.08C572.612 62.4807 573.54 62.0457 574.487 61.775C575.454 61.485 576.266 61.34 576.923 61.34H578.228C579.543 61.34 580.597 61.7363 581.389 62.529C582.182 63.3217 582.578 64.3753 582.578 65.69V77H577.503V66.56C577.503 66.27 577.407 66.0283 577.213 65.835C577.02 65.6417 576.778 65.545 576.488 65.545H575.473ZM600.845 72.65C600.845 74.1 600.429 75.2407 599.598 76.072C598.786 76.884 597.655 77.29 596.205 77.29H589.535C588.085 77.29 586.944 76.884 586.113 76.072C585.301 75.2407 584.895 74.1 584.895 72.65V65.98C584.895 64.53 585.301 63.399 586.113 62.587C586.944 61.7557 588.085 61.34 589.535 61.34H596.205C597.655 61.34 598.786 61.7557 599.598 62.587C600.429 63.399 600.845 64.53 600.845 65.98V72.65ZM595.77 66.415C595.77 65.6417 595.383 65.255 594.61 65.255H591.13C590.357 65.255 589.97 65.6417 589.97 66.415V72.215C589.97 72.9883 590.357 73.375 591.13 73.375H594.61C595.383 73.375 595.77 72.9883 595.77 72.215V66.415ZM610.556 73.085C611.581 73.085 612.741 72.8917 614.036 72.505V61.63H619.111V77H614.616L614.326 75.55C613.418 76.1493 612.48 76.594 611.513 76.884C610.566 77.1547 609.764 77.29 609.106 77.29H607.801C606.487 77.29 605.433 76.8937 604.64 76.101C603.848 75.3083 603.451 74.2547 603.451 72.94V61.63H608.526V72.07C608.526 72.36 608.623 72.6017 608.816 72.795C609.01 72.9883 609.251 73.085 609.541 73.085H610.556ZM630.556 65.545C629.532 65.545 628.372 65.7383 627.076 66.125V77H622.001V61.63H626.496L626.786 63.08C627.695 62.4807 628.623 62.0457 629.57 61.775C630.537 61.485 631.349 61.34 632.006 61.34H633.311C634.626 61.34 635.68 61.7363 636.472 62.529C637.265 63.3217 637.661 64.3753 637.661 65.69V77H632.586V66.56C632.586 66.27 632.49 66.0283 632.296 65.835C632.103 65.6417 631.861 65.545 631.571 65.545H630.556ZM653.898 76.71C650.283 77.0967 647.093 77.29 644.328 77.29C643.013 77.29 641.96 76.8937 641.167 76.101C640.374 75.3083 639.978 74.2547 639.978 72.94V66.27C639.978 64.82 640.384 63.689 641.196 62.877C642.027 62.0457 643.168 61.63 644.618 61.63H653.898V65.545H646.213C645.44 65.545 645.053 65.9317 645.053 66.705V72.36C645.053 72.65 645.15 72.8917 645.343 73.085C645.536 73.2783 645.778 73.375 646.068 73.375C647.808 73.375 650.418 73.23 653.898 72.94V76.71ZM662.157 64.965C661.384 64.965 660.997 65.3517 660.997 66.125V67.72H665.927V66.125C665.927 65.3517 665.541 64.965 664.767 64.965H662.157ZM670.422 76.71C666.691 77.0967 663.308 77.29 660.272 77.29C658.958 77.29 657.904 76.8937 657.111 76.101C656.319 75.3083 655.922 74.2547 655.922 72.94V65.98C655.922 64.53 656.328 63.399 657.14 62.587C657.972 61.7557 659.112 61.34 660.562 61.34H666.362C667.812 61.34 668.943 61.7557 669.755 62.587C670.587 63.399 671.002 64.53 671.002 65.98V71.345H660.997V72.505C660.997 72.795 661.094 73.0367 661.287 73.23C661.481 73.4233 661.722 73.52 662.012 73.52C663.926 73.52 666.73 73.375 670.422 73.085V76.71ZM684.476 77L684.186 75.55C683.277 76.1493 682.34 76.594 681.373 76.884C680.426 77.1547 679.623 77.29 678.966 77.29H677.661C676.346 77.29 675.293 76.8937 674.5 76.101C673.707 75.3083 673.311 74.2547 673.311 72.94V66.27C673.311 64.82 673.717 63.689 674.529 62.877C675.36 62.0457 676.501 61.63 677.951 61.63H683.896V56.7H688.971V77H684.476ZM680.416 73.085C681.441 73.085 682.601 72.8917 683.896 72.505V65.545H679.546C678.773 65.545 678.386 65.9317 678.386 66.705V72.07C678.386 72.36 678.483 72.6017 678.676 72.795C678.869 72.9883 679.111 73.085 679.401 73.085H680.416Z" fill="white"/>
</svg>
