<svg width="133" height="128" viewBox="0 0 133 128" fill="none" xmlns="http://www.w3.org/2000/svg">
<path d="M97.5819 127.564C95.2293 127.564 92.993 126.954 90.8727 125.792L67.7828 112.922C67.0277 112.486 66.1564 112.283 65.285 112.283C64.5009 112.283 63.7167 112.457 62.9906 112.806L39.2907 124.543C37.3448 125.501 35.2827 125.995 33.1625 125.995C29.0382 125.995 25.1463 124.136 22.4743 120.911C19.8603 117.745 18.8147 113.59 19.628 109.523L24.7107 83.5805C25.0302 81.9246 24.5364 80.2105 23.3456 78.9904L4.84462 60.078C1.15604 56.3014 -0.0638052 50.8398 1.67883 45.8429C3.42147 40.8461 7.77806 37.36 13.035 36.7209L39.2907 33.5543C40.9753 33.3509 42.4565 32.3341 43.2407 30.8235L55.4972 7.40817C57.8788 2.84713 62.5549 0.000106812 67.7247 0.000106812C73.1559 0.000106812 77.9482 3.05049 80.2427 7.98919L91.3665 31.9855C92.0926 33.5252 93.5157 34.6001 95.1712 34.8906L121.253 39.3064C126.481 40.207 130.663 43.8965 132.173 48.9805C133.684 54.0354 132.231 59.4389 128.339 63.0413L108.967 81.053C107.718 82.2151 107.137 83.9 107.37 85.585L111.233 111.76C111.813 115.798 110.71 119.691 108.067 122.771C105.424 125.85 101.59 127.593 97.5819 127.593V127.564Z" fill="#E07906"/>
<path d="M95.2007 38.5513L121.921 43.0833C129.85 44.4196 132.813 54.297 126.917 59.7877L107.051 78.2643C104.698 80.4431 103.594 83.6388 104.059 86.8054L108.009 113.649C109.171 121.609 100.719 127.477 93.6614 123.555L69.9615 110.366C67.1733 108.797 63.7752 108.739 60.9289 110.163L36.6481 122.219C29.4452 125.792 21.2549 119.546 22.7942 111.644L28.0221 85.0332C28.632 81.8957 27.6736 78.642 25.4372 76.376L6.4715 56.9988C0.836975 51.2467 4.26416 41.5145 12.2512 40.5558L39.175 37.3021C42.3407 36.9244 45.129 35.007 46.6102 32.16L59.1862 8.13464C62.9329 0.988037 73.2144 1.2495 76.6126 8.54136L88.0268 33.1477C89.3629 36.0529 92.064 38.0865 95.2007 38.6384V38.5513Z" fill="url(#paint0_linear_2199_8116)"/>
<g style="mix-blend-mode:overlay" opacity="0.4">
<path d="M121.921 43.083L95.2007 38.551C92.0349 38.0281 89.3629 35.9655 88.0268 33.0604L76.6126 8.45397C73.2144 1.16211 62.9329 0.90065 59.1862 8.04725L46.6102 32.0726C45.129 34.9196 42.3407 36.837 39.175 37.2147L12.2512 40.4684C4.26416 41.4271 0.836975 51.1593 6.4715 56.9114L25.4372 76.2886C27.2089 78.0898 28.1383 80.501 28.1673 82.9704C58.4892 80.1814 96.4205 71.5242 128.892 48.2541C127.585 45.6976 125.232 43.635 121.95 43.083H121.921Z" fill="#FDFA91"/>
</g>
<path d="M88.2296 44.0708L113.992 48.4285C118.755 49.242 120.526 55.1684 116.983 58.4512L97.8432 76.2306C96.4491 77.5379 95.752 79.4552 96.0424 81.3436L99.8472 107.199C100.544 111.993 95.4615 115.508 91.2502 113.155L68.4217 100.459C66.7371 99.5296 64.704 99.4715 62.9904 100.343L39.581 111.935C35.2535 114.084 30.3451 110.337 31.2745 105.601L36.2991 79.9782C36.6766 78.0898 36.0958 76.1434 34.7597 74.778L16.4911 56.098C13.122 52.641 15.1551 46.8017 19.9473 46.2206L45.8836 43.0831C47.8005 42.8507 49.456 41.6886 50.3563 40.0037L62.4676 16.8498C64.704 12.5793 70.8904 12.7246 72.9235 17.1113L83.9311 40.8171C84.7443 42.5602 86.3418 43.7803 88.2587 44.0999L88.2296 44.0708Z" stroke="#FDFA91" stroke-width="0.75" stroke-miterlimit="10"/>
<g style="mix-blend-mode:overlay" opacity="0.5">
<path d="M95.2002 38.551C92.0344 38.0281 89.3623 35.9655 88.0263 33.0604L76.612 8.45397C73.2139 1.16211 62.9324 0.90065 59.1857 8.04725L46.6097 32.0726C45.1284 34.9196 42.3402 36.837 39.1744 37.2147L12.2507 40.4684C11.6408 40.5556 11.118 40.7589 10.5371 40.9332C18.2628 42.0372 37.3156 42.2115 43.9667 39.1902C49.5431 36.6337 58.9824 15.0776 61.8577 10.6038C64.7331 6.12987 70.629 4.06723 74.1433 10.6038C77.6576 17.1403 83.0888 34.2515 87.8811 38.2315C93.0509 42.5601 109.286 42.2405 124.535 43.9255C123.75 43.5478 122.879 43.2573 121.921 43.083L95.2002 38.551Z" fill="white"/>
</g>
<path d="M64.5293 50.317C64.5293 50.317 64.4422 50.317 64.4131 50.317C62.3219 51.7115 60.2598 53.1059 58.1687 54.5585C57.8492 53.0188 57.5297 51.5081 57.2393 49.9684C59.8532 48.1672 62.4672 46.4532 65.0811 44.7101H69.2344V89.5943C67.666 89.3619 66.1267 89.1876 64.5583 89.1585C64.5583 76.2017 64.5583 63.2739 64.5583 50.317H64.5293Z" stroke="url(#paint1_linear_2199_8116)" stroke-width="1.81"/>
<path d="M64.5293 50.317C64.5293 50.317 64.4422 50.317 64.4131 50.317C62.3219 51.7115 60.2598 53.1059 58.1687 54.5585C57.8492 53.0188 57.5297 51.5081 57.2393 49.9684C59.8532 48.1672 62.4672 46.4532 65.0811 44.7101H69.2344V89.5943C67.666 89.3619 66.1267 89.1876 64.5583 89.1585C64.5583 76.2017 64.5583 63.2739 64.5583 50.317H64.5293Z" fill="#A171B4"/>
<g style="mix-blend-mode:multiply" opacity="0.8">
<path d="M126.916 59.7875C127.555 59.1774 128.048 58.5092 128.484 57.8411C118.812 65.2491 103.39 77.1601 101.56 79.2518C98.8593 82.3022 100.98 88.9549 102.345 97.2926C104.494 110.395 104.465 113.619 100.312 117.222C96.1582 120.824 88.084 117.222 80.155 112.167C72.226 107.112 67.0272 102.812 63.4257 104.962C59.8243 107.112 45.2442 113.416 38.9417 116.67C32.6391 119.924 25.262 114.869 27.0627 106.589C28.8634 98.3094 32.4649 79.2228 30.3156 77.073C28.4859 75.2427 10.1882 58.7126 4.37939 53.4834C4.8441 54.7035 5.45402 55.8656 6.47056 56.9114L25.4362 76.2886C27.6726 78.5836 28.6311 81.8083 28.0212 84.9459L22.7932 111.557C21.2539 119.459 29.4153 125.705 36.6472 122.131L60.9279 110.075C63.8033 108.652 67.1724 108.739 69.9606 110.279L93.6604 123.468C100.689 127.39 109.17 121.521 108.008 113.561L104.058 86.718C103.593 83.5514 104.726 80.3558 107.05 78.1769L126.916 59.7003V59.7875Z" fill="#FFCA02"/>
</g>
<defs>
<linearGradient id="paint0_linear_2199_8116" x1="64.8498" y1="117.803" x2="67.8719" y2="17.1115" gradientUnits="userSpaceOnUse">
<stop stop-color="#F59300"/>
<stop offset="0.19" stop-color="#F59B03"/>
<stop offset="0.48" stop-color="#F8B10E"/>
<stop offset="0.84" stop-color="#FCD51F"/>
<stop offset="1" stop-color="#FFE828"/>
</linearGradient>
<linearGradient id="paint1_linear_2199_8116" x1="77.2796" y1="84.9461" x2="56.7959" y2="49.479" gradientUnits="userSpaceOnUse">
<stop stop-color="#FDFA91"/>
<stop offset="0.51" stop-color="#FFCA02"/>
<stop offset="0.85" stop-color="#E38D02"/>
</linearGradient>
</defs>
</svg>
