<svg width="60" height="34" viewBox="0 0 60 34" fill="none" xmlns="http://www.w3.org/2000/svg">
<path d="M16.9982 0C7.62384 0.02204 0.0361328 7.62762 0.0361328 17.0019C0.0361328 26.3763 7.62384 33.9819 16.9982 34.0039C26.3725 33.9819 33.9602 26.3763 33.9602 17.0019C33.9602 7.62761 26.3725 0.02204 16.9982 0ZM43.4982 1C38.8107 1.02138 35.0168 8.17943 35.0168 17.0019C35.0168 25.8245 38.8107 32.9825 43.4982 33.0039C48.1856 32.9825 51.9795 25.8245 51.9795 17.0019C51.9795 8.17943 48.1856 1.02138 43.4982 1ZM56.5001 2C55.2476 1.98656 54.0889 4.84297 53.4617 9.49012C52.8346 14.1373 52.8346 19.8667 53.4617 24.5138C54.0889 29.1609 55.2476 32.0174 56.5001 32.0039C57.7526 32.0174 58.9113 29.161 59.5385 24.5138C60.1657 19.8667 60.1657 14.1373 59.5385 9.49012C58.9113 4.84298 57.7526 1.98657 56.5001 2Z" fill="url(#paint0_linear_2229_3618)"/>
<defs>
<linearGradient id="paint0_linear_2229_3618" x1="4.81395" y1="7.25262" x2="25.4344" y2="43.6245" gradientUnits="userSpaceOnUse">
<stop stop-color="#532770"/>
<stop offset="0.96" stop-color="#F7E3F6"/>
</linearGradient>
</defs>
</svg>
