<svg width="457" height="349" viewBox="0 0 457 349" fill="none" xmlns="http://www.w3.org/2000/svg">
<path d="M70.3944 1.42411C48.4523 0.808051 27.4682 0.808053 27.4682 0.808053L27.6821 21.1893H37.7507C38.5035 18.7764 40.6592 17.0138 43.2255 17.0138C46.4163 17.0138 49.0083 19.709 49.0083 23.0289C49.0083 26.3488 46.4163 29.044 43.2255 29.044C40.6506 29.044 38.4949 27.2814 37.7507 24.8685H27.7249L27.9815 48.6894H37.7592C38.512 46.2765 40.6677 44.5139 43.2341 44.5139C46.4249 44.5139 49.0168 47.2092 49.0168 50.529C49.0168 53.8489 46.4249 56.5441 43.2341 56.5441C40.6592 56.5441 38.5035 54.7815 37.7592 52.3687H28.0243L28.2724 76.1895H37.7592C38.512 73.7766 40.6677 72.014 43.2341 72.014C46.4249 72.014 49.0168 74.7093 49.0168 78.0292C49.0168 81.349 46.4249 84.0443 43.2341 84.0443C40.6592 84.0443 38.5035 82.2817 37.7592 79.8688H28.3237L28.8797 103.69H37.7592C38.512 101.277 40.6677 99.5142 43.2341 99.5142C46.4249 99.5142 49.0168 102.209 49.0168 105.529C49.0168 108.849 46.4249 111.544 43.2341 111.544C40.6592 111.544 38.5035 109.782 37.7592 107.369H28.9653L29.2048 117.791L28.5204 131.19H37.7592C38.512 128.777 40.6677 127.014 43.2341 127.014C46.4249 127.014 49.0168 129.71 49.0168 133.029C49.0168 136.349 46.4249 139.045 43.2341 139.045C40.6592 139.045 38.5035 137.282 37.7592 134.869H28.3322L27.2715 155.627L27.3741 158.69H37.7592C38.512 156.277 40.6677 154.514 43.2341 154.514C46.4249 154.514 49.0168 157.21 49.0168 160.53C49.0168 163.849 46.4249 166.545 43.2341 166.545C40.6592 166.545 38.5035 164.782 37.7592 162.369H27.4939L28.298 186.19H37.7507C38.5035 183.777 40.6592 182.015 43.2255 182.015C46.4163 182.015 49.0083 184.71 49.0083 188.03C49.0083 191.35 46.4163 194.045 43.2255 194.045C40.6506 194.045 38.4949 192.282 37.7507 189.869H28.4178L28.76 199.914L28.2381 213.69H37.7507C38.5035 211.277 40.6592 209.515 43.2255 209.515C46.4163 209.515 49.0083 212.21 49.0083 215.53C49.0083 218.85 46.4163 221.545 43.2255 221.545C40.6506 221.545 38.4949 219.782 37.7507 217.369H28.1013L27.4682 234.071L28.2296 241.19H37.7507C38.5035 238.777 40.6592 237.015 43.2255 237.015C46.4163 237.015 49.0083 239.71 49.0083 243.03C49.0083 246.35 46.4163 249.045 43.2255 249.045C40.6506 249.045 38.4949 247.282 37.7507 244.87H28.6231L30.2057 259.595L28.7343 268.69H37.7507C38.5035 266.278 40.6592 264.515 43.2255 264.515C46.4163 264.515 49.0083 267.21 49.0083 270.53C49.0083 273.85 46.4163 276.545 43.2255 276.545C40.6506 276.545 38.4949 274.783 37.7507 272.37H28.1355L27.4682 276.477V296.191H37.7507C38.5035 293.778 40.6592 292.015 43.2255 292.015C46.4163 292.015 49.0083 294.71 49.0083 298.03C49.0083 301.35 46.4163 304.045 43.2255 304.045C40.6506 304.045 38.4949 302.283 37.7507 299.87H27.4682V318.146C27.4682 318.146 130.395 316.777 147.547 316.777C164.698 316.777 224.041 319.524 228.001 319.524C231.962 319.524 286.693 316.093 295.923 315.408C305.154 314.724 317.686 315.408 331.535 315.408C345.385 315.408 357.917 317.316 371.1 317.316H399.458C407.371 317.316 425.181 318.155 425.181 318.155C425.181 318.155 426.207 311.755 424.437 310.83C422.657 309.906 420.288 308.358 419.988 307.126C419.689 305.893 420.288 302.189 421.768 301.573C423.247 300.956 425.48 299.724 425.48 298.176C425.48 296.627 431.554 294.779 431.554 293.547C431.554 292.315 428.44 288.148 427.696 287.378C426.952 286.607 424.137 288.302 423.547 286.453C422.957 284.605 423.846 280.9 423.547 278.736C423.248 276.579 425.917 273.491 424.736 272.875C423.547 272.258 419.988 270.402 419.988 269.478C419.988 268.554 425.916 264.849 425.626 263.617C425.326 262.384 423.256 256.831 422.657 255.283C422.067 253.742 422.212 247.411 421.468 246.641C420.724 245.871 420.579 237.383 420.579 237.383C420.579 237.383 421.468 231.214 421.468 229.973C421.468 228.732 422.358 218.867 422.358 218.867C422.358 218.867 421.468 211.774 421.468 210.841C421.468 209.908 422.948 205.288 422.948 203.748C422.948 202.208 423.983 193.72 422.948 192.642C421.913 191.563 420.279 185.856 421.169 184.924C422.058 184 425.027 181.835 425.027 179.679C425.027 177.522 425.027 174.126 422.657 172.277C420.288 170.429 417.91 166.416 417.319 164.868C416.729 163.327 418.209 160.855 418.209 159.931C418.209 159.007 421.768 154.686 422.358 153.145C422.948 151.605 423.838 143.887 423.547 142.039C423.248 140.191 425.472 133.551 424.137 132.165C422.803 130.779 422.058 127.228 421.468 125.38C420.878 123.532 422.948 121.059 424.727 119.211C426.507 117.363 426.952 110.107 426.207 109.337C425.463 108.567 424.727 104.092 424.727 102.244C424.727 100.395 425.916 95.1504 424.137 93.2937C422.358 91.4455 419.988 88.3567 419.389 86.5085C418.799 84.6603 420.579 81.8795 421.169 79.7233C421.759 77.5671 422.948 73.2462 422.358 71.0814C421.768 68.9252 424.437 64.9123 424.437 64.9123C424.437 64.9123 423.846 59.0512 425.626 58.4351C427.405 57.8191 429.484 52.574 429.775 51.3419C430.074 50.1098 429.475 47.945 427.106 46.0968C424.736 44.2487 422.512 43.7866 421.768 42.0839C421.023 40.3898 420.733 35.1447 421.468 34.3661C422.212 33.596 425.326 33.134 425.326 30.3532C425.326 27.5723 424.137 20.7871 422.657 19.8631C421.177 18.939 421.023 16.9282 423.248 14.618C425.472 12.3078 426.806 9.68099 426.806 8.14085C426.806 6.6007 427.106 5.98465 423.838 3.81989C420.579 1.66369 399.817 3.20383 387.37 3.20383C374.924 3.20383 366.018 2.67334 361.57 2.67334C357.122 2.67334 348.824 4.75253 332.81 4.75253C316.796 4.75253 295.154 3.21239 279.439 4.13647C263.725 5.06056 191.671 1.98027 161.131 1.04763C130.592 0.123544 92.345 1.97172 70.4029 1.35566L70.3944 1.42411Z" fill="#EAEAEA"/>
<path d="M416.045 307.374C416.045 309.017 413.795 310.334 412.298 310.993C410.801 311.652 410.202 315.596 410.502 316.914C410.553 317.154 410.698 317.41 410.878 317.667C418.089 317.915 425.172 318.249 425.172 318.249C425.172 318.249 426.199 311.849 424.428 310.925C422.649 310 420.279 308.452 419.98 307.22C419.826 306.595 419.911 305.329 420.219 304.156C418.423 305.2 416.045 306.347 416.045 307.374Z" fill="#FFF5E6"/>
<mask id="mask0_2191_4395" style="mask-type:luminance" maskUnits="userSpaceOnUse" x="27" y="0" width="405" height="320">
<path d="M70.3944 1.42411C48.4523 0.808051 27.4682 0.808053 27.4682 0.808053L27.6821 21.1893H37.7507C38.5035 18.7764 40.6592 17.0138 43.2255 17.0138C46.4163 17.0138 49.0083 19.709 49.0083 23.0289C49.0083 26.3488 46.4163 29.044 43.2255 29.044C40.6506 29.044 38.4949 27.2814 37.7507 24.8685H27.7249L27.9815 48.6894H37.7592C38.512 46.2765 40.6677 44.5139 43.2341 44.5139C46.4249 44.5139 49.0168 47.2092 49.0168 50.529C49.0168 53.8489 46.4249 56.5441 43.2341 56.5441C40.6592 56.5441 38.5035 54.7815 37.7592 52.3687H28.0243L28.2724 76.1895H37.7592C38.512 73.7766 40.6677 72.014 43.2341 72.014C46.4249 72.014 49.0168 74.7093 49.0168 78.0292C49.0168 81.349 46.4249 84.0443 43.2341 84.0443C40.6592 84.0443 38.5035 82.2817 37.7592 79.8688H28.3237L28.8797 103.69H37.7592C38.512 101.277 40.6677 99.5142 43.2341 99.5142C46.4249 99.5142 49.0168 102.209 49.0168 105.529C49.0168 108.849 46.4249 111.544 43.2341 111.544C40.6592 111.544 38.5035 109.782 37.7592 107.369H28.9653L29.2048 117.791L28.5204 131.19H37.7592C38.512 128.777 40.6677 127.014 43.2341 127.014C46.4249 127.014 49.0168 129.71 49.0168 133.029C49.0168 136.349 46.4249 139.045 43.2341 139.045C40.6592 139.045 38.5035 137.282 37.7592 134.869H28.3322L27.2715 155.627L27.3741 158.69H37.7592C38.512 156.277 40.6677 154.514 43.2341 154.514C46.4249 154.514 49.0168 157.21 49.0168 160.53C49.0168 163.849 46.4249 166.545 43.2341 166.545C40.6592 166.545 38.5035 164.782 37.7592 162.369H27.4939L28.298 186.19H37.7507C38.5035 183.777 40.6592 182.015 43.2255 182.015C46.4163 182.015 49.0083 184.71 49.0083 188.03C49.0083 191.35 46.4163 194.045 43.2255 194.045C40.6506 194.045 38.4949 192.282 37.7507 189.869H28.4178L28.76 199.914L28.2381 213.69H37.7507C38.5035 211.277 40.6592 209.515 43.2255 209.515C46.4163 209.515 49.0083 212.21 49.0083 215.53C49.0083 218.85 46.4163 221.545 43.2255 221.545C40.6506 221.545 38.4949 219.782 37.7507 217.369H28.1013L27.4682 234.071L28.2296 241.19H37.7507C38.5035 238.777 40.6592 237.015 43.2255 237.015C46.4163 237.015 49.0083 239.71 49.0083 243.03C49.0083 246.35 46.4163 249.045 43.2255 249.045C40.6506 249.045 38.4949 247.282 37.7507 244.87H28.6231L30.2057 259.595L28.7343 268.69H37.7507C38.5035 266.278 40.6592 264.515 43.2255 264.515C46.4163 264.515 49.0083 267.21 49.0083 270.53C49.0083 273.85 46.4163 276.545 43.2255 276.545C40.6506 276.545 38.4949 274.783 37.7507 272.37H28.1355L27.4682 276.477V296.191H37.7507C38.5035 293.778 40.6592 292.015 43.2255 292.015C46.4163 292.015 49.0083 294.71 49.0083 298.03C49.0083 301.35 46.4163 304.045 43.2255 304.045C40.6506 304.045 38.4949 302.283 37.7507 299.87H27.4682V318.146C27.4682 318.146 130.395 316.777 147.547 316.777C164.698 316.777 224.041 319.524 228.001 319.524C231.962 319.524 286.693 316.093 295.923 315.408C305.154 314.724 317.686 315.408 331.535 315.408C345.385 315.408 357.917 317.316 371.1 317.316H399.458C407.371 317.316 425.181 318.155 425.181 318.155C425.181 318.155 426.207 311.755 424.437 310.83C422.657 309.906 420.288 308.358 419.988 307.126C419.689 305.893 420.288 302.189 421.768 301.573C423.247 300.956 425.48 299.724 425.48 298.176C425.48 296.627 431.554 294.779 431.554 293.547C431.554 292.315 428.44 288.148 427.696 287.378C426.952 286.607 424.137 288.302 423.547 286.453C422.957 284.605 423.846 280.9 423.547 278.736C423.248 276.579 425.917 273.491 424.736 272.875C423.547 272.258 419.988 270.402 419.988 269.478C419.988 268.554 425.916 264.849 425.626 263.617C425.326 262.384 423.256 256.831 422.657 255.283C422.067 253.742 422.212 247.411 421.468 246.641C420.724 245.871 420.579 237.383 420.579 237.383C420.579 237.383 421.468 231.214 421.468 229.973C421.468 228.732 422.358 218.867 422.358 218.867C422.358 218.867 421.468 211.774 421.468 210.841C421.468 209.908 422.948 205.288 422.948 203.748C422.948 202.208 423.983 193.72 422.948 192.642C421.913 191.563 420.279 185.856 421.169 184.924C422.058 184 425.027 181.835 425.027 179.679C425.027 177.522 425.027 174.126 422.657 172.277C420.288 170.429 417.91 166.416 417.319 164.868C416.729 163.327 418.209 160.855 418.209 159.931C418.209 159.007 421.768 154.686 422.358 153.145C422.948 151.605 423.838 143.887 423.547 142.039C423.248 140.191 425.472 133.551 424.137 132.165C422.803 130.779 422.058 127.228 421.468 125.38C420.878 123.532 422.948 121.059 424.727 119.211C426.507 117.363 426.952 110.107 426.207 109.337C425.463 108.567 424.727 104.092 424.727 102.244C424.727 100.395 425.916 95.1504 424.137 93.2937C422.358 91.4455 419.988 88.3567 419.389 86.5085C418.799 84.6603 420.579 81.8795 421.169 79.7233C421.759 77.5671 422.948 73.2462 422.358 71.0814C421.768 68.9252 424.437 64.9123 424.437 64.9123C424.437 64.9123 423.846 59.0512 425.626 58.4351C427.405 57.8191 429.484 52.574 429.775 51.3419C430.074 50.1098 429.475 47.945 427.106 46.0968C424.736 44.2487 422.512 43.7866 421.768 42.0839C421.023 40.3898 420.733 35.1447 421.468 34.3661C422.212 33.596 425.326 33.134 425.326 30.3532C425.326 27.5723 424.137 20.7871 422.657 19.8631C421.177 18.939 421.023 16.9282 423.248 14.618C425.472 12.3078 426.806 9.68099 426.806 8.14085C426.806 6.6007 427.106 5.98465 423.838 3.81989C420.579 1.66369 399.817 3.20383 387.37 3.20383C374.924 3.20383 366.018 2.67334 361.57 2.67334C357.122 2.67334 348.824 4.75253 332.81 4.75253C316.796 4.75253 295.154 3.21239 279.439 4.13647C263.725 5.06056 191.671 1.98027 161.131 1.04763C130.592 0.123544 92.345 1.97172 70.4029 1.35566L70.3944 1.42411Z" fill="white"/>
</mask>
<g mask="url(#mask0_2191_4395)">
<path d="M4.10596 307.879H453.804" stroke="#B8C7D4" stroke-width="0.25" stroke-miterlimit="10"/>
<path d="M4.10596 284.751H453.804" stroke="#B8C7D4" stroke-width="0.25" stroke-miterlimit="10"/>
<path d="M4.10596 261.631H453.804" stroke="#B8C7D4" stroke-width="0.25" stroke-miterlimit="10"/>
<path d="M4.10596 238.504H453.804" stroke="#B8C7D4" stroke-width="0.25" stroke-miterlimit="10"/>
<path d="M4.10596 215.384H453.804" stroke="#B8C7D4" stroke-width="0.25" stroke-miterlimit="10"/>
<path d="M4.10596 192.256H453.804" stroke="#B8C7D4" stroke-width="0.25" stroke-miterlimit="10"/>
<path d="M4.10596 169.137H453.804" stroke="#B8C7D4" stroke-width="0.25" stroke-miterlimit="10"/>
<path d="M4.10596 146.009H453.804" stroke="#B8C7D4" stroke-width="0.25" stroke-miterlimit="10"/>
<path d="M4.10596 122.882H453.804" stroke="#B8C7D4" stroke-width="0.25" stroke-miterlimit="10"/>
<path d="M4.10596 99.7623H453.804" stroke="#B8C7D4" stroke-width="0.25" stroke-miterlimit="10"/>
<path d="M4.10596 76.6345H453.804" stroke="#B8C7D4" stroke-width="0.25" stroke-miterlimit="10"/>
<path d="M4.10596 53.5151H453.804" stroke="#B8C7D4" stroke-width="0.25" stroke-miterlimit="10"/>
<path d="M4.10596 30.3873H453.804" stroke="#B8C7D4" stroke-width="0.25" stroke-miterlimit="10"/>
<path d="M4.10596 7.26807H453.804" stroke="#B8C7D4" stroke-width="0.25" stroke-miterlimit="10"/>
<path d="M402.349 382.473V-67.3262" stroke="#B8C7D4" stroke-width="0.25" stroke-miterlimit="10"/>
<path d="M379.227 382.473V-67.3262" stroke="#B8C7D4" stroke-width="0.25" stroke-miterlimit="10"/>
<path d="M356.112 382.473V-67.3262" stroke="#B8C7D4" stroke-width="0.25" stroke-miterlimit="10"/>
<path d="M332.99 382.473V-67.3262" stroke="#B8C7D4" stroke-width="0.25" stroke-miterlimit="10"/>
<path d="M309.875 382.473V-67.3262" stroke="#B8C7D4" stroke-width="0.25" stroke-miterlimit="10"/>
<path d="M286.753 382.473V-67.3262" stroke="#B8C7D4" stroke-width="0.25" stroke-miterlimit="10"/>
<path d="M263.639 382.473V-67.3262" stroke="#B8C7D4" stroke-width="0.25" stroke-miterlimit="10"/>
<path d="M240.517 382.473V-67.3262" stroke="#B8C7D4" stroke-width="0.25" stroke-miterlimit="10"/>
<path d="M217.394 382.473V-67.3262" stroke="#B8C7D4" stroke-width="0.25" stroke-miterlimit="10"/>
<path d="M194.28 382.473V-67.3262" stroke="#B8C7D4" stroke-width="0.25" stroke-miterlimit="10"/>
<path d="M171.157 382.473V-67.3262" stroke="#B8C7D4" stroke-width="0.25" stroke-miterlimit="10"/>
<path d="M148.043 382.473V-67.3262" stroke="#B8C7D4" stroke-width="0.25" stroke-miterlimit="10"/>
<path d="M124.92 382.473V-67.3262" stroke="#B8C7D4" stroke-width="0.25" stroke-miterlimit="10"/>
<path d="M101.806 382.473V-67.3262" stroke="#D4331E" stroke-width="0.25" stroke-miterlimit="10"/>
<path d="M78.6836 382.473V-67.3262" stroke="#B8C7D4" stroke-width="0.25" stroke-miterlimit="10"/>
<path d="M55.561 382.473V-67.3262" stroke="#B8C7D4" stroke-width="0.25" stroke-miterlimit="10"/>
</g>
<path d="M413.795 5.09477C411.554 7.559 411.699 9.69809 413.196 10.6821C414.693 11.6661 415.891 18.9047 415.891 21.8652C415.891 24.8257 414.479 25.5872 413.727 26.4087C412.982 27.2301 416.284 30.49 417.037 32.2954C417.781 34.1008 414.437 37.549 416.832 39.5255C419.227 41.5021 419.082 44.5738 418.782 45.8915C418.483 47.2092 420.108 52.0777 418.312 52.7366C416.515 53.3954 419.698 56.2875 419.698 56.2875C419.698 56.2875 418.389 65.8962 418.988 68.1979C419.586 70.4996 412.289 72.1937 411.691 74.4954C411.092 76.797 415.249 80.3051 415.848 82.2817C416.447 84.2582 412.888 86.9962 414.676 88.9727C416.473 90.9492 415.275 96.5366 415.275 98.5131C415.275 100.49 416.019 105.255 416.772 106.077C417.516 106.898 417.071 114.625 415.275 116.601C413.478 118.578 415.352 121.401 415.951 123.378C416.55 125.354 413.333 128.931 414.676 130.411C416.019 131.891 414.471 137.71 414.77 139.686C415.07 141.663 417.106 149.808 416.507 151.451C415.908 153.094 411.357 158.929 411.357 159.913C411.357 160.897 409.86 163.533 410.459 165.176C411.058 166.818 414.402 170.891 416.798 172.868C419.193 174.844 419.193 178.464 419.193 180.765C419.193 183.067 415.455 187.14 414.556 188.124C413.658 189.108 415.301 195.2 416.353 196.346C417.396 197.502 413.47 205.074 413.47 206.717C413.47 208.36 414.017 212.569 414.017 213.553C414.017 214.537 415.942 220.441 416.361 224.103C416.789 227.765 413.376 234.114 413.376 235.432C413.376 236.75 411.075 242.568 411.075 242.568C411.075 242.568 412.52 250.825 413.273 251.646C414.017 252.468 412.572 259.997 413.171 261.64C413.769 263.283 415.865 269.204 416.165 270.521C416.464 271.839 418.295 275.536 418.295 276.519C418.295 277.503 414.077 279.728 415.266 280.387C416.464 281.046 413.769 284.331 414.069 286.633C414.368 288.935 413.47 292.879 414.069 294.856C414.668 296.832 417.508 295.018 418.26 295.84C418.893 296.533 421.195 299.767 421.913 301.564C423.393 300.922 425.446 299.733 425.446 298.253C425.446 296.772 431.52 294.856 431.52 293.624C431.52 292.392 428.406 288.225 427.662 287.455C426.918 286.684 424.103 288.379 423.513 286.53C422.923 284.682 423.812 280.977 423.513 278.813C423.213 276.656 425.882 273.568 424.702 272.952C423.513 272.335 419.954 270.479 419.954 269.555C419.954 268.631 425.882 264.926 425.592 263.694C425.292 262.461 423.222 256.908 422.623 255.36C422.033 253.819 422.178 247.488 421.434 246.718C420.69 245.948 420.544 237.46 420.544 237.46C420.544 237.46 421.434 231.291 421.434 230.05C421.434 228.809 422.324 218.944 422.324 218.944C422.324 218.944 421.434 211.851 421.434 210.918C421.434 209.985 422.914 205.365 422.914 203.825C422.914 202.285 423.949 193.797 422.914 192.719C421.879 191.64 420.245 185.933 421.135 185.001C422.024 184.077 424.993 181.912 424.993 179.756C424.993 177.599 424.993 174.203 422.623 172.354C420.254 170.506 417.875 166.493 417.285 164.945C416.695 163.404 418.175 160.932 418.175 160.008C418.175 159.084 421.734 154.763 422.324 153.222C422.914 151.682 423.804 143.964 423.513 142.116C423.213 140.268 425.438 133.628 424.103 132.242C422.769 130.856 422.024 127.305 421.434 125.457C420.844 123.609 422.914 121.136 424.693 119.288C426.473 117.44 426.918 110.184 426.173 109.414C425.429 108.644 424.693 104.169 424.693 102.321C424.693 100.472 425.882 95.2274 424.103 93.3707C422.324 91.5225 419.954 88.4337 419.355 86.5855C418.765 84.7373 420.544 81.9565 421.135 79.8003C421.725 77.6441 422.914 73.3232 422.324 71.1584C421.734 69.0022 424.403 64.9893 424.403 64.9893C424.403 64.9893 423.812 59.1282 425.592 58.5121C427.371 57.896 429.45 52.651 429.74 51.4189C430.04 50.1868 429.441 48.022 427.071 46.1738C424.702 44.3257 422.478 43.8636 421.734 42.1609C420.989 40.4667 420.698 35.2217 421.434 34.4431C422.178 33.673 425.292 33.211 425.292 30.4301C425.292 27.6493 424.103 20.8641 422.623 19.94C421.143 19.016 420.989 17.0052 423.213 14.695C425.438 12.3848 426.772 9.75799 426.772 8.21784C426.772 6.6777 427.071 6.06164 423.804 3.89688C422.709 3.16959 419.603 2.87012 415.532 2.776C415.027 3.55463 414.454 4.33326 413.761 5.09477H413.795Z" fill="#FFFBF5"/>
<path d="M457.003 282.945C451.451 278.727 431.083 258.731 427.525 256.575C423.068 262.632 377.678 313.868 377.062 315.211C376.001 317.53 377.798 319.661 380.775 318.865C380.817 319.053 380.954 321.457 381.031 321.534C382.143 322.604 382.331 321.526 383.332 322.056C384.881 322.886 384.427 321.697 385.36 323.545C385.779 324.367 385.257 325.907 385.719 326.583C386.489 327.686 389.124 328.149 390.193 328.576C393.136 329.74 395.959 331.16 398.636 332.855C402.631 335.387 403.102 338.938 407.114 341.325C411.947 335.635 437.465 309.547 456.995 282.954L457.003 282.945Z" fill="#E2A4C6"/>
<mask id="mask1_2191_4395" style="mask-type:luminance" maskUnits="userSpaceOnUse" x="376" y="256" width="81" height="86">
<path d="M456.969 283.099C451.417 278.881 431.408 258.628 427.85 256.472C423.393 262.53 377.686 313.868 377.062 315.22C376.001 317.539 377.798 319.669 380.775 318.873C380.817 319.062 380.954 321.466 381.031 321.543C382.143 322.613 382.331 321.534 383.332 322.065C384.881 322.895 384.427 321.706 385.36 323.554C385.779 324.375 385.257 325.915 385.719 326.591C386.489 327.695 389.124 328.157 390.193 328.585C393.136 329.749 395.959 331.169 398.636 332.863C402.631 335.396 403.102 338.947 407.114 341.334C411.947 335.644 437.431 309.71 456.96 283.116L456.969 283.099Z" fill="white"/>
</mask>
<g mask="url(#mask1_2191_4395)">
<path d="M452.46 301.769C451.784 300.82 450.159 300.717 449.543 301.958C448.405 304.276 452.973 305.277 452.751 302.582C452.725 302.266 452.623 301.992 452.46 301.769Z" fill="#FEFFED"/>
<path d="M451.622 289.029C450.946 288.079 449.321 287.976 448.705 289.217C447.567 291.536 452.135 292.537 451.913 289.842C451.887 289.525 451.784 289.251 451.622 289.029Z" fill="#FEFFED"/>
<path d="M439.834 302.856C439.158 301.906 437.533 301.804 436.917 303.044C435.779 305.363 440.348 306.364 440.125 303.669C440.099 303.352 439.997 303.078 439.834 302.856Z" fill="#FEFFED"/>
<path d="M453.307 314.501C452.632 313.551 451.006 313.449 450.39 314.689C449.253 317.008 453.821 318.009 453.598 315.314C453.573 314.997 453.47 314.724 453.307 314.501Z" fill="#FEFFED"/>
<path d="M428.054 316.692C427.379 315.742 425.753 315.639 425.137 316.88C424 319.199 428.568 320.2 428.345 317.504C428.32 317.188 428.217 316.914 428.054 316.692Z" fill="#FEFFED"/>
<path d="M441.519 328.337C440.844 327.387 439.218 327.284 438.602 328.525C437.465 330.844 442.033 331.845 441.81 329.15C441.784 328.833 441.682 328.559 441.519 328.337Z" fill="#FEFFED"/>
<path d="M416.267 330.519C415.591 329.569 413.966 329.466 413.35 330.707C412.212 333.026 416.78 334.027 416.558 331.332C416.532 331.015 416.429 330.741 416.267 330.519Z" fill="#FEFFED"/>
<path d="M429.731 342.164C429.055 341.214 427.43 341.111 426.814 342.352C425.676 344.671 430.244 345.672 430.022 342.977C429.996 342.66 429.894 342.386 429.731 342.164Z" fill="#FEFFED"/>
<path d="M438.996 290.116C438.32 289.166 436.695 289.063 436.079 290.304C434.941 292.623 439.509 293.624 439.287 290.928C439.261 290.612 439.158 290.338 438.996 290.116Z" fill="#FEFFED"/>
<path d="M427.208 303.951C426.532 303.001 424.907 302.899 424.291 304.139C423.153 306.458 427.721 307.459 427.499 304.764C427.473 304.447 427.37 304.174 427.208 303.951Z" fill="#FEFFED"/>
<path d="M440.681 315.596C440.005 314.647 438.38 314.544 437.764 315.785C436.626 318.103 441.194 319.104 440.972 316.409C440.946 316.093 440.843 315.819 440.681 315.596Z" fill="#FEFFED"/>
<path d="M415.428 317.778C414.753 316.829 413.127 316.726 412.511 317.967C411.374 320.285 415.942 321.286 415.719 318.591C415.694 318.275 415.591 318.001 415.428 317.778Z" fill="#FEFFED"/>
<path d="M428.893 329.424C428.217 328.474 426.592 328.371 425.976 329.612C424.838 331.931 429.406 332.932 429.184 330.236C429.158 329.92 429.055 329.646 428.893 329.424Z" fill="#FEFFED"/>
<path d="M403.64 331.605C402.965 330.656 401.339 330.553 400.723 331.794C399.586 334.112 404.154 335.113 403.931 332.418C403.906 332.102 403.803 331.828 403.64 331.605Z" fill="#FEFFED"/>
<path d="M450.784 276.289C450.108 275.339 448.483 275.236 447.867 276.477C446.729 278.796 451.297 279.797 451.075 277.101C451.049 276.785 450.946 276.511 450.784 276.289Z" fill="#FEFFED"/>
<path d="M437.31 264.643C436.634 263.694 435.009 263.591 434.393 264.832C433.256 267.15 437.824 268.151 437.601 265.456C437.576 265.14 437.473 264.866 437.31 264.643Z" fill="#FEFFED"/>
<path d="M425.531 278.47C424.855 277.521 423.23 277.418 422.614 278.659C421.476 280.977 426.044 281.979 425.822 279.283C425.796 278.967 425.694 278.693 425.531 278.47Z" fill="#FEFFED"/>
<path d="M424.684 265.73C424.009 264.78 422.383 264.677 421.767 265.918C420.63 268.237 425.198 269.238 424.975 266.543C424.95 266.226 424.847 265.952 424.684 265.73Z" fill="#FEFFED"/>
<path d="M438.158 277.384C437.482 276.434 435.856 276.331 435.24 277.572C434.103 279.891 438.671 280.892 438.448 278.197C438.423 277.88 438.32 277.606 438.158 277.384Z" fill="#FEFFED"/>
<path d="M412.905 279.566C412.229 278.616 410.603 278.513 409.987 279.754C408.85 282.073 413.418 283.074 413.195 280.378C413.17 280.062 413.067 279.788 412.905 279.566Z" fill="#FEFFED"/>
<path d="M426.369 291.211C425.694 290.261 424.068 290.158 423.452 291.399C422.315 293.718 426.883 294.719 426.66 292.024C426.635 291.707 426.532 291.433 426.369 291.211Z" fill="#FEFFED"/>
<path d="M401.117 293.393C400.441 292.443 398.816 292.34 398.2 293.581C397.062 295.9 401.63 296.901 401.408 294.206C401.382 293.889 401.279 293.615 401.117 293.393Z" fill="#FEFFED"/>
<path d="M414.581 305.038C413.906 304.088 412.28 303.985 411.664 305.226C410.527 307.545 415.095 308.546 414.872 305.851C414.847 305.534 414.744 305.26 414.581 305.038Z" fill="#FEFFED"/>
<path d="M389.329 307.22C388.653 306.27 387.028 306.167 386.412 307.408C385.274 309.727 389.842 310.728 389.62 308.033C389.594 307.716 389.491 307.442 389.329 307.22Z" fill="#FEFFED"/>
<path d="M402.802 318.873C402.126 317.924 400.501 317.821 399.885 319.062C398.747 321.38 403.315 322.382 403.093 319.686C403.067 319.37 402.965 319.096 402.802 318.873Z" fill="#FEFFED"/>
<path d="M449.937 263.548C449.261 262.598 447.636 262.496 447.02 263.736C445.882 266.055 450.45 267.056 450.228 264.361C450.202 264.044 450.099 263.771 449.937 263.548Z" fill="#FEFFED"/>
<path d="M412.058 266.825C411.382 265.875 409.757 265.773 409.141 267.013C408.003 269.332 412.571 270.333 412.349 267.638C412.323 267.321 412.22 267.048 412.058 266.825Z" fill="#FEFFED"/>
<path d="M400.279 280.652C399.603 279.703 397.977 279.6 397.362 280.841C396.224 283.159 400.792 284.16 400.569 281.465C400.544 281.149 400.441 280.875 400.279 280.652Z" fill="#FEFFED"/>
<path d="M413.743 292.297C413.067 291.348 411.442 291.245 410.826 292.486C409.688 294.804 414.256 295.806 414.034 293.11C414.008 292.794 413.905 292.52 413.743 292.297Z" fill="#FEFFED"/>
<path d="M388.49 294.488C387.815 293.538 386.189 293.435 385.573 294.676C384.436 296.995 389.004 297.996 388.781 295.301C388.756 294.984 388.653 294.71 388.49 294.488Z" fill="#FEFFED"/>
<path d="M401.955 306.133C401.279 305.183 399.654 305.081 399.038 306.321C397.9 308.64 402.468 309.641 402.246 306.946C402.22 306.629 402.117 306.356 401.955 306.133Z" fill="#FEFFED"/>
<path d="M376.702 308.315C376.027 307.365 374.401 307.262 373.785 308.503C372.648 310.822 377.216 311.823 376.993 309.128C376.968 308.811 376.865 308.537 376.702 308.315Z" fill="#FEFFED"/>
<path d="M390.176 319.96C389.5 319.01 387.874 318.908 387.258 320.148C386.121 322.467 390.689 323.468 390.466 320.773C390.441 320.456 390.338 320.183 390.176 319.96Z" fill="#FEFFED"/>
<path d="M423.846 252.99C423.17 252.04 421.545 251.937 420.929 253.178C419.791 255.497 424.359 256.498 424.137 253.802C424.111 253.486 424.008 253.212 423.846 252.99Z" fill="#FEFFED"/>
<path d="M398.593 255.18C397.917 254.23 396.292 254.128 395.676 255.368C394.538 257.687 399.106 258.688 398.884 255.993C398.858 255.676 398.756 255.402 398.593 255.18Z" fill="#FEFFED"/>
<path d="M411.219 254.085C410.544 253.135 408.918 253.032 408.302 254.273C407.165 256.592 411.733 257.593 411.51 254.898C411.485 254.581 411.382 254.307 411.219 254.085Z" fill="#FEFFED"/>
<path d="M399.431 267.912C398.756 266.962 397.13 266.859 396.514 268.1C395.377 270.419 399.945 271.42 399.722 268.725C399.697 268.408 399.594 268.134 399.431 267.912Z" fill="#FEFFED"/>
<path d="M387.643 281.748C386.968 280.798 385.342 280.695 384.726 281.936C383.589 284.255 388.157 285.256 387.934 282.56C387.909 282.244 387.806 281.97 387.643 281.748Z" fill="#FEFFED"/>
<path d="M386.805 269.007C386.129 268.057 384.504 267.955 383.888 269.195C382.75 271.514 387.318 272.515 387.096 269.82C387.07 269.503 386.967 269.229 386.805 269.007Z" fill="#FEFFED"/>
<path d="M377.712 320.987C377.036 320.037 375.411 319.934 374.795 321.175C373.657 323.494 378.225 324.495 378.003 321.8C377.977 321.483 377.874 321.209 377.712 320.987Z" fill="#FEFFED"/>
<path d="M391.185 332.632C390.509 331.682 388.884 331.58 388.268 332.82C387.13 335.139 391.698 336.14 391.476 333.445C391.45 333.128 391.347 332.855 391.185 332.632Z" fill="#FEFFED"/>
<path d="M378.559 333.727C377.883 332.778 376.258 332.675 375.642 333.916C374.504 336.234 379.072 337.235 378.85 334.54C378.824 334.224 378.721 333.95 378.559 333.727Z" fill="#FEFFED"/>
</g>
<path d="M107.726 343.995C107.726 343.995 107.76 343.978 107.794 344.004C109.248 344.32 111.977 343.242 112.901 343.251C112.114 341.805 111.626 340.042 111.096 338.51C111.823 338.322 115.621 338.639 116.417 338.733C115.536 337.466 114.586 336.046 113.945 334.634C114.766 334.147 118.598 333.77 119.368 333.779C119.368 333.779 117.195 331.554 116.631 329.689C117.563 329.338 122.012 329.441 122.012 329.441C122.089 329.175 120.215 324.957 120.018 324.332C121.533 323.947 123.218 324.332 124.758 324.358C124.706 323.186 123.876 321.458 123.329 320.422C123.329 320.422 126.853 320.456 128.008 320.225C128.094 320.208 128.239 320.2 128.41 320.183C128.41 320.106 128.41 320.037 128.385 320.003C127.298 318.36 34.3458 263.668 19.4268 254.401C19.4097 254.427 19.3926 254.453 19.3755 254.487C19.6407 256.301 19.9914 258.209 20.1026 259.45C18.7425 259.835 17.3994 260.271 16.0649 260.69C16.3216 261.563 17.5534 264.583 17.5534 264.583C17.3481 264.857 14.2343 265.465 13.2762 266.081C13.567 267.655 14.0718 269.255 14.3797 270.753C13.1992 270.778 12.2326 270.042 11.1205 270.162C11.2659 271.737 11.7022 273.345 12.0016 274.842C10.3591 274.457 9.11874 274.919 7.16833 274.654C7.3052 276.708 8.31462 278.992 8.57126 279.6C7.38219 279.548 6.16746 279.78 5.00406 279.54C5.16659 280.421 5.7654 281.901 5.64564 282.509C4.49935 282.731 2.7799 282.877 0.915039 282.98C24.397 298.484 99.5391 343.131 110.514 349C109.565 347.246 108.111 344.312 107.794 344.012C107.777 344.012 107.751 344.012 107.726 344.004V343.995Z" fill="#E2A4C6"/>
<mask id="mask2_2191_4395" style="mask-type:luminance" maskUnits="userSpaceOnUse" x="0" y="254" width="129" height="96">
<path d="M107.726 343.995C107.726 343.995 107.76 343.978 107.794 344.004C109.248 344.32 111.977 343.242 112.901 343.251C112.114 341.805 111.626 340.042 111.096 338.51C111.823 338.322 115.621 338.639 116.417 338.733C115.536 337.466 114.586 336.046 113.945 334.634C114.766 334.147 118.598 333.77 119.368 333.779C119.368 333.779 117.195 331.554 116.631 329.689C117.563 329.338 122.012 329.441 122.012 329.441C122.089 329.175 120.215 324.957 120.018 324.332C121.533 323.947 123.218 324.332 124.758 324.358C124.706 323.186 123.876 321.458 123.329 320.422C123.329 320.422 126.853 320.456 128.008 320.225C128.094 320.208 128.239 320.2 128.41 320.183C128.41 320.106 128.41 320.037 128.385 320.003C127.298 318.36 34.3458 263.668 19.4268 254.401C19.4097 254.427 19.3926 254.453 19.3755 254.487C19.6407 256.301 19.9914 258.209 20.1026 259.45C18.7425 259.835 17.3994 260.271 16.0649 260.69C16.3216 261.563 17.5534 264.583 17.5534 264.583C17.3481 264.857 14.2343 265.465 13.2762 266.081C13.567 267.655 14.0718 269.255 14.3797 270.753C13.1992 270.778 12.2326 270.042 11.1205 270.162C11.2659 271.737 11.7022 273.345 12.0016 274.842C10.3591 274.457 9.11874 274.919 7.16833 274.654C7.3052 276.708 8.31462 278.992 8.57126 279.6C7.38219 279.548 6.16746 279.78 5.00406 279.54C5.16659 280.421 5.7654 281.901 5.64564 282.509C4.49935 282.731 2.7799 282.877 0.915039 282.98C24.397 298.484 99.5391 343.131 110.514 349C109.565 347.246 108.111 344.312 107.794 344.012C107.777 344.012 107.751 344.012 107.726 344.004V343.995Z" fill="white"/>
</mask>
<g mask="url(#mask2_2191_4395)">
<path d="M107.708 325.316C107.708 325.316 107.751 325.316 107.776 325.316C107.742 325.291 107.717 325.282 107.708 325.316Z" fill="#80E2FF"/>
<path d="M28.7084 279.155C27.9128 278.479 19.923 271.052 22.4979 268.69C24.2173 267.116 27.5364 271.591 28.2037 272.772C28.0069 270.676 29.042 263.822 32.7204 267.193C34.936 269.221 31.7366 275.604 28.7084 279.155Z" fill="#80E2FF"/>
<path d="M35.2014 287.6C34.9106 285.427 36.151 277.546 39.1108 277.461C42.4898 277.358 41.181 281.953 39.7182 283.296C40.9842 281.277 45.9715 281.217 45.1673 284.528C44.3974 287.694 36.9893 288.738 35.1929 287.609L35.2014 287.6Z" fill="#80E2FF"/>
<path d="M22.8229 282.826C21.6253 286.548 19.6835 294.522 13.5842 294.334C12.2839 292.118 13.9349 288.627 15.5517 286.847C13.8836 288.961 8.34029 291.151 9.25562 286.479C10.2736 281.303 19.3926 281.91 22.8144 282.817L22.8229 282.826Z" fill="#80E2FF"/>
<path d="M47.8532 275.287C46.5957 272.361 42.7291 268.802 43.2937 265.251C44.0978 260.143 47.9388 264.583 48.7857 267.381C49.0423 264.669 51.2836 260.177 53.2682 264.763C54.6369 267.92 50.9756 270.496 47.8532 275.287Z" fill="#80E2FF"/>
<path d="M14.551 263.189C13.918 260.742 16.3303 253.152 18.4946 251.475C21.8308 248.874 23.2679 253.486 21.4287 256.121C21.8992 253.606 26.8694 253.845 27.2629 256.224C28.1012 261.323 17.3739 261.075 14.551 263.189Z" fill="#80E2FF"/>
<path d="M4.00309 276.22C6.33845 277.863 12.0614 275.792 13.413 273.319C15.5858 269.341 11.8903 270.496 9.82866 272.284C8.31452 270 8.37441 267.244 6.07326 265.199C3.7379 267.835 3.3444 271.565 4.00309 276.211V276.22Z" fill="#80E2FF"/>
<path d="M23.0027 302.394C23.0369 299.374 21.6339 293.512 24.4826 291.194C27.5707 288.67 28.7512 293.427 27.8872 295.96C28.794 294.514 32.9172 292.991 33.9609 295.198C35.6718 298.817 27.2713 303.618 23.0027 302.394Z" fill="#80E2FF"/>
<path d="M54.3033 290.543C53.8499 288.464 51.3605 281.73 53.7044 279.925C56.228 277.974 57.9817 283.365 57.1091 285.341C56.7071 282.603 60.163 277.786 62.6096 281.465C65.1588 285.298 57.956 291.151 54.2947 290.543H54.3033Z" fill="#80E2FF"/>
<path d="M42.9089 294.282C40.8558 296.293 38.1099 302.3 40.2057 305.029C43.1484 308.88 45.4838 303.121 43.6189 300.357C45.6549 301.992 49.7781 303.378 51.6087 300.563C49.7867 298.569 47.2374 297.397 42.9174 294.282H42.9089Z" fill="#80E2FF"/>
<path d="M49.5041 315.237C48.931 313.337 49.9319 307.639 52.5153 307.091C55.3639 306.492 55.2613 309.983 54.3545 311.789C55.5179 310.574 60.0774 310.591 59.7181 313.141C59.299 316.161 50.2398 317.213 49.4956 315.246L49.5041 315.237Z" fill="#80E2FF"/>
<path d="M63.14 307.596C61.2152 305.654 57.5026 301.076 59.0595 297.979C60.6677 294.779 63.7046 298.355 64.1066 300.948C63.7901 299.339 64.714 294.377 67.2119 296.601C69.7782 298.894 65.6293 306.124 63.1485 307.605L63.14 307.596Z" fill="#80E2FF"/>
<path d="M77.2376 282.774C75.2444 283.236 67.2632 287.146 67.6909 289.927C68.0673 292.392 71.7713 289.748 72.5584 288.772C71.8826 290.928 72.7551 295.087 75.7064 294.06C79.2736 292.819 76.9211 286.094 77.2291 282.774H77.2376Z" fill="#80E2FF"/>
<path d="M94.1073 320.277C93.3117 319.601 85.3219 312.174 87.8968 309.812C89.6162 308.238 92.9353 312.713 93.6026 313.894C93.4058 311.797 94.4409 304.944 98.1193 308.315C100.335 310.343 97.1356 316.726 94.1073 320.277Z" fill="#80E2FF"/>
<path d="M100.592 328.73C100.301 326.557 101.541 318.677 104.501 318.591C107.88 318.488 106.571 323.083 105.108 324.427C106.374 322.407 111.362 322.347 110.557 325.659C109.788 328.825 102.379 329.868 100.583 328.739L100.592 328.73Z" fill="#80E2FF"/>
<path d="M88.2219 323.947C87.0243 327.669 85.0824 335.644 78.9831 335.456C77.6828 333.24 79.3338 329.749 80.9506 327.969C79.2825 330.082 73.7392 332.273 74.6545 327.601C75.6725 322.424 84.7915 323.032 88.2133 323.939L88.2219 323.947Z" fill="#80E2FF"/>
<path d="M113.243 316.409C111.986 313.483 108.119 309.924 108.684 306.373C109.488 301.265 113.329 305.705 114.176 308.503C114.432 305.791 116.674 301.299 118.658 305.885C120.027 309.042 116.366 311.618 113.243 316.409Z" fill="#80E2FF"/>
<path d="M79.9494 304.311C79.3164 301.863 81.7287 294.274 83.893 292.597C87.2292 289.996 88.6664 294.608 86.8272 297.243C87.2977 294.727 92.2678 294.967 92.6613 297.346C93.4996 302.445 82.7724 302.197 79.9494 304.311Z" fill="#80E2FF"/>
<path d="M69.3935 317.35C71.7288 318.993 77.4517 316.923 78.8033 314.45C80.9762 310.471 75.6981 310.873 73.645 312.67C74.74 310.394 73.7733 308.383 71.4722 306.338C69.1368 308.974 68.7433 312.704 69.402 317.35H69.3935Z" fill="#80E2FF"/>
<path d="M88.4011 343.516C88.4353 340.495 87.0324 334.634 89.881 332.316C92.9692 329.791 94.1497 334.549 93.2857 337.081C94.1924 335.635 98.3157 334.112 99.3593 336.32C101.07 339.939 92.6698 344.739 88.4011 343.516Z" fill="#80E2FF"/>
<path d="M119.702 331.665C119.249 329.586 116.759 322.852 119.103 321.047C121.627 319.096 123.381 324.486 122.508 326.463C122.106 323.725 125.562 318.908 128.009 322.587C130.558 326.42 123.355 332.273 119.694 331.665H119.702Z" fill="#80E2FF"/>
<path d="M108.299 335.404C106.246 337.415 103.5 343.422 105.596 346.151C108.539 350.001 110.874 344.243 109.009 341.479C111.045 343.114 115.168 344.5 116.999 341.685C115.177 339.691 112.628 338.519 108.308 335.404H108.299Z" fill="#80E2FF"/>
<path d="M114.894 356.359C114.321 354.459 115.322 348.761 117.905 348.213C120.754 347.614 120.651 351.105 119.745 352.911C120.908 351.696 125.468 351.713 125.108 354.263C124.689 357.283 115.63 358.335 114.886 356.367L114.894 356.359Z" fill="#80E2FF"/>
<path d="M128.53 348.718C126.605 346.776 122.893 342.198 124.45 339.101C126.058 335.901 129.095 339.477 129.497 342.07C129.18 340.461 130.104 335.499 132.602 337.723C135.168 340.016 131.019 347.246 128.539 348.727L128.53 348.718Z" fill="#80E2FF"/>
<path d="M68.4439 328.285C68.8117 324.255 65.0649 318.95 61.1641 317.718C57.8877 320.234 61.1897 322.835 63.7133 323.922C61.6517 324.692 56.8869 327.293 56.9211 330.022C56.9981 335.054 64.9879 331.64 68.4439 328.285Z" fill="#80E2FF"/>
<path d="M3.26763 286.804C3.63547 282.774 -0.11137 277.469 -4.01219 276.237C-7.28854 278.753 -3.98653 281.354 -1.46297 282.441C-3.52459 283.211 -8.28941 285.812 -8.25519 288.541C-8.1782 293.572 -0.18836 290.158 3.26763 286.804Z" fill="#80E2FF"/>
</g>
<path d="M77.0667 240.728C86.2798 245.075 92.1738 237.99 92.1225 232.257C92.0712 226.525 86.622 223.735 86.622 223.735C86.622 223.735 78.3584 218.49 72.644 227.243C72.644 227.243 66.579 235.783 77.0752 240.728H77.0667Z" fill="#8763E0"/>
<path d="M74.0982 212.415C74.0982 212.415 77.1863 211.868 77.5798 215.821C77.9733 219.774 76.2795 220.801 76.2795 220.801C76.2795 220.801 73.1572 222.409 71.9852 217.147C71.9852 217.147 70.9245 214.109 74.0982 212.415Z" fill="#8763E0"/>
<path d="M102.747 229.588C102.747 229.588 101.772 226.602 98.1021 228.125C94.4322 229.648 94.3296 231.624 94.3296 231.624C94.3296 231.624 94.3809 235.141 99.5735 233.686C99.5735 233.686 102.747 233.19 102.747 229.588Z" fill="#8763E0"/>
<path d="M85.7324 205.827C85.7324 205.827 89.6161 205.664 89.8386 210.345C90.061 215.025 87.8796 219.919 84.492 219.26C84.492 219.26 79.4107 219.243 81.0959 210.841C81.0959 210.841 82.0455 205.459 85.7239 205.827H85.7324Z" fill="#8763E0"/>
<path d="M102.157 215.675C102.157 215.675 100.472 212.176 96.2373 214.178C92.0029 216.189 88.718 220.424 90.8908 223.094C90.8908 223.094 93.2946 227.569 99.9157 222.118C99.9157 222.118 104.21 218.738 102.157 215.667V215.675Z" fill="#8763E0"/>
</svg>
