<svg width="457" height="349" viewBox="0 0 457 349" fill="none" xmlns="http://www.w3.org/2000/svg">
<path d="M70.3914 1.42362C48.4493 0.807563 27.4653 0.807565 27.4653 0.807565L27.6792 21.1888H37.7477C38.5005 18.7759 40.6562 17.0133 43.2226 17.0133C46.4134 17.0133 49.0054 19.7086 49.0054 23.0284C49.0054 26.3483 46.4134 29.0435 43.2226 29.0435C40.6477 29.0435 38.492 27.2809 37.7477 24.868H27.7219L27.9786 48.6889H37.7563C38.5091 46.276 40.6648 44.5134 43.2311 44.5134C46.4219 44.5134 49.0139 47.2087 49.0139 50.5285C49.0139 53.8484 46.4219 56.5437 43.2311 56.5437C40.6562 56.5437 38.5005 54.7811 37.7563 52.3682H28.0213L28.2694 76.1891H37.7563C38.5091 73.7762 40.6648 72.0136 43.2311 72.0136C46.4219 72.0136 49.0139 74.7088 49.0139 78.0287C49.0139 81.3485 46.4219 84.0438 43.2311 84.0438C40.6562 84.0438 38.5005 82.2812 37.7563 79.8683H28.3207L28.8768 103.689H37.7563C38.5091 101.276 40.6648 99.5137 43.2311 99.5137C46.4219 99.5137 49.0139 102.209 49.0139 105.529C49.0139 108.849 46.4219 111.544 43.2311 111.544C40.6562 111.544 38.5005 109.781 37.7563 107.368H28.9623L29.2019 117.79L28.5175 131.189H37.7563C38.5091 128.776 40.6648 127.014 43.2311 127.014C46.4219 127.014 49.0139 129.709 49.0139 133.029C49.0139 136.349 46.4219 139.044 43.2311 139.044C40.6562 139.044 38.5005 137.281 37.7563 134.869H28.3293L27.2686 155.626L27.3712 158.689H37.7563C38.5091 156.277 40.6648 154.514 43.2311 154.514C46.4219 154.514 49.0139 157.209 49.0139 160.529C49.0139 163.849 46.4219 166.544 43.2311 166.544C40.6562 166.544 38.5005 164.782 37.7563 162.369H27.491L28.2951 186.19H37.7477C38.5005 183.777 40.6562 182.014 43.2226 182.014C46.4134 182.014 49.0054 184.709 49.0054 188.029C49.0054 191.349 46.4134 194.044 43.2226 194.044C40.6477 194.044 38.492 192.282 37.7477 189.869H28.4148L28.757 199.914L28.2352 213.69H37.7477C38.5005 211.277 40.6562 209.514 43.2226 209.514C46.4134 209.514 49.0054 212.209 49.0054 215.529C49.0054 218.849 46.4134 221.544 43.2226 221.544C40.6477 221.544 38.492 219.782 37.7477 217.369H28.0983L27.4653 234.071L28.2267 241.19H37.7477C38.5005 238.777 40.6562 237.014 43.2226 237.014C46.4134 237.014 49.0054 239.71 49.0054 243.029C49.0054 246.349 46.4134 249.045 43.2226 249.045C40.6477 249.045 38.492 247.282 37.7477 244.869H28.6202L30.2027 259.595L28.7314 268.69H37.7477C38.5005 266.277 40.6562 264.514 43.2226 264.514C46.4134 264.514 49.0054 267.21 49.0054 270.53C49.0054 273.849 46.4134 276.545 43.2226 276.545C40.6477 276.545 38.492 274.782 37.7477 272.369H28.1326L27.4653 276.476V296.19H37.7477C38.5005 293.777 40.6562 292.015 43.2226 292.015C46.4134 292.015 49.0054 294.71 49.0054 298.03C49.0054 301.35 46.4134 304.045 43.2226 304.045C40.6477 304.045 38.492 302.282 37.7477 299.869H27.4653V318.146C27.4653 318.146 130.392 316.777 147.544 316.777C164.695 316.777 224.038 319.523 227.998 319.523C231.959 319.523 286.69 316.092 295.92 315.408C305.151 314.723 317.683 315.408 331.533 315.408C345.382 315.408 357.914 317.316 371.097 317.316H399.455C407.368 317.316 425.178 318.154 425.178 318.154C425.178 318.154 426.204 311.754 424.434 310.83C422.654 309.906 420.285 308.357 419.985 307.125C419.686 305.893 420.285 302.188 421.765 301.572C423.245 300.956 425.477 299.724 425.477 298.175C425.477 296.626 431.551 294.778 431.551 293.546C431.551 292.314 428.437 288.147 427.693 287.377C426.949 286.607 424.134 288.301 423.544 286.453C422.954 284.605 423.843 280.9 423.544 278.735C423.245 276.579 425.914 273.49 424.733 272.874C423.544 272.258 419.985 270.401 419.985 269.477C419.985 268.553 425.914 264.848 425.623 263.616C425.323 262.384 423.253 256.831 422.654 255.282C422.064 253.742 422.21 247.41 421.465 246.64C420.721 245.87 420.576 237.382 420.576 237.382C420.576 237.382 421.465 231.213 421.465 229.972C421.465 228.732 422.355 218.866 422.355 218.866C422.355 218.866 421.465 211.773 421.465 210.84C421.465 209.908 422.945 205.287 422.945 203.747C422.945 202.207 423.98 193.719 422.945 192.641C421.91 191.563 420.276 185.856 421.166 184.923C422.056 183.999 425.024 181.834 425.024 179.678C425.024 177.522 425.024 174.125 422.654 172.277C420.285 170.429 417.907 166.416 417.316 164.867C416.726 163.327 418.206 160.854 418.206 159.93C418.206 159.006 421.765 154.685 422.355 153.145C422.945 151.605 423.835 143.887 423.544 142.039C423.245 140.191 425.469 133.551 424.134 132.165C422.8 130.779 422.056 127.228 421.465 125.38C420.875 123.531 422.945 121.059 424.725 119.21C426.504 117.362 426.949 110.106 426.204 109.336C425.46 108.566 424.725 104.091 424.725 102.243C424.725 100.395 425.914 95.1499 424.134 93.2932C422.355 91.445 419.985 88.3562 419.387 86.508C418.796 84.6598 420.576 81.879 421.166 79.7228C421.756 77.5666 422.945 73.2457 422.355 71.0809C421.765 68.9247 424.434 64.9118 424.434 64.9118C424.434 64.9118 423.843 59.0507 425.623 58.4346C427.402 57.8186 429.481 52.5735 429.772 51.3414C430.071 50.1093 429.472 47.9445 427.103 46.0964C424.733 44.2482 422.509 43.7861 421.765 42.0834C421.02 40.3893 420.73 35.1442 421.465 34.3656C422.21 33.5955 425.323 33.1335 425.323 30.3527C425.323 27.5718 424.134 20.7867 422.654 19.8626C421.174 18.9385 421.02 16.9277 423.245 14.6175C425.469 12.3073 426.803 9.6805 426.803 8.14036C426.803 6.60021 427.103 5.98416 423.835 3.8194C420.576 1.6632 399.814 3.20334 387.367 3.20334C374.921 3.20334 366.015 2.67285 361.567 2.67285C357.119 2.67285 348.821 4.75205 332.807 4.75205C316.793 4.75205 295.151 3.2119 279.436 4.13599C263.722 5.06007 191.668 1.97978 161.128 1.04714C130.589 0.123055 92.3421 1.97123 70.4 1.35517L70.3914 1.42362Z" fill="#EAEAEA"/>
<path d="M416.042 307.373C416.042 309.016 413.792 310.334 412.295 310.993C410.798 311.651 410.199 315.596 410.499 316.914C410.55 317.153 410.695 317.41 410.875 317.666C418.086 317.915 425.17 318.248 425.17 318.248C425.17 318.248 426.196 311.848 424.425 310.924C422.646 310 420.276 308.451 419.977 307.219C419.823 306.595 419.909 305.328 420.216 304.156C418.42 305.2 416.042 306.346 416.042 307.373Z" fill="#FFF5E6"/>
<mask id="mask0_2198_6966" style="mask-type:luminance" maskUnits="userSpaceOnUse" x="27" y="0" width="405" height="320">
<path d="M70.3914 1.42362C48.4493 0.807563 27.4653 0.807565 27.4653 0.807565L27.6792 21.1888H37.7477C38.5005 18.7759 40.6562 17.0133 43.2226 17.0133C46.4134 17.0133 49.0054 19.7086 49.0054 23.0284C49.0054 26.3483 46.4134 29.0435 43.2226 29.0435C40.6477 29.0435 38.492 27.2809 37.7477 24.868H27.7219L27.9786 48.6889H37.7563C38.5091 46.276 40.6648 44.5134 43.2311 44.5134C46.4219 44.5134 49.0139 47.2087 49.0139 50.5285C49.0139 53.8484 46.4219 56.5437 43.2311 56.5437C40.6562 56.5437 38.5005 54.7811 37.7563 52.3682H28.0213L28.2694 76.1891H37.7563C38.5091 73.7762 40.6648 72.0136 43.2311 72.0136C46.4219 72.0136 49.0139 74.7088 49.0139 78.0287C49.0139 81.3485 46.4219 84.0438 43.2311 84.0438C40.6562 84.0438 38.5005 82.2812 37.7563 79.8683H28.3207L28.8768 103.689H37.7563C38.5091 101.276 40.6648 99.5137 43.2311 99.5137C46.4219 99.5137 49.0139 102.209 49.0139 105.529C49.0139 108.849 46.4219 111.544 43.2311 111.544C40.6562 111.544 38.5005 109.781 37.7563 107.368H28.9623L29.2019 117.79L28.5175 131.189H37.7563C38.5091 128.776 40.6648 127.014 43.2311 127.014C46.4219 127.014 49.0139 129.709 49.0139 133.029C49.0139 136.349 46.4219 139.044 43.2311 139.044C40.6562 139.044 38.5005 137.281 37.7563 134.869H28.3293L27.2686 155.626L27.3712 158.689H37.7563C38.5091 156.277 40.6648 154.514 43.2311 154.514C46.4219 154.514 49.0139 157.209 49.0139 160.529C49.0139 163.849 46.4219 166.544 43.2311 166.544C40.6562 166.544 38.5005 164.782 37.7563 162.369H27.491L28.2951 186.19H37.7477C38.5005 183.777 40.6562 182.014 43.2226 182.014C46.4134 182.014 49.0054 184.709 49.0054 188.029C49.0054 191.349 46.4134 194.044 43.2226 194.044C40.6477 194.044 38.492 192.282 37.7477 189.869H28.4148L28.757 199.914L28.2352 213.69H37.7477C38.5005 211.277 40.6562 209.514 43.2226 209.514C46.4134 209.514 49.0054 212.209 49.0054 215.529C49.0054 218.849 46.4134 221.544 43.2226 221.544C40.6477 221.544 38.492 219.782 37.7477 217.369H28.0983L27.4653 234.071L28.2267 241.19H37.7477C38.5005 238.777 40.6562 237.014 43.2226 237.014C46.4134 237.014 49.0054 239.71 49.0054 243.029C49.0054 246.349 46.4134 249.045 43.2226 249.045C40.6477 249.045 38.492 247.282 37.7477 244.869H28.6202L30.2027 259.595L28.7314 268.69H37.7477C38.5005 266.277 40.6562 264.514 43.2226 264.514C46.4134 264.514 49.0054 267.21 49.0054 270.53C49.0054 273.849 46.4134 276.545 43.2226 276.545C40.6477 276.545 38.492 274.782 37.7477 272.369H28.1326L27.4653 276.476V296.19H37.7477C38.5005 293.777 40.6562 292.015 43.2226 292.015C46.4134 292.015 49.0054 294.71 49.0054 298.03C49.0054 301.35 46.4134 304.045 43.2226 304.045C40.6477 304.045 38.492 302.282 37.7477 299.869H27.4653V318.146C27.4653 318.146 130.392 316.777 147.544 316.777C164.695 316.777 224.038 319.523 227.998 319.523C231.959 319.523 286.69 316.092 295.92 315.408C305.151 314.723 317.683 315.408 331.533 315.408C345.382 315.408 357.914 317.316 371.097 317.316H399.455C407.368 317.316 425.178 318.154 425.178 318.154C425.178 318.154 426.204 311.754 424.434 310.83C422.654 309.906 420.285 308.357 419.985 307.125C419.686 305.893 420.285 302.188 421.765 301.572C423.245 300.956 425.477 299.724 425.477 298.175C425.477 296.626 431.551 294.778 431.551 293.546C431.551 292.314 428.437 288.147 427.693 287.377C426.949 286.607 424.134 288.301 423.544 286.453C422.954 284.605 423.843 280.9 423.544 278.735C423.245 276.579 425.914 273.49 424.733 272.874C423.544 272.258 419.985 270.401 419.985 269.477C419.985 268.553 425.914 264.848 425.623 263.616C425.323 262.384 423.253 256.831 422.654 255.282C422.064 253.742 422.21 247.41 421.465 246.64C420.721 245.87 420.576 237.382 420.576 237.382C420.576 237.382 421.465 231.213 421.465 229.972C421.465 228.732 422.355 218.866 422.355 218.866C422.355 218.866 421.465 211.773 421.465 210.84C421.465 209.908 422.945 205.287 422.945 203.747C422.945 202.207 423.98 193.719 422.945 192.641C421.91 191.563 420.276 185.856 421.166 184.923C422.056 183.999 425.024 181.834 425.024 179.678C425.024 177.522 425.024 174.125 422.654 172.277C420.285 170.429 417.907 166.416 417.316 164.867C416.726 163.327 418.206 160.854 418.206 159.93C418.206 159.006 421.765 154.685 422.355 153.145C422.945 151.605 423.835 143.887 423.544 142.039C423.245 140.191 425.469 133.551 424.134 132.165C422.8 130.779 422.056 127.228 421.465 125.38C420.875 123.531 422.945 121.059 424.725 119.21C426.504 117.362 426.949 110.106 426.204 109.336C425.46 108.566 424.725 104.091 424.725 102.243C424.725 100.395 425.914 95.1499 424.134 93.2932C422.355 91.445 419.985 88.3562 419.387 86.508C418.796 84.6598 420.576 81.879 421.166 79.7228C421.756 77.5666 422.945 73.2457 422.355 71.0809C421.765 68.9247 424.434 64.9118 424.434 64.9118C424.434 64.9118 423.843 59.0507 425.623 58.4346C427.402 57.8186 429.481 52.5735 429.772 51.3414C430.071 50.1093 429.472 47.9445 427.103 46.0964C424.733 44.2482 422.509 43.7861 421.765 42.0834C421.02 40.3893 420.73 35.1442 421.465 34.3656C422.21 33.5955 425.323 33.1335 425.323 30.3527C425.323 27.5718 424.134 20.7867 422.654 19.8626C421.174 18.9385 421.02 16.9277 423.245 14.6175C425.469 12.3073 426.803 9.6805 426.803 8.14036C426.803 6.60021 427.103 5.98416 423.835 3.8194C420.576 1.6632 399.814 3.20334 387.367 3.20334C374.921 3.20334 366.015 2.67285 361.567 2.67285C357.119 2.67285 348.821 4.75205 332.807 4.75205C316.793 4.75205 295.151 3.2119 279.436 4.13599C263.722 5.06007 191.668 1.97978 161.128 1.04714C130.589 0.123055 92.3421 1.97123 70.4 1.35517L70.3914 1.42362Z" fill="white"/>
</mask>
<g mask="url(#mask0_2198_6966)">
<path d="M4.10303 307.878H453.801" stroke="#B8C7D4" stroke-width="0.25" stroke-miterlimit="10"/>
<path d="M4.10303 284.75H453.801" stroke="#B8C7D4" stroke-width="0.25" stroke-miterlimit="10"/>
<path d="M4.10303 261.631H453.801" stroke="#B8C7D4" stroke-width="0.25" stroke-miterlimit="10"/>
<path d="M4.10303 238.503H453.801" stroke="#B8C7D4" stroke-width="0.25" stroke-miterlimit="10"/>
<path d="M4.10303 215.384H453.801" stroke="#B8C7D4" stroke-width="0.25" stroke-miterlimit="10"/>
<path d="M4.10303 192.256H453.801" stroke="#B8C7D4" stroke-width="0.25" stroke-miterlimit="10"/>
<path d="M4.10303 169.137H453.801" stroke="#B8C7D4" stroke-width="0.25" stroke-miterlimit="10"/>
<path d="M4.10303 146.009H453.801" stroke="#B8C7D4" stroke-width="0.25" stroke-miterlimit="10"/>
<path d="M4.10303 122.881H453.801" stroke="#B8C7D4" stroke-width="0.25" stroke-miterlimit="10"/>
<path d="M4.10303 99.762H453.801" stroke="#B8C7D4" stroke-width="0.25" stroke-miterlimit="10"/>
<path d="M4.10303 76.634H453.801" stroke="#B8C7D4" stroke-width="0.25" stroke-miterlimit="10"/>
<path d="M4.10303 53.5149H453.801" stroke="#B8C7D4" stroke-width="0.25" stroke-miterlimit="10"/>
<path d="M4.10303 30.387H453.801" stroke="#B8C7D4" stroke-width="0.25" stroke-miterlimit="10"/>
<path d="M4.10303 7.26782H453.801" stroke="#B8C7D4" stroke-width="0.25" stroke-miterlimit="10"/>
<path d="M402.346 382.472V-67.3267" stroke="#B8C7D4" stroke-width="0.25" stroke-miterlimit="10"/>
<path d="M379.224 382.472V-67.3267" stroke="#B8C7D4" stroke-width="0.25" stroke-miterlimit="10"/>
<path d="M356.109 382.472V-67.3267" stroke="#B8C7D4" stroke-width="0.25" stroke-miterlimit="10"/>
<path d="M332.987 382.472V-67.3267" stroke="#B8C7D4" stroke-width="0.25" stroke-miterlimit="10"/>
<path d="M309.873 382.472V-67.3267" stroke="#B8C7D4" stroke-width="0.25" stroke-miterlimit="10"/>
<path d="M286.75 382.472V-67.3267" stroke="#B8C7D4" stroke-width="0.25" stroke-miterlimit="10"/>
<path d="M263.636 382.472V-67.3267" stroke="#B8C7D4" stroke-width="0.25" stroke-miterlimit="10"/>
<path d="M240.514 382.472V-67.3267" stroke="#B8C7D4" stroke-width="0.25" stroke-miterlimit="10"/>
<path d="M217.391 382.472V-67.3267" stroke="#B8C7D4" stroke-width="0.25" stroke-miterlimit="10"/>
<path d="M194.277 382.472V-67.3267" stroke="#B8C7D4" stroke-width="0.25" stroke-miterlimit="10"/>
<path d="M171.154 382.472V-67.3267" stroke="#B8C7D4" stroke-width="0.25" stroke-miterlimit="10"/>
<path d="M148.04 382.472V-67.3267" stroke="#B8C7D4" stroke-width="0.25" stroke-miterlimit="10"/>
<path d="M124.917 382.472V-67.3267" stroke="#B8C7D4" stroke-width="0.25" stroke-miterlimit="10"/>
<path d="M101.803 382.472V-67.3267" stroke="#D4331E" stroke-width="0.25" stroke-miterlimit="10"/>
<path d="M78.6807 382.472V-67.3267" stroke="#B8C7D4" stroke-width="0.25" stroke-miterlimit="10"/>
<path d="M55.5581 382.472V-67.3267" stroke="#B8C7D4" stroke-width="0.25" stroke-miterlimit="10"/>
</g>
<path d="M413.792 5.09441C411.551 7.55864 411.696 9.69772 413.193 10.6817C414.69 11.6657 415.888 18.9044 415.888 21.8649C415.888 24.8254 414.476 25.5869 413.724 26.4083C412.979 27.2297 416.281 30.4897 417.034 32.2951C417.778 34.1005 414.434 37.5487 416.829 39.5252C419.224 41.5017 419.079 44.5734 418.779 45.8911C418.48 47.2088 420.105 52.0774 418.309 52.7362C416.512 53.395 419.695 56.2871 419.695 56.2871C419.695 56.2871 418.386 65.8959 418.985 68.1975C419.583 70.4992 412.286 72.1933 411.688 74.495C411.089 76.7967 415.246 80.3048 415.845 82.2813C416.444 84.2578 412.885 86.9958 414.673 88.9724C416.47 90.9489 415.272 96.5362 415.272 98.5127C415.272 100.489 416.016 105.255 416.769 106.077C417.513 106.898 417.068 114.624 415.272 116.601C413.476 118.577 415.349 121.401 415.948 123.377C416.547 125.354 413.33 128.931 414.673 130.411C416.016 131.891 414.468 137.709 414.767 139.686C415.067 141.662 417.103 149.808 416.504 151.451C415.905 153.094 411.354 158.929 411.354 159.913C411.354 160.897 409.857 163.532 410.456 165.175C411.055 166.818 414.399 170.891 416.795 172.867C419.19 174.844 419.19 178.463 419.19 180.765C419.19 183.067 415.452 187.139 414.553 188.123C413.655 189.107 415.298 195.2 416.35 196.346C417.393 197.501 413.467 205.074 413.467 206.716C413.467 208.359 414.014 212.569 414.014 213.553C414.014 214.537 415.939 220.441 416.358 224.103C416.786 227.765 413.373 234.114 413.373 235.432C413.373 236.749 411.072 242.568 411.072 242.568C411.072 242.568 412.517 250.824 413.27 251.646C414.014 252.467 412.569 259.997 413.168 261.64C413.766 263.282 415.862 269.203 416.162 270.521C416.461 271.839 418.292 275.535 418.292 276.519C418.292 277.503 414.074 279.728 415.263 280.387C416.461 281.045 413.766 284.331 414.066 286.633C414.365 288.934 413.467 292.879 414.066 294.855C414.665 296.832 417.505 295.018 418.258 295.839C418.891 296.532 421.192 299.767 421.91 301.564C423.39 300.922 425.443 299.733 425.443 298.252C425.443 296.772 431.517 294.855 431.517 293.623C431.517 292.391 428.403 288.224 427.659 287.454C426.915 286.684 424.1 288.378 423.51 286.53C422.92 284.682 423.809 280.977 423.51 278.812C423.211 276.656 425.879 273.567 424.699 272.951C423.51 272.335 419.951 270.478 419.951 269.554C419.951 268.63 425.879 264.925 425.589 263.693C425.289 262.461 423.219 256.908 422.62 255.359C422.03 253.819 422.175 247.487 421.431 246.717C420.687 245.947 420.542 237.459 420.542 237.459C420.542 237.459 421.431 231.29 421.431 230.05C421.431 228.809 422.321 218.943 422.321 218.943C422.321 218.943 421.431 211.85 421.431 210.918C421.431 209.985 422.911 205.364 422.911 203.824C422.911 202.284 423.946 193.796 422.911 192.718C421.876 191.64 420.242 185.933 421.132 185C422.021 184.076 424.99 181.911 424.99 179.755C424.99 177.599 424.99 174.202 422.62 172.354C420.251 170.506 417.873 166.493 417.282 164.944C416.692 163.404 418.172 160.931 418.172 160.007C418.172 159.083 421.731 154.762 422.321 153.222C422.911 151.682 423.801 143.964 423.51 142.116C423.211 140.268 425.435 133.628 424.1 132.242C422.766 130.856 422.021 127.305 421.431 125.457C420.841 123.608 422.911 121.136 424.69 119.288C426.47 117.439 426.915 110.184 426.17 109.413C425.426 108.643 424.69 104.168 424.69 102.32C424.69 100.472 425.879 95.2271 424.1 93.3703C422.321 91.5222 419.951 88.4333 419.352 86.5851C418.762 84.737 420.542 81.9561 421.132 79.7999C421.722 77.6437 422.911 73.3228 422.321 71.158C421.731 69.0018 424.4 64.9889 424.4 64.9889C424.4 64.9889 423.809 59.1278 425.589 58.5117C427.368 57.8957 429.447 52.6506 429.738 51.4185C430.037 50.1864 429.438 48.0216 427.069 46.1735C424.699 44.3253 422.475 43.8633 421.731 42.1605C420.986 40.4664 420.696 35.2213 421.431 34.4427C422.175 33.6726 425.289 33.2106 425.289 30.4298C425.289 27.649 424.1 20.8638 422.62 19.9397C421.14 19.0156 420.986 17.0049 423.21 14.6946C425.435 12.3844 426.769 9.75762 426.769 8.21748C426.769 6.67733 427.069 6.06128 423.801 3.89652C422.706 3.16923 419.601 2.86975 415.529 2.77563C415.024 3.55426 414.451 4.33289 413.758 5.09441H413.792Z" fill="#FFFBF5"/>
<mask id="mask1_2198_6966" style="mask-type:luminance" maskUnits="userSpaceOnUse" x="79" y="20" width="318" height="279">
<path d="M387.561 298.731L396.458 30.4744L88.0346 20.2406L79.1376 288.497L387.561 298.731Z" fill="white"/>
</mask>
<g mask="url(#mask1_2198_6966)">
<path d="M486.034 -10.0078H41.0415V327.335H486.034V-10.0078Z" fill="#F7E3F6"/>
</g>
<path d="M457 282.945C451.448 278.727 431.08 258.73 427.522 256.574C423.065 262.632 377.675 313.868 377.059 315.211C375.998 317.53 377.795 319.66 380.772 318.865C380.814 319.053 380.951 321.457 381.028 321.534C382.14 322.604 382.329 321.526 383.329 322.056C384.878 322.886 384.424 321.697 385.357 323.545C385.776 324.366 385.254 325.906 385.716 326.582C386.486 327.686 389.121 328.148 390.19 328.576C393.133 329.74 395.956 331.16 398.633 332.854C402.628 335.387 403.099 338.938 407.111 341.325C411.944 335.635 437.462 309.547 456.992 282.953L457 282.945Z" fill="#E2A4C6"/>
<mask id="mask2_2198_6966" style="mask-type:luminance" maskUnits="userSpaceOnUse" x="376" y="256" width="81" height="86">
<path d="M456.966 283.099C451.414 278.881 431.405 258.628 427.847 256.471C423.39 262.529 377.683 313.867 377.059 315.219C375.998 317.538 377.795 319.669 380.772 318.873C380.814 319.061 380.951 321.466 381.028 321.543C382.14 322.612 382.329 321.534 383.329 322.064C384.878 322.894 384.424 321.705 385.357 323.553C385.776 324.375 385.254 325.915 385.716 326.591C386.486 327.695 389.121 328.157 390.19 328.584C393.133 329.748 395.956 331.168 398.633 332.863C402.628 335.395 403.099 338.946 407.111 341.333C411.944 335.643 437.428 309.709 456.957 283.116L456.966 283.099Z" fill="white"/>
</mask>
<g mask="url(#mask2_2198_6966)">
<path d="M452.457 301.769C451.781 300.819 450.156 300.716 449.54 301.957C448.402 304.276 452.971 305.277 452.748 302.581C452.722 302.265 452.62 301.991 452.457 301.769Z" fill="#FEFFED"/>
<path d="M451.619 289.028C450.943 288.079 449.318 287.976 448.702 289.217C447.564 291.535 452.132 292.536 451.91 289.841C451.884 289.525 451.781 289.251 451.619 289.028Z" fill="#FEFFED"/>
<path d="M439.831 302.855C439.155 301.906 437.53 301.803 436.914 303.044C435.777 305.362 440.345 306.363 440.122 303.668C440.097 303.352 439.994 303.078 439.831 302.855Z" fill="#FEFFED"/>
<path d="M453.304 314.501C452.629 313.551 451.003 313.448 450.387 314.689C449.25 317.008 453.818 318.009 453.595 315.313C453.57 314.997 453.467 314.723 453.304 314.501Z" fill="#FEFFED"/>
<path d="M428.052 316.691C427.376 315.741 425.75 315.639 425.134 316.879C423.997 319.198 428.565 320.199 428.342 317.504C428.317 317.187 428.214 316.913 428.052 316.691Z" fill="#FEFFED"/>
<path d="M441.516 328.336C440.841 327.386 439.215 327.284 438.599 328.524C437.462 330.843 442.03 331.844 441.807 329.149C441.782 328.832 441.679 328.559 441.516 328.336Z" fill="#FEFFED"/>
<path d="M416.264 330.518C415.588 329.568 413.963 329.466 413.347 330.706C412.209 333.025 416.777 334.026 416.555 331.331C416.529 331.014 416.426 330.741 416.264 330.518Z" fill="#FEFFED"/>
<path d="M429.728 342.163C429.052 341.213 427.427 341.111 426.811 342.351C425.673 344.67 430.242 345.671 430.019 342.976C429.993 342.659 429.891 342.386 429.728 342.163Z" fill="#FEFFED"/>
<path d="M438.993 290.115C438.317 289.165 436.692 289.063 436.076 290.303C434.938 292.622 439.506 293.623 439.284 290.928C439.258 290.611 439.155 290.338 438.993 290.115Z" fill="#FEFFED"/>
<path d="M427.205 303.951C426.529 303.001 424.904 302.898 424.288 304.139C423.15 306.458 427.718 307.459 427.496 304.763C427.47 304.447 427.367 304.173 427.205 303.951Z" fill="#FEFFED"/>
<path d="M440.678 315.596C440.002 314.646 438.377 314.543 437.761 315.784C436.623 318.103 441.191 319.104 440.969 316.409C440.943 316.092 440.841 315.818 440.678 315.596Z" fill="#FEFFED"/>
<path d="M415.426 317.778C414.75 316.828 413.124 316.725 412.508 317.966C411.371 320.285 415.939 321.286 415.716 318.591C415.691 318.274 415.588 318 415.426 317.778Z" fill="#FEFFED"/>
<path d="M428.89 329.423C428.214 328.473 426.589 328.37 425.973 329.611C424.835 331.93 429.403 332.931 429.181 330.236C429.155 329.919 429.052 329.645 428.89 329.423Z" fill="#FEFFED"/>
<path d="M403.637 331.605C402.962 330.655 401.336 330.552 400.72 331.793C399.583 334.112 404.151 335.113 403.928 332.418C403.903 332.101 403.8 331.827 403.637 331.605Z" fill="#FEFFED"/>
<path d="M450.781 276.288C450.105 275.338 448.48 275.235 447.864 276.476C446.726 278.795 451.294 279.796 451.072 277.101C451.046 276.784 450.944 276.51 450.781 276.288Z" fill="#FEFFED"/>
<path d="M437.307 264.643C436.632 263.693 435.006 263.59 434.39 264.831C433.253 267.15 437.821 268.151 437.598 265.455C437.573 265.139 437.47 264.865 437.307 264.643Z" fill="#FEFFED"/>
<path d="M425.528 278.47C424.852 277.52 423.227 277.417 422.611 278.658C421.473 280.977 426.041 281.978 425.819 279.283C425.793 278.966 425.691 278.692 425.528 278.47Z" fill="#FEFFED"/>
<path d="M424.681 265.729C424.006 264.78 422.38 264.677 421.764 265.918C420.627 268.236 425.195 269.237 424.972 266.542C424.947 266.226 424.844 265.952 424.681 265.729Z" fill="#FEFFED"/>
<path d="M438.155 277.383C437.479 276.433 435.853 276.331 435.237 277.571C434.1 279.89 438.668 280.891 438.445 278.196C438.42 277.879 438.317 277.606 438.155 277.383Z" fill="#FEFFED"/>
<path d="M412.902 279.565C412.226 278.615 410.6 278.513 409.985 279.753C408.847 282.072 413.415 283.073 413.192 280.378C413.167 280.061 413.064 279.787 412.902 279.565Z" fill="#FEFFED"/>
<path d="M426.366 291.21C425.691 290.261 424.065 290.158 423.449 291.399C422.312 293.717 426.88 294.718 426.657 292.023C426.632 291.707 426.529 291.433 426.366 291.21Z" fill="#FEFFED"/>
<path d="M401.114 293.392C400.438 292.442 398.813 292.34 398.197 293.58C397.059 295.899 401.627 296.9 401.405 294.205C401.379 293.888 401.277 293.615 401.114 293.392Z" fill="#FEFFED"/>
<path d="M414.578 305.037C413.903 304.087 412.277 303.985 411.661 305.225C410.524 307.544 415.092 308.545 414.869 305.85C414.844 305.533 414.741 305.26 414.578 305.037Z" fill="#FEFFED"/>
<path d="M389.326 307.219C388.65 306.269 387.025 306.167 386.409 307.407C385.271 309.726 389.839 310.727 389.617 308.032C389.591 307.715 389.488 307.442 389.326 307.219Z" fill="#FEFFED"/>
<path d="M402.799 318.873C402.123 317.923 400.498 317.82 399.882 319.061C398.744 321.38 403.312 322.381 403.09 319.686C403.064 319.369 402.962 319.095 402.799 318.873Z" fill="#FEFFED"/>
<path d="M449.934 263.547C449.258 262.598 447.633 262.495 447.017 263.736C445.879 266.054 450.447 267.056 450.225 264.36C450.199 264.044 450.096 263.77 449.934 263.547Z" fill="#FEFFED"/>
<path d="M412.055 266.825C411.379 265.875 409.754 265.772 409.138 267.013C408 269.332 412.568 270.333 412.346 267.637C412.32 267.321 412.217 267.047 412.055 266.825Z" fill="#FEFFED"/>
<path d="M400.276 280.652C399.6 279.702 397.975 279.599 397.359 280.84C396.221 283.159 400.789 284.16 400.566 281.465C400.541 281.148 400.438 280.874 400.276 280.652Z" fill="#FEFFED"/>
<path d="M413.74 292.297C413.064 291.347 411.439 291.245 410.823 292.485C409.685 294.804 414.253 295.805 414.031 293.11C414.005 292.793 413.903 292.519 413.74 292.297Z" fill="#FEFFED"/>
<path d="M388.488 294.487C387.812 293.538 386.186 293.435 385.571 294.676C384.433 296.994 389.001 297.995 388.778 295.3C388.753 294.984 388.65 294.71 388.488 294.487Z" fill="#FEFFED"/>
<path d="M401.952 306.132C401.276 305.183 399.651 305.08 399.035 306.321C397.897 308.639 402.465 309.641 402.243 306.945C402.217 306.629 402.114 306.355 401.952 306.132Z" fill="#FEFFED"/>
<path d="M376.699 308.314C376.024 307.365 374.398 307.262 373.782 308.503C372.645 310.821 377.213 311.822 376.99 309.127C376.965 308.811 376.862 308.537 376.699 308.314Z" fill="#FEFFED"/>
<path d="M390.173 319.96C389.497 319.01 387.871 318.907 387.256 320.148C386.118 322.467 390.686 323.468 390.463 320.772C390.438 320.456 390.335 320.182 390.173 319.96Z" fill="#FEFFED"/>
<path d="M423.843 252.989C423.167 252.039 421.542 251.936 420.926 253.177C419.788 255.496 424.356 256.497 424.134 253.802C424.108 253.485 424.006 253.211 423.843 252.989Z" fill="#FEFFED"/>
<path d="M398.59 255.179C397.914 254.23 396.289 254.127 395.673 255.368C394.535 257.686 399.103 258.687 398.881 255.992C398.855 255.676 398.753 255.402 398.59 255.179Z" fill="#FEFFED"/>
<path d="M411.217 254.084C410.541 253.134 408.915 253.032 408.3 254.272C407.162 256.591 411.73 257.592 411.507 254.897C411.482 254.58 411.379 254.307 411.217 254.084Z" fill="#FEFFED"/>
<path d="M399.428 267.911C398.753 266.961 397.127 266.859 396.511 268.099C395.374 270.418 399.942 271.419 399.719 268.724C399.694 268.407 399.591 268.134 399.428 267.911Z" fill="#FEFFED"/>
<path d="M387.64 281.747C386.965 280.797 385.339 280.694 384.723 281.935C383.586 284.254 388.154 285.255 387.931 282.56C387.906 282.243 387.803 281.969 387.64 281.747Z" fill="#FEFFED"/>
<path d="M386.802 269.006C386.126 268.057 384.501 267.954 383.885 269.195C382.747 271.513 387.315 272.515 387.093 269.819C387.067 269.503 386.965 269.229 386.802 269.006Z" fill="#FEFFED"/>
<path d="M377.709 320.986C377.033 320.037 375.408 319.934 374.792 321.175C373.654 323.493 378.222 324.495 378 321.799C377.974 321.483 377.871 321.209 377.709 320.986Z" fill="#FEFFED"/>
<path d="M391.182 332.631C390.506 331.682 388.881 331.579 388.265 332.82C387.127 335.138 391.695 336.14 391.473 333.444C391.447 333.128 391.344 332.854 391.182 332.631Z" fill="#FEFFED"/>
<path d="M378.556 333.727C377.88 332.777 376.255 332.674 375.639 333.915C374.501 336.234 379.069 337.235 378.847 334.539C378.821 334.223 378.718 333.949 378.556 333.727Z" fill="#FEFFED"/>
</g>
<path d="M107.723 343.994C107.723 343.994 107.757 343.977 107.791 344.003C109.245 344.32 111.974 343.242 112.898 343.25C112.111 341.804 111.624 340.041 111.093 338.51C111.82 338.322 115.618 338.638 116.414 338.732C115.533 337.466 114.583 336.046 113.942 334.634C114.763 334.146 118.595 333.77 119.365 333.778C119.365 333.778 117.192 331.554 116.628 329.688C117.56 329.337 122.009 329.44 122.009 329.44C122.086 329.175 120.212 324.957 120.015 324.332C121.53 323.947 123.215 324.332 124.755 324.358C124.703 323.185 123.873 321.457 123.326 320.422C123.326 320.422 126.85 320.456 128.005 320.225C128.091 320.208 128.236 320.199 128.407 320.182C128.407 320.105 128.407 320.037 128.382 320.002C127.295 318.36 34.3428 263.667 19.4239 254.401C19.4068 254.427 19.3897 254.452 19.3726 254.486C19.6378 256.3 19.9885 258.208 20.0997 259.449C18.7395 259.834 17.3965 260.271 16.062 260.69C16.3186 261.563 17.5505 264.583 17.5505 264.583C17.3452 264.857 14.2314 265.464 13.2733 266.08C13.5641 267.655 14.0688 269.255 14.3768 270.752C13.1963 270.778 12.2296 270.042 11.1175 270.162C11.263 271.736 11.6992 273.345 11.9987 274.842C10.3562 274.457 9.11581 274.919 7.1654 274.654C7.30227 276.707 8.31169 278.992 8.56833 279.599C7.37926 279.548 6.16453 279.779 5.00113 279.539C5.16366 280.421 5.76247 281.901 5.64271 282.508C4.49642 282.731 2.77698 282.876 0.912109 282.979C24.394 298.483 99.5361 343.13 110.511 349C109.562 347.246 108.108 344.311 107.791 344.012C107.774 344.012 107.748 344.012 107.723 344.003V343.994Z" fill="#E2A4C6"/>
<mask id="mask3_2198_6966" style="mask-type:luminance" maskUnits="userSpaceOnUse" x="0" y="254" width="129" height="95">
<path d="M107.723 343.994C107.723 343.994 107.757 343.977 107.791 344.003C109.245 344.32 111.974 343.242 112.898 343.25C112.111 341.804 111.624 340.041 111.093 338.51C111.82 338.322 115.618 338.638 116.414 338.732C115.533 337.466 114.583 336.046 113.942 334.634C114.763 334.146 118.595 333.77 119.365 333.778C119.365 333.778 117.192 331.554 116.628 329.688C117.56 329.337 122.009 329.44 122.009 329.44C122.086 329.175 120.212 324.957 120.015 324.332C121.53 323.947 123.215 324.332 124.755 324.358C124.703 323.185 123.873 321.457 123.326 320.422C123.326 320.422 126.85 320.456 128.005 320.225C128.091 320.208 128.236 320.199 128.407 320.182C128.407 320.105 128.407 320.037 128.382 320.002C127.295 318.36 34.3428 263.667 19.4239 254.401C19.4068 254.427 19.3897 254.452 19.3726 254.486C19.6378 256.3 19.9885 258.208 20.0997 259.449C18.7395 259.834 17.3965 260.271 16.062 260.69C16.3186 261.563 17.5505 264.583 17.5505 264.583C17.3452 264.857 14.2314 265.464 13.2733 266.08C13.5641 267.655 14.0688 269.255 14.3768 270.752C13.1963 270.778 12.2296 270.042 11.1175 270.162C11.263 271.736 11.6992 273.345 11.9987 274.842C10.3562 274.457 9.11581 274.919 7.1654 274.654C7.30227 276.707 8.31169 278.992 8.56833 279.599C7.37926 279.548 6.16453 279.779 5.00113 279.539C5.16366 280.421 5.76247 281.901 5.64271 282.508C4.49642 282.731 2.77698 282.876 0.912109 282.979C24.394 298.483 99.5361 343.13 110.511 349C109.562 347.246 108.108 344.311 107.791 344.012C107.774 344.012 107.748 344.012 107.723 344.003V343.994Z" fill="white"/>
</mask>
<g mask="url(#mask3_2198_6966)">
<path d="M107.706 325.316C107.706 325.316 107.748 325.316 107.773 325.316C107.739 325.29 107.714 325.282 107.706 325.316Z" fill="#F7E3F6"/>
<path d="M28.7054 279.154C27.9099 278.479 19.92 271.052 22.4949 268.69C24.2144 267.116 27.5335 271.591 28.2007 272.771C28.004 270.675 29.0391 263.821 32.7175 267.193C34.9331 269.221 31.7337 275.604 28.7054 279.154Z" fill="#F7E3F6"/>
<path d="M35.1985 287.6C34.9077 285.426 36.148 277.546 39.1079 277.46C42.4869 277.358 41.178 281.953 39.7152 283.296C40.9813 281.277 45.9685 281.217 45.1644 284.528C44.3945 287.694 36.9864 288.738 35.1899 287.608L35.1985 287.6Z" fill="#F7E3F6"/>
<path d="M22.82 282.825C21.6224 286.547 19.6805 294.522 13.5812 294.333C12.281 292.117 13.932 288.626 15.5488 286.847C13.8806 288.96 8.33736 291.15 9.25269 286.479C10.2707 281.302 19.3897 281.91 22.8115 282.817L22.82 282.825Z" fill="#F7E3F6"/>
<path d="M47.8503 275.287C46.5928 272.361 42.7262 268.801 43.2908 265.25C44.0949 260.142 47.9358 264.583 48.7827 267.381C49.0394 264.669 51.2806 260.176 53.2653 264.763C54.634 267.92 50.9727 270.495 47.8503 275.287Z" fill="#F7E3F6"/>
<path d="M14.5481 263.188C13.915 260.741 16.3274 253.152 18.4916 251.475C21.8279 248.874 23.265 253.485 21.4258 256.121C21.8963 253.605 26.8664 253.845 27.2599 256.223C28.0983 261.323 17.371 261.075 14.5481 263.188Z" fill="#F7E3F6"/>
<path d="M4.00016 276.22C6.33552 277.863 12.0584 275.792 13.41 273.319C15.5829 269.34 11.8873 270.496 9.82573 272.284C8.3116 269.999 8.37148 267.244 6.07033 265.199C3.73497 267.835 3.34147 271.565 4.00016 276.211V276.22Z" fill="#F7E3F6"/>
<path d="M22.9997 302.394C23.0339 299.373 21.631 293.512 24.4796 291.193C27.5678 288.669 28.7483 293.427 27.8843 295.959C28.7911 294.513 32.9143 292.99 33.958 295.198C35.6688 298.817 27.2684 303.617 22.9997 302.394Z" fill="#F7E3F6"/>
<path d="M54.3003 290.543C53.8469 288.464 51.3576 281.73 53.7015 279.925C56.2251 277.974 57.9787 283.364 57.1062 285.341C56.7041 282.603 60.1601 277.785 62.6067 281.465C65.1559 285.298 57.9531 291.15 54.2918 290.543H54.3003Z" fill="#F7E3F6"/>
<path d="M42.906 294.282C40.8529 296.293 38.1069 302.3 40.2028 305.029C43.1455 308.879 45.4808 303.121 43.616 300.357C45.6519 301.992 49.7752 303.378 51.6058 300.563C49.7837 298.569 47.2345 297.397 42.9145 294.282H42.906Z" fill="#F7E3F6"/>
<path d="M49.5012 315.237C48.9281 313.337 49.9289 307.639 52.5124 307.091C55.361 306.492 55.2583 309.983 54.3516 311.788C55.515 310.573 60.0745 310.591 59.7152 313.14C59.296 316.161 50.2369 317.213 49.4927 315.245L49.5012 315.237Z" fill="#F7E3F6"/>
<path d="M63.137 307.596C61.2123 305.653 57.4997 301.076 59.0566 297.978C60.6648 294.778 63.7016 298.355 64.1037 300.948C63.7872 299.339 64.711 294.376 67.2089 296.601C69.7753 298.894 65.6264 306.124 63.1456 307.604L63.137 307.596Z" fill="#F7E3F6"/>
<path d="M77.2347 282.774C75.2415 283.236 67.2602 287.146 67.6879 289.927C68.0643 292.391 71.7684 289.747 72.5554 288.772C71.8796 290.928 72.7522 295.086 75.7035 294.06C79.2707 292.819 76.9182 286.094 77.2261 282.774H77.2347Z" fill="#F7E3F6"/>
<path d="M94.1044 320.276C93.3088 319.6 85.319 312.173 87.8939 309.812C89.6133 308.238 92.9324 312.713 93.5997 313.893C93.4029 311.797 94.438 304.943 98.1164 308.315C100.332 310.342 97.1326 316.725 94.1044 320.276Z" fill="#F7E3F6"/>
<path d="M100.589 328.73C100.298 326.557 101.538 318.676 104.498 318.591C107.877 318.488 106.568 323.083 105.105 324.426C106.371 322.407 111.359 322.347 110.555 325.658C109.785 328.824 102.377 329.868 100.58 328.739L100.589 328.73Z" fill="#F7E3F6"/>
<path d="M88.2189 323.947C87.0213 327.669 85.0795 335.643 78.9802 335.455C77.6799 333.239 79.3309 329.748 80.9477 327.968C79.2796 330.082 73.7363 332.272 74.6516 327.601C75.6696 322.424 84.7886 323.031 88.2104 323.938L88.2189 323.947Z" fill="#F7E3F6"/>
<path d="M113.24 316.409C111.983 313.483 108.116 309.923 108.681 306.372C109.485 301.264 113.326 305.705 114.173 308.503C114.43 305.79 116.671 301.298 118.655 305.884C120.024 309.042 116.363 311.617 113.24 316.409Z" fill="#F7E3F6"/>
<path d="M79.9465 304.31C79.3135 301.863 81.7258 294.274 83.8901 292.597C87.2263 289.995 88.6635 294.607 86.8243 297.243C87.2947 294.727 92.2649 294.967 92.6584 297.345C93.4967 302.445 82.7694 302.197 79.9465 304.31Z" fill="#F7E3F6"/>
<path d="M69.3905 317.35C71.7259 318.993 77.4488 316.922 78.8004 314.45C80.9732 310.471 75.6951 310.873 73.6421 312.67C74.7371 310.394 73.7704 308.383 71.4693 306.338C69.1339 308.973 68.7404 312.704 69.3991 317.35H69.3905Z" fill="#F7E3F6"/>
<path d="M88.3982 343.515C88.4324 340.495 87.0295 334.634 89.8781 332.315C92.9662 329.791 94.1467 334.548 93.2827 337.081C94.1895 335.635 98.3128 334.112 99.3564 336.32C101.067 339.939 92.6668 344.739 88.3982 343.515Z" fill="#F7E3F6"/>
<path d="M119.699 331.665C119.246 329.586 116.757 322.852 119.1 321.046C121.624 319.095 123.378 324.486 122.505 326.463C122.103 323.724 125.559 318.907 128.006 322.586C130.555 326.42 123.352 332.272 119.691 331.665H119.699Z" fill="#F7E3F6"/>
<path d="M108.296 335.404C106.243 337.415 103.497 343.421 105.593 346.151C108.536 350.001 110.871 344.243 109.006 341.479C111.042 343.113 115.165 344.499 116.996 341.684C115.174 339.691 112.625 338.519 108.305 335.404H108.296Z" fill="#F7E3F6"/>
<path d="M114.891 356.358C114.318 354.459 115.319 348.76 117.902 348.213C120.751 347.614 120.648 351.105 119.742 352.91C120.905 351.695 125.465 351.712 125.105 354.262C124.686 357.283 115.627 358.335 114.883 356.367L114.891 356.358Z" fill="#F7E3F6"/>
<path d="M128.527 348.718C126.602 346.775 122.89 342.198 124.447 339.1C126.055 335.9 129.092 339.477 129.494 342.069C129.177 340.461 130.101 335.498 132.599 337.723C135.165 340.016 131.017 347.246 128.536 348.726L128.527 348.718Z" fill="#F7E3F6"/>
<path d="M68.441 328.285C68.8088 324.255 65.062 318.95 61.1611 317.718C57.8848 320.234 61.1868 322.835 63.7104 323.921C61.6487 324.691 56.8839 327.293 56.9182 330.022C56.9951 335.053 64.985 331.639 68.441 328.285Z" fill="#F7E3F6"/>
<path d="M3.2647 286.804C3.63254 282.774 -0.1143 277.469 -4.01512 276.237C-7.29147 278.752 -3.98946 281.354 -1.4659 282.44C-3.52752 283.21 -8.29234 285.811 -8.25812 288.541C-8.18113 293.572 -0.19129 290.158 3.2647 286.804Z" fill="#F7E3F6"/>
</g>
<path d="M77.0638 240.728C86.2769 245.074 92.1709 237.99 92.1195 232.257C92.0682 226.524 86.6191 223.735 86.6191 223.735C86.6191 223.735 78.3555 218.49 72.6411 227.243C72.6411 227.243 66.576 235.782 77.0723 240.728H77.0638Z" fill="#8763E0"/>
<path d="M74.0952 212.415C74.0952 212.415 77.1834 211.867 77.5769 215.82C77.9704 219.773 76.2766 220.8 76.2766 220.8C76.2766 220.8 73.1542 222.409 71.9823 217.146C71.9823 217.146 70.9215 214.109 74.0952 212.415Z" fill="#8763E0"/>
<path d="M102.744 229.587C102.744 229.587 101.769 226.601 98.0992 228.124C94.4293 229.647 94.3267 231.624 94.3267 231.624C94.3267 231.624 94.378 235.14 99.5705 233.686C99.5705 233.686 102.744 233.19 102.744 229.587Z" fill="#8763E0"/>
<path d="M85.7295 205.826C85.7295 205.826 89.6132 205.664 89.8356 210.344C90.058 215.024 87.8767 219.919 84.4891 219.26C84.4891 219.26 79.4078 219.243 81.093 210.84C81.093 210.84 82.0425 205.458 85.7209 205.826H85.7295Z" fill="#8763E0"/>
<path d="M102.154 215.675C102.154 215.675 100.469 212.175 96.2344 214.177C91.9999 216.188 88.715 220.423 90.8879 223.093C90.8879 223.093 93.2917 227.568 99.9128 222.118C99.9128 222.118 104.207 218.738 102.154 215.666V215.675Z" fill="#8763E0"/>
</svg>
