<svg width="457" height="349" viewBox="0 0 457 349" fill="none" xmlns="http://www.w3.org/2000/svg">
<path d="M70.3914 0.640417C48.4493 0.0243594 27.4653 0.0243617 27.4653 0.0243617L27.6792 20.4056H37.7477C38.5005 17.9927 40.6562 16.2301 43.2226 16.2301C46.4134 16.2301 49.0054 18.9254 49.0054 22.2452C49.0054 25.5651 46.4134 28.2603 43.2226 28.2603C40.6477 28.2603 38.492 26.4977 37.7477 24.0848H27.7219L27.9786 47.9057H37.7563C38.5091 45.4928 40.6648 43.7302 43.2311 43.7302C46.4219 43.7302 49.0139 46.4255 49.0139 49.7453C49.0139 53.0652 46.4219 55.7605 43.2311 55.7605C40.6562 55.7605 38.5005 53.9979 37.7563 51.585H28.0213L28.2694 75.4058H37.7563C38.5091 72.993 40.6648 71.2304 43.2311 71.2304C46.4219 71.2304 49.0139 73.9256 49.0139 77.2455C49.0139 80.5653 46.4219 83.2606 43.2311 83.2606C40.6562 83.2606 38.5005 81.498 37.7563 79.0851H28.3207L28.8768 102.906H37.7563C38.5091 100.493 40.6648 98.7305 43.2311 98.7305C46.4219 98.7305 49.0139 101.426 49.0139 104.746C49.0139 108.065 46.4219 110.761 43.2311 110.761C40.6562 110.761 38.5005 108.998 37.7563 106.585H28.9623L29.2019 117.007L28.5175 130.406H37.7563C38.5091 127.993 40.6648 126.231 43.2311 126.231C46.4219 126.231 49.0139 128.926 49.0139 132.246C49.0139 135.566 46.4219 138.261 43.2311 138.261C40.6562 138.261 38.5005 136.498 37.7563 134.085H28.3293L27.2686 154.843L27.3712 157.906H37.7563C38.5091 155.493 40.6648 153.731 43.2311 153.731C46.4219 153.731 49.0139 156.426 49.0139 159.746C49.0139 163.066 46.4219 165.761 43.2311 165.761C40.6562 165.761 38.5005 163.998 37.7563 161.585H27.491L28.2951 185.406H37.7477C38.5005 182.993 40.6562 181.231 43.2226 181.231C46.4134 181.231 49.0054 183.926 49.0054 187.246C49.0054 190.566 46.4134 193.261 43.2226 193.261C40.6477 193.261 38.492 191.498 37.7477 189.086H28.4148L28.757 199.131L28.2352 212.906H37.7477C38.5005 210.494 40.6562 208.731 43.2226 208.731C46.4134 208.731 49.0054 211.426 49.0054 214.746C49.0054 218.066 46.4134 220.761 43.2226 220.761C40.6477 220.761 38.492 218.999 37.7477 216.586H28.0983L27.4653 233.288L28.2267 240.407H37.7477C38.5005 237.994 40.6562 236.231 43.2226 236.231C46.4134 236.231 49.0054 238.926 49.0054 242.246C49.0054 245.566 46.4134 248.261 43.2226 248.261C40.6477 248.261 38.492 246.499 37.7477 244.086H28.6202L30.2027 258.811L28.7314 267.907H37.7477C38.5005 265.494 40.6562 263.731 43.2226 263.731C46.4134 263.731 49.0054 266.426 49.0054 269.746C49.0054 273.066 46.4134 275.761 43.2226 275.761C40.6477 275.761 38.492 273.999 37.7477 271.586H28.1326L27.4653 275.693V295.407H37.7477C38.5005 292.994 40.6562 291.231 43.2226 291.231C46.4134 291.231 49.0054 293.927 49.0054 297.246C49.0054 300.566 46.4134 303.262 43.2226 303.262C40.6477 303.262 38.492 301.499 37.7477 299.086H27.4653V317.362C27.4653 317.362 130.392 315.993 147.544 315.993C164.695 315.993 224.038 318.74 227.998 318.74C231.959 318.74 286.69 315.309 295.92 314.624C305.151 313.94 317.683 314.624 331.533 314.624C345.382 314.624 357.914 316.533 371.097 316.533H399.455C407.368 316.533 425.178 317.371 425.178 317.371C425.178 317.371 426.204 310.971 424.434 310.047C422.654 309.123 420.285 307.574 419.985 306.342C419.686 305.11 420.285 301.405 421.765 300.789C423.245 300.173 425.477 298.941 425.477 297.392C425.477 295.843 431.551 293.995 431.551 292.763C431.551 291.531 428.437 287.364 427.693 286.594C426.949 285.824 424.134 287.518 423.544 285.67C422.954 283.822 423.843 280.117 423.544 277.952C423.245 275.796 425.914 272.707 424.733 272.091C423.544 271.475 419.985 269.618 419.985 268.694C419.985 267.77 425.914 264.065 425.623 262.833C425.323 261.601 423.253 256.048 422.654 254.499C422.064 252.959 422.21 246.627 421.465 245.857C420.721 245.087 420.576 236.599 420.576 236.599C420.576 236.599 421.465 230.43 421.465 229.189C421.465 227.949 422.355 218.083 422.355 218.083C422.355 218.083 421.465 210.99 421.465 210.057C421.465 209.125 422.945 204.504 422.945 202.964C422.945 201.424 423.98 192.936 422.945 191.858C421.91 190.78 420.276 185.073 421.166 184.14C422.056 183.216 425.024 181.051 425.024 178.895C425.024 176.739 425.024 173.342 422.654 171.494C420.285 169.646 417.907 165.633 417.316 164.084C416.726 162.544 418.206 160.071 418.206 159.147C418.206 158.223 421.765 153.902 422.355 152.362C422.945 150.822 423.835 143.104 423.544 141.256C423.245 139.407 425.469 132.768 424.134 131.382C422.8 129.995 422.056 126.445 421.465 124.596C420.875 122.748 422.945 120.275 424.725 118.427C426.504 116.579 426.949 109.323 426.204 108.553C425.46 107.783 424.725 103.308 424.725 101.46C424.725 99.6118 425.914 94.3667 424.134 92.51C422.355 90.6618 419.985 87.573 419.387 85.7248C418.796 83.8766 420.576 81.0958 421.166 78.9396C421.756 76.7834 422.945 72.4625 422.355 70.2977C421.765 68.1415 424.434 64.1286 424.434 64.1286C424.434 64.1286 423.843 58.2675 425.623 57.6514C427.402 57.0354 429.481 51.7903 429.772 50.5582C430.071 49.3261 429.472 47.1613 427.103 45.3132C424.733 43.465 422.509 43.0029 421.765 41.3002C421.02 39.6061 420.73 34.361 421.465 33.5824C422.21 32.8123 425.323 32.3503 425.323 29.5695C425.323 26.7886 424.134 20.0035 422.654 19.0794C421.174 18.1553 421.02 16.1445 423.245 13.8343C425.469 11.5241 426.803 8.8973 426.803 7.35716C426.803 5.81701 427.103 5.20096 423.835 3.0362C420.576 0.879998 399.814 2.42014 387.367 2.42014C374.921 2.42014 366.015 1.88965 361.567 1.88965C357.119 1.88965 348.821 3.96884 332.807 3.96884C316.793 3.96884 295.151 2.4287 279.436 3.35278C263.722 4.27687 191.668 1.19658 161.128 0.263939C130.589 -0.660148 92.3421 1.18803 70.4 0.571968L70.3914 0.640417Z" fill="#EAEAEA"/>
<path d="M416.042 306.59C416.042 308.233 413.792 309.55 412.295 310.209C410.798 310.868 410.199 314.813 410.499 316.13C410.55 316.37 410.695 316.627 410.875 316.883C418.086 317.131 425.17 317.465 425.17 317.465C425.17 317.465 426.196 311.065 424.425 310.141C422.646 309.217 420.276 307.668 419.977 306.436C419.823 305.811 419.909 304.545 420.216 303.373C418.42 304.417 416.042 305.563 416.042 306.59Z" fill="#FFF5E6"/>
<mask id="mask0_2198_6799" style="mask-type:luminance" maskUnits="userSpaceOnUse" x="27" y="0" width="405" height="319">
<path d="M70.3914 0.640417C48.4493 0.0243594 27.4653 0.0243617 27.4653 0.0243617L27.6792 20.4056H37.7477C38.5005 17.9927 40.6562 16.2301 43.2226 16.2301C46.4134 16.2301 49.0054 18.9254 49.0054 22.2452C49.0054 25.5651 46.4134 28.2603 43.2226 28.2603C40.6477 28.2603 38.492 26.4977 37.7477 24.0848H27.7219L27.9786 47.9057H37.7563C38.5091 45.4928 40.6648 43.7302 43.2311 43.7302C46.4219 43.7302 49.0139 46.4255 49.0139 49.7453C49.0139 53.0652 46.4219 55.7605 43.2311 55.7605C40.6562 55.7605 38.5005 53.9979 37.7563 51.585H28.0213L28.2694 75.4058H37.7563C38.5091 72.993 40.6648 71.2304 43.2311 71.2304C46.4219 71.2304 49.0139 73.9256 49.0139 77.2455C49.0139 80.5653 46.4219 83.2606 43.2311 83.2606C40.6562 83.2606 38.5005 81.498 37.7563 79.0851H28.3207L28.8768 102.906H37.7563C38.5091 100.493 40.6648 98.7305 43.2311 98.7305C46.4219 98.7305 49.0139 101.426 49.0139 104.746C49.0139 108.065 46.4219 110.761 43.2311 110.761C40.6562 110.761 38.5005 108.998 37.7563 106.585H28.9623L29.2019 117.007L28.5175 130.406H37.7563C38.5091 127.993 40.6648 126.231 43.2311 126.231C46.4219 126.231 49.0139 128.926 49.0139 132.246C49.0139 135.566 46.4219 138.261 43.2311 138.261C40.6562 138.261 38.5005 136.498 37.7563 134.085H28.3293L27.2686 154.843L27.3712 157.906H37.7563C38.5091 155.493 40.6648 153.731 43.2311 153.731C46.4219 153.731 49.0139 156.426 49.0139 159.746C49.0139 163.066 46.4219 165.761 43.2311 165.761C40.6562 165.761 38.5005 163.998 37.7563 161.585H27.491L28.2951 185.406H37.7477C38.5005 182.993 40.6562 181.231 43.2226 181.231C46.4134 181.231 49.0054 183.926 49.0054 187.246C49.0054 190.566 46.4134 193.261 43.2226 193.261C40.6477 193.261 38.492 191.498 37.7477 189.086H28.4148L28.757 199.131L28.2352 212.906H37.7477C38.5005 210.494 40.6562 208.731 43.2226 208.731C46.4134 208.731 49.0054 211.426 49.0054 214.746C49.0054 218.066 46.4134 220.761 43.2226 220.761C40.6477 220.761 38.492 218.999 37.7477 216.586H28.0983L27.4653 233.288L28.2267 240.407H37.7477C38.5005 237.994 40.6562 236.231 43.2226 236.231C46.4134 236.231 49.0054 238.926 49.0054 242.246C49.0054 245.566 46.4134 248.261 43.2226 248.261C40.6477 248.261 38.492 246.499 37.7477 244.086H28.6202L30.2027 258.811L28.7314 267.907H37.7477C38.5005 265.494 40.6562 263.731 43.2226 263.731C46.4134 263.731 49.0054 266.426 49.0054 269.746C49.0054 273.066 46.4134 275.761 43.2226 275.761C40.6477 275.761 38.492 273.999 37.7477 271.586H28.1326L27.4653 275.693V295.407H37.7477C38.5005 292.994 40.6562 291.231 43.2226 291.231C46.4134 291.231 49.0054 293.927 49.0054 297.246C49.0054 300.566 46.4134 303.262 43.2226 303.262C40.6477 303.262 38.492 301.499 37.7477 299.086H27.4653V317.362C27.4653 317.362 130.392 315.993 147.544 315.993C164.695 315.993 224.038 318.74 227.998 318.74C231.959 318.74 286.69 315.309 295.92 314.624C305.151 313.94 317.683 314.624 331.533 314.624C345.382 314.624 357.914 316.533 371.097 316.533H399.455C407.368 316.533 425.178 317.371 425.178 317.371C425.178 317.371 426.204 310.971 424.434 310.047C422.654 309.123 420.285 307.574 419.985 306.342C419.686 305.11 420.285 301.405 421.765 300.789C423.245 300.173 425.477 298.941 425.477 297.392C425.477 295.843 431.551 293.995 431.551 292.763C431.551 291.531 428.437 287.364 427.693 286.594C426.949 285.824 424.134 287.518 423.544 285.67C422.954 283.822 423.843 280.117 423.544 277.952C423.245 275.796 425.914 272.707 424.733 272.091C423.544 271.475 419.985 269.618 419.985 268.694C419.985 267.77 425.914 264.065 425.623 262.833C425.323 261.601 423.253 256.048 422.654 254.499C422.064 252.959 422.21 246.627 421.465 245.857C420.721 245.087 420.576 236.599 420.576 236.599C420.576 236.599 421.465 230.43 421.465 229.189C421.465 227.949 422.355 218.083 422.355 218.083C422.355 218.083 421.465 210.99 421.465 210.057C421.465 209.125 422.945 204.504 422.945 202.964C422.945 201.424 423.98 192.936 422.945 191.858C421.91 190.78 420.276 185.073 421.166 184.14C422.056 183.216 425.024 181.051 425.024 178.895C425.024 176.739 425.024 173.342 422.654 171.494C420.285 169.646 417.907 165.633 417.316 164.084C416.726 162.544 418.206 160.071 418.206 159.147C418.206 158.223 421.765 153.902 422.355 152.362C422.945 150.822 423.835 143.104 423.544 141.256C423.245 139.407 425.469 132.768 424.134 131.382C422.8 129.995 422.056 126.445 421.465 124.596C420.875 122.748 422.945 120.275 424.725 118.427C426.504 116.579 426.949 109.323 426.204 108.553C425.46 107.783 424.725 103.308 424.725 101.46C424.725 99.6118 425.914 94.3667 424.134 92.51C422.355 90.6618 419.985 87.573 419.387 85.7248C418.796 83.8766 420.576 81.0958 421.166 78.9396C421.756 76.7834 422.945 72.4625 422.355 70.2977C421.765 68.1415 424.434 64.1286 424.434 64.1286C424.434 64.1286 423.843 58.2675 425.623 57.6514C427.402 57.0354 429.481 51.7903 429.772 50.5582C430.071 49.3261 429.472 47.1613 427.103 45.3132C424.733 43.465 422.509 43.0029 421.765 41.3002C421.02 39.6061 420.73 34.361 421.465 33.5824C422.21 32.8123 425.323 32.3503 425.323 29.5695C425.323 26.7886 424.134 20.0035 422.654 19.0794C421.174 18.1553 421.02 16.1445 423.245 13.8343C425.469 11.5241 426.803 8.8973 426.803 7.35716C426.803 5.81701 427.103 5.20096 423.835 3.0362C420.576 0.879998 399.814 2.42014 387.367 2.42014C374.921 2.42014 366.015 1.88965 361.567 1.88965C357.119 1.88965 348.821 3.96884 332.807 3.96884C316.793 3.96884 295.151 2.4287 279.436 3.35278C263.722 4.27687 191.668 1.19658 161.128 0.263939C130.589 -0.660148 92.3421 1.18803 70.4 0.571968L70.3914 0.640417Z" fill="white"/>
</mask>
<g mask="url(#mask0_2198_6799)">
<path d="M4.10303 307.095H453.801" stroke="#B8C7D4" stroke-width="0.25" stroke-miterlimit="10"/>
<path d="M4.10303 283.967H453.801" stroke="#B8C7D4" stroke-width="0.25" stroke-miterlimit="10"/>
<path d="M4.10303 260.848H453.801" stroke="#B8C7D4" stroke-width="0.25" stroke-miterlimit="10"/>
<path d="M4.10303 237.72H453.801" stroke="#B8C7D4" stroke-width="0.25" stroke-miterlimit="10"/>
<path d="M4.10303 214.601H453.801" stroke="#B8C7D4" stroke-width="0.25" stroke-miterlimit="10"/>
<path d="M4.10303 191.473H453.801" stroke="#B8C7D4" stroke-width="0.25" stroke-miterlimit="10"/>
<path d="M4.10303 168.354H453.801" stroke="#B8C7D4" stroke-width="0.25" stroke-miterlimit="10"/>
<path d="M4.10303 145.226H453.801" stroke="#B8C7D4" stroke-width="0.25" stroke-miterlimit="10"/>
<path d="M4.10303 122.098H453.801" stroke="#B8C7D4" stroke-width="0.25" stroke-miterlimit="10"/>
<path d="M4.10303 98.9788H453.801" stroke="#B8C7D4" stroke-width="0.25" stroke-miterlimit="10"/>
<path d="M4.10303 75.8508H453.801" stroke="#B8C7D4" stroke-width="0.25" stroke-miterlimit="10"/>
<path d="M4.10303 52.7317H453.801" stroke="#B8C7D4" stroke-width="0.25" stroke-miterlimit="10"/>
<path d="M4.10303 29.6038H453.801" stroke="#B8C7D4" stroke-width="0.25" stroke-miterlimit="10"/>
<path d="M4.10303 6.48462H453.801" stroke="#B8C7D4" stroke-width="0.25" stroke-miterlimit="10"/>
<path d="M402.346 381.689V-68.1099" stroke="#B8C7D4" stroke-width="0.25" stroke-miterlimit="10"/>
<path d="M379.224 381.689V-68.1099" stroke="#B8C7D4" stroke-width="0.25" stroke-miterlimit="10"/>
<path d="M356.109 381.689V-68.1099" stroke="#B8C7D4" stroke-width="0.25" stroke-miterlimit="10"/>
<path d="M332.987 381.689V-68.1099" stroke="#B8C7D4" stroke-width="0.25" stroke-miterlimit="10"/>
<path d="M309.873 381.689V-68.1099" stroke="#B8C7D4" stroke-width="0.25" stroke-miterlimit="10"/>
<path d="M286.75 381.689V-68.1099" stroke="#B8C7D4" stroke-width="0.25" stroke-miterlimit="10"/>
<path d="M263.636 381.689V-68.1099" stroke="#B8C7D4" stroke-width="0.25" stroke-miterlimit="10"/>
<path d="M240.514 381.689V-68.1099" stroke="#B8C7D4" stroke-width="0.25" stroke-miterlimit="10"/>
<path d="M217.391 381.689V-68.1099" stroke="#B8C7D4" stroke-width="0.25" stroke-miterlimit="10"/>
<path d="M194.277 381.689V-68.1099" stroke="#B8C7D4" stroke-width="0.25" stroke-miterlimit="10"/>
<path d="M171.154 381.689V-68.1099" stroke="#B8C7D4" stroke-width="0.25" stroke-miterlimit="10"/>
<path d="M148.04 381.689V-68.1099" stroke="#B8C7D4" stroke-width="0.25" stroke-miterlimit="10"/>
<path d="M124.917 381.689V-68.1099" stroke="#B8C7D4" stroke-width="0.25" stroke-miterlimit="10"/>
<path d="M101.803 381.689V-68.1099" stroke="#D4331E" stroke-width="0.25" stroke-miterlimit="10"/>
<path d="M78.6807 381.689V-68.1099" stroke="#B8C7D4" stroke-width="0.25" stroke-miterlimit="10"/>
<path d="M55.5581 381.689V-68.1099" stroke="#B8C7D4" stroke-width="0.25" stroke-miterlimit="10"/>
</g>
<path d="M413.792 4.3112C411.551 6.77543 411.696 8.91452 413.193 9.8985C414.69 10.8825 415.888 18.1212 415.888 21.0817C415.888 24.0422 414.476 24.8037 413.724 25.6251C412.979 26.4465 416.281 29.7065 417.034 31.5119C417.778 33.3173 414.434 36.7655 416.829 38.742C419.224 40.7185 419.079 43.7902 418.779 45.1079C418.48 46.4256 420.105 51.2942 418.309 51.953C416.512 52.6118 419.695 55.5039 419.695 55.5039C419.695 55.5039 418.386 65.1127 418.985 67.4143C419.583 69.716 412.286 71.4101 411.688 73.7118C411.089 76.0135 415.246 79.5216 415.845 81.4981C416.444 83.4746 412.885 86.2126 414.673 88.1892C416.47 90.1657 415.272 95.753 415.272 97.7295C415.272 99.706 416.016 104.472 416.769 105.293C417.513 106.115 417.068 113.841 415.272 115.818C413.476 117.794 415.349 120.618 415.948 122.594C416.547 124.571 413.33 128.147 414.673 129.628C416.016 131.108 414.468 136.926 414.767 138.903C415.067 140.879 417.103 149.025 416.504 150.668C415.905 152.31 411.354 158.146 411.354 159.13C411.354 160.114 409.857 162.749 410.456 164.392C411.055 166.035 414.399 170.108 416.795 172.084C419.19 174.061 419.19 177.68 419.19 179.982C419.19 182.283 415.452 186.356 414.553 187.34C413.655 188.324 415.298 194.416 416.35 195.563C417.393 196.718 413.467 204.29 413.467 205.933C413.467 207.576 414.014 211.786 414.014 212.77C414.014 213.754 415.939 219.658 416.358 223.32C416.786 226.982 413.373 233.331 413.373 234.648C413.373 235.966 411.072 241.784 411.072 241.784C411.072 241.784 412.517 250.041 413.27 250.863C414.014 251.684 412.569 259.214 413.168 260.856C413.766 262.499 415.862 268.42 416.162 269.738C416.461 271.056 418.292 274.752 418.292 275.736C418.292 276.72 414.074 278.945 415.263 279.603C416.461 280.262 413.766 283.548 414.066 285.85C414.365 288.151 413.467 292.096 414.066 294.072C414.665 296.049 417.505 294.235 418.258 295.056C418.891 295.749 421.192 298.984 421.91 300.78C423.39 300.139 425.443 298.949 425.443 297.469C425.443 295.989 431.517 294.072 431.517 292.84C431.517 291.608 428.403 287.441 427.659 286.671C426.915 285.901 424.1 287.595 423.51 285.747C422.92 283.899 423.809 280.194 423.51 278.029C423.211 275.873 425.879 272.784 424.699 272.168C423.51 271.552 419.951 269.695 419.951 268.771C419.951 267.847 425.879 264.142 425.589 262.91C425.289 261.678 423.219 256.125 422.62 254.576C422.03 253.036 422.175 246.704 421.431 245.934C420.687 245.164 420.542 236.676 420.542 236.676C420.542 236.676 421.431 230.507 421.431 229.266C421.431 228.026 422.321 218.16 422.321 218.16C422.321 218.16 421.431 211.067 421.431 210.134C421.431 209.202 422.911 204.581 422.911 203.041C422.911 201.501 423.946 193.013 422.911 191.935C421.876 190.857 420.242 185.15 421.132 184.217C422.021 183.293 424.99 181.128 424.99 178.972C424.99 176.816 424.99 173.419 422.62 171.571C420.251 169.723 417.873 165.71 417.282 164.161C416.692 162.621 418.172 160.148 418.172 159.224C418.172 158.3 421.731 153.979 422.321 152.439C422.911 150.899 423.801 143.181 423.51 141.333C423.211 139.485 425.435 132.845 424.1 131.459C422.766 130.073 422.021 126.522 421.431 124.673C420.841 122.825 422.911 120.353 424.69 118.504C426.47 116.656 426.915 109.4 426.17 108.63C425.426 107.86 424.69 103.385 424.69 101.537C424.69 99.6889 425.879 94.4439 424.1 92.5871C422.321 90.739 419.951 87.6501 419.352 85.8019C418.762 83.9538 420.542 81.1729 421.132 79.0167C421.722 76.8605 422.911 72.5396 422.321 70.3748C421.731 68.2186 424.4 64.2057 424.4 64.2057C424.4 64.2057 423.809 58.3446 425.589 57.7285C427.368 57.1125 429.447 51.8674 429.738 50.6353C430.037 49.4032 429.438 47.2384 427.069 45.3903C424.699 43.5421 422.475 43.0801 421.731 41.3773C420.986 39.6832 420.696 34.4381 421.431 33.6595C422.175 32.8894 425.289 32.4274 425.289 29.6466C425.289 26.8658 424.1 20.0806 422.62 19.1565C421.14 18.2324 420.986 16.2217 423.21 13.9114C425.435 11.6012 426.769 8.97442 426.769 7.43427C426.769 5.89413 427.069 5.27807 423.801 3.11332C422.706 2.38603 419.601 2.08655 415.529 1.99243C415.024 2.77106 414.451 3.54969 413.758 4.3112H413.792Z" fill="#FFFBF5"/>
<path d="M457 282.162C451.448 277.943 431.08 257.947 427.522 255.791C423.065 261.849 377.675 313.084 377.059 314.428C375.998 316.746 377.795 318.877 380.772 318.081C380.814 318.27 380.951 320.674 381.028 320.751C382.14 321.82 382.329 320.742 383.329 321.273C384.878 322.103 384.424 320.913 385.357 322.762C385.776 323.583 385.254 325.123 385.716 325.799C386.486 326.903 389.121 327.365 390.19 327.793C393.133 328.956 395.956 330.377 398.633 332.071C402.628 334.604 403.099 338.155 407.111 340.542C411.944 334.852 437.462 308.763 456.992 282.17L457 282.162Z" fill="#E2A4C6"/>
<mask id="mask1_2198_6799" style="mask-type:luminance" maskUnits="userSpaceOnUse" x="376" y="255" width="81" height="86">
<path d="M456.966 282.316C451.414 278.097 431.405 257.844 427.847 255.688C423.39 261.746 377.683 313.084 377.059 314.436C375.998 316.755 377.795 318.885 380.772 318.09C380.814 318.278 380.951 320.682 381.028 320.759C382.14 321.829 382.329 320.751 383.329 321.281C384.878 322.111 384.424 320.922 385.357 322.77C385.776 323.591 385.254 325.132 385.716 325.808C386.486 326.911 389.121 327.373 390.19 327.801C393.133 328.965 395.956 330.385 398.633 332.079C402.628 334.612 403.099 338.163 407.111 340.55C411.944 334.86 437.428 308.926 456.957 282.333L456.966 282.316Z" fill="white"/>
</mask>
<g mask="url(#mask1_2198_6799)">
<path d="M452.457 300.985C451.781 300.036 450.156 299.933 449.54 301.174C448.402 303.492 452.971 304.494 452.748 301.798C452.722 301.482 452.62 301.208 452.457 300.985Z" fill="#FEFFED"/>
<path d="M451.619 288.245C450.943 287.295 449.318 287.193 448.702 288.433C447.564 290.752 452.132 291.753 451.91 289.058C451.884 288.741 451.781 288.468 451.619 288.245Z" fill="#FEFFED"/>
<path d="M439.831 302.072C439.155 301.122 437.53 301.02 436.914 302.26C435.777 304.579 440.345 305.58 440.122 302.885C440.097 302.568 439.994 302.295 439.831 302.072Z" fill="#FEFFED"/>
<path d="M453.304 313.717C452.629 312.768 451.003 312.665 450.387 313.906C449.25 316.224 453.818 317.225 453.595 314.53C453.57 314.214 453.467 313.94 453.304 313.717Z" fill="#FEFFED"/>
<path d="M428.052 315.908C427.376 314.958 425.75 314.855 425.134 316.096C423.997 318.415 428.565 319.416 428.342 316.721C428.317 316.404 428.214 316.13 428.052 315.908Z" fill="#FEFFED"/>
<path d="M441.516 327.553C440.841 326.603 439.215 326.501 438.599 327.741C437.462 330.06 442.03 331.061 441.807 328.366C441.782 328.049 441.679 327.776 441.516 327.553Z" fill="#FEFFED"/>
<path d="M416.264 329.735C415.588 328.785 413.963 328.682 413.347 329.923C412.209 332.242 416.777 333.243 416.555 330.548C416.529 330.231 416.426 329.957 416.264 329.735Z" fill="#FEFFED"/>
<path d="M429.728 341.38C429.052 340.43 427.427 340.328 426.811 341.568C425.673 343.887 430.242 344.888 430.019 342.193C429.993 341.876 429.891 341.602 429.728 341.38Z" fill="#FEFFED"/>
<path d="M438.993 289.332C438.317 288.382 436.692 288.279 436.076 289.52C434.938 291.839 439.506 292.84 439.284 290.145C439.258 289.828 439.155 289.554 438.993 289.332Z" fill="#FEFFED"/>
<path d="M427.205 303.167C426.529 302.218 424.904 302.115 424.288 303.356C423.15 305.674 427.718 306.675 427.496 303.98C427.47 303.664 427.367 303.39 427.205 303.167Z" fill="#FEFFED"/>
<path d="M440.678 314.813C440.002 313.863 438.377 313.76 437.761 315.001C436.623 317.32 441.191 318.321 440.969 315.625C440.943 315.309 440.841 315.035 440.678 314.813Z" fill="#FEFFED"/>
<path d="M415.426 316.994C414.75 316.045 413.124 315.942 412.508 317.183C411.371 319.501 415.939 320.503 415.716 317.807C415.691 317.491 415.588 317.217 415.426 316.994Z" fill="#FEFFED"/>
<path d="M428.89 328.64C428.214 327.69 426.589 327.587 425.973 328.828C424.835 331.147 429.403 332.148 429.181 329.453C429.155 329.136 429.052 328.862 428.89 328.64Z" fill="#FEFFED"/>
<path d="M403.637 330.822C402.962 329.872 401.336 329.769 400.72 331.01C399.583 333.329 404.151 334.33 403.928 331.634C403.903 331.318 403.8 331.044 403.637 330.822Z" fill="#FEFFED"/>
<path d="M450.781 275.505C450.105 274.555 448.48 274.452 447.864 275.693C446.726 278.012 451.294 279.013 451.072 276.318C451.046 276.001 450.944 275.727 450.781 275.505Z" fill="#FEFFED"/>
<path d="M437.307 263.859C436.632 262.91 435.006 262.807 434.39 264.048C433.253 266.366 437.821 267.368 437.598 264.672C437.573 264.356 437.47 264.082 437.307 263.859Z" fill="#FEFFED"/>
<path d="M425.528 277.687C424.852 276.737 423.227 276.634 422.611 277.875C421.473 280.194 426.041 281.195 425.819 278.499C425.793 278.183 425.691 277.909 425.528 277.687Z" fill="#FEFFED"/>
<path d="M424.681 264.946C424.006 263.996 422.38 263.894 421.764 265.134C420.627 267.453 425.195 268.454 424.972 265.759C424.947 265.442 424.844 265.169 424.681 264.946Z" fill="#FEFFED"/>
<path d="M438.155 276.6C437.479 275.65 435.853 275.547 435.237 276.788C434.1 279.107 438.668 280.108 438.445 277.413C438.42 277.096 438.317 276.822 438.155 276.6Z" fill="#FEFFED"/>
<path d="M412.902 278.782C412.226 277.832 410.6 277.729 409.985 278.97C408.847 281.289 413.415 282.29 413.192 279.595C413.167 279.278 413.064 279.004 412.902 278.782Z" fill="#FEFFED"/>
<path d="M426.366 290.427C425.691 289.477 424.065 289.375 423.449 290.615C422.312 292.934 426.88 293.935 426.657 291.24C426.632 290.923 426.529 290.65 426.366 290.427Z" fill="#FEFFED"/>
<path d="M401.114 292.609C400.438 291.659 398.813 291.557 398.197 292.797C397.059 295.116 401.627 296.117 401.405 293.422C401.379 293.105 401.277 292.831 401.114 292.609Z" fill="#FEFFED"/>
<path d="M414.578 304.254C413.903 303.304 412.277 303.202 411.661 304.442C410.524 306.761 415.092 307.762 414.869 305.067C414.844 304.75 414.741 304.476 414.578 304.254Z" fill="#FEFFED"/>
<path d="M389.326 306.436C388.65 305.486 387.025 305.383 386.409 306.624C385.271 308.943 389.839 309.944 389.617 307.249C389.591 306.932 389.488 306.658 389.326 306.436Z" fill="#FEFFED"/>
<path d="M402.799 318.09C402.123 317.14 400.498 317.037 399.882 318.278C398.744 320.597 403.312 321.598 403.09 318.903C403.064 318.586 402.962 318.312 402.799 318.09Z" fill="#FEFFED"/>
<path d="M449.934 262.764C449.258 261.814 447.633 261.712 447.017 262.952C445.879 265.271 450.447 266.272 450.225 263.577C450.199 263.26 450.096 262.987 449.934 262.764Z" fill="#FEFFED"/>
<path d="M412.055 266.041C411.379 265.092 409.754 264.989 409.138 266.23C408 268.548 412.568 269.549 412.346 266.854C412.32 266.538 412.217 266.264 412.055 266.041Z" fill="#FEFFED"/>
<path d="M400.276 279.868C399.6 278.919 397.975 278.816 397.359 280.057C396.221 282.375 400.789 283.377 400.566 280.681C400.541 280.365 400.438 280.091 400.276 279.868Z" fill="#FEFFED"/>
<path d="M413.74 291.514C413.064 290.564 411.439 290.461 410.823 291.702C409.685 294.021 414.253 295.022 414.031 292.327C414.005 292.01 413.903 291.736 413.74 291.514Z" fill="#FEFFED"/>
<path d="M388.488 293.704C387.812 292.754 386.186 292.652 385.571 293.892C384.433 296.211 389.001 297.212 388.778 294.517C388.753 294.2 388.65 293.927 388.488 293.704Z" fill="#FEFFED"/>
<path d="M401.952 305.349C401.276 304.399 399.651 304.297 399.035 305.537C397.897 307.856 402.465 308.857 402.243 306.162C402.217 305.845 402.114 305.572 401.952 305.349Z" fill="#FEFFED"/>
<path d="M376.699 307.531C376.024 306.581 374.398 306.479 373.782 307.719C372.645 310.038 377.213 311.039 376.99 308.344C376.965 308.027 376.862 307.754 376.699 307.531Z" fill="#FEFFED"/>
<path d="M390.173 319.176C389.497 318.227 387.871 318.124 387.256 319.365C386.118 321.683 390.686 322.684 390.463 319.989C390.438 319.673 390.335 319.399 390.173 319.176Z" fill="#FEFFED"/>
<path d="M423.843 252.206C423.167 251.256 421.542 251.153 420.926 252.394C419.788 254.713 424.356 255.714 424.134 253.018C424.108 252.702 424.006 252.428 423.843 252.206Z" fill="#FEFFED"/>
<path d="M398.59 254.396C397.914 253.446 396.289 253.344 395.673 254.584C394.535 256.903 399.103 257.904 398.881 255.209C398.855 254.892 398.753 254.619 398.59 254.396Z" fill="#FEFFED"/>
<path d="M411.217 253.301C410.541 252.351 408.915 252.248 408.3 253.489C407.162 255.808 411.73 256.809 411.507 254.114C411.482 253.797 411.379 253.523 411.217 253.301Z" fill="#FEFFED"/>
<path d="M399.428 267.128C398.753 266.178 397.127 266.076 396.511 267.316C395.374 269.635 399.942 270.636 399.719 267.941C399.694 267.624 399.591 267.35 399.428 267.128Z" fill="#FEFFED"/>
<path d="M387.64 280.964C386.965 280.014 385.339 279.911 384.723 281.152C383.586 283.471 388.154 284.472 387.931 281.777C387.906 281.46 387.803 281.186 387.64 280.964Z" fill="#FEFFED"/>
<path d="M386.802 268.223C386.126 267.273 384.501 267.171 383.885 268.411C382.747 270.73 387.315 271.731 387.093 269.036C387.067 268.719 386.965 268.446 386.802 268.223Z" fill="#FEFFED"/>
<path d="M377.709 320.203C377.033 319.253 375.408 319.151 374.792 320.391C373.654 322.71 378.222 323.711 378 321.016C377.974 320.699 377.871 320.426 377.709 320.203Z" fill="#FEFFED"/>
<path d="M391.182 331.848C390.506 330.898 388.881 330.796 388.265 332.036C387.127 334.355 391.695 335.356 391.473 332.661C391.447 332.344 391.344 332.071 391.182 331.848Z" fill="#FEFFED"/>
<path d="M378.556 332.943C377.88 331.994 376.255 331.891 375.639 333.132C374.501 335.45 379.069 336.452 378.847 333.756C378.821 333.44 378.718 333.166 378.556 332.943Z" fill="#FEFFED"/>
</g>
<path d="M107.723 343.211C107.723 343.211 107.757 343.194 107.791 343.22C109.245 343.536 111.974 342.458 112.898 342.467C112.111 341.021 111.624 339.258 111.093 337.727C111.82 337.538 115.618 337.855 116.414 337.949C115.533 336.683 114.583 335.262 113.942 333.851C114.763 333.363 118.595 332.986 119.365 332.995C119.365 332.995 117.192 330.77 116.628 328.905C117.56 328.554 122.009 328.657 122.009 328.657C122.086 328.392 120.212 324.173 120.015 323.549C121.53 323.164 123.215 323.549 124.755 323.574C124.703 322.402 123.873 320.674 123.326 319.639C123.326 319.639 126.85 319.673 128.005 319.442C128.091 319.425 128.236 319.416 128.407 319.399C128.407 319.322 128.407 319.253 128.382 319.219C127.295 317.576 34.3428 262.884 19.4239 253.618C19.4068 253.643 19.3897 253.669 19.3726 253.703C19.6378 255.517 19.9885 257.425 20.0997 258.666C18.7395 259.051 17.3965 259.487 16.062 259.907C16.3186 260.779 17.5505 263.8 17.5505 263.8C17.3452 264.074 14.2314 264.681 13.2733 265.297C13.5641 266.871 14.0688 268.471 14.3768 269.969C13.1963 269.995 12.2296 269.259 11.1175 269.378C11.263 270.953 11.6992 272.561 11.9987 274.059C10.3562 273.674 9.11581 274.136 7.1654 273.871C7.30227 275.924 8.31169 278.209 8.56833 278.816C7.37926 278.765 6.16453 278.996 5.00113 278.756C5.16366 279.638 5.76247 281.118 5.64271 281.725C4.49642 281.948 2.77698 282.093 0.912109 282.196C24.394 297.7 99.5361 342.347 110.511 348.217C109.562 346.463 108.108 343.528 107.791 343.228C107.774 343.228 107.748 343.228 107.723 343.22V343.211Z" fill="#E2A4C6"/>
<mask id="mask2_2198_6799" style="mask-type:luminance" maskUnits="userSpaceOnUse" x="0" y="253" width="129" height="96">
<path d="M107.723 343.211C107.723 343.211 107.757 343.194 107.791 343.22C109.245 343.536 111.974 342.458 112.898 342.467C112.111 341.021 111.624 339.258 111.093 337.727C111.82 337.538 115.618 337.855 116.414 337.949C115.533 336.683 114.583 335.262 113.942 333.851C114.763 333.363 118.595 332.986 119.365 332.995C119.365 332.995 117.192 330.77 116.628 328.905C117.56 328.554 122.009 328.657 122.009 328.657C122.086 328.392 120.212 324.173 120.015 323.549C121.53 323.164 123.215 323.549 124.755 323.574C124.703 322.402 123.873 320.674 123.326 319.639C123.326 319.639 126.85 319.673 128.005 319.442C128.091 319.425 128.236 319.416 128.407 319.399C128.407 319.322 128.407 319.253 128.382 319.219C127.295 317.576 34.3428 262.884 19.4239 253.618C19.4068 253.643 19.3897 253.669 19.3726 253.703C19.6378 255.517 19.9885 257.425 20.0997 258.666C18.7395 259.051 17.3965 259.487 16.062 259.907C16.3186 260.779 17.5505 263.8 17.5505 263.8C17.3452 264.074 14.2314 264.681 13.2733 265.297C13.5641 266.871 14.0688 268.471 14.3768 269.969C13.1963 269.995 12.2296 269.259 11.1175 269.378C11.263 270.953 11.6992 272.561 11.9987 274.059C10.3562 273.674 9.11581 274.136 7.1654 273.871C7.30227 275.924 8.31169 278.209 8.56833 278.816C7.37926 278.765 6.16453 278.996 5.00113 278.756C5.16366 279.638 5.76247 281.118 5.64271 281.725C4.49642 281.948 2.77698 282.093 0.912109 282.196C24.394 297.7 99.5361 342.347 110.511 348.217C109.562 346.463 108.108 343.528 107.791 343.228C107.774 343.228 107.748 343.228 107.723 343.22V343.211Z" fill="white"/>
</mask>
<g mask="url(#mask2_2198_6799)">
<path d="M107.706 324.533C107.706 324.533 107.748 324.533 107.773 324.533C107.739 324.507 107.714 324.499 107.706 324.533Z" fill="#B797E4"/>
<path d="M28.7054 278.371C27.9099 277.695 19.92 270.268 22.4949 267.907C24.2144 266.332 27.5335 270.807 28.2007 271.988C28.004 269.892 29.0391 263.038 32.7175 266.41C34.9331 268.437 31.7337 274.82 28.7054 278.371Z" fill="#B797E4"/>
<path d="M35.1985 286.817C34.9077 284.643 36.148 276.763 39.1079 276.677C42.4869 276.575 41.178 281.169 39.7152 282.513C40.9813 280.493 45.9685 280.433 45.1644 283.745C44.3945 286.911 36.9864 287.955 35.1899 286.825L35.1985 286.817Z" fill="#B797E4"/>
<path d="M22.82 282.042C21.6224 285.764 19.6805 293.738 13.5812 293.55C12.281 291.334 13.932 287.843 15.5488 286.063C13.8806 288.177 8.33736 290.367 9.25269 285.695C10.2707 280.519 19.3897 281.126 22.8115 282.033L22.82 282.042Z" fill="#B797E4"/>
<path d="M47.8503 274.504C46.5928 271.577 42.7262 268.018 43.2908 264.467C44.0949 259.359 47.9358 263.8 48.7827 266.598C49.0394 263.885 51.2806 259.393 53.2653 263.979C54.634 267.137 50.9727 269.712 47.8503 274.504Z" fill="#B797E4"/>
<path d="M14.5481 262.405C13.915 259.958 16.3274 252.369 18.4916 250.691C21.8279 248.09 23.265 252.702 21.4258 255.338C21.8963 252.822 26.8664 253.062 27.2599 255.44C28.0983 260.54 17.371 260.292 14.5481 262.405Z" fill="#B797E4"/>
<path d="M4.00016 275.437C6.33552 277.079 12.0584 275.009 13.41 272.536C15.5829 268.557 11.8873 269.712 9.82573 271.501C8.3116 269.216 8.37148 266.461 6.07033 264.416C3.73497 267.051 3.34147 270.782 4.00016 275.428V275.437Z" fill="#B797E4"/>
<path d="M22.9997 301.61C23.0339 298.59 21.631 292.729 24.4796 290.41C27.5678 287.886 28.7483 292.643 27.8843 295.176C28.7911 293.73 32.9143 292.207 33.958 294.414C35.6688 298.034 27.2684 302.834 22.9997 301.61Z" fill="#B797E4"/>
<path d="M54.3003 289.76C53.8469 287.681 51.3576 280.947 53.7015 279.141C56.2251 277.19 57.9787 282.581 57.1062 284.557C56.7041 281.819 60.1601 277.002 62.6067 280.681C65.1559 284.515 57.9531 290.367 54.2918 289.76H54.3003Z" fill="#B797E4"/>
<path d="M42.906 293.499C40.8529 295.51 38.1069 301.516 40.2028 304.246C43.1455 308.096 45.4808 302.338 43.616 299.574C45.6519 301.208 49.7752 302.594 51.6058 299.779C49.7837 297.786 47.2345 296.614 42.9145 293.499H42.906Z" fill="#B797E4"/>
<path d="M49.5012 314.453C48.9281 312.554 49.9289 306.855 52.5124 306.308C55.361 305.709 55.2583 309.2 54.3516 311.005C55.515 309.79 60.0745 309.807 59.7152 312.357C59.296 315.377 50.2369 316.43 49.4927 314.462L49.5012 314.453Z" fill="#B797E4"/>
<path d="M63.137 306.813C61.2123 304.87 57.4997 300.293 59.0566 297.195C60.6648 293.995 63.7016 297.572 64.1037 300.164C63.7872 298.556 64.711 293.593 67.2089 295.818C69.7753 298.111 65.6264 305.341 63.1456 306.821L63.137 306.813Z" fill="#B797E4"/>
<path d="M77.2347 281.991C75.2415 282.453 67.2602 286.363 67.6879 289.144C68.0643 291.608 71.7684 288.964 72.5554 287.989C71.8796 290.145 72.7522 294.303 75.7035 293.277C79.2707 292.036 76.9182 285.311 77.2261 281.991H77.2347Z" fill="#B797E4"/>
<path d="M94.1044 319.493C93.3088 318.817 85.319 311.39 87.8939 309.029C89.6133 307.454 92.9324 311.929 93.5997 313.11C93.4029 311.014 94.438 304.16 98.1164 307.531C100.332 309.559 97.1326 315.942 94.1044 319.493Z" fill="#B797E4"/>
<path d="M100.589 327.947C100.298 325.774 101.538 317.893 104.498 317.808C107.877 317.705 106.568 322.3 105.105 323.643C106.371 321.624 111.359 321.564 110.555 324.875C109.785 328.041 102.377 329.085 100.58 327.955L100.589 327.947Z" fill="#B797E4"/>
<path d="M88.2189 323.164C87.0213 326.886 85.0795 334.86 78.9802 334.672C77.6799 332.456 79.3309 328.965 80.9477 327.185C79.2796 329.299 73.7363 331.489 74.6516 326.817C75.6696 321.641 84.7886 322.248 88.2104 323.155L88.2189 323.164Z" fill="#B797E4"/>
<path d="M113.24 315.626C111.983 312.699 108.116 309.14 108.681 305.589C109.485 300.481 113.326 304.922 114.173 307.719C114.43 305.007 116.671 300.515 118.655 305.101C120.024 308.259 116.363 310.834 113.24 315.626Z" fill="#B797E4"/>
<path d="M79.9465 303.527C79.3135 301.08 81.7258 293.49 83.8901 291.813C87.2263 289.212 88.6635 293.824 86.8243 296.459C87.2947 293.944 92.2649 294.183 92.6584 296.562C93.4967 301.662 82.7694 301.414 79.9465 303.527Z" fill="#B797E4"/>
<path d="M69.3905 316.567C71.7259 318.21 77.4488 316.139 78.8004 313.666C80.9732 309.688 75.6951 310.09 73.6421 311.887C74.7371 309.611 73.7704 307.6 71.4693 305.555C69.1339 308.19 68.7404 311.921 69.3991 316.567H69.3905Z" fill="#B797E4"/>
<path d="M88.3982 342.732C88.4324 339.712 87.0295 333.851 89.8781 331.532C92.9662 329.008 94.1467 333.765 93.2827 336.298C94.1895 334.852 98.3128 333.329 99.3564 335.536C101.067 339.156 92.6668 343.956 88.3982 342.732Z" fill="#B797E4"/>
<path d="M119.699 330.882C119.246 328.802 116.757 322.069 119.1 320.263C121.624 318.312 123.378 323.703 122.505 325.679C122.103 322.941 125.559 318.124 128.006 321.803C130.555 325.637 123.352 331.489 119.691 330.882H119.699Z" fill="#B797E4"/>
<path d="M108.296 334.621C106.243 336.632 103.497 342.638 105.593 345.368C108.536 349.218 110.871 343.46 109.006 340.696C111.042 342.33 115.165 343.716 116.996 340.901C115.174 338.908 112.625 337.735 108.305 334.621H108.296Z" fill="#B797E4"/>
<path d="M114.891 355.575C114.318 353.676 115.319 347.977 117.902 347.43C120.751 346.831 120.648 350.322 119.742 352.127C120.905 350.912 125.465 350.929 125.105 353.479C124.686 356.499 115.627 357.552 114.883 355.584L114.891 355.575Z" fill="#B797E4"/>
<path d="M128.527 347.934C126.602 345.992 122.89 341.414 124.447 338.317C126.055 335.117 129.092 338.694 129.494 341.286C129.177 339.678 130.101 334.715 132.599 336.939C135.165 339.233 131.017 346.463 128.536 347.943L128.527 347.934Z" fill="#B797E4"/>
<path d="M68.441 327.502C68.8088 323.472 65.062 318.167 61.1611 316.935C57.8848 319.45 61.1868 322.052 63.7104 323.138C61.6487 323.908 56.8839 326.509 56.9182 329.239C56.9951 334.27 64.985 330.856 68.441 327.502Z" fill="#B797E4"/>
<path d="M3.2647 286.021C3.63254 281.991 -0.1143 276.686 -4.01512 275.454C-7.29147 277.969 -3.98946 280.57 -1.4659 281.657C-3.52752 282.427 -8.29234 285.028 -8.25812 287.758C-8.18113 292.789 -0.19129 289.375 3.2647 286.021Z" fill="#B797E4"/>
</g>
<path d="M77.0638 239.945C86.2769 244.291 92.1709 237.207 92.1195 231.474C92.0682 225.741 86.6191 222.952 86.6191 222.952C86.6191 222.952 78.3555 217.707 72.6411 226.46C72.6411 226.46 66.576 234.999 77.0723 239.945H77.0638Z" fill="#8763E0"/>
<path d="M74.0952 211.631C74.0952 211.631 77.1834 211.084 77.5769 215.037C77.9704 218.99 76.2766 220.017 76.2766 220.017C76.2766 220.017 73.1542 221.625 71.9823 216.363C71.9823 216.363 70.9215 213.326 74.0952 211.631Z" fill="#8763E0"/>
<path d="M102.744 228.804C102.744 228.804 101.769 225.818 98.0992 227.341C94.4293 228.864 94.3267 230.841 94.3267 230.841C94.3267 230.841 94.378 234.357 99.5705 232.903C99.5705 232.903 102.744 232.406 102.744 228.804Z" fill="#8763E0"/>
<path d="M85.7295 205.043C85.7295 205.043 89.6132 204.881 89.8356 209.561C90.058 214.241 87.8767 219.136 84.4891 218.477C84.4891 218.477 79.4078 218.46 81.093 210.057C81.093 210.057 82.0425 204.675 85.7209 205.043H85.7295Z" fill="#8763E0"/>
<path d="M102.154 214.891C102.154 214.891 100.469 211.392 96.2344 213.394C91.9999 215.405 88.715 219.64 90.8879 222.31C90.8879 222.31 93.2917 226.785 99.9128 221.334C99.9128 221.334 104.207 217.955 102.154 214.883V214.891Z" fill="#8763E0"/>
</svg>
