<svg width="469" height="287" viewBox="0 0 469 287" fill="none" xmlns="http://www.w3.org/2000/svg">
<path d="M467.635 119.724C467.358 117.393 467.746 116.227 468.301 115.228C467.469 114.062 466.692 112.897 465.803 112.397C465.526 112.397 465.526 111.065 465.803 111.065C466.47 110.899 467.136 110.732 467.802 110.399C467.413 107.735 467.025 105.071 466.636 102.24C466.636 102.24 466.636 102.24 466.636 102.406C466.581 102.406 466.525 102.073 466.47 101.907C466.47 101.74 466.414 101.407 466.359 101.241C466.247 99.9086 466.137 98.5765 465.97 97.2444C465.748 95.5792 465.526 93.9141 465.304 92.2489C464.749 88.4191 464.083 84.7558 463.472 81.259C462.806 77.0961 462.029 73.0998 461.252 69.1034C460.142 64.108 459.032 59.2791 457.977 54.2837C456.867 49.9543 455.535 46.1245 454.314 41.9616C454.148 41.2956 453.926 40.6295 453.759 40.13C453.537 39.4639 453.371 38.9644 453.148 38.2983C451.705 33.9689 450.207 29.9726 448.597 26.3093C446.765 22.1464 444.878 19.4822 442.825 16.4849C442.103 15.4858 441.326 14.6533 440.604 13.9872C439.605 13.1546 438.551 12.4886 437.496 11.989C437.052 11.989 436.553 11.989 436.164 11.989C435.942 11.989 435.776 12.1555 435.554 12.3221H435.332C435.332 12.3221 435.332 5.32846 434.943 3.66332C434.61 1.99817 433.999 2.16469 433.5 0.832572C433.111 0.333029 432.723 0 432.334 0C430.447 0 428.671 1.49863 426.784 1.99817C425.896 2.49771 425.008 2.99726 424.175 3.33029C421.344 4.6624 376.386 5.32846 373.555 6.66057C370.891 7.82617 367.283 10.3239 364.563 8.49223C362.232 6.9936 359.679 5.99452 357.292 5.66149C356.349 5.66149 355.572 5.32846 354.795 5.32846C354.517 5.32846 354.24 5.49497 353.907 5.828C352.797 6.49406 351.52 7.32663 351.02 10.8234C350.909 11.8225 350.798 12.8216 350.632 13.6542C350.576 16.4849 349.91 22.979 349.855 22.3129C349.577 19.3157 348.8 14.3202 347.801 11.4895C346.969 12.8216 346.08 14.3202 345.192 14.3202C343.305 14.3202 341.363 13.6542 339.475 13.6542C337.644 13.6542 244.785 12.1555 242.953 11.8225C242.454 11.8225 241.843 11.8225 241.399 11.1565C241.177 11.8225 241.011 12.3221 240.733 12.8216C239.956 14.4867 239.179 15.9854 238.457 17.6505C238.346 17.817 238.18 17.6505 238.124 17.484C238.069 17.151 238.013 16.8179 237.958 16.4849C236.903 13.4877 235.738 10.1574 234.35 9.15829C233.018 8.1592 231.63 9.3248 230.354 10.6569C229.133 11.989 227.912 13.3211 226.635 14.3202C224.637 16.3184 222.639 18.1501 220.529 18.9826C217.532 19.9817 214.535 19.6487 211.593 17.151C210.65 16.3184 209.484 15.6523 208.374 14.6533C207.874 13.6542 207.43 12.1555 206.875 11.323C206.764 11.323 206.653 11.323 206.598 11.8225C206.265 13.4877 205.654 14.6533 205.155 15.9854C204.711 17.151 204.433 18.4831 204.045 19.8152C203.656 21.3138 203.268 22.6459 203.101 24.3111C203.101 24.3111 203.101 24.3111 203.101 24.1446C203.101 21.9799 202.99 19.3157 202.768 16.9845C202.324 13.8207 201.88 10.6569 201.436 7.49314C201.269 6.66057 201.158 5.99452 201.047 5.16194C198.716 4.16286 41.4167 5.32846 39.1411 5.16194C36.5324 4.82892 34.2567 4.82892 31.981 5.16194C31.3704 5.32846 30.7044 5.66149 30.0938 5.99452C29.0948 6.49406 28.0957 7.16012 27.0966 7.32663C26.153 7.49314 25.2095 6.9936 24.2659 6.49406C21.7127 5.16194 19.326 7.32663 17.0503 10.4904C15.0521 13.3211 13.1095 16.1519 11.1113 18.9826C9.00217 21.9799 7.00401 25.3102 5.11686 29.14C3.67374 32.1373 2.95219 34.968 3.00769 40.463C3.00769 44.1263 3.1742 47.9561 3.00769 51.786C2.95219 53.1181 2.84118 55.1162 2.50815 56.1153C2.50815 56.1153 2.50815 56.2818 2.56366 56.4484C2.67467 56.9479 2.95219 56.9479 3.1742 56.9479C6.22695 56.4484 9.3907 57.4474 12.4434 57.947C9.89024 57.614 7.44804 59.2791 5.00585 60.2782C2.89668 61.1108 -0.988626 59.9452 0.232471 66.1062C2.56366 77.9287 0.898524 91.5829 1.50907 103.905C1.67559 107.568 1.12054 115.061 1.95311 118.392C2.06412 118.891 2.50815 119.391 2.73017 119.391C4.3398 119.391 5.83842 119.058 7.33704 119.89C5.00585 121.222 2.17513 121.555 0.787515 125.219C1.45357 130.048 2.06412 134.877 2.06412 140.372C2.06412 146.866 1.67559 153.193 1.95311 159.687C2.23063 159.687 2.56366 159.687 2.89668 159.687C3.61824 160.02 4.3398 160.353 5.11686 160.686C6.50447 161.186 9.50171 161.685 9.33519 162.018C8.78015 163.184 8.1141 163.184 7.50355 163.351C6.44897 163.684 5.39438 164.683 4.3398 165.682C3.56274 166.514 2.78567 167.347 2.00861 168.346C2.84118 174.007 2.50815 181.501 2.23063 187.162C1.8976 194.322 1.62008 201.482 1.8976 208.476C3.78475 215.303 5.50539 222.297 7.50355 228.624C9.83473 236.284 12.2214 243.777 14.6636 250.937C16.9948 257.931 19.3815 264.758 21.9902 270.752C22.8228 272.584 23.5998 274.249 24.4879 276.081C25.9865 278.245 27.4296 279.245 28.9283 279.744C30.5379 280.91 32.2585 281.409 33.8126 281.409C36.2548 281.409 38.697 279.911 41.1392 279.411C41.3057 279.411 41.4722 279.411 41.5833 279.411C43.8034 279.411 201.325 280.244 203.712 277.579C204.045 277.579 204.378 277.579 204.711 277.746C204.877 277.746 205.044 277.746 205.099 277.246C205.543 275.581 205.876 273.417 206.209 271.418C206.209 271.085 206.32 270.752 206.376 270.419C206.542 269.587 206.653 268.754 206.82 268.088C206.931 268.088 207.042 268.255 207.042 268.588C207.375 272.75 208.041 276.081 208.818 279.411C209.484 276.58 210.761 277.579 211.871 277.746C213.98 277.912 216.089 278.412 218.143 277.746C220.196 277.246 222.25 275.581 224.304 275.748C225.192 275.748 226.08 275.914 226.968 276.081C228.078 276.081 229.133 276.247 230.243 276.58C234.572 276.913 238.901 276.58 243.175 276.58H243.397C244.452 276.913 336.645 277.413 337.699 277.579C340.752 278.079 343.805 278.578 346.858 279.245C349.189 279.744 351.187 280.244 353.019 276.081C353.629 275.415 354.184 274.249 354.684 273.083C355.017 272.417 355.516 271.585 355.905 271.252C355.905 271.751 355.96 272.417 356.071 272.917C356.182 273.916 356.682 272.917 356.737 272.251C356.959 270.253 357.237 268.588 357.792 267.089C357.847 267.089 357.958 267.089 358.014 267.422C358.014 267.589 358.014 267.922 358.014 268.088C358.236 272.584 358.402 277.08 358.68 281.576C359.235 282.408 360.068 282.575 361.4 281.909C361.677 281.909 361.899 281.909 361.955 281.909C364.119 281.909 366.562 283.74 368.56 285.239C371.335 287.237 416.349 286.571 419.235 285.905C423.343 285.073 427.45 285.572 431.557 285.905C432.112 282.408 432.778 279.245 433.333 275.914C433.389 275.415 433.666 275.415 433.722 275.914C434.055 277.912 434.055 280.077 434.11 282.408C434.11 283.74 434.221 285.239 434.277 286.738C435.054 287.404 436.109 286.571 436.886 286.738C438.995 287.404 441.271 285.905 443.38 285.905C445.877 285.905 448.042 282.408 450.484 282.242C451.317 282.242 452.094 282.575 452.926 283.074C452.926 283.074 453.037 283.074 453.093 283.241C453.204 283.241 453.315 283.574 453.426 283.574C453.759 284.073 454.092 284.739 454.314 285.572C454.37 285.905 454.536 285.572 454.647 285.572C455.702 282.741 457.2 281.243 458.366 278.911C458.477 278.745 458.588 278.412 458.699 278.245C458.865 277.912 458.976 277.746 459.143 277.413C460.198 275.248 461.141 272.917 461.918 270.586C463.361 266.589 464.582 262.094 465.748 257.265C466.359 254.6 467.025 251.77 467.358 248.606C467.524 247.107 467.857 245.442 467.802 243.777C467.802 243.111 467.802 242.611 467.802 242.112C467.58 241.446 467.247 241.113 466.914 240.78C467.413 240.28 467.857 239.614 468.135 238.615C467.802 232.62 467.58 226.626 467.469 220.631C467.358 216.136 467.302 211.64 467.358 207.144C467.358 204.313 467.524 201.316 467.413 198.485C466.747 198.152 466.137 197.819 465.47 197.652C464.527 197.319 463.583 196.32 462.64 196.653C462.362 196.653 462.362 195.488 462.64 195.321C463.75 194.322 464.915 193.823 466.026 192.824C466.581 192.324 467.136 191.491 467.635 190.825C467.469 185.164 467.857 179.003 468.079 173.508C468.246 169.845 468.301 165.848 468.468 162.018C468.468 150.029 468.412 138.04 468.523 125.885C468.301 123.887 467.968 122.055 467.691 119.89L467.635 119.724Z" fill="white"/>
<path d="M445.045 26.1429C444.878 24.1447 444.934 22.4796 444.656 20.8145C444.656 20.8145 444.712 20.8145 444.767 20.8145C445.156 21.647 445.544 22.4796 445.933 23.3122C446.654 26.809 446.821 30.9718 446.821 34.9682C446.821 40.2966 445.489 42.9609 444.157 45.7916C445.6 43.4604 447.043 41.4622 447.432 36.3003C447.654 33.8026 447.654 29.1402 447.265 25.9764C447.876 27.475 448.486 28.9737 449.097 30.4723C449.263 31.8044 449.43 33.1365 449.541 34.6351C449.818 38.465 449.263 41.2957 448.597 44.293C448.486 44.7925 448.708 44.959 448.819 44.626C449.43 42.1283 450.04 39.6306 449.985 36.4668C449.985 35.1347 449.929 33.6361 449.763 32.3039C449.985 32.97 450.262 33.6361 450.484 34.3021C450.651 37.2994 450.706 40.6297 450.651 43.6269C450.651 47.6233 448.653 50.9535 447.654 52.9517V53.1182C448.819 51.2866 450.429 48.9554 450.984 45.1255C451.317 42.7943 451.428 39.4641 451.206 36.3003C451.983 38.465 452.76 40.9627 453.482 43.2939C453.482 44.626 453.537 45.9581 453.593 47.2902C453.593 50.787 452.982 53.6178 452.26 56.282C452.26 56.282 452.26 56.615 452.26 56.4485C452.927 54.6169 453.482 52.7852 453.87 50.2875C454.037 49.2884 454.148 47.4567 454.148 45.6251C454.314 46.2911 454.536 46.7907 454.703 47.4567C454.647 49.7879 454.592 52.1191 454.481 54.4503C454.37 57.1146 453.815 59.1127 453.149 60.7779C452.982 61.2774 452.593 62.6095 452.316 62.7761C452.26 62.7761 452.149 63.2756 452.316 63.2756C452.649 63.2756 452.76 62.7761 453.038 62.11C453.593 60.9444 454.148 60.1118 454.536 58.4467C455.091 55.949 455.424 52.4522 455.369 49.2884C455.924 51.2866 456.423 53.1182 456.978 55.1164C457.145 55.6159 457.256 56.282 457.422 56.7815C457.2 58.4467 457.256 60.6114 457.089 62.443C456.812 65.2738 456.201 69.6031 455.202 70.9353C456.09 70.2692 456.923 67.1054 457.311 64.9408C457.589 63.4421 457.866 61.1109 457.977 59.1127C458.421 60.9444 458.865 62.9426 459.254 64.7742C459.087 66.6059 459.032 68.271 458.588 69.9362C458.31 71.1018 457.811 72.1009 457.422 72.9334C456.923 73.9325 456.59 75.2646 455.924 75.5977C456.479 75.5977 456.867 74.9316 457.311 74.099C457.811 73.2665 458.31 72.6004 458.754 71.2683C459.143 70.1027 459.532 68.4375 459.754 66.7724C460.253 69.1036 460.697 71.6013 461.141 73.9325C461.141 74.7651 460.919 75.7642 460.808 76.4302C460.642 77.5958 460.309 79.261 459.865 79.7605C459.865 79.7605 459.754 80.2601 459.865 80.0936C460.309 80.0936 460.808 78.5949 461.03 77.5958C461.141 77.0963 461.308 76.4302 461.474 75.5977C461.918 78.0954 462.418 80.5931 462.862 83.0908C462.695 83.7569 462.64 84.5894 462.473 85.422C462.362 85.9215 462.029 86.2546 461.863 86.5876C461.585 87.0872 461.363 87.9197 461.03 88.0862C460.919 88.0862 460.864 88.7523 461.03 88.7523C461.252 88.7523 461.474 88.7523 461.696 88.2528C461.974 87.9197 462.251 87.5867 462.529 87.2537C462.862 86.7541 463.028 85.9216 463.195 84.9225C463.361 86.2546 463.583 87.4202 463.694 88.7523C463.694 88.9188 463.583 89.0853 463.528 89.4184C463.417 89.7514 463.25 90.7505 463.084 90.7505C462.973 90.7505 462.862 91.25 462.973 91.4165C463.195 91.7495 463.361 91.4165 463.528 90.917C463.639 90.917 463.75 90.4174 463.805 90.0844C463.916 90.917 463.972 91.9161 464.027 92.7486C464.305 94.5803 464.582 96.4119 464.915 98.2436C464.36 97.411 463.805 96.5785 463.25 95.9124C462.64 94.5803 462.085 93.2482 461.53 91.9161C458.754 85.2555 455.868 78.7614 452.982 72.4339C450.373 66.7724 447.709 61.777 445.1 56.4485C444.989 56.282 444.767 55.7825 444.545 55.4494C444.878 54.7834 445.211 53.9508 445.489 53.1182C445.933 51.7861 446.488 50.454 446.821 48.6223C446.488 49.9545 445.933 50.9535 445.489 51.9526C445.045 52.9517 444.601 53.9508 444.101 54.6169C443.602 53.7843 443.047 52.6187 442.436 51.4531C442.436 51.4531 442.436 51.4531 442.492 51.2866C442.658 50.787 442.88 50.121 443.102 49.9545C443.102 49.9545 443.158 49.6214 443.102 49.6214C442.88 49.6214 442.714 50.121 442.547 50.2875C442.436 50.2875 442.27 50.6205 442.159 50.787C441.992 50.454 441.881 50.2875 441.715 49.9545C441.16 48.7889 440.605 47.7898 440.049 46.6242C439.938 46.4577 439.938 46.1246 439.938 45.7916C440.438 45.7916 441.104 44.959 441.382 44.626C442.492 43.7934 443.491 42.2948 444.379 40.1301C445.267 37.9654 445.655 34.6351 445.711 31.4714C445.711 29.4732 445.433 27.475 445.267 25.6434L445.045 26.1429Z" fill="#F5D3A0"/>
<path d="M356.349 8.9921C356.627 9.99118 356.904 11.1568 357.071 11.9894C357.515 13.821 357.626 17.3178 357.626 19.4825C357.626 19.8155 357.737 19.4825 357.737 19.4825C357.903 16.8183 358.014 13.9875 357.681 11.3233C357.57 10.4907 357.293 9.82467 357.015 9.15861C357.515 9.49164 358.07 9.65815 358.57 9.99118C358.736 10.9903 358.903 11.9894 358.958 13.3215C359.125 15.6527 358.958 19.1495 358.57 21.1476C358.57 21.3142 358.57 21.3142 358.625 21.1476C359.236 18.6499 359.624 13.821 359.236 10.3242C360.346 10.9903 361.456 11.4898 362.51 11.8228C363.565 12.1559 364.619 12.1559 365.674 11.9894C365.674 12.3224 365.73 12.4889 365.785 12.8219C365.785 13.3215 365.785 13.6545 365.785 14.154C365.785 14.4871 365.785 14.8201 365.841 15.1531C365.841 15.3196 365.952 15.1531 365.952 15.1531C366.063 14.154 366.118 13.3215 366.063 12.3224C366.673 12.3224 367.339 11.9894 367.95 11.8228C368.061 12.3224 368.116 12.6554 368.227 13.155C368.338 14.154 368.394 15.3196 368.449 16.3187C368.449 16.4852 368.56 16.3187 368.56 16.3187C368.56 14.8201 368.671 13.155 368.449 11.6563C368.505 11.6563 368.56 11.6563 368.671 11.6563C368.782 12.3224 368.949 12.9884 369.004 13.821C369.06 14.8201 369.171 16.1522 369.115 17.1513C369.115 17.3178 369.171 17.1513 369.171 17.1513C369.337 16.1522 369.282 14.6536 369.282 13.488C369.282 12.8219 369.282 11.9894 369.171 11.4898C370.558 10.8238 371.946 10.1577 373.389 9.49164C375.332 8.65907 419.291 7.8265 421.234 7.16044C421.678 9.82467 422.233 11.9894 422.344 14.9866C422.344 15.3196 422.511 14.9866 422.566 14.8201C422.566 12.9884 422.511 11.4898 422.289 9.82467C422.178 8.9921 422.067 7.8265 421.9 6.99392C423.066 6.49438 424.287 6.16135 425.452 5.66181C425.896 5.32878 426.34 4.99575 426.729 4.66272C426.951 5.49529 427.284 6.16135 427.506 6.99392C428.006 8.65907 428.172 10.8238 428.561 12.6554C428.616 12.9884 428.838 12.6554 428.783 12.3224C428.561 10.1577 428.616 8.15952 428.117 6.32787C427.95 5.66181 427.784 4.82924 427.506 4.32969C427.839 3.99667 428.172 3.83015 428.505 3.66364C428.783 3.66364 429.06 3.49712 429.393 3.16409C429.671 3.99667 429.948 4.66272 430.17 5.49529C430.559 7.16044 430.836 9.49164 430.947 11.3233C431.003 9.15861 430.892 7.16044 430.559 5.16227C430.392 4.16318 430.115 3.33061 429.837 2.66455C429.837 2.66455 429.948 2.66455 430.004 2.66455C430.004 2.66455 430.115 2.99758 430.115 3.16409C430.226 3.49712 430.337 3.99667 430.448 4.49621C430.67 5.32878 430.836 6.16135 431.003 7.16044C431.003 7.49347 431.225 7.16044 431.169 6.82741C431.058 5.82832 430.892 4.82924 430.67 3.99667C430.614 3.66364 430.503 3.16409 430.448 2.66455C431.169 2.66455 431.946 2.66455 432.723 3.66364C432.723 3.66364 432.779 3.66364 432.834 3.66364C433.445 6.49438 433.556 10.6572 433.445 13.821H433.5C433.722 11.8228 433.945 7.65998 433.667 4.66272C433.889 4.82924 434.056 5.16227 434.278 5.49529C434.555 9.15861 434.611 13.3215 434.389 17.4843C432.446 13.9875 427.839 16.6518 425.896 17.3178C425.73 16.4852 425.397 15.8192 425.23 15.3196C424.897 14.3206 424.731 12.6554 424.342 11.9894C424.12 11.4898 423.898 12.3224 423.843 12.8219C423.843 13.488 423.843 13.9875 423.843 14.4871C423.843 15.1531 423.843 15.8192 423.843 16.6518C423.843 16.9848 423.843 17.4843 423.843 17.8174C422.289 18.1504 420.679 18.6499 419.125 19.316C418.348 19.8155 375.443 20.1486 374.61 20.4816C374.111 20.8146 373.556 21.1476 373.056 21.4807C371.558 22.4798 370.059 23.9784 368.616 25.3105C368.116 25.81 367.561 26.3096 367.062 26.6426C366.618 26.4761 366.118 26.3096 365.785 26.3096C364.897 26.3096 365.008 19.982 365.064 18.4834C365.064 17.3178 364.62 17.9839 364.564 18.4834C364.231 20.8146 363.953 23.3123 363.676 25.6435C363.676 26.1431 363.509 26.6426 363.398 26.8091C362.954 26.8091 362.455 26.6426 362.011 26.4761C361.955 26.4761 361.9 26.4761 361.789 26.4761C360.235 25.6435 357.959 23.8119 356.349 25.144C356.349 24.1449 356.627 22.4798 356.627 21.9802C356.627 20.9811 356.738 19.982 356.738 19.1495C356.738 17.4843 356.627 15.9857 356.516 14.3206C356.349 12.4889 356.016 10.8238 355.572 9.49164C355.794 9.49164 356.016 9.65815 356.238 9.82467L356.349 8.9921Z" fill="#F5D3A0"/>
<path d="M211.094 20.648C211.094 20.4815 211.094 20.315 211.094 20.1485C211.094 19.8154 211.038 19.4824 210.983 19.1494C210.983 18.8163 210.927 18.6498 210.872 18.3168C211.371 18.8163 211.815 19.1494 212.315 19.6489C212.87 22.6462 213.592 26.6425 212.87 29.8063C213.647 26.9755 213.314 23.1457 212.87 19.9819C213.536 20.4815 214.202 20.981 214.868 21.3141C214.979 22.8127 215.534 23.9783 215.645 25.6434C215.756 27.3086 215.923 30.3058 215.701 31.8045C216.089 30.4723 216.034 28.1411 215.978 26.476C215.978 24.6443 215.812 22.8127 215.423 21.4806C215.59 21.4806 215.701 21.4806 215.867 21.4806C215.978 21.9801 216.089 22.3131 216.2 23.1457C216.367 24.6443 216.478 25.9765 216.533 27.4751C216.533 27.6416 216.644 27.4751 216.644 27.4751C216.644 25.8099 216.644 24.3113 216.478 22.8127C216.478 22.4797 216.478 22.1466 216.422 21.8136C217.588 22.1466 218.753 22.1466 220.03 21.8136C221.473 21.3141 222.861 20.4815 224.248 19.3159C224.248 19.4824 224.359 19.8154 224.359 19.9819C224.47 20.8145 224.581 21.8136 224.692 22.6462C224.803 23.9783 224.692 25.4769 224.859 26.809H224.97C224.859 24.9774 225.136 23.3122 224.97 21.3141C224.914 20.648 224.859 19.8154 224.748 19.1494C225.081 18.8163 225.414 18.4833 225.802 18.1503C225.913 18.6498 226.025 19.3159 226.191 19.6489C226.469 20.648 226.635 21.8136 226.635 23.1457H226.746C226.746 21.9801 226.746 20.981 226.58 19.8154C226.524 19.1494 226.413 18.4833 226.247 17.8173C226.746 17.3177 227.19 16.8182 227.634 16.3186C229.077 14.6535 230.576 12.9883 232.074 12.1558C232.241 12.1558 232.408 12.1558 232.574 11.9893C232.574 12.3223 232.574 12.6553 232.685 12.8218C233.351 13.4879 233.518 16.6517 233.684 18.4833C233.795 20.1485 233.684 21.8136 233.906 23.4787C233.906 23.4787 233.906 23.4787 233.962 23.4787C233.962 23.4787 234.017 23.4787 234.073 23.3122C234.017 23.3122 234.073 20.8145 234.073 20.315C234.073 18.9829 234.073 17.6507 234.073 16.4851C234.073 15.153 233.795 13.3214 233.462 12.3223C234.017 12.4888 234.517 13.1549 235.072 13.9874C235.238 14.9865 235.349 15.9856 235.516 16.8182C235.793 18.4833 235.627 20.4815 235.904 22.1466C235.96 22.4797 236.182 22.1466 236.126 21.6471C236.015 20.648 236.126 19.4824 236.126 18.4833C236.126 18.1503 236.126 17.8173 236.126 17.3177C236.126 17.3177 236.237 17.4842 236.293 17.6507C236.57 18.9829 236.848 20.4815 237.125 21.9801C237.347 23.9783 237.458 26.143 237.569 28.1411C236.681 25.8099 235.238 25.4769 234.184 25.8099C231.797 26.6425 229.355 27.6416 227.024 29.8063C226.136 30.6389 224.914 31.3049 224.082 32.637C222.472 35.1348 222.639 28.8072 221.695 27.9746C221.362 27.8081 221.14 28.1411 220.974 28.9737C220.752 29.8063 220.53 32.637 220.141 32.637C219.031 32.8036 218.087 34.3022 216.977 34.8017C214.813 35.8008 212.315 36.4669 210.095 36.3004C210.095 35.9673 210.206 35.6343 210.206 35.3013C211.094 30.8054 211.482 25.8099 211.149 21.3141L211.094 20.648Z" fill="#F5D3A0"/>
<path d="M7.55917 27.9743C7.55917 27.9743 7.78118 27.6413 7.89219 27.4748C8.72476 27.4748 9.44632 27.4748 10.2789 28.1408C11.0004 28.6404 12.3881 30.3055 12.277 33.1363C12.277 33.1363 12.277 33.1363 12.3325 33.1363C12.7766 28.4739 10.7229 25.9761 9.00228 25.6431C9.2243 25.3101 9.39081 25.1436 9.61283 24.8105C10.1679 24.9771 10.6674 25.1436 11.2225 25.3101C12.166 25.6431 12.9431 26.1427 13.7757 27.6413C13.8312 27.6413 13.9422 27.3083 13.8867 27.1417C13.2206 25.4766 12.6656 24.4775 11.833 23.4784C11.611 23.3119 11.3335 22.9789 11.0559 22.8124C11.6665 21.9798 12.277 21.3137 12.9431 20.4812C13.2206 20.1481 13.4426 19.8151 13.7202 19.3156C13.8312 19.3156 13.9422 19.3156 14.0532 19.6486C14.2752 19.9816 14.5527 20.1481 14.7747 20.4812C15.3298 20.9807 15.8848 21.3137 16.4399 21.9798C16.4399 21.9798 16.5509 21.9798 16.4954 21.8133C15.9958 20.8142 15.4408 19.9816 14.8857 18.9825C14.7747 18.6495 14.6082 18.483 14.4972 18.3165C14.8857 17.8169 15.2188 17.3174 15.6073 16.8179C15.8293 16.9844 16.1068 17.1509 16.3289 17.3174C16.5509 17.3174 16.7729 17.3174 16.9949 17.4839C17.1614 17.4839 17.3279 17.8169 17.4945 17.8169C17.4945 17.8169 17.6055 17.6504 17.4945 17.4839C17.3834 17.4839 17.2724 16.9844 17.1614 16.8179C16.9394 16.6513 16.7729 16.3183 16.5509 15.9853C16.4399 15.9853 16.3289 15.6523 16.2734 15.6523C16.6619 15.1527 17.0504 14.4867 17.4945 13.9871C17.4945 13.9871 17.4945 13.9871 17.55 13.9871C17.55 13.9871 17.6055 13.9871 17.661 13.9871C17.8275 13.9871 17.9385 13.9871 18.105 13.9871C18.3825 13.9871 18.66 14.3201 18.9931 13.9871C18.9931 13.9871 19.1041 13.4876 18.9931 13.6541C18.7156 13.6541 18.438 13.1545 18.1605 12.8215C18.549 12.1555 18.9931 11.4894 19.4926 10.8233C19.6036 10.8233 19.7146 10.8233 19.8256 10.8233C20.3252 10.9899 20.8247 10.8233 21.3243 10.8233C21.3243 10.8233 21.4908 10.4903 21.3798 10.3238C21.1022 10.1573 20.8247 9.82425 20.5472 9.65774C20.6582 9.65774 20.8247 9.49122 20.9357 9.32471H21.0467C21.0467 9.32471 21.1022 9.32471 21.1577 9.32471C21.2688 9.32471 21.3798 9.32471 21.4353 9.49122C21.7683 9.49122 22.0458 9.49122 22.3788 9.49122C21.8793 10.6568 21.3243 11.8224 20.9357 12.8215C19.5481 16.3183 18.3825 19.9816 17.1614 24.1445C16.2179 27.4748 15.2743 30.8051 14.4417 34.3019C13.9422 36.3 13.1651 44.1262 12.4991 39.1308C12.2215 36.9661 10.5564 33.6358 9.89035 32.6367C8.72476 30.8051 7.61467 29.9725 6.33807 30.6385C6.22706 30.6385 6.11605 30.6385 6.06055 30.9716C6.50458 29.806 7.00412 28.8069 7.55917 27.8078V27.9743Z" fill="#F5D3A0"/>
<path d="M33.868 277.413C32.7024 277.08 31.4813 276.913 30.3157 276.58C30.3157 276.247 30.3713 275.748 30.4268 275.415C30.5378 274.749 30.2047 274.749 30.1492 275.248C30.0937 275.581 29.9827 276.081 29.9827 276.58C29.6497 276.58 29.3167 276.414 28.9281 276.247C28.9836 275.914 29.0391 275.415 29.0946 274.915C29.0946 274.416 29.2057 274.083 29.2612 273.583C29.2612 273.25 29.1502 273.25 29.0946 273.583C28.9281 274.416 28.7061 275.415 28.4841 276.247C28.0956 276.081 27.707 275.914 27.263 275.581C27.3185 275.248 27.374 274.915 27.4295 274.582C27.6515 273.583 27.8736 272.417 28.0956 271.252C28.0956 270.919 28.0956 270.919 27.9846 271.252C27.7625 272.084 27.5405 272.75 27.3185 273.583C27.152 274.249 26.9855 274.749 26.819 275.248C25.8754 274.416 24.9873 273.25 24.0993 271.751C24.2658 271.252 24.4323 270.919 24.5988 270.586C24.8208 269.92 24.9873 269.254 25.1538 268.421C25.4869 267.089 25.7644 265.923 25.8754 264.258C25.8754 264.092 25.8199 264.258 25.7644 264.258C25.4869 266.09 25.0428 267.255 24.5433 268.588C24.2658 269.42 23.8772 270.086 23.5997 271.085C23.4887 270.919 23.3222 270.586 23.2112 270.419C23.3777 270.086 23.4887 269.587 23.5997 269.254C23.7662 268.588 23.9327 267.921 24.0993 267.422C24.0993 267.422 24.0993 267.089 24.0993 267.255C23.8772 267.755 23.7107 268.255 23.4887 268.921C23.3222 269.254 23.1557 269.753 23.0447 270.253C22.1011 268.421 21.213 266.256 20.325 264.092C20.8245 263.759 21.435 262.593 21.7126 261.76C22.0456 260.928 22.2676 259.929 22.4896 258.93C22.7671 257.764 23.1002 256.599 23.3222 255.266C23.3222 255.1 23.3222 254.933 23.2112 255.1C22.7671 256.765 22.2121 258.763 21.6571 260.095C21.102 261.427 20.3805 261.594 19.8809 262.926C19.6034 262.26 19.3259 261.427 19.1039 260.761C19.5479 260.262 19.9364 259.263 20.3805 258.264C20.9355 256.932 21.6016 255.266 21.9346 253.268C21.6016 254.6 21.0465 255.599 20.6025 256.432C20.0474 257.598 19.4924 258.597 18.8263 259.096C18.8263 259.096 18.7153 259.096 18.7153 259.429C18.6598 259.263 18.5488 258.93 18.4933 258.763C18.7153 258.43 18.8818 257.931 19.0484 257.598C19.5479 256.432 19.9919 255.433 20.3805 253.934C20.3805 253.934 20.3805 253.601 20.3805 253.768C19.9919 254.767 19.6034 255.766 19.1039 256.265C18.8263 256.599 18.4933 257.098 18.2158 257.598C17.6052 255.766 16.9947 254.101 16.4396 252.436C16.9947 251.603 17.6607 249.605 17.9383 249.105C18.7153 247.274 19.7144 244.61 20.0474 241.612C20.0474 241.446 19.9919 241.446 19.9364 241.612C19.4924 244.443 18.3268 246.608 17.5497 248.273C17.1612 249.105 16.4951 250.271 16.1066 251.27C15.9401 250.771 15.8291 250.438 15.6626 249.938C15.8846 249.605 16.1066 249.105 16.2731 248.606C16.6062 247.607 16.9392 246.941 17.2167 245.775C17.2167 245.775 17.2167 245.442 17.2167 245.609C16.6617 246.941 16.0511 248.106 15.4406 249.105C14.719 246.941 13.9419 244.609 13.2204 242.445C13.6644 242.112 14.053 241.612 14.386 241.113C15.3851 239.281 16.3286 237.283 16.9392 234.286C16.9392 234.286 16.9392 234.119 16.8837 234.286C15.8846 237.949 14.275 240.114 12.7208 241.113C12.5543 240.613 12.4433 240.114 12.2768 239.614C12.4988 239.281 12.7208 238.948 12.9429 238.615C13.2759 237.949 13.6644 237.782 14.053 236.95C14.3305 236.284 14.608 235.451 14.8855 234.785C13.9975 236.617 12.9429 237.449 11.9438 238.615C11.6663 237.782 11.3887 236.783 11.1112 235.951C11.6108 235.451 12.0548 234.119 12.3323 233.12C11.9993 233.62 11.6663 234.119 11.3332 234.286C11.1667 234.286 10.8892 234.286 10.6672 234.619C10.1676 232.953 9.6126 231.288 9.11306 229.623C10.3342 229.956 12.1103 228.291 12.7764 226.959C14.4415 223.962 15.5516 218.467 15.8846 212.805C15.8846 212.805 15.8291 212.805 15.7736 212.805C15.2741 217.634 14.2195 221.464 12.9429 224.794C12.3323 226.293 11.1112 226.792 10.3342 227.292C9.89013 227.459 9.05756 227.958 8.50251 227.792C8.2805 227.125 8.05848 226.293 7.83646 225.627C7.83646 225.627 7.78096 225.46 7.72545 225.294C8.22499 225.46 8.83554 225.294 9.22407 224.961C10.3897 224.128 11.3332 222.13 12.2213 219.799C10.7782 222.13 9.00205 223.795 7.33692 224.128C6.94839 222.63 6.55986 220.964 6.17133 219.299C9.50159 220.298 12.6653 214.803 13.2759 204.313C12.2213 214.637 9.11306 217.135 5.94931 218.134C5.72729 217.301 5.50528 216.635 5.28326 215.969C6.39335 216.635 7.72545 215.969 8.61352 214.97C9.72361 213.971 10.9447 211.473 11.4998 208.476C11.4998 208.143 11.4442 208.143 11.3887 208.476C10.6117 211.64 9.39059 212.639 8.22499 213.638C7.61444 214.137 6.94839 214.304 6.28234 214.304C5.7828 214.304 5.33876 214.97 4.78372 214.97C4.61721 214.47 4.39519 213.971 4.28418 213.305C5.50528 213.804 7.0594 212.639 7.83646 211.64C10.0566 208.975 11.0557 204.48 12.1103 198.319C12.5543 195.654 13.5534 191.824 14.053 187.995C14.8855 197.153 16.9392 216.469 17.1612 218.633C17.6052 223.129 17.7718 229.124 18.5488 233.12C18.9928 235.285 20.1584 236.95 20.769 238.615C21.6571 240.946 22.4896 243.444 23.2667 246.108C24.7098 250.771 25.3759 258.264 26.597 263.592C27.596 268.088 29.2057 271.751 30.7598 274.749C32.2029 277.579 33.757 278.245 35.3111 279.244C34.9781 279.244 34.6451 279.244 34.3121 279.411L33.868 277.413Z" fill="#F5D3A0"/>
<path d="M355.127 262.76C355.016 265.757 354.572 268.255 353.962 270.752C353.962 270.752 353.962 270.752 353.906 271.085C354.739 266.09 354.739 260.262 353.129 255.932C353.129 255.932 353.018 255.932 353.074 256.099C353.684 259.096 353.906 263.259 353.74 266.756C353.573 269.753 352.852 271.918 352.408 274.582C351.575 275.748 350.632 276.081 349.688 276.247C349.744 275.914 349.799 275.581 349.855 275.248C350.132 273.75 350.243 272.084 350.354 270.419C350.354 270.086 350.243 270.419 350.188 270.419C349.966 271.751 349.799 273.083 349.522 274.249C349.41 274.915 349.244 275.581 349.077 276.247C348.966 276.247 348.911 276.247 348.8 276.247C348.411 276.247 347.967 276.247 347.579 276.247C348.023 274.582 348.356 272.251 348.578 270.419C349.022 266.922 348.245 262.76 347.69 259.929C348.078 263.259 348.411 266.756 348.078 270.253C347.856 272.417 347.412 274.249 347.024 276.081C345.47 275.914 343.916 275.248 342.417 274.749C342.528 274.083 342.583 273.25 342.639 272.584C342.75 271.085 342.75 269.587 342.583 267.922C342.583 269.753 342.472 271.418 342.25 273.083C342.195 273.583 342.084 274.249 342.028 274.749C341.806 274.749 341.584 274.749 341.362 274.749C341.529 274.749 341.695 274.749 341.862 274.582C341.307 274.416 340.696 274.249 340.141 274.083C340.141 274.083 340.141 274.083 340.086 274.083C340.197 273.083 340.308 272.084 340.252 271.252C340.141 268.421 339.642 265.757 339.309 263.093C339.309 262.76 339.142 263.093 339.142 263.426C339.253 265.257 339.364 266.922 339.42 268.754C339.475 270.253 339.42 271.918 339.253 273.416C339.253 273.416 339.253 273.75 339.253 273.916C337.866 273.583 245.34 273.416 243.952 273.416C244.23 271.085 244.341 268.088 244.063 266.09C244.063 265.923 243.952 266.09 243.952 266.256C244.008 268.255 243.73 269.92 243.508 271.751C243.508 272.251 243.342 272.917 243.231 273.416C242.787 273.416 242.342 273.583 241.898 273.75C242.676 268.754 242.453 263.259 241.288 258.763C241.288 258.763 241.177 258.763 241.177 259.096C241.843 263.592 242.009 269.42 241.177 273.916C240.011 274.083 238.901 274.249 237.791 274.416C237.791 274.416 238.235 272.584 238.291 271.918C238.568 269.254 238.346 266.922 238.124 264.258C238.124 263.925 237.958 264.258 237.958 264.425C237.958 266.756 238.124 268.921 237.791 271.085C237.625 272.251 237.292 273.25 237.07 274.249C236.57 274.249 236.015 274.249 235.515 274.249C236.848 271.085 236.515 264.258 235.682 260.428C235.682 260.428 235.571 260.428 235.571 260.595C235.904 263.426 235.904 266.589 235.682 269.42C235.515 271.085 235.182 272.417 235.016 274.083C234.849 274.083 234.738 274.083 234.572 274.083C234.572 274.083 234.738 273.083 234.794 272.417C234.905 271.252 234.96 269.92 234.905 268.754H234.849C234.738 270.419 234.516 271.918 234.183 273.25C234.183 273.416 234.072 273.75 234.017 273.916C233.406 273.916 232.74 273.583 232.13 273.416C232.463 271.751 232.685 269.587 232.796 267.755C232.962 264.924 232.352 261.927 231.908 259.596H231.852C232.074 262.094 232.296 264.591 232.185 267.089C232.13 269.087 231.741 271.085 231.519 273.083C231.131 273.083 230.687 272.917 230.298 272.75C230.409 271.918 230.52 271.252 230.576 270.419C230.687 269.087 230.742 267.755 230.687 266.423C230.687 266.256 230.576 266.423 230.576 266.423C230.465 267.922 230.243 269.254 230.076 270.752C229.965 271.252 229.854 271.918 229.687 272.417C228.91 272.251 228.133 272.084 227.301 271.918C227.523 271.085 227.634 270.253 227.745 269.42C228.189 265.424 227.967 261.927 227.023 258.597C227.634 261.76 227.689 264.591 227.301 268.088C227.19 269.087 227.023 270.419 226.801 271.585C226.801 271.585 226.746 271.585 226.69 271.585C226.524 271.585 226.413 271.585 226.246 271.585C226.302 271.252 226.357 270.919 226.413 270.586C226.635 269.087 226.968 267.755 226.857 266.09H226.801C226.801 267.922 226.357 269.254 226.024 270.586C225.913 270.919 225.802 271.252 225.691 271.585C225.247 271.585 224.803 271.918 224.359 272.084C225.247 269.42 225.858 265.757 225.802 261.594C225.802 257.931 225.136 255.266 224.248 254.434C225.636 253.268 227.356 254.434 228.688 254.101C230.576 253.934 232.407 255.1 234.294 254.767C238.457 254.101 333.592 257.265 337.755 256.599C337.977 256.599 338.143 256.599 338.31 256.599C338.754 257.098 339.142 257.931 339.42 258.763C339.42 258.93 339.531 259.096 339.531 259.263C339.531 259.263 339.586 259.429 339.642 259.596C339.919 260.595 340.141 261.76 340.308 263.259C340.419 264.258 340.863 262.926 340.918 262.427C341.029 260.595 340.918 256.432 341.362 256.432C342.639 256.432 344.027 255.932 345.248 255.1C345.581 254.933 345.914 254.6 346.302 254.434C346.746 254.267 347.19 254.101 347.69 253.768C348.245 253.435 348.8 253.102 349.355 252.769C349.466 252.769 349.633 252.769 349.799 252.602C349.91 252.602 350.188 252.436 350.576 252.103C351.076 251.77 351.631 251.437 352.186 251.27C352.463 250.937 352.741 250.604 353.018 250.438C353.185 250.438 353.351 250.438 353.462 250.271C353.573 250.271 353.684 250.271 353.795 250.271C353.795 250.271 353.851 250.271 353.906 250.271C354.073 250.604 354.184 252.269 354.295 252.935C354.517 254.101 354.572 255.433 354.85 256.765C354.905 257.265 355.016 257.598 355.072 258.097C355.127 259.429 355.183 260.761 355.183 262.094L355.127 262.76Z" fill="#F5D3A0"/>
<path d="M466.635 248.273C466.136 252.103 465.414 255.766 464.526 258.93C464.415 258.763 464.415 258.43 464.304 258.264C464.193 257.931 464.082 257.598 463.971 257.265C463.971 257.265 463.805 257.265 463.86 257.598C463.916 257.931 464.027 258.43 464.082 258.763C464.082 259.096 464.082 259.429 464.193 259.762C464.193 259.762 464.193 259.763 464.304 259.929C464.027 260.928 463.694 261.927 463.416 262.926C463.416 262.427 463.305 262.094 463.25 261.761C463.028 260.762 462.695 259.929 462.306 259.263C462.306 259.263 462.195 259.263 462.251 259.429C462.473 260.262 462.75 261.261 462.861 262.427C462.917 263.093 462.861 263.759 462.861 264.425C462.584 265.257 462.251 266.09 461.918 266.923C461.918 266.423 461.807 266.09 461.751 265.757C461.64 264.758 461.418 263.925 461.14 263.259C461.362 264.092 461.418 265.091 461.473 266.257C461.473 266.756 461.473 267.589 461.473 268.088C461.362 268.421 461.251 268.754 461.14 268.921C460.918 269.42 460.696 270.086 460.474 270.586C460.474 269.753 460.474 268.754 460.308 268.088C459.975 266.59 459.531 265.757 458.976 264.758C459.364 266.257 459.642 267.589 459.753 269.42C459.753 270.086 459.753 271.085 459.753 271.918C459.42 272.584 459.142 273.25 458.809 273.916C458.698 274.249 458.587 274.416 458.476 274.749C458.532 273.916 458.587 272.917 458.532 272.251C458.421 271.085 458.088 269.587 457.81 268.754C457.81 268.754 457.699 268.754 457.755 268.921C457.977 270.086 458.143 271.918 458.143 273.084C458.143 274.083 457.921 274.915 457.977 275.914C457.866 276.081 457.755 276.414 457.644 276.747C457.422 277.246 457.255 277.58 457.033 277.913C457.255 276.081 457.366 274.249 457.2 272.085C456.978 269.254 456.09 268.088 455.312 266.923C455.868 268.588 456.256 270.086 456.478 272.418C456.7 274.416 456.645 276.414 456.589 278.412C456.256 278.912 455.923 279.411 455.59 279.744C455.701 277.08 455.646 274.083 455.035 271.918C454.646 270.752 452.87 264.758 452.26 265.091C454.091 263.592 455.979 263.592 457.866 262.926C459.309 262.427 460.474 260.262 461.695 257.931C463.305 254.767 465.026 251.936 466.524 248.273C466.691 247.94 466.802 247.44 466.913 247.107C466.913 247.274 466.913 247.607 466.857 247.773L466.635 248.273Z" fill="#F5D3A0"/>
<path d="M466.914 130.048C466.803 132.212 466.803 134.377 466.803 136.542C466.747 146.866 466.803 157.19 466.803 167.513C466.803 174.674 466.803 182 466.803 189.16C465.47 190.492 464.194 191.991 462.862 193.49C462.14 194.156 461.419 194.156 460.864 195.821C460.697 196.32 460.531 197.653 460.864 197.986C462.418 199.484 464.083 199.318 465.637 199.817C466.248 199.817 466.525 200.483 466.525 202.981C466.525 209.642 466.803 216.302 466.914 222.963C466.969 226.793 467.08 230.622 467.136 234.452V235.285C467.136 235.285 467.136 235.784 467.136 235.951C467.08 235.951 466.969 236.284 466.914 236.45C466.858 236.617 466.747 236.95 466.692 237.116C466.803 236.617 466.47 237.449 466.47 237.449C465.97 238.282 465.415 238.948 464.86 239.281C464.693 239.281 464.527 239.947 464.527 240.613C464.527 241.279 464.749 241.612 464.971 241.446C464.971 241.446 465.082 241.446 465.137 241.446C465.248 241.779 465.359 241.945 465.47 242.112C465.859 242.944 466.248 244.776 466.747 244.61C466.414 247.94 465.193 249.272 464.305 250.937C462.584 254.267 460.864 257.764 459.032 260.595C458.199 261.927 456.645 261.594 455.591 261.927C454.647 262.26 453.648 263.259 452.704 263.925C452.26 264.258 451.594 264.758 451.428 266.09C451.428 266.09 451.428 266.423 451.428 266.59C452.26 268.255 453.037 269.087 453.704 271.418C454.481 274.416 454.703 277.08 454.647 280.577C454.481 280.577 454.314 280.577 454.148 280.41C453.981 280.41 453.759 280.41 453.593 280.41C452.926 279.911 452.316 279.411 451.594 278.912C450.262 278.079 448.986 279.411 447.709 280.577C445.544 282.575 443.324 283.241 441.049 283.907C439.772 284.24 438.495 284.573 437.163 284.573C436.497 284.573 435.387 285.406 434.777 284.24C434.555 283.74 434.499 282.575 434.443 281.409C434.332 280.577 434.277 279.411 434.221 278.079C434.055 275.748 433.833 273.417 433.666 270.919C433.555 270.919 433.444 271.085 433.389 271.418C432.667 273.916 432.279 277.08 431.89 280.077C431.724 281.243 431.446 282.075 431.058 282.575C426.673 281.909 422.233 281.409 417.792 281.909C413.019 282.575 366.784 279.078 362.066 278.745C361.566 278.745 361.178 278.745 360.845 278.412C359.402 276.414 359.235 274.083 359.124 271.585C359.18 269.587 359.124 267.589 358.957 265.757C358.846 264.258 358.458 263.093 358.569 261.428C358.569 260.595 358.68 259.929 358.68 259.096C358.624 257.764 358.069 258.597 357.958 259.263C357.625 260.762 357.459 262.593 357.126 264.092C356.904 264.924 356.737 265.923 356.571 266.756C356.571 265.757 356.515 264.758 356.46 263.925C356.404 262.76 356.404 261.761 356.293 260.595C356.293 260.428 356.293 260.095 356.238 259.929C356.238 258.597 356.127 257.098 356.016 255.766C355.849 254.934 355.738 253.934 355.572 253.102C355.572 252.769 355.516 252.269 355.405 251.936C355.183 250.604 355.128 248.939 354.85 247.607C354.85 247.274 354.684 247.107 354.573 247.274C353.962 247.773 353.407 248.606 352.797 249.439C352.741 249.439 352.685 249.439 352.63 249.439C351.353 250.105 350.021 250.604 348.745 251.27C348.523 251.27 348.301 251.27 348.134 251.437C347.246 251.77 346.414 252.436 345.525 252.935C344.97 253.102 344.415 253.435 343.86 253.601C342.861 253.934 341.807 254.267 340.808 254.434C340.586 255.766 340.419 257.265 340.364 258.93C340.364 259.429 340.253 259.596 340.142 259.596C339.808 257.764 339.364 256.266 338.976 254.434C338.754 253.268 338.088 254.101 337.533 254.767C336.645 254.767 244.563 254.767 243.619 254.6C239.29 253.934 234.905 252.935 230.576 251.936C228.522 251.437 226.413 250.771 224.359 251.936C224.137 251.936 223.915 252.269 223.693 252.436C223.416 252.935 223.138 253.601 222.916 254.267C222.472 255.433 222.028 256.932 221.751 258.597C221.418 260.928 221.584 262.76 221.751 264.758C221.862 264.758 221.973 264.758 222.028 264.425C222.75 262.76 223.971 262.427 224.914 262.427C224.914 263.925 224.692 265.757 224.304 267.589C223.693 270.752 222.306 271.252 221.307 272.084C219.697 273.084 218.087 272.751 216.422 272.584C214.48 272.417 212.592 272.084 210.65 272.084C209.928 272.084 209.373 272.085 208.652 272.418C208.652 272.418 208.485 271.585 208.374 271.252C207.597 267.922 207.819 263.426 207.819 259.762C207.819 257.931 207.097 259.096 207.042 260.262C206.82 264.591 205.932 267.922 205.321 271.585C205.099 272.751 204.988 273.583 204.933 274.083C203.823 274.749 202.657 274.915 201.547 275.248C201.047 275.248 200.492 275.581 199.993 275.748C197.773 275.748 41.3612 275.914 39.1411 276.247C35.6998 275.748 32.0365 272.917 29.3723 266.59C26.153 258.93 25.4315 246.941 22.6563 238.615C22.2677 237.449 21.6572 236.117 21.0466 234.619C20.8246 234.286 20.6026 233.786 20.3251 233.453C18.4379 230.456 18.2159 223.629 17.6609 217.967C16.4953 206.644 16.1067 193.157 14.1641 182.5C14.1086 182.167 13.9976 181.834 13.9421 181.667C13.9421 181.667 13.9421 181.501 13.9421 181.334C13.8866 181.001 13.8311 180.668 13.7756 180.502C12.3879 180.835 10.9448 181.834 9.66823 183.166C8.22511 184.498 7.22603 188.161 6.06044 190.659C5.89393 190.992 5.72741 191.991 6.00493 192.324C6.55998 192.99 8.61364 192.491 8.72465 193.989C8.89116 196.653 9.3907 199.151 10.0568 200.816C9.50171 202.814 8.83566 204.313 7.94759 205.312C6.33796 207.144 4.11778 208.309 3.1187 204.979C3.1187 204.646 3.0632 204.313 3.0077 203.814C2.95219 200.483 2.84118 197.32 2.84118 193.989C2.84118 187.995 3.28522 182.167 3.50724 176.006C3.56274 173.674 4.39531 171.01 3.61824 168.679C3.61824 168.679 3.61824 168.679 3.56274 168.513C4.39531 167.846 5.28338 167.014 6.06044 166.181C7.22603 164.849 9.72373 164.516 10.5563 161.352C10.7228 160.686 10.8338 159.521 10.4453 159.354C9.3352 158.855 3.0632 158.522 3.1187 156.857C3.17421 155.025 3.22971 153.36 3.28522 151.528C3.0632 147.532 2.95219 143.369 3.0077 139.373C3.0077 134.211 2.78568 129.715 1.8421 125.219C1.7866 124.886 1.8421 124.386 2.00862 124.22C3.39623 122.888 4.83934 123.387 6.22695 122.055C7.22603 121.056 8.22511 120.057 9.16869 118.725C9.16869 118.725 9.16869 118.725 9.05768 118.725C7.83658 117.393 7.05952 117.06 5.6164 117.06C2.95219 117.06 3.39623 114.895 3.0632 110.899C2.67467 106.569 2.78568 101.407 2.73017 96.9114C2.67467 92.582 3.17421 88.0861 3.0632 83.7568C3.0077 81.7586 2.28614 63.6085 1.95311 63.6085C4.39531 63.2755 6.94851 61.1108 9.27969 59.9452C10.9448 59.1126 12.61 58.9461 14.2196 57.947C14.4416 57.947 14.6081 57.1145 14.2751 56.948C11.0003 55.9489 7.61456 54.2837 4.3398 53.9507C4.17329 53.9507 4.17329 51.12 4.17329 48.2892C4.39531 44.9589 4.56182 41.4621 4.67283 37.9653C5.5609 34.302 6.72649 32.1373 8.78016 34.4685C9.61272 35.4676 10.3898 37.2993 11.1668 38.7979C12.1104 40.463 12.2214 41.9617 12.61 44.7924C12.61 45.1254 12.7765 44.9589 12.832 44.7924C13.5535 43.6268 13.8311 41.2956 14.2196 39.2974C15.0522 34.635 16.9393 30.8052 18.0494 26.8089C18.9375 23.8116 19.77 20.8143 20.5471 17.6506C21.3242 14.6533 22.3787 12.4886 23.2668 9.99091C24.2104 10.1574 25.2095 10.4905 26.2085 10.3239C29.0393 9.99091 31.4815 7.16017 34.3677 6.99365C35.2558 6.99365 200.77 7.99274 200.714 7.65971C201.047 11.1565 201.325 15.8189 202.158 19.6487C202.657 22.313 202.38 25.9763 203.046 28.6405C203.157 29.1401 203.379 28.3075 203.434 28.141C204.156 22.8125 205.543 19.8153 206.598 15.1529C206.931 14.8198 207.319 15.1529 207.819 15.9854C208.041 16.485 208.263 16.818 208.43 17.3175C208.985 18.8162 209.484 20.6478 209.54 20.9809C209.762 22.313 209.928 23.6451 209.984 24.9772C209.762 24.9772 209.484 25.4767 209.318 25.6433C208.929 25.9763 208.43 25.6433 208.152 26.8089C207.819 28.474 208.152 30.3057 208.263 31.9708C208.43 33.4694 208.652 36.3002 209.096 37.2993C209.096 37.2993 209.096 37.2993 209.151 37.2993C209.207 37.2993 209.318 37.2993 209.373 37.2993C209.762 37.2993 210.15 37.2993 210.539 37.2993C211.815 37.6323 213.092 37.9653 214.313 37.9653C214.424 37.9653 214.48 37.9653 214.591 37.9653C215.534 37.6323 216.422 37.1327 217.31 36.7997C217.921 36.4667 218.587 35.4676 219.197 34.9681C219.53 34.635 220.085 34.9681 220.418 34.4685C220.585 32.8034 220.918 31.4713 221.085 29.8061C221.14 28.9735 221.529 29.1401 221.529 29.8061C221.529 31.3047 221.862 32.9699 222.139 34.302C223.083 35.8006 224.415 33.6359 225.469 32.4703C227.412 30.3057 229.299 28.9735 231.353 28.141C233.684 27.3084 235.849 24.8107 237.292 32.1373C237.625 31.3047 237.958 30.4722 238.235 29.4731C238.901 26.4758 239.068 22.4795 238.513 19.4822C238.79 18.8162 239.068 18.1501 239.345 17.4841C239.345 17.4841 239.456 17.4841 239.456 17.151C239.568 16.818 239.679 16.485 239.79 16.3185C240.067 15.6524 240.289 15.1529 240.567 14.6533C240.567 14.6533 240.622 14.6533 240.678 14.4868C242.509 15.8189 340.919 16.9845 341.696 17.3175C343.805 18.1501 345.914 18.3166 348.134 18.4831C348.689 21.4804 349.3 24.4777 349.577 27.6414C349.577 28.141 349.688 28.3075 349.799 28.474C351.076 24.8107 350.743 18.1501 351.076 13.4877C351.353 9.65788 352.297 9.15834 353.518 9.49137C356.571 10.1574 356.016 18.6497 355.405 25.8098C357.126 25.8098 358.846 25.8098 360.512 26.6423C361.455 27.1419 362.51 28.9735 363.453 28.807C363.453 28.807 363.509 28.807 363.564 28.807C363.786 26.9754 364.064 25.3102 364.23 23.4786C364.23 22.8125 364.619 22.8125 364.674 23.4786C364.841 24.8107 365.008 26.1428 365.23 27.4749C366.062 27.3084 366.895 27.1419 367.783 26.4758C368.671 25.8098 369.503 25.1437 370.336 24.4777C372.168 22.979 416.127 21.6469 418.014 20.4813C419.79 19.4822 421.566 18.9827 423.343 18.6497C423.565 18.6497 423.787 18.6497 424.009 18.4831C424.009 17.9836 424.009 17.3175 424.009 16.818C424.009 16.818 424.009 16.6515 424.009 16.485C424.009 15.6524 424.009 14.6533 424.009 13.8207C424.009 13.1547 424.342 13.1547 424.453 13.6542C424.73 15.1529 425.063 16.6515 425.341 18.1501C425.563 18.1501 425.84 18.1501 426.062 18.1501C426.839 17.9836 427.672 17.3175 428.449 17.151C429.726 16.818 431.002 16.6515 432.279 16.9845C433 17.151 433.5 17.8171 433.944 19.4822C434.055 19.8153 434.221 20.1483 434.388 20.6478C434.499 19.6487 434.666 18.6497 434.777 17.6506C434.777 16.6515 434.777 15.4859 434.832 14.4868C435.165 13.8207 435.665 13.8207 436.22 13.9873C437.108 13.9873 437.996 14.6533 438.884 14.9863C439.994 15.4859 441.16 15.8189 442.103 17.6506C442.436 18.3166 442.658 19.1492 442.825 19.9818C442.825 19.9818 442.825 19.9818 442.825 20.1483C442.825 20.3148 442.936 20.6478 442.936 20.8143C443.158 22.1465 443.324 23.6451 443.546 25.3102C443.935 28.3075 443.824 31.8043 443.491 34.9681C443.491 35.4676 443.213 35.6341 443.102 35.3011C442.436 33.1364 441.77 31.1382 441.326 28.6405C440.16 30.9717 439.217 34.302 438.606 38.1318C438.162 41.1291 437.829 45.958 438.828 48.2892C439.05 48.7888 439.217 49.2883 439.383 49.7878C439.883 50.4539 440.327 51.2865 440.771 52.119C441.326 53.2846 441.881 54.6167 442.381 55.9489C444.379 59.9452 446.321 63.9416 448.32 68.1044C451.761 75.098 455.091 82.4247 458.477 89.5848C458.588 89.7513 458.643 89.9178 458.699 90.0843C459.032 90.7504 459.365 91.4164 459.754 92.0825C461.03 94.5802 462.251 97.0779 463.417 99.7421C464.36 101.907 465.359 103.905 465.97 106.902C465.97 106.902 465.97 106.902 465.97 107.069C465.97 107.069 466.026 107.402 466.081 107.568C466.137 107.901 466.081 108.401 465.915 108.567C463.472 110.732 460.864 110.732 458.366 112.231C459.198 112.73 460.087 112.897 460.919 113.23C462.64 113.896 464.582 113.563 466.192 115.561C466.359 115.728 466.414 116.394 466.303 116.727C466.192 117.06 465.415 119.058 464.804 120.556C465.026 121.222 465.359 121.889 465.526 122.388C465.915 123.387 466.137 124.386 466.359 125.718C466.525 126.884 466.47 128.216 466.359 129.382L466.914 130.048Z" fill="#F5D3A0"/>
<path d="M467.635 119.724C467.358 117.393 467.746 116.227 468.301 115.228C467.469 114.062 466.692 112.897 465.803 112.397C465.526 112.397 465.526 111.065 465.803 111.065C466.47 110.899 467.136 110.732 467.802 110.399C467.413 107.735 467.025 105.071 466.636 102.24C466.636 102.24 466.636 102.24 466.636 102.406C466.581 102.406 466.525 102.073 466.47 101.907C466.47 101.74 466.414 101.407 466.359 101.241C466.247 99.9086 466.137 98.5765 465.97 97.2444C465.748 95.5792 465.526 93.9141 465.304 92.2489C464.749 88.4191 464.083 84.7558 463.472 81.259C462.806 77.0961 462.029 73.0998 461.252 69.1034C460.142 64.108 459.032 59.2791 457.977 54.2837C456.867 49.9543 455.535 46.1245 454.314 41.9616C454.148 41.2956 453.926 40.6295 453.759 40.13C453.537 39.4639 453.371 38.9644 453.148 38.2983C451.705 33.9689 450.207 29.9726 448.597 26.3093C446.765 22.1464 444.878 19.4822 442.825 16.4849C442.103 15.4858 441.326 14.6533 440.604 13.9872C439.605 13.1546 438.551 12.4886 437.496 11.989C437.052 11.989 436.553 11.989 436.164 11.989C435.942 11.989 435.776 12.1555 435.554 12.3221H435.332C435.332 12.3221 435.332 5.32846 434.943 3.66332C434.61 1.99817 433.999 2.16469 433.5 0.832572C433.111 0.333029 432.723 0 432.334 0C430.447 0 428.671 1.49863 426.784 1.99817C425.896 2.49771 425.008 2.99726 424.175 3.33029C421.344 4.6624 376.386 5.32846 373.555 6.66057C370.891 7.82617 367.283 10.3239 364.563 8.49223C362.232 6.9936 359.679 5.99452 357.292 5.66149C356.349 5.66149 355.572 5.32846 354.795 5.32846C354.517 5.32846 354.24 5.49497 353.907 5.828C352.797 6.49406 351.52 7.32663 351.02 10.8234C350.909 11.8225 350.798 12.8216 350.632 13.6542C350.576 16.4849 349.91 22.979 349.855 22.3129C349.577 19.3157 348.8 14.3202 347.801 11.4895C346.969 12.8216 346.08 14.3202 345.192 14.3202C343.305 14.3202 341.363 13.6542 339.475 13.6542C337.644 13.6542 244.785 12.1555 242.953 11.8225C242.454 11.8225 241.843 11.8225 241.399 11.1565C241.177 11.8225 241.011 12.3221 240.733 12.8216C239.956 14.4867 239.179 15.9854 238.457 17.6505C238.346 17.817 238.18 17.6505 238.124 17.484C238.069 17.151 238.013 16.8179 237.958 16.4849C236.903 13.4877 235.738 10.1574 234.35 9.15829C233.018 8.1592 231.63 9.3248 230.354 10.6569C229.133 11.989 227.912 13.3211 226.635 14.3202C224.637 16.3184 222.639 18.1501 220.529 18.9826C217.532 19.9817 214.535 19.6487 211.593 17.151C210.65 16.3184 209.484 15.6523 208.374 14.6533C207.874 13.6542 207.43 12.1555 206.875 11.323C206.764 11.323 206.653 11.323 206.598 11.8225C206.265 13.4877 205.654 14.6533 205.155 15.9854C204.711 17.151 204.433 18.4831 204.045 19.8152C203.656 21.3138 203.268 22.6459 203.101 24.3111C203.101 24.3111 203.101 24.3111 203.101 24.1446C203.101 21.9799 202.99 19.3157 202.768 16.9845C202.324 13.8207 201.88 10.6569 201.436 7.49314C201.269 6.66057 201.158 5.99452 201.047 5.16194C198.716 4.16286 41.4167 5.32846 39.1411 5.16194C36.5324 4.82892 34.2567 4.82892 31.981 5.16194C31.3704 5.32846 30.7044 5.66149 30.0938 5.99452C29.0948 6.49406 28.0957 7.16012 27.0966 7.32663C26.153 7.49314 25.2095 6.9936 24.2659 6.49406C21.7127 5.16194 19.326 7.32663 17.0503 10.4904C15.0521 13.3211 13.1095 16.1519 11.1113 18.9826C9.00217 21.9799 7.00401 25.3102 5.11686 29.14C3.67374 32.1373 2.95219 34.968 3.00769 40.463C3.00769 44.1263 3.1742 47.9561 3.00769 51.786C2.95219 53.1181 2.84118 55.1162 2.50815 56.1153C2.50815 56.1153 2.50815 56.2818 2.56366 56.4484C2.67467 56.9479 2.95219 56.9479 3.1742 56.9479C6.22695 56.4484 9.3907 57.4474 12.4434 57.947C9.89024 57.614 7.44804 59.2791 5.00585 60.2782C2.89668 61.1108 -0.988626 59.9452 0.232471 66.1062C2.56366 77.9287 0.898524 91.5829 1.50907 103.905C1.67559 107.568 1.12054 115.061 1.95311 118.392C2.06412 118.891 2.50815 119.391 2.73017 119.391C4.3398 119.391 5.83842 119.058 7.33704 119.89C5.00585 121.222 2.17513 121.555 0.787515 125.219C1.45357 130.048 2.06412 134.877 2.06412 140.372C2.06412 146.866 1.67559 153.193 1.95311 159.687C2.23063 159.687 2.56366 159.687 2.89668 159.687C3.61824 160.02 4.3398 160.353 5.11686 160.686C6.50447 161.186 9.50171 161.685 9.33519 162.018C8.78015 163.184 8.1141 163.184 7.50355 163.351C6.44897 163.684 5.39438 164.683 4.3398 165.682C3.56274 166.514 2.78567 167.347 2.00861 168.346C2.84118 174.007 2.50815 181.501 2.23063 187.162C1.8976 194.322 1.62008 201.482 1.8976 208.476C3.78475 215.303 5.50539 222.297 7.50355 228.624C9.83473 236.284 12.2214 243.777 14.6636 250.937C16.9948 257.931 19.3815 264.758 21.9902 270.752C22.8228 272.584 23.5998 274.249 24.4879 276.081C25.9865 278.245 27.4296 279.245 28.9283 279.744C30.5379 280.91 32.2585 281.409 33.8126 281.409C36.2548 281.409 38.697 279.911 41.1392 279.411C41.3057 279.411 41.4722 279.411 41.5833 279.411C43.8034 279.411 201.325 280.244 203.712 277.579C204.045 277.579 204.378 277.579 204.711 277.746C204.877 277.746 205.044 277.746 205.099 277.246C205.543 275.581 205.876 273.417 206.209 271.418C206.209 271.085 206.32 270.752 206.376 270.419C206.542 269.587 206.653 268.754 206.82 268.088C206.931 268.088 207.042 268.255 207.042 268.588C207.375 272.75 208.041 276.081 208.818 279.411C209.484 276.58 210.761 277.579 211.871 277.746C213.98 277.912 216.089 278.412 218.143 277.746C220.196 277.246 222.25 275.581 224.304 275.748C225.192 275.748 226.08 275.914 226.968 276.081C228.078 276.081 229.133 276.247 230.243 276.58C234.572 276.913 238.901 276.58 243.175 276.58H243.397C244.452 276.913 336.645 277.413 337.699 277.579C340.752 278.079 343.805 278.578 346.858 279.245C349.189 279.744 351.187 280.244 353.019 276.081C353.629 275.415 354.184 274.249 354.684 273.083C355.017 272.417 355.516 271.585 355.905 271.252C355.905 271.751 355.96 272.417 356.071 272.917C356.182 273.916 356.682 272.917 356.737 272.251C356.959 270.253 357.237 268.588 357.792 267.089C357.847 267.089 357.958 267.089 358.014 267.422C358.014 267.589 358.014 267.922 358.014 268.088C358.236 272.584 358.402 277.08 358.68 281.576C359.235 282.408 360.068 282.575 361.4 281.909C361.677 281.909 361.899 281.909 361.955 281.909C364.119 281.909 366.562 283.74 368.56 285.239C371.335 287.237 416.349 286.571 419.235 285.905C423.343 285.073 427.45 285.572 431.557 285.905C432.112 282.408 432.778 279.245 433.333 275.914C433.389 275.415 433.666 275.415 433.722 275.914C434.055 277.912 434.055 280.077 434.11 282.408C434.11 283.74 434.221 285.239 434.277 286.738C435.054 287.404 436.109 286.571 436.886 286.738C438.995 287.404 441.271 285.905 443.38 285.905C445.877 285.905 448.042 282.408 450.484 282.242C451.317 282.242 452.094 282.575 452.926 283.074C452.926 283.074 453.037 283.074 453.093 283.241C453.204 283.241 453.315 283.574 453.426 283.574C453.759 284.073 454.092 284.739 454.314 285.572C454.37 285.905 454.536 285.572 454.647 285.572C455.702 282.741 457.2 281.243 458.366 278.911C458.477 278.745 458.588 278.412 458.699 278.245C458.865 277.912 458.976 277.746 459.143 277.413C460.198 275.248 461.141 272.917 461.918 270.586C463.361 266.589 464.582 262.094 465.748 257.265C466.359 254.6 467.025 251.77 467.358 248.606C467.524 247.107 467.857 245.442 467.802 243.777C467.802 243.111 467.802 242.611 467.802 242.112C467.58 241.446 467.247 241.113 466.914 240.78C467.413 240.28 467.857 239.614 468.135 238.615C467.802 232.62 467.58 226.626 467.469 220.631C467.358 216.136 467.302 211.64 467.358 207.144C467.358 204.313 467.524 201.316 467.413 198.485C466.747 198.152 466.137 197.819 465.47 197.652C464.527 197.319 463.583 196.32 462.64 196.653C462.362 196.653 462.362 195.488 462.64 195.321C463.75 194.322 464.915 193.823 466.026 192.824C466.581 192.324 467.136 191.491 467.635 190.825C467.469 185.164 467.857 179.003 468.079 173.508C468.246 169.845 468.301 165.848 468.468 162.018C468.468 150.029 468.412 138.04 468.523 125.885C468.301 123.887 467.968 122.055 467.691 119.89L467.635 119.724Z" fill="white"/>
</svg>
