<svg width="86" height="100" viewBox="0 0 86 100" fill="none" xmlns="http://www.w3.org/2000/svg">
<path d="M81.5101 37.2808V71.9159L42.9999 94.1508L4.46301 71.9159V27.4195L42.9999 5.15785L72.6108 22.2616L77.0738 19.696L42.9999 0L0 24.8272V74.4815L42.9999 99.3087L85.9998 74.4815V34.6886L81.5101 37.2808Z" fill="white"/>
<path d="M32.2033 71.916H25.7627V50.2958H47.2493C49.2804 50.269 51.2313 49.4406 52.6477 47.9974C54.0908 46.5543 54.8925 44.6034 54.8925 42.5723C54.8925 41.5568 54.7055 40.568 54.3313 39.6326C53.9304 38.6973 53.3692 37.8688 52.6477 37.174C51.9528 36.4524 51.0976 35.8912 50.189 35.4903C49.2536 35.0895 48.2648 34.9024 47.2493 34.9024H25.7627V28.3281H47.276C51.0442 28.3548 54.652 29.8514 57.2977 32.5239C59.9702 35.1964 61.4668 38.8042 61.4935 42.5456C61.5202 45.4319 60.6383 48.238 58.9814 50.5897C57.4581 52.8346 55.2934 54.5984 52.7813 55.6674C50.2959 56.4691 47.7036 56.8433 45.0846 56.8166H32.2033V71.916Z" fill="white"/>
<path d="M61.3596 71.3812H53.85L48.0508 61.2526C50.3491 61.119 52.6207 60.6379 54.7854 59.8896L61.3596 71.3812Z" fill="white"/>
<path d="M77.0205 30.0651L81.4835 32.5505L85.9198 30.0918V24.8805L81.4835 22.3149L77.0472 24.8805V30.0651H77.0205Z" fill="white"/>
</svg>
