<svg width="60" height="47" viewBox="0 0 60 47" fill="none" xmlns="http://www.w3.org/2000/svg">
<g clip-path="url(#clip0_2276_3597)">
<path d="M9.74615 35.8718C10.1082 35.5099 10.6061 35.2988 11.1341 35.2988H59.0195C59.8945 35.2988 60.332 36.3543 59.7135 36.9726L50.2541 46.4268C49.892 46.7887 49.3941 46.9998 48.8661 46.9998H0.98075C0.105719 46.9998 -0.331797 45.9443 0.28676 45.3261L9.74615 35.8718Z" fill="white"/>
<path d="M9.74615 0.572987C10.1233 0.2111 10.6212 0 11.1341 0H59.0195C59.8945 0 60.332 1.0555 59.7135 1.67372L50.2541 11.128C49.892 11.4899 49.3941 11.701 48.8661 11.701H0.98075C0.105719 11.701 -0.331797 10.6455 0.28676 10.0273L9.74615 0.572987Z" fill="white"/>
<path d="M50.2541 18.1096C49.892 17.7477 49.3941 17.5366 48.8661 17.5366H0.98075C0.105719 17.5366 -0.331797 18.5921 0.28676 19.2103L9.74615 28.6646C10.1082 29.0265 10.6061 29.2376 11.1341 29.2376H59.0195C59.8945 29.2376 60.332 28.1821 59.7135 27.5639L50.2541 18.1096Z" fill="white"/>
</g>
<defs>
<clipPath id="clip0_2276_3597">
<rect width="60" height="47" fill="white"/>
</clipPath>
</defs>
</svg>
