<svg width="42" height="42" viewBox="0 0 42 42" fill="none" xmlns="http://www.w3.org/2000/svg">
<path d="M7 0C3.134 0 0 3.134 0 7V35C0 38.866 3.134 42 7 42H35C38.866 42 42 38.866 42 35V7C42 3.134 38.866 0 35 0H7ZM9.08594 9H17.0234L22.6602 17.0098L29.5 9H32L23.7891 18.6133L33.9141 33H25.9785L19.4375 23.707L11.5 33H8.99999L18.3086 22.1035L9.08594 9ZM12.9141 11L27.0215 31H30.0859L15.9785 11H12.9141Z" fill="url(#paint0_linear_2229_3590)"/>
<defs>
<linearGradient id="paint0_linear_2229_3590" x1="3.346" y1="8.95809" x2="33.0282" y2="38.6431" gradientUnits="userSpaceOnUse">
<stop stop-color="#532770"/>
<stop offset="0.96" stop-color="#F7E3F6"/>
</linearGradient>
</defs>
</svg>
